G04 #@! TF.GenerationSoftware,KiCad,Pcbnew,(5.1.5)-3*
G04 #@! TF.CreationDate,2020-02-06T23:40:33-08:00*
G04 #@! TF.ProjectId,psinterface,7073696e-7465-4726-9661-63652e6b6963,rev?*
G04 #@! TF.SameCoordinates,Original*
G04 #@! TF.FileFunction,Profile,NP*
%FSLAX46Y46*%
G04 Gerber Fmt 4.6, Leading zero omitted, Abs format (unit mm)*
G04 Created by KiCad (PCBNEW (5.1.5)-3) date 2020-02-06 23:40:33*
%MOMM*%
%LPD*%
G04 APERTURE LIST*
%ADD10C,0.050000*%
G04 APERTURE END LIST*
D10*
X190400000Y-107400000D02*
X190400000Y-112200000D01*
X115600000Y-107400000D02*
X115600000Y-112200000D01*
X115600000Y-62700000D02*
X115600000Y-107400000D01*
X190400000Y-112200000D02*
X115600000Y-112200000D01*
X184200000Y-62700000D02*
X190400000Y-62700000D01*
X176600000Y-62700000D02*
X182800000Y-62700000D01*
X168900000Y-62700000D02*
X175200000Y-62700000D01*
X161300000Y-62700000D02*
X167500000Y-62700000D01*
X153700000Y-62700000D02*
X159900000Y-62700000D01*
X146100000Y-62700000D02*
X152300000Y-62700000D01*
X138500000Y-62700000D02*
X144700000Y-62700000D01*
X130800000Y-62700000D02*
X137100000Y-62700000D01*
X123200000Y-62700000D02*
X129400000Y-62700000D01*
X115600000Y-62700000D02*
X121800000Y-62700000D01*
X184200000Y-74800000D02*
X184200000Y-62700000D01*
X182800000Y-74800000D02*
X184200000Y-74800000D01*
X182800000Y-62700000D02*
X182800000Y-74800000D01*
X176600000Y-74800000D02*
X176600000Y-62700000D01*
X175200000Y-74800000D02*
X176600000Y-74800000D01*
X175200000Y-62700000D02*
X175200000Y-74800000D01*
X168900000Y-74800000D02*
X168900000Y-62700000D01*
X167500000Y-74800000D02*
X168900000Y-74800000D01*
X167500000Y-62700000D02*
X167500000Y-74800000D01*
X161300000Y-74800000D02*
X161300000Y-62700000D01*
X159900000Y-74800000D02*
X161300000Y-74800000D01*
X159900000Y-62700000D02*
X159900000Y-74800000D01*
X153700000Y-74800000D02*
X153700000Y-62700000D01*
X152300000Y-74800000D02*
X153700000Y-74800000D01*
X152300000Y-62700000D02*
X152300000Y-74800000D01*
X146100000Y-74800000D02*
X146100000Y-62700000D01*
X144700000Y-74800000D02*
X146100000Y-74800000D01*
X144700000Y-62700000D02*
X144700000Y-74800000D01*
X138500000Y-74800000D02*
X138500000Y-62700000D01*
X137100000Y-74800000D02*
X138500000Y-74800000D01*
X137100000Y-62700000D02*
X137100000Y-74800000D01*
X130800000Y-74800000D02*
X130800000Y-62700000D01*
X129400000Y-74800000D02*
X130800000Y-74800000D01*
X129400000Y-62700000D02*
X129400000Y-74800000D01*
X123200000Y-74800000D02*
X123200000Y-62700000D01*
X123100000Y-74800000D02*
X123200000Y-74800000D01*
X121800000Y-74800000D02*
X123100000Y-74800000D01*
X121800000Y-62700000D02*
X121800000Y-74800000D01*
X190400000Y-67300000D02*
X190400000Y-107400000D01*
X190400000Y-65700000D02*
X190400000Y-67300000D01*
X190400000Y-65700000D02*
X190400000Y-62700000D01*
M02*
