M48
; DRILL file {KiCad (5.1.5)-3} date 2/6/2020 11:40:36 PM
; FORMAT={-:-/ absolute / inch / decimal}
; #@! TF.CreationDate,2020-02-06T23:40:36-08:00
; #@! TF.GenerationSoftware,Kicad,Pcbnew,(5.1.5)-3
FMAT,2
INCH
T1C0.0157
T2C0.0197
T3C0.0354
T4C0.0394
T5C0.0551
T6C0.0591
T7C0.0669
T8C0.1260
T9C0.0571
%
G90
G05
T1
X5.5906Y-3.7008
X5.5906Y-3.8583
X5.5906Y-4.0551
X5.5906Y-4.2913
X5.8268Y-3.7008
X5.8268Y-3.8583
X5.8268Y-4.0551
X5.8268Y-4.2913
X6.0236Y-3.7008
X6.0236Y-3.8583
X6.0236Y-4.0551
X6.0236Y-4.2913
X6.1732Y-2.7835
X6.1732Y-2.8228
X6.1732Y-2.8622
X6.1732Y-2.9016
X6.2205Y-3.7008
X6.2205Y-3.8583
X6.2205Y-4.0551
X6.2205Y-4.2913
X6.4173Y-4.0551
X6.4173Y-4.2913
X6.4961Y-3.622
X6.4961Y-3.7008
X6.6142Y-3.1496
X6.6142Y-3.3071
X6.6142Y-3.4646
X6.6142Y-3.7402
X6.6142Y-4.0551
X6.6142Y-4.2913
X6.7732Y-2.8331
X6.7732Y-2.8724
X6.7732Y-2.9118
X6.7732Y-2.9512
X6.7732Y-2.9906
X6.7732Y-3.148
X6.811Y-4.0551
X6.811Y-4.2913
X6.8898Y-3.7008
X6.9291Y-3.1496
X7.0472Y-3.7008
X7.0472Y-3.8583
X7.0732Y-2.8087
X7.0732Y-2.848
X7.0732Y-2.8874
X7.0732Y-2.9268
X7.0732Y-2.9661
X7.2047Y-3.7008
X7.2047Y-3.8583
X7.3732Y-2.8039
X7.3732Y-2.8433
X7.3732Y-2.8827
X7.3732Y-2.922
X7.3732Y-2.9614
T2
X4.748Y-4.2126
X4.7757Y-4.1458
X4.7757Y-4.2794
X4.8425Y-4.1181
X4.8425Y-4.3071
X4.9093Y-4.1458
X4.9093Y-4.2794
X4.937Y-4.2126
T3
X7.2047Y-4.0945
X7.2047Y-4.1732
X7.2047Y-4.252
T4
X6.2764Y-3.7756
X6.3764Y-3.7756
X6.4764Y-3.7756
T5
X5.5512Y-3.3071
X5.5512Y-3.5236
X5.7165Y-3.3071
X5.7165Y-3.5236
X5.8819Y-3.3071
X5.8819Y-3.5236
X6.0472Y-3.3071
X6.0472Y-3.5236
X6.2126Y-3.3071
X6.2126Y-3.5236
X6.378Y-3.3071
X6.378Y-3.5236
X6.7717Y-3.3071
X6.7717Y-3.5236
X6.937Y-3.3071
X6.937Y-3.5236
X7.1024Y-3.3071
X7.1024Y-3.5236
X7.2677Y-3.3071
X7.2677Y-3.5236
T6
X7.2047Y-4.0118
X7.2047Y-4.3346
T7
X4.8425Y-3.274
X4.8425Y-3.4299
X4.8425Y-3.5858
X4.8425Y-3.7417
X4.8425Y-3.8976
T8
X4.8425Y-4.2126
X4.6732Y-2.6299
X4.9732Y-2.6299
X5.2732Y-2.6299
X5.5732Y-2.6299
X5.8732Y-2.6299
X6.1732Y-2.6299
X6.4732Y-2.6299
X6.7732Y-2.6299
X7.0732Y-2.6299
X7.3732Y-2.6299
T9
X4.7087Y-3.9567
T0
M30
