G04 #@! TF.GenerationSoftware,KiCad,Pcbnew,(5.1.5)-3*
G04 #@! TF.CreationDate,2020-02-24T19:51:40-08:00*
G04 #@! TF.ProjectId,psinterface,7073696e-7465-4726-9661-63652e6b6963,0.3*
G04 #@! TF.SameCoordinates,Original*
G04 #@! TF.FileFunction,Copper,L1,Top*
G04 #@! TF.FilePolarity,Positive*
%FSLAX46Y46*%
G04 Gerber Fmt 4.6, Leading zero omitted, Abs format (unit mm)*
G04 Created by KiCad (PCBNEW (5.1.5)-3) date 2020-02-24 19:51:40*
%MOMM*%
%LPD*%
G04 APERTURE LIST*
%ADD10C,0.100000*%
%ADD11O,2.700000X3.300000*%
%ADD12C,2.700000*%
%ADD13C,6.400000*%
%ADD14C,0.800000*%
%ADD15R,2.500000X1.500000*%
%ADD16O,2.500000X1.500000*%
%ADD17O,3.500000X2.200000*%
%ADD18R,2.499360X2.499360*%
%ADD19C,2.499360*%
%ADD20R,3.000000X3.000000*%
%ADD21C,1.600000*%
%ADD22C,3.810000*%
%ADD23C,1.270000*%
%ADD24C,5.588000*%
%ADD25C,2.794000*%
%ADD26C,4.572000*%
%ADD27C,0.254000*%
G04 APERTURE END LIST*
G04 #@! TA.AperFunction,ComponentPad*
D10*
G36*
X148624503Y-120351204D02*
G01*
X148648772Y-120354804D01*
X148672570Y-120360765D01*
X148695670Y-120369030D01*
X148717849Y-120379520D01*
X148738892Y-120392133D01*
X148758598Y-120406748D01*
X148776776Y-120423224D01*
X148793252Y-120441402D01*
X148807867Y-120461108D01*
X148820480Y-120482151D01*
X148830970Y-120504330D01*
X148839235Y-120527430D01*
X148845196Y-120551228D01*
X148848796Y-120575497D01*
X148850000Y-120600001D01*
X148850000Y-123399999D01*
X148848796Y-123424503D01*
X148845196Y-123448772D01*
X148839235Y-123472570D01*
X148830970Y-123495670D01*
X148820480Y-123517849D01*
X148807867Y-123538892D01*
X148793252Y-123558598D01*
X148776776Y-123576776D01*
X148758598Y-123593252D01*
X148738892Y-123607867D01*
X148717849Y-123620480D01*
X148695670Y-123630970D01*
X148672570Y-123639235D01*
X148648772Y-123645196D01*
X148624503Y-123648796D01*
X148599999Y-123650000D01*
X146400001Y-123650000D01*
X146375497Y-123648796D01*
X146351228Y-123645196D01*
X146327430Y-123639235D01*
X146304330Y-123630970D01*
X146282151Y-123620480D01*
X146261108Y-123607867D01*
X146241402Y-123593252D01*
X146223224Y-123576776D01*
X146206748Y-123558598D01*
X146192133Y-123538892D01*
X146179520Y-123517849D01*
X146169030Y-123495670D01*
X146160765Y-123472570D01*
X146154804Y-123448772D01*
X146151204Y-123424503D01*
X146150000Y-123399999D01*
X146150000Y-120600001D01*
X146151204Y-120575497D01*
X146154804Y-120551228D01*
X146160765Y-120527430D01*
X146169030Y-120504330D01*
X146179520Y-120482151D01*
X146192133Y-120461108D01*
X146206748Y-120441402D01*
X146223224Y-120423224D01*
X146241402Y-120406748D01*
X146261108Y-120392133D01*
X146282151Y-120379520D01*
X146304330Y-120369030D01*
X146327430Y-120360765D01*
X146351228Y-120354804D01*
X146375497Y-120351204D01*
X146400001Y-120350000D01*
X148599999Y-120350000D01*
X148624503Y-120351204D01*
G37*
G04 #@! TD.AperFunction*
D11*
X143300000Y-122000000D03*
X139100000Y-122000000D03*
X134900000Y-122000000D03*
X147500000Y-116500000D03*
X143300000Y-116500000D03*
X139100000Y-116500000D03*
X134900000Y-116500000D03*
G04 #@! TA.AperFunction,ComponentPad*
D10*
G36*
X127124503Y-120351204D02*
G01*
X127148772Y-120354804D01*
X127172570Y-120360765D01*
X127195670Y-120369030D01*
X127217849Y-120379520D01*
X127238892Y-120392133D01*
X127258598Y-120406748D01*
X127276776Y-120423224D01*
X127293252Y-120441402D01*
X127307867Y-120461108D01*
X127320480Y-120482151D01*
X127330970Y-120504330D01*
X127339235Y-120527430D01*
X127345196Y-120551228D01*
X127348796Y-120575497D01*
X127350000Y-120600001D01*
X127350000Y-123399999D01*
X127348796Y-123424503D01*
X127345196Y-123448772D01*
X127339235Y-123472570D01*
X127330970Y-123495670D01*
X127320480Y-123517849D01*
X127307867Y-123538892D01*
X127293252Y-123558598D01*
X127276776Y-123576776D01*
X127258598Y-123593252D01*
X127238892Y-123607867D01*
X127217849Y-123620480D01*
X127195670Y-123630970D01*
X127172570Y-123639235D01*
X127148772Y-123645196D01*
X127124503Y-123648796D01*
X127099999Y-123650000D01*
X124900001Y-123650000D01*
X124875497Y-123648796D01*
X124851228Y-123645196D01*
X124827430Y-123639235D01*
X124804330Y-123630970D01*
X124782151Y-123620480D01*
X124761108Y-123607867D01*
X124741402Y-123593252D01*
X124723224Y-123576776D01*
X124706748Y-123558598D01*
X124692133Y-123538892D01*
X124679520Y-123517849D01*
X124669030Y-123495670D01*
X124660765Y-123472570D01*
X124654804Y-123448772D01*
X124651204Y-123424503D01*
X124650000Y-123399999D01*
X124650000Y-120600001D01*
X124651204Y-120575497D01*
X124654804Y-120551228D01*
X124660765Y-120527430D01*
X124669030Y-120504330D01*
X124679520Y-120482151D01*
X124692133Y-120461108D01*
X124706748Y-120441402D01*
X124723224Y-120423224D01*
X124741402Y-120406748D01*
X124761108Y-120392133D01*
X124782151Y-120379520D01*
X124804330Y-120369030D01*
X124827430Y-120360765D01*
X124851228Y-120354804D01*
X124875497Y-120351204D01*
X124900001Y-120350000D01*
X127099999Y-120350000D01*
X127124503Y-120351204D01*
G37*
G04 #@! TD.AperFunction*
D11*
X121800000Y-122000000D03*
X117600000Y-122000000D03*
X113400000Y-122000000D03*
X109200000Y-122000000D03*
X105000000Y-122000000D03*
X126000000Y-116500000D03*
X121800000Y-116500000D03*
X117600000Y-116500000D03*
X113400000Y-116500000D03*
X109200000Y-116500000D03*
X105000000Y-116500000D03*
G04 #@! TA.AperFunction,ComponentPad*
D10*
G36*
X169124503Y-104151204D02*
G01*
X169148772Y-104154804D01*
X169172570Y-104160765D01*
X169195670Y-104169030D01*
X169217849Y-104179520D01*
X169238892Y-104192133D01*
X169258598Y-104206748D01*
X169276776Y-104223224D01*
X169293252Y-104241402D01*
X169307867Y-104261108D01*
X169320480Y-104282151D01*
X169330970Y-104304330D01*
X169339235Y-104327430D01*
X169345196Y-104351228D01*
X169348796Y-104375497D01*
X169350000Y-104400001D01*
X169350000Y-106599999D01*
X169348796Y-106624503D01*
X169345196Y-106648772D01*
X169339235Y-106672570D01*
X169330970Y-106695670D01*
X169320480Y-106717849D01*
X169307867Y-106738892D01*
X169293252Y-106758598D01*
X169276776Y-106776776D01*
X169258598Y-106793252D01*
X169238892Y-106807867D01*
X169217849Y-106820480D01*
X169195670Y-106830970D01*
X169172570Y-106839235D01*
X169148772Y-106845196D01*
X169124503Y-106848796D01*
X169099999Y-106850000D01*
X166900001Y-106850000D01*
X166875497Y-106848796D01*
X166851228Y-106845196D01*
X166827430Y-106839235D01*
X166804330Y-106830970D01*
X166782151Y-106820480D01*
X166761108Y-106807867D01*
X166741402Y-106793252D01*
X166723224Y-106776776D01*
X166706748Y-106758598D01*
X166692133Y-106738892D01*
X166679520Y-106717849D01*
X166669030Y-106695670D01*
X166660765Y-106672570D01*
X166654804Y-106648772D01*
X166651204Y-106624503D01*
X166650000Y-106599999D01*
X166650000Y-104400001D01*
X166651204Y-104375497D01*
X166654804Y-104351228D01*
X166660765Y-104327430D01*
X166669030Y-104304330D01*
X166679520Y-104282151D01*
X166692133Y-104261108D01*
X166706748Y-104241402D01*
X166723224Y-104223224D01*
X166741402Y-104206748D01*
X166761108Y-104192133D01*
X166782151Y-104179520D01*
X166804330Y-104169030D01*
X166827430Y-104160765D01*
X166851228Y-104154804D01*
X166875497Y-104151204D01*
X166900001Y-104150000D01*
X169099999Y-104150000D01*
X169124503Y-104151204D01*
G37*
G04 #@! TD.AperFunction*
D12*
X168000000Y-109460000D03*
X168000000Y-113420000D03*
X168000000Y-117380000D03*
X168000000Y-121340000D03*
D13*
X157000000Y-105000000D03*
D14*
X154600000Y-105000000D03*
X155302944Y-103302944D03*
X157000000Y-102600000D03*
X158697056Y-103302944D03*
X159400000Y-105000000D03*
X158697056Y-106697056D03*
X157000000Y-107400000D03*
X155302944Y-106697056D03*
D15*
X107000000Y-98000000D03*
D16*
X107000000Y-100000000D03*
X107000000Y-102000000D03*
D17*
X107000000Y-95900000D03*
X107000000Y-104100000D03*
G04 #@! TA.AperFunction,ComponentPad*
D10*
G36*
X143357224Y-132406741D02*
G01*
X143493126Y-132426901D01*
X143626399Y-132460284D01*
X143755757Y-132506569D01*
X143879955Y-132565310D01*
X143997798Y-132635943D01*
X144108151Y-132717785D01*
X144209949Y-132810051D01*
X144302215Y-132911849D01*
X144384057Y-133022202D01*
X144454690Y-133140045D01*
X144513431Y-133264243D01*
X144559716Y-133393601D01*
X144593099Y-133526874D01*
X144613259Y-133662776D01*
X144620000Y-133800000D01*
X144620000Y-136600000D01*
X144613259Y-136737224D01*
X144593099Y-136873126D01*
X144559716Y-137006399D01*
X144513431Y-137135757D01*
X144454690Y-137259955D01*
X144384057Y-137377798D01*
X144302215Y-137488151D01*
X144209949Y-137589949D01*
X144108151Y-137682215D01*
X143997798Y-137764057D01*
X143879955Y-137834690D01*
X143755757Y-137893431D01*
X143626399Y-137939716D01*
X143493126Y-137973099D01*
X143357224Y-137993259D01*
X143220000Y-138000000D01*
X140420000Y-138000000D01*
X140282776Y-137993259D01*
X140146874Y-137973099D01*
X140013601Y-137939716D01*
X139884243Y-137893431D01*
X139760045Y-137834690D01*
X139642202Y-137764057D01*
X139531849Y-137682215D01*
X139430051Y-137589949D01*
X139337785Y-137488151D01*
X139255943Y-137377798D01*
X139185310Y-137259955D01*
X139126569Y-137135757D01*
X139080284Y-137006399D01*
X139046901Y-136873126D01*
X139026741Y-136737224D01*
X139020000Y-136600000D01*
X139020000Y-133800000D01*
X139026741Y-133662776D01*
X139046901Y-133526874D01*
X139080284Y-133393601D01*
X139126569Y-133264243D01*
X139185310Y-133140045D01*
X139255943Y-133022202D01*
X139337785Y-132911849D01*
X139430051Y-132810051D01*
X139531849Y-132717785D01*
X139642202Y-132635943D01*
X139760045Y-132565310D01*
X139884243Y-132506569D01*
X140013601Y-132460284D01*
X140146874Y-132426901D01*
X140282776Y-132406741D01*
X140420000Y-132400000D01*
X143220000Y-132400000D01*
X143357224Y-132406741D01*
G37*
G04 #@! TD.AperFunction*
G04 #@! TA.AperFunction,ComponentPad*
G36*
X135737224Y-132406741D02*
G01*
X135873126Y-132426901D01*
X136006399Y-132460284D01*
X136135757Y-132506569D01*
X136259955Y-132565310D01*
X136377798Y-132635943D01*
X136488151Y-132717785D01*
X136589949Y-132810051D01*
X136682215Y-132911849D01*
X136764057Y-133022202D01*
X136834690Y-133140045D01*
X136893431Y-133264243D01*
X136939716Y-133393601D01*
X136973099Y-133526874D01*
X136993259Y-133662776D01*
X137000000Y-133800000D01*
X137000000Y-136600000D01*
X136993259Y-136737224D01*
X136973099Y-136873126D01*
X136939716Y-137006399D01*
X136893431Y-137135757D01*
X136834690Y-137259955D01*
X136764057Y-137377798D01*
X136682215Y-137488151D01*
X136589949Y-137589949D01*
X136488151Y-137682215D01*
X136377798Y-137764057D01*
X136259955Y-137834690D01*
X136135757Y-137893431D01*
X136006399Y-137939716D01*
X135873126Y-137973099D01*
X135737224Y-137993259D01*
X135600000Y-138000000D01*
X132800000Y-138000000D01*
X132662776Y-137993259D01*
X132526874Y-137973099D01*
X132393601Y-137939716D01*
X132264243Y-137893431D01*
X132140045Y-137834690D01*
X132022202Y-137764057D01*
X131911849Y-137682215D01*
X131810051Y-137589949D01*
X131717785Y-137488151D01*
X131635943Y-137377798D01*
X131565310Y-137259955D01*
X131506569Y-137135757D01*
X131460284Y-137006399D01*
X131426901Y-136873126D01*
X131406741Y-136737224D01*
X131400000Y-136600000D01*
X131400000Y-133800000D01*
X131406741Y-133662776D01*
X131426901Y-133526874D01*
X131460284Y-133393601D01*
X131506569Y-133264243D01*
X131565310Y-133140045D01*
X131635943Y-133022202D01*
X131717785Y-132911849D01*
X131810051Y-132810051D01*
X131911849Y-132717785D01*
X132022202Y-132635943D01*
X132140045Y-132565310D01*
X132264243Y-132506569D01*
X132393601Y-132460284D01*
X132526874Y-132426901D01*
X132662776Y-132406741D01*
X132800000Y-132400000D01*
X135600000Y-132400000D01*
X135737224Y-132406741D01*
G37*
G04 #@! TD.AperFunction*
G04 #@! TA.AperFunction,ComponentPad*
G36*
X158597224Y-132406741D02*
G01*
X158733126Y-132426901D01*
X158866399Y-132460284D01*
X158995757Y-132506569D01*
X159119955Y-132565310D01*
X159237798Y-132635943D01*
X159348151Y-132717785D01*
X159449949Y-132810051D01*
X159542215Y-132911849D01*
X159624057Y-133022202D01*
X159694690Y-133140045D01*
X159753431Y-133264243D01*
X159799716Y-133393601D01*
X159833099Y-133526874D01*
X159853259Y-133662776D01*
X159860000Y-133800000D01*
X159860000Y-136600000D01*
X159853259Y-136737224D01*
X159833099Y-136873126D01*
X159799716Y-137006399D01*
X159753431Y-137135757D01*
X159694690Y-137259955D01*
X159624057Y-137377798D01*
X159542215Y-137488151D01*
X159449949Y-137589949D01*
X159348151Y-137682215D01*
X159237798Y-137764057D01*
X159119955Y-137834690D01*
X158995757Y-137893431D01*
X158866399Y-137939716D01*
X158733126Y-137973099D01*
X158597224Y-137993259D01*
X158460000Y-138000000D01*
X155660000Y-138000000D01*
X155522776Y-137993259D01*
X155386874Y-137973099D01*
X155253601Y-137939716D01*
X155124243Y-137893431D01*
X155000045Y-137834690D01*
X154882202Y-137764057D01*
X154771849Y-137682215D01*
X154670051Y-137589949D01*
X154577785Y-137488151D01*
X154495943Y-137377798D01*
X154425310Y-137259955D01*
X154366569Y-137135757D01*
X154320284Y-137006399D01*
X154286901Y-136873126D01*
X154266741Y-136737224D01*
X154260000Y-136600000D01*
X154260000Y-133800000D01*
X154266741Y-133662776D01*
X154286901Y-133526874D01*
X154320284Y-133393601D01*
X154366569Y-133264243D01*
X154425310Y-133140045D01*
X154495943Y-133022202D01*
X154577785Y-132911849D01*
X154670051Y-132810051D01*
X154771849Y-132717785D01*
X154882202Y-132635943D01*
X155000045Y-132565310D01*
X155124243Y-132506569D01*
X155253601Y-132460284D01*
X155386874Y-132426901D01*
X155522776Y-132406741D01*
X155660000Y-132400000D01*
X158460000Y-132400000D01*
X158597224Y-132406741D01*
G37*
G04 #@! TD.AperFunction*
G04 #@! TA.AperFunction,ComponentPad*
G36*
X166217224Y-132406741D02*
G01*
X166353126Y-132426901D01*
X166486399Y-132460284D01*
X166615757Y-132506569D01*
X166739955Y-132565310D01*
X166857798Y-132635943D01*
X166968151Y-132717785D01*
X167069949Y-132810051D01*
X167162215Y-132911849D01*
X167244057Y-133022202D01*
X167314690Y-133140045D01*
X167373431Y-133264243D01*
X167419716Y-133393601D01*
X167453099Y-133526874D01*
X167473259Y-133662776D01*
X167480000Y-133800000D01*
X167480000Y-136600000D01*
X167473259Y-136737224D01*
X167453099Y-136873126D01*
X167419716Y-137006399D01*
X167373431Y-137135757D01*
X167314690Y-137259955D01*
X167244057Y-137377798D01*
X167162215Y-137488151D01*
X167069949Y-137589949D01*
X166968151Y-137682215D01*
X166857798Y-137764057D01*
X166739955Y-137834690D01*
X166615757Y-137893431D01*
X166486399Y-137939716D01*
X166353126Y-137973099D01*
X166217224Y-137993259D01*
X166080000Y-138000000D01*
X163280000Y-138000000D01*
X163142776Y-137993259D01*
X163006874Y-137973099D01*
X162873601Y-137939716D01*
X162744243Y-137893431D01*
X162620045Y-137834690D01*
X162502202Y-137764057D01*
X162391849Y-137682215D01*
X162290051Y-137589949D01*
X162197785Y-137488151D01*
X162115943Y-137377798D01*
X162045310Y-137259955D01*
X161986569Y-137135757D01*
X161940284Y-137006399D01*
X161906901Y-136873126D01*
X161886741Y-136737224D01*
X161880000Y-136600000D01*
X161880000Y-133800000D01*
X161886741Y-133662776D01*
X161906901Y-133526874D01*
X161940284Y-133393601D01*
X161986569Y-133264243D01*
X162045310Y-133140045D01*
X162115943Y-133022202D01*
X162197785Y-132911849D01*
X162290051Y-132810051D01*
X162391849Y-132717785D01*
X162502202Y-132635943D01*
X162620045Y-132565310D01*
X162744243Y-132506569D01*
X162873601Y-132460284D01*
X163006874Y-132426901D01*
X163142776Y-132406741D01*
X163280000Y-132400000D01*
X166080000Y-132400000D01*
X166217224Y-132406741D01*
G37*
G04 #@! TD.AperFunction*
G04 #@! TA.AperFunction,ComponentPad*
G36*
X150977224Y-132406741D02*
G01*
X151113126Y-132426901D01*
X151246399Y-132460284D01*
X151375757Y-132506569D01*
X151499955Y-132565310D01*
X151617798Y-132635943D01*
X151728151Y-132717785D01*
X151829949Y-132810051D01*
X151922215Y-132911849D01*
X152004057Y-133022202D01*
X152074690Y-133140045D01*
X152133431Y-133264243D01*
X152179716Y-133393601D01*
X152213099Y-133526874D01*
X152233259Y-133662776D01*
X152240000Y-133800000D01*
X152240000Y-136600000D01*
X152233259Y-136737224D01*
X152213099Y-136873126D01*
X152179716Y-137006399D01*
X152133431Y-137135757D01*
X152074690Y-137259955D01*
X152004057Y-137377798D01*
X151922215Y-137488151D01*
X151829949Y-137589949D01*
X151728151Y-137682215D01*
X151617798Y-137764057D01*
X151499955Y-137834690D01*
X151375757Y-137893431D01*
X151246399Y-137939716D01*
X151113126Y-137973099D01*
X150977224Y-137993259D01*
X150840000Y-138000000D01*
X148040000Y-138000000D01*
X147902776Y-137993259D01*
X147766874Y-137973099D01*
X147633601Y-137939716D01*
X147504243Y-137893431D01*
X147380045Y-137834690D01*
X147262202Y-137764057D01*
X147151849Y-137682215D01*
X147050051Y-137589949D01*
X146957785Y-137488151D01*
X146875943Y-137377798D01*
X146805310Y-137259955D01*
X146746569Y-137135757D01*
X146700284Y-137006399D01*
X146666901Y-136873126D01*
X146646741Y-136737224D01*
X146640000Y-136600000D01*
X146640000Y-133800000D01*
X146646741Y-133662776D01*
X146666901Y-133526874D01*
X146700284Y-133393601D01*
X146746569Y-133264243D01*
X146805310Y-133140045D01*
X146875943Y-133022202D01*
X146957785Y-132911849D01*
X147050051Y-132810051D01*
X147151849Y-132717785D01*
X147262202Y-132635943D01*
X147380045Y-132565310D01*
X147504243Y-132506569D01*
X147633601Y-132460284D01*
X147766874Y-132426901D01*
X147902776Y-132406741D01*
X148040000Y-132400000D01*
X150840000Y-132400000D01*
X150977224Y-132406741D01*
G37*
G04 #@! TD.AperFunction*
G04 #@! TA.AperFunction,ComponentPad*
G36*
X128117224Y-132406741D02*
G01*
X128253126Y-132426901D01*
X128386399Y-132460284D01*
X128515757Y-132506569D01*
X128639955Y-132565310D01*
X128757798Y-132635943D01*
X128868151Y-132717785D01*
X128969949Y-132810051D01*
X129062215Y-132911849D01*
X129144057Y-133022202D01*
X129214690Y-133140045D01*
X129273431Y-133264243D01*
X129319716Y-133393601D01*
X129353099Y-133526874D01*
X129373259Y-133662776D01*
X129380000Y-133800000D01*
X129380000Y-136600000D01*
X129373259Y-136737224D01*
X129353099Y-136873126D01*
X129319716Y-137006399D01*
X129273431Y-137135757D01*
X129214690Y-137259955D01*
X129144057Y-137377798D01*
X129062215Y-137488151D01*
X128969949Y-137589949D01*
X128868151Y-137682215D01*
X128757798Y-137764057D01*
X128639955Y-137834690D01*
X128515757Y-137893431D01*
X128386399Y-137939716D01*
X128253126Y-137973099D01*
X128117224Y-137993259D01*
X127980000Y-138000000D01*
X125180000Y-138000000D01*
X125042776Y-137993259D01*
X124906874Y-137973099D01*
X124773601Y-137939716D01*
X124644243Y-137893431D01*
X124520045Y-137834690D01*
X124402202Y-137764057D01*
X124291849Y-137682215D01*
X124190051Y-137589949D01*
X124097785Y-137488151D01*
X124015943Y-137377798D01*
X123945310Y-137259955D01*
X123886569Y-137135757D01*
X123840284Y-137006399D01*
X123806901Y-136873126D01*
X123786741Y-136737224D01*
X123780000Y-136600000D01*
X123780000Y-133800000D01*
X123786741Y-133662776D01*
X123806901Y-133526874D01*
X123840284Y-133393601D01*
X123886569Y-133264243D01*
X123945310Y-133140045D01*
X124015943Y-133022202D01*
X124097785Y-132911849D01*
X124190051Y-132810051D01*
X124291849Y-132717785D01*
X124402202Y-132635943D01*
X124520045Y-132565310D01*
X124644243Y-132506569D01*
X124773601Y-132460284D01*
X124906874Y-132426901D01*
X125042776Y-132406741D01*
X125180000Y-132400000D01*
X127980000Y-132400000D01*
X128117224Y-132406741D01*
G37*
G04 #@! TD.AperFunction*
G04 #@! TA.AperFunction,ComponentPad*
G36*
X173837224Y-132406741D02*
G01*
X173973126Y-132426901D01*
X174106399Y-132460284D01*
X174235757Y-132506569D01*
X174359955Y-132565310D01*
X174477798Y-132635943D01*
X174588151Y-132717785D01*
X174689949Y-132810051D01*
X174782215Y-132911849D01*
X174864057Y-133022202D01*
X174934690Y-133140045D01*
X174993431Y-133264243D01*
X175039716Y-133393601D01*
X175073099Y-133526874D01*
X175093259Y-133662776D01*
X175100000Y-133800000D01*
X175100000Y-136600000D01*
X175093259Y-136737224D01*
X175073099Y-136873126D01*
X175039716Y-137006399D01*
X174993431Y-137135757D01*
X174934690Y-137259955D01*
X174864057Y-137377798D01*
X174782215Y-137488151D01*
X174689949Y-137589949D01*
X174588151Y-137682215D01*
X174477798Y-137764057D01*
X174359955Y-137834690D01*
X174235757Y-137893431D01*
X174106399Y-137939716D01*
X173973126Y-137973099D01*
X173837224Y-137993259D01*
X173700000Y-138000000D01*
X170900000Y-138000000D01*
X170762776Y-137993259D01*
X170626874Y-137973099D01*
X170493601Y-137939716D01*
X170364243Y-137893431D01*
X170240045Y-137834690D01*
X170122202Y-137764057D01*
X170011849Y-137682215D01*
X169910051Y-137589949D01*
X169817785Y-137488151D01*
X169735943Y-137377798D01*
X169665310Y-137259955D01*
X169606569Y-137135757D01*
X169560284Y-137006399D01*
X169526901Y-136873126D01*
X169506741Y-136737224D01*
X169500000Y-136600000D01*
X169500000Y-133800000D01*
X169506741Y-133662776D01*
X169526901Y-133526874D01*
X169560284Y-133393601D01*
X169606569Y-133264243D01*
X169665310Y-133140045D01*
X169735943Y-133022202D01*
X169817785Y-132911849D01*
X169910051Y-132810051D01*
X170011849Y-132717785D01*
X170122202Y-132635943D01*
X170240045Y-132565310D01*
X170364243Y-132506569D01*
X170493601Y-132460284D01*
X170626874Y-132426901D01*
X170762776Y-132406741D01*
X170900000Y-132400000D01*
X173700000Y-132400000D01*
X173837224Y-132406741D01*
G37*
G04 #@! TD.AperFunction*
G04 #@! TA.AperFunction,ComponentPad*
G36*
X120497224Y-132406741D02*
G01*
X120633126Y-132426901D01*
X120766399Y-132460284D01*
X120895757Y-132506569D01*
X121019955Y-132565310D01*
X121137798Y-132635943D01*
X121248151Y-132717785D01*
X121349949Y-132810051D01*
X121442215Y-132911849D01*
X121524057Y-133022202D01*
X121594690Y-133140045D01*
X121653431Y-133264243D01*
X121699716Y-133393601D01*
X121733099Y-133526874D01*
X121753259Y-133662776D01*
X121760000Y-133800000D01*
X121760000Y-136600000D01*
X121753259Y-136737224D01*
X121733099Y-136873126D01*
X121699716Y-137006399D01*
X121653431Y-137135757D01*
X121594690Y-137259955D01*
X121524057Y-137377798D01*
X121442215Y-137488151D01*
X121349949Y-137589949D01*
X121248151Y-137682215D01*
X121137798Y-137764057D01*
X121019955Y-137834690D01*
X120895757Y-137893431D01*
X120766399Y-137939716D01*
X120633126Y-137973099D01*
X120497224Y-137993259D01*
X120360000Y-138000000D01*
X117560000Y-138000000D01*
X117422776Y-137993259D01*
X117286874Y-137973099D01*
X117153601Y-137939716D01*
X117024243Y-137893431D01*
X116900045Y-137834690D01*
X116782202Y-137764057D01*
X116671849Y-137682215D01*
X116570051Y-137589949D01*
X116477785Y-137488151D01*
X116395943Y-137377798D01*
X116325310Y-137259955D01*
X116266569Y-137135757D01*
X116220284Y-137006399D01*
X116186901Y-136873126D01*
X116166741Y-136737224D01*
X116160000Y-136600000D01*
X116160000Y-133800000D01*
X116166741Y-133662776D01*
X116186901Y-133526874D01*
X116220284Y-133393601D01*
X116266569Y-133264243D01*
X116325310Y-133140045D01*
X116395943Y-133022202D01*
X116477785Y-132911849D01*
X116570051Y-132810051D01*
X116671849Y-132717785D01*
X116782202Y-132635943D01*
X116900045Y-132565310D01*
X117024243Y-132506569D01*
X117153601Y-132460284D01*
X117286874Y-132426901D01*
X117422776Y-132406741D01*
X117560000Y-132400000D01*
X120360000Y-132400000D01*
X120497224Y-132406741D01*
G37*
G04 #@! TD.AperFunction*
G04 #@! TA.AperFunction,ComponentPad*
G36*
X105257224Y-132406741D02*
G01*
X105393126Y-132426901D01*
X105526399Y-132460284D01*
X105655757Y-132506569D01*
X105779955Y-132565310D01*
X105897798Y-132635943D01*
X106008151Y-132717785D01*
X106109949Y-132810051D01*
X106202215Y-132911849D01*
X106284057Y-133022202D01*
X106354690Y-133140045D01*
X106413431Y-133264243D01*
X106459716Y-133393601D01*
X106493099Y-133526874D01*
X106513259Y-133662776D01*
X106520000Y-133800000D01*
X106520000Y-136600000D01*
X106513259Y-136737224D01*
X106493099Y-136873126D01*
X106459716Y-137006399D01*
X106413431Y-137135757D01*
X106354690Y-137259955D01*
X106284057Y-137377798D01*
X106202215Y-137488151D01*
X106109949Y-137589949D01*
X106008151Y-137682215D01*
X105897798Y-137764057D01*
X105779955Y-137834690D01*
X105655757Y-137893431D01*
X105526399Y-137939716D01*
X105393126Y-137973099D01*
X105257224Y-137993259D01*
X105120000Y-138000000D01*
X102320000Y-138000000D01*
X102182776Y-137993259D01*
X102046874Y-137973099D01*
X101913601Y-137939716D01*
X101784243Y-137893431D01*
X101660045Y-137834690D01*
X101542202Y-137764057D01*
X101431849Y-137682215D01*
X101330051Y-137589949D01*
X101237785Y-137488151D01*
X101155943Y-137377798D01*
X101085310Y-137259955D01*
X101026569Y-137135757D01*
X100980284Y-137006399D01*
X100946901Y-136873126D01*
X100926741Y-136737224D01*
X100920000Y-136600000D01*
X100920000Y-133800000D01*
X100926741Y-133662776D01*
X100946901Y-133526874D01*
X100980284Y-133393601D01*
X101026569Y-133264243D01*
X101085310Y-133140045D01*
X101155943Y-133022202D01*
X101237785Y-132911849D01*
X101330051Y-132810051D01*
X101431849Y-132717785D01*
X101542202Y-132635943D01*
X101660045Y-132565310D01*
X101784243Y-132506569D01*
X101913601Y-132460284D01*
X102046874Y-132426901D01*
X102182776Y-132406741D01*
X102320000Y-132400000D01*
X105120000Y-132400000D01*
X105257224Y-132406741D01*
G37*
G04 #@! TD.AperFunction*
G04 #@! TA.AperFunction,ComponentPad*
G36*
X112877224Y-132406741D02*
G01*
X113013126Y-132426901D01*
X113146399Y-132460284D01*
X113275757Y-132506569D01*
X113399955Y-132565310D01*
X113517798Y-132635943D01*
X113628151Y-132717785D01*
X113729949Y-132810051D01*
X113822215Y-132911849D01*
X113904057Y-133022202D01*
X113974690Y-133140045D01*
X114033431Y-133264243D01*
X114079716Y-133393601D01*
X114113099Y-133526874D01*
X114133259Y-133662776D01*
X114140000Y-133800000D01*
X114140000Y-136600000D01*
X114133259Y-136737224D01*
X114113099Y-136873126D01*
X114079716Y-137006399D01*
X114033431Y-137135757D01*
X113974690Y-137259955D01*
X113904057Y-137377798D01*
X113822215Y-137488151D01*
X113729949Y-137589949D01*
X113628151Y-137682215D01*
X113517798Y-137764057D01*
X113399955Y-137834690D01*
X113275757Y-137893431D01*
X113146399Y-137939716D01*
X113013126Y-137973099D01*
X112877224Y-137993259D01*
X112740000Y-138000000D01*
X109940000Y-138000000D01*
X109802776Y-137993259D01*
X109666874Y-137973099D01*
X109533601Y-137939716D01*
X109404243Y-137893431D01*
X109280045Y-137834690D01*
X109162202Y-137764057D01*
X109051849Y-137682215D01*
X108950051Y-137589949D01*
X108857785Y-137488151D01*
X108775943Y-137377798D01*
X108705310Y-137259955D01*
X108646569Y-137135757D01*
X108600284Y-137006399D01*
X108566901Y-136873126D01*
X108546741Y-136737224D01*
X108540000Y-136600000D01*
X108540000Y-133800000D01*
X108546741Y-133662776D01*
X108566901Y-133526874D01*
X108600284Y-133393601D01*
X108646569Y-133264243D01*
X108705310Y-133140045D01*
X108775943Y-133022202D01*
X108857785Y-132911849D01*
X108950051Y-132810051D01*
X109051849Y-132717785D01*
X109162202Y-132635943D01*
X109280045Y-132565310D01*
X109404243Y-132506569D01*
X109533601Y-132460284D01*
X109666874Y-132426901D01*
X109802776Y-132406741D01*
X109940000Y-132400000D01*
X112740000Y-132400000D01*
X112877224Y-132406741D01*
G37*
G04 #@! TD.AperFunction*
D18*
X125800000Y-108000000D03*
D19*
X128975000Y-108000000D03*
X132150000Y-108000000D03*
D20*
X112800000Y-109500000D03*
X109300000Y-109500000D03*
X105800000Y-109500000D03*
D14*
X135000000Y-112500000D03*
X139000000Y-112500000D03*
X143000000Y-112500000D03*
X143000000Y-109500000D03*
X139000000Y-109500000D03*
X135000000Y-109500000D03*
X137000000Y-111000000D03*
X141000000Y-111000000D03*
X145000000Y-111000000D03*
X146500000Y-112500000D03*
X133000000Y-111000000D03*
X129500000Y-116500000D03*
X131500000Y-116500000D03*
X129500000Y-120000000D03*
X131500000Y-120000000D03*
X130500000Y-121500000D03*
X130500000Y-118000000D03*
X120000000Y-109400000D03*
X120000000Y-112500000D03*
X118000000Y-111000000D03*
X115700000Y-112500000D03*
D21*
X112100000Y-104300000D03*
X122000000Y-107400000D03*
D22*
X141820000Y-132400000D02*
X141820000Y-135200000D01*
X141820000Y-127307711D02*
X141820000Y-132400000D01*
X139100000Y-124587711D02*
X141820000Y-127307711D01*
X139100000Y-122000000D02*
X139100000Y-124587711D01*
X134900000Y-122000000D02*
X139100000Y-122000000D01*
X134900000Y-116500000D02*
X139100000Y-116500000D01*
X134900000Y-116500000D02*
X134900000Y-122000000D01*
X139100000Y-116500000D02*
X139100000Y-122000000D01*
D23*
X128975000Y-110575000D02*
X134900000Y-116500000D01*
X128975000Y-108000000D02*
X128975000Y-110575000D01*
D22*
X134200000Y-127287711D02*
X131912289Y-125000000D01*
X134200000Y-135200000D02*
X134200000Y-127287711D01*
X131912289Y-125000000D02*
X126500000Y-125000000D01*
X126000000Y-124500000D02*
X126000000Y-116500000D01*
X126500000Y-125000000D02*
X126000000Y-124500000D01*
X126580000Y-126740000D02*
X126580000Y-135200000D01*
X121800000Y-116500000D02*
X121800000Y-121960000D01*
X121800000Y-121960000D02*
X126580000Y-126740000D01*
D23*
X107000000Y-102000000D02*
X109800000Y-102000000D01*
X109800000Y-102000000D02*
X112100000Y-104300000D01*
X122000000Y-116300000D02*
X121800000Y-116500000D01*
X122000000Y-107400000D02*
X122000000Y-107400000D01*
X112100000Y-104300000D02*
X112200000Y-104400000D01*
X122000000Y-107400000D02*
X122000000Y-116300000D01*
D24*
X157060000Y-105060000D02*
X157000000Y-105000000D01*
X157060000Y-135200000D02*
X157060000Y-105060000D01*
D25*
X166090812Y-121340000D02*
X168000000Y-121340000D01*
X163766132Y-121340000D02*
X166090812Y-121340000D01*
X157060000Y-128046132D02*
X163766132Y-121340000D01*
X157060000Y-135200000D02*
X157060000Y-128046132D01*
X151000000Y-126406132D02*
X149440000Y-127966132D01*
X119800000Y-105000000D02*
X143500000Y-105000000D01*
X143500000Y-105000000D02*
X151000000Y-112500000D01*
X115300000Y-109500000D02*
X119800000Y-105000000D01*
X112800000Y-109500000D02*
X115300000Y-109500000D01*
X149440000Y-127966132D02*
X149440000Y-135200000D01*
X151000000Y-112500000D02*
X151000000Y-126406132D01*
D26*
X103720000Y-117780000D02*
X105000000Y-116500000D01*
X103720000Y-135200000D02*
X103720000Y-117780000D01*
D25*
X103720000Y-111580000D02*
X103720000Y-135200000D01*
X105800000Y-109500000D02*
X103720000Y-111580000D01*
D23*
X103720000Y-100538458D02*
X103720000Y-132400000D01*
X103720000Y-132400000D02*
X103720000Y-135200000D01*
X106258458Y-98000000D02*
X103720000Y-100538458D01*
X107000000Y-98000000D02*
X106258458Y-98000000D01*
D25*
X109300000Y-121900000D02*
X109200000Y-122000000D01*
X109300000Y-109500000D02*
X109300000Y-121900000D01*
D27*
G36*
X120565000Y-107258665D02*
G01*
X120565000Y-107541335D01*
X120620147Y-107818574D01*
X120728320Y-108079727D01*
X120730000Y-108082241D01*
X120730001Y-114191851D01*
X120382024Y-114377849D01*
X119995259Y-114695259D01*
X119677849Y-115082025D01*
X119441992Y-115523282D01*
X119296753Y-116002074D01*
X119260000Y-116375230D01*
X119260001Y-121835219D01*
X119247711Y-121960000D01*
X119296753Y-122457926D01*
X119441992Y-122936718D01*
X119509653Y-123063302D01*
X119677850Y-123377976D01*
X119995260Y-123764741D01*
X120092181Y-123844282D01*
X122787898Y-126540000D01*
X122132308Y-126540000D01*
X122099796Y-126536808D01*
X122037013Y-126543011D01*
X121970617Y-126549550D01*
X121970518Y-126549580D01*
X121970417Y-126549590D01*
X121910114Y-126567904D01*
X121846207Y-126587290D01*
X121846112Y-126587341D01*
X121846019Y-126587369D01*
X121791468Y-126616548D01*
X121731550Y-126648575D01*
X121731467Y-126648643D01*
X121731381Y-126648689D01*
X121683218Y-126688240D01*
X121631052Y-126731052D01*
X121630985Y-126731134D01*
X121630908Y-126731197D01*
X121590897Y-126779980D01*
X121548575Y-126831550D01*
X121548526Y-126831643D01*
X121548462Y-126831720D01*
X121518439Y-126887930D01*
X121487290Y-126946207D01*
X121487260Y-126946306D01*
X121487212Y-126946396D01*
X121468939Y-127006700D01*
X121449550Y-127070617D01*
X121449539Y-127070724D01*
X121449511Y-127070818D01*
X121443484Y-127132210D01*
X121436807Y-127200000D01*
X121440011Y-127232531D01*
X121442920Y-136673000D01*
X116460001Y-136673000D01*
X116459999Y-127232429D01*
X116463193Y-127200000D01*
X116450450Y-127070617D01*
X116412710Y-126946207D01*
X116351425Y-126831550D01*
X116268948Y-126731052D01*
X116168450Y-126648575D01*
X116053793Y-126587290D01*
X115929383Y-126549550D01*
X115832419Y-126540000D01*
X115832412Y-126540000D01*
X115800000Y-126536808D01*
X115767591Y-126540000D01*
X114432409Y-126540000D01*
X114400000Y-126536808D01*
X114367588Y-126540000D01*
X114367581Y-126540000D01*
X114270617Y-126549550D01*
X114146207Y-126587290D01*
X114031550Y-126648575D01*
X113931052Y-126731052D01*
X113848575Y-126831550D01*
X113787290Y-126946207D01*
X113749550Y-127070617D01*
X113736807Y-127200000D01*
X113740001Y-127232429D01*
X113739999Y-136673000D01*
X108860001Y-136673000D01*
X108859999Y-127232429D01*
X108863193Y-127200000D01*
X108850450Y-127070617D01*
X108812710Y-126946207D01*
X108751425Y-126831550D01*
X108668948Y-126731052D01*
X108568450Y-126648575D01*
X108453793Y-126587290D01*
X108329383Y-126549550D01*
X108232419Y-126540000D01*
X108232412Y-126540000D01*
X108200000Y-126536808D01*
X108167591Y-126540000D01*
X106832409Y-126540000D01*
X106800000Y-126536808D01*
X106767588Y-126540000D01*
X106767581Y-126540000D01*
X106670617Y-126549550D01*
X106641000Y-126558534D01*
X106641000Y-123429409D01*
X106658453Y-123408143D01*
X106842774Y-123063302D01*
X106956278Y-122689128D01*
X106985000Y-122397510D01*
X106985000Y-121602491D01*
X106956278Y-121310873D01*
X106842774Y-120936698D01*
X106658453Y-120591857D01*
X106641000Y-120570591D01*
X106641000Y-118989917D01*
X107166924Y-118463993D01*
X107268001Y-118340830D01*
X107268001Y-121230835D01*
X107243722Y-121310872D01*
X107223582Y-121515360D01*
X107197403Y-121601660D01*
X107158169Y-122000000D01*
X107197403Y-122398340D01*
X107223582Y-122484641D01*
X107243722Y-122689127D01*
X107357226Y-123063301D01*
X107541547Y-123408143D01*
X107789602Y-123710398D01*
X108091857Y-123958453D01*
X108436698Y-124142774D01*
X108810872Y-124256278D01*
X109200000Y-124294604D01*
X109589127Y-124256278D01*
X109963301Y-124142774D01*
X110308143Y-123958453D01*
X110610398Y-123710398D01*
X110858453Y-123408143D01*
X111042774Y-123063302D01*
X111122181Y-122801531D01*
X111186406Y-122681375D01*
X111302598Y-122298341D01*
X111332000Y-121999816D01*
X111332000Y-121999814D01*
X111341831Y-121900001D01*
X111332000Y-121800187D01*
X111332000Y-111638072D01*
X114300000Y-111638072D01*
X114424482Y-111625812D01*
X114544180Y-111589502D01*
X114651757Y-111532000D01*
X115200187Y-111532000D01*
X115300000Y-111541831D01*
X115399813Y-111532000D01*
X115399816Y-111532000D01*
X115698341Y-111502598D01*
X116081375Y-111386406D01*
X116434381Y-111197720D01*
X116743793Y-110943793D01*
X116807429Y-110866252D01*
X120602242Y-107071440D01*
X120565000Y-107258665D01*
G37*
X120565000Y-107258665D02*
X120565000Y-107541335D01*
X120620147Y-107818574D01*
X120728320Y-108079727D01*
X120730000Y-108082241D01*
X120730001Y-114191851D01*
X120382024Y-114377849D01*
X119995259Y-114695259D01*
X119677849Y-115082025D01*
X119441992Y-115523282D01*
X119296753Y-116002074D01*
X119260000Y-116375230D01*
X119260001Y-121835219D01*
X119247711Y-121960000D01*
X119296753Y-122457926D01*
X119441992Y-122936718D01*
X119509653Y-123063302D01*
X119677850Y-123377976D01*
X119995260Y-123764741D01*
X120092181Y-123844282D01*
X122787898Y-126540000D01*
X122132308Y-126540000D01*
X122099796Y-126536808D01*
X122037013Y-126543011D01*
X121970617Y-126549550D01*
X121970518Y-126549580D01*
X121970417Y-126549590D01*
X121910114Y-126567904D01*
X121846207Y-126587290D01*
X121846112Y-126587341D01*
X121846019Y-126587369D01*
X121791468Y-126616548D01*
X121731550Y-126648575D01*
X121731467Y-126648643D01*
X121731381Y-126648689D01*
X121683218Y-126688240D01*
X121631052Y-126731052D01*
X121630985Y-126731134D01*
X121630908Y-126731197D01*
X121590897Y-126779980D01*
X121548575Y-126831550D01*
X121548526Y-126831643D01*
X121548462Y-126831720D01*
X121518439Y-126887930D01*
X121487290Y-126946207D01*
X121487260Y-126946306D01*
X121487212Y-126946396D01*
X121468939Y-127006700D01*
X121449550Y-127070617D01*
X121449539Y-127070724D01*
X121449511Y-127070818D01*
X121443484Y-127132210D01*
X121436807Y-127200000D01*
X121440011Y-127232531D01*
X121442920Y-136673000D01*
X116460001Y-136673000D01*
X116459999Y-127232429D01*
X116463193Y-127200000D01*
X116450450Y-127070617D01*
X116412710Y-126946207D01*
X116351425Y-126831550D01*
X116268948Y-126731052D01*
X116168450Y-126648575D01*
X116053793Y-126587290D01*
X115929383Y-126549550D01*
X115832419Y-126540000D01*
X115832412Y-126540000D01*
X115800000Y-126536808D01*
X115767591Y-126540000D01*
X114432409Y-126540000D01*
X114400000Y-126536808D01*
X114367588Y-126540000D01*
X114367581Y-126540000D01*
X114270617Y-126549550D01*
X114146207Y-126587290D01*
X114031550Y-126648575D01*
X113931052Y-126731052D01*
X113848575Y-126831550D01*
X113787290Y-126946207D01*
X113749550Y-127070617D01*
X113736807Y-127200000D01*
X113740001Y-127232429D01*
X113739999Y-136673000D01*
X108860001Y-136673000D01*
X108859999Y-127232429D01*
X108863193Y-127200000D01*
X108850450Y-127070617D01*
X108812710Y-126946207D01*
X108751425Y-126831550D01*
X108668948Y-126731052D01*
X108568450Y-126648575D01*
X108453793Y-126587290D01*
X108329383Y-126549550D01*
X108232419Y-126540000D01*
X108232412Y-126540000D01*
X108200000Y-126536808D01*
X108167591Y-126540000D01*
X106832409Y-126540000D01*
X106800000Y-126536808D01*
X106767588Y-126540000D01*
X106767581Y-126540000D01*
X106670617Y-126549550D01*
X106641000Y-126558534D01*
X106641000Y-123429409D01*
X106658453Y-123408143D01*
X106842774Y-123063302D01*
X106956278Y-122689128D01*
X106985000Y-122397510D01*
X106985000Y-121602491D01*
X106956278Y-121310873D01*
X106842774Y-120936698D01*
X106658453Y-120591857D01*
X106641000Y-120570591D01*
X106641000Y-118989917D01*
X107166924Y-118463993D01*
X107268001Y-118340830D01*
X107268001Y-121230835D01*
X107243722Y-121310872D01*
X107223582Y-121515360D01*
X107197403Y-121601660D01*
X107158169Y-122000000D01*
X107197403Y-122398340D01*
X107223582Y-122484641D01*
X107243722Y-122689127D01*
X107357226Y-123063301D01*
X107541547Y-123408143D01*
X107789602Y-123710398D01*
X108091857Y-123958453D01*
X108436698Y-124142774D01*
X108810872Y-124256278D01*
X109200000Y-124294604D01*
X109589127Y-124256278D01*
X109963301Y-124142774D01*
X110308143Y-123958453D01*
X110610398Y-123710398D01*
X110858453Y-123408143D01*
X111042774Y-123063302D01*
X111122181Y-122801531D01*
X111186406Y-122681375D01*
X111302598Y-122298341D01*
X111332000Y-121999816D01*
X111332000Y-121999814D01*
X111341831Y-121900001D01*
X111332000Y-121800187D01*
X111332000Y-111638072D01*
X114300000Y-111638072D01*
X114424482Y-111625812D01*
X114544180Y-111589502D01*
X114651757Y-111532000D01*
X115200187Y-111532000D01*
X115300000Y-111541831D01*
X115399813Y-111532000D01*
X115399816Y-111532000D01*
X115698341Y-111502598D01*
X116081375Y-111386406D01*
X116434381Y-111197720D01*
X116743793Y-110943793D01*
X116807429Y-110866252D01*
X120602242Y-107071440D01*
X120565000Y-107258665D01*
G36*
X148968000Y-113341682D02*
G01*
X148968001Y-125564449D01*
X148073748Y-126458703D01*
X147996207Y-126522339D01*
X147742280Y-126831751D01*
X147613330Y-127073000D01*
X146950685Y-127073000D01*
X146950450Y-127070617D01*
X146912710Y-126946207D01*
X146851425Y-126831550D01*
X146768948Y-126731052D01*
X146668450Y-126648575D01*
X146553793Y-126587290D01*
X146429383Y-126549550D01*
X146332419Y-126540000D01*
X146332412Y-126540000D01*
X146300000Y-126536808D01*
X146267591Y-126540000D01*
X144932409Y-126540000D01*
X144900000Y-126536808D01*
X144867588Y-126540000D01*
X144867581Y-126540000D01*
X144770617Y-126549550D01*
X144646207Y-126587290D01*
X144531550Y-126648575D01*
X144431052Y-126731052D01*
X144348575Y-126831550D01*
X144328998Y-126868176D01*
X144323247Y-126809784D01*
X144178008Y-126330992D01*
X144167318Y-126310992D01*
X143942151Y-125889735D01*
X143624741Y-125502970D01*
X143527821Y-125423430D01*
X141640000Y-123535610D01*
X141640000Y-122124771D01*
X141652289Y-122000000D01*
X141640000Y-121875229D01*
X141640000Y-116624771D01*
X141652289Y-116500000D01*
X141603247Y-116002073D01*
X141458008Y-115523281D01*
X141222151Y-115082024D01*
X140904741Y-114695259D01*
X140517976Y-114377849D01*
X140076719Y-114141992D01*
X139597927Y-113996753D01*
X139224771Y-113960000D01*
X139100000Y-113947711D01*
X138975229Y-113960000D01*
X135024771Y-113960000D01*
X134900000Y-113947711D01*
X134775229Y-113960000D01*
X134402073Y-113996753D01*
X134241510Y-114045459D01*
X130245000Y-110048950D01*
X130245000Y-109395339D01*
X130438926Y-109201413D01*
X130562500Y-109016473D01*
X130686074Y-109201413D01*
X130948587Y-109463926D01*
X131257269Y-109670182D01*
X131600259Y-109812253D01*
X131964375Y-109884680D01*
X132335625Y-109884680D01*
X132699741Y-109812253D01*
X133042731Y-109670182D01*
X133351413Y-109463926D01*
X133613926Y-109201413D01*
X133820182Y-108892731D01*
X133962253Y-108549741D01*
X134034680Y-108185625D01*
X134034680Y-107814375D01*
X133962253Y-107450259D01*
X133820182Y-107107269D01*
X133769889Y-107032000D01*
X142658319Y-107032000D01*
X148968000Y-113341682D01*
G37*
X148968000Y-113341682D02*
X148968001Y-125564449D01*
X148073748Y-126458703D01*
X147996207Y-126522339D01*
X147742280Y-126831751D01*
X147613330Y-127073000D01*
X146950685Y-127073000D01*
X146950450Y-127070617D01*
X146912710Y-126946207D01*
X146851425Y-126831550D01*
X146768948Y-126731052D01*
X146668450Y-126648575D01*
X146553793Y-126587290D01*
X146429383Y-126549550D01*
X146332419Y-126540000D01*
X146332412Y-126540000D01*
X146300000Y-126536808D01*
X146267591Y-126540000D01*
X144932409Y-126540000D01*
X144900000Y-126536808D01*
X144867588Y-126540000D01*
X144867581Y-126540000D01*
X144770617Y-126549550D01*
X144646207Y-126587290D01*
X144531550Y-126648575D01*
X144431052Y-126731052D01*
X144348575Y-126831550D01*
X144328998Y-126868176D01*
X144323247Y-126809784D01*
X144178008Y-126330992D01*
X144167318Y-126310992D01*
X143942151Y-125889735D01*
X143624741Y-125502970D01*
X143527821Y-125423430D01*
X141640000Y-123535610D01*
X141640000Y-122124771D01*
X141652289Y-122000000D01*
X141640000Y-121875229D01*
X141640000Y-116624771D01*
X141652289Y-116500000D01*
X141603247Y-116002073D01*
X141458008Y-115523281D01*
X141222151Y-115082024D01*
X140904741Y-114695259D01*
X140517976Y-114377849D01*
X140076719Y-114141992D01*
X139597927Y-113996753D01*
X139224771Y-113960000D01*
X139100000Y-113947711D01*
X138975229Y-113960000D01*
X135024771Y-113960000D01*
X134900000Y-113947711D01*
X134775229Y-113960000D01*
X134402073Y-113996753D01*
X134241510Y-114045459D01*
X130245000Y-110048950D01*
X130245000Y-109395339D01*
X130438926Y-109201413D01*
X130562500Y-109016473D01*
X130686074Y-109201413D01*
X130948587Y-109463926D01*
X131257269Y-109670182D01*
X131600259Y-109812253D01*
X131964375Y-109884680D01*
X132335625Y-109884680D01*
X132699741Y-109812253D01*
X133042731Y-109670182D01*
X133351413Y-109463926D01*
X133613926Y-109201413D01*
X133820182Y-108892731D01*
X133962253Y-108549741D01*
X134034680Y-108185625D01*
X134034680Y-107814375D01*
X133962253Y-107450259D01*
X133820182Y-107107269D01*
X133769889Y-107032000D01*
X142658319Y-107032000D01*
X148968000Y-113341682D01*
G36*
X127304818Y-107107269D02*
G01*
X127162747Y-107450259D01*
X127090320Y-107814375D01*
X127090320Y-108185625D01*
X127162747Y-108549741D01*
X127304818Y-108892731D01*
X127511074Y-109201413D01*
X127705001Y-109395340D01*
X127705001Y-110512618D01*
X127698857Y-110575000D01*
X127723377Y-110823963D01*
X127759728Y-110943793D01*
X127795998Y-111063359D01*
X127913926Y-111283988D01*
X128072631Y-111477370D01*
X128121087Y-111517137D01*
X132445459Y-115841510D01*
X132396753Y-116002073D01*
X132347711Y-116500000D01*
X132360000Y-116624772D01*
X132360001Y-121875219D01*
X132347711Y-122000000D01*
X132396504Y-122495403D01*
X132037060Y-122460000D01*
X131912289Y-122447711D01*
X131787518Y-122460000D01*
X128540000Y-122460000D01*
X128540000Y-116375229D01*
X128503247Y-116002073D01*
X128358008Y-115523281D01*
X128122151Y-115082024D01*
X127804741Y-114695259D01*
X127417976Y-114377849D01*
X126976719Y-114141992D01*
X126497927Y-113996753D01*
X126000000Y-113947711D01*
X125502074Y-113996753D01*
X125023282Y-114141992D01*
X124582025Y-114377849D01*
X124195260Y-114695259D01*
X123900001Y-115055034D01*
X123604741Y-114695259D01*
X123270000Y-114420545D01*
X123270000Y-108082241D01*
X123271680Y-108079727D01*
X123379853Y-107818574D01*
X123435000Y-107541335D01*
X123435000Y-107258665D01*
X123389913Y-107032000D01*
X127355111Y-107032000D01*
X127304818Y-107107269D01*
G37*
X127304818Y-107107269D02*
X127162747Y-107450259D01*
X127090320Y-107814375D01*
X127090320Y-108185625D01*
X127162747Y-108549741D01*
X127304818Y-108892731D01*
X127511074Y-109201413D01*
X127705001Y-109395340D01*
X127705001Y-110512618D01*
X127698857Y-110575000D01*
X127723377Y-110823963D01*
X127759728Y-110943793D01*
X127795998Y-111063359D01*
X127913926Y-111283988D01*
X128072631Y-111477370D01*
X128121087Y-111517137D01*
X132445459Y-115841510D01*
X132396753Y-116002073D01*
X132347711Y-116500000D01*
X132360000Y-116624772D01*
X132360001Y-121875219D01*
X132347711Y-122000000D01*
X132396504Y-122495403D01*
X132037060Y-122460000D01*
X131912289Y-122447711D01*
X131787518Y-122460000D01*
X128540000Y-122460000D01*
X128540000Y-116375229D01*
X128503247Y-116002073D01*
X128358008Y-115523281D01*
X128122151Y-115082024D01*
X127804741Y-114695259D01*
X127417976Y-114377849D01*
X126976719Y-114141992D01*
X126497927Y-113996753D01*
X126000000Y-113947711D01*
X125502074Y-113996753D01*
X125023282Y-114141992D01*
X124582025Y-114377849D01*
X124195260Y-114695259D01*
X123900001Y-115055034D01*
X123604741Y-114695259D01*
X123270000Y-114420545D01*
X123270000Y-108082241D01*
X123271680Y-108079727D01*
X123379853Y-107818574D01*
X123435000Y-107541335D01*
X123435000Y-107258665D01*
X123389913Y-107032000D01*
X127355111Y-107032000D01*
X127304818Y-107107269D01*
M02*
