G04 #@! TF.GenerationSoftware,KiCad,Pcbnew,(5.1.5)-3*
G04 #@! TF.CreationDate,2020-02-06T23:40:33-08:00*
G04 #@! TF.ProjectId,psinterface,7073696e-7465-4726-9661-63652e6b6963,rev?*
G04 #@! TF.SameCoordinates,Original*
G04 #@! TF.FileFunction,Soldermask,Bot*
G04 #@! TF.FilePolarity,Negative*
%FSLAX46Y46*%
G04 Gerber Fmt 4.6, Leading zero omitted, Abs format (unit mm)*
G04 Created by KiCad (PCBNEW (5.1.5)-3) date 2020-02-06 23:40:33*
%MOMM*%
%LPD*%
G04 APERTURE LIST*
%ADD10C,0.100000*%
G04 APERTURE END LIST*
D10*
G36*
X184301000Y-108801000D02*
G01*
X184160445Y-108801000D01*
X184136059Y-108803402D01*
X184112610Y-108810515D01*
X184090999Y-108822066D01*
X184072057Y-108837611D01*
X184056512Y-108856553D01*
X184044961Y-108878164D01*
X184037848Y-108901613D01*
X184035446Y-108925999D01*
X184037848Y-108950385D01*
X184044961Y-108973834D01*
X184056512Y-108995445D01*
X184072057Y-109014387D01*
X184090999Y-109029932D01*
X184101521Y-109036238D01*
X184292555Y-109138347D01*
X184467818Y-109282182D01*
X184611653Y-109457445D01*
X184695134Y-109613629D01*
X184718530Y-109657400D01*
X184777258Y-109851000D01*
X184784346Y-109874366D01*
X184806569Y-110100000D01*
X184784346Y-110325634D01*
X184718529Y-110542602D01*
X184611653Y-110742555D01*
X184467818Y-110917818D01*
X184292555Y-111061653D01*
X184092602Y-111168529D01*
X184092600Y-111168530D01*
X183875635Y-111234346D01*
X183819271Y-111239897D01*
X183706545Y-111251000D01*
X182293455Y-111251000D01*
X182180729Y-111239897D01*
X182124365Y-111234346D01*
X181907400Y-111168530D01*
X181907398Y-111168529D01*
X181707445Y-111061653D01*
X181532182Y-110917818D01*
X181388347Y-110742555D01*
X181281471Y-110542602D01*
X181215654Y-110325634D01*
X181193431Y-110100000D01*
X181215654Y-109874366D01*
X181222742Y-109851000D01*
X181281470Y-109657400D01*
X181304866Y-109613629D01*
X181388347Y-109457445D01*
X181532182Y-109282182D01*
X181707445Y-109138347D01*
X181898479Y-109036238D01*
X181918853Y-109022625D01*
X181936180Y-109005298D01*
X181949794Y-108984923D01*
X181959172Y-108962285D01*
X181963952Y-108938251D01*
X181963952Y-108913747D01*
X181959172Y-108889714D01*
X181949794Y-108867075D01*
X181936181Y-108846701D01*
X181918854Y-108829374D01*
X181898479Y-108815760D01*
X181875841Y-108806382D01*
X181851807Y-108801602D01*
X181839555Y-108801000D01*
X181699000Y-108801000D01*
X181699000Y-107199000D01*
X184301000Y-107199000D01*
X184301000Y-108801000D01*
G37*
G36*
X123634239Y-103811467D02*
G01*
X123948282Y-103873934D01*
X124539926Y-104119001D01*
X124829523Y-104312504D01*
X125031058Y-104447165D01*
X125072392Y-104474784D01*
X125525216Y-104927608D01*
X125880999Y-105460074D01*
X126126066Y-106051718D01*
X126126066Y-106051719D01*
X126251000Y-106679803D01*
X126251000Y-107320197D01*
X126188533Y-107634239D01*
X126126066Y-107948282D01*
X125880999Y-108539926D01*
X125654995Y-108878164D01*
X125549374Y-109036238D01*
X125525216Y-109072392D01*
X125072392Y-109525216D01*
X124539926Y-109880999D01*
X123948282Y-110126066D01*
X123634239Y-110188533D01*
X123320197Y-110251000D01*
X122679803Y-110251000D01*
X122365761Y-110188533D01*
X122051718Y-110126066D01*
X121460074Y-109880999D01*
X120927608Y-109525216D01*
X120474784Y-109072392D01*
X120450627Y-109036238D01*
X120345005Y-108878164D01*
X120119001Y-108539926D01*
X119873934Y-107948282D01*
X119811467Y-107634239D01*
X119749000Y-107320197D01*
X119749000Y-106679803D01*
X119873934Y-106051719D01*
X119873934Y-106051718D01*
X120119001Y-105460074D01*
X120474784Y-104927608D01*
X120927608Y-104474784D01*
X120968943Y-104447165D01*
X121170477Y-104312504D01*
X121460074Y-104119001D01*
X122051718Y-103873934D01*
X122365761Y-103811467D01*
X122679803Y-103749000D01*
X123320197Y-103749000D01*
X123634239Y-103811467D01*
G37*
G36*
X183578571Y-105202863D02*
G01*
X183657023Y-105210590D01*
X183757682Y-105241125D01*
X183808013Y-105256392D01*
X183947165Y-105330771D01*
X184069133Y-105430867D01*
X184169229Y-105552835D01*
X184243608Y-105691987D01*
X184243608Y-105691988D01*
X184289410Y-105842977D01*
X184304875Y-106000000D01*
X184289410Y-106157023D01*
X184258875Y-106257682D01*
X184243608Y-106308013D01*
X184169229Y-106447165D01*
X184069133Y-106569133D01*
X183947165Y-106669229D01*
X183808013Y-106743608D01*
X183757682Y-106758875D01*
X183657023Y-106789410D01*
X183578571Y-106797137D01*
X183539346Y-106801000D01*
X182460654Y-106801000D01*
X182421429Y-106797137D01*
X182342977Y-106789410D01*
X182242318Y-106758875D01*
X182191987Y-106743608D01*
X182052835Y-106669229D01*
X181930867Y-106569133D01*
X181830771Y-106447165D01*
X181756392Y-106308013D01*
X181741125Y-106257682D01*
X181710590Y-106157023D01*
X181695125Y-106000000D01*
X181710590Y-105842977D01*
X181756392Y-105691988D01*
X181756392Y-105691987D01*
X181830771Y-105552835D01*
X181930867Y-105430867D01*
X182052835Y-105330771D01*
X182191987Y-105256392D01*
X182242318Y-105241125D01*
X182342977Y-105210590D01*
X182421429Y-105202863D01*
X182460654Y-105199000D01*
X183539346Y-105199000D01*
X183578571Y-105202863D01*
G37*
G36*
X183819271Y-100760103D02*
G01*
X183875635Y-100765654D01*
X184092600Y-100831470D01*
X184092602Y-100831471D01*
X184292555Y-100938347D01*
X184467818Y-101082182D01*
X184611653Y-101257445D01*
X184718529Y-101457398D01*
X184784346Y-101674366D01*
X184806569Y-101900000D01*
X184784346Y-102125634D01*
X184718529Y-102342602D01*
X184611653Y-102542555D01*
X184467818Y-102717818D01*
X184292555Y-102861653D01*
X184092602Y-102968529D01*
X184092600Y-102968530D01*
X183875635Y-103034346D01*
X183875631Y-103034346D01*
X183873516Y-103034988D01*
X183853803Y-103038909D01*
X183831164Y-103048285D01*
X183810790Y-103061899D01*
X183793462Y-103079225D01*
X183779848Y-103099599D01*
X183770470Y-103122238D01*
X183765689Y-103146271D01*
X183765689Y-103170775D01*
X183770469Y-103194809D01*
X183779845Y-103217448D01*
X183793459Y-103237822D01*
X183810785Y-103255150D01*
X183831161Y-103268765D01*
X183947165Y-103330771D01*
X184069133Y-103430867D01*
X184169229Y-103552835D01*
X184243608Y-103691987D01*
X184243608Y-103691988D01*
X184289410Y-103842977D01*
X184304875Y-104000000D01*
X184289410Y-104157023D01*
X184286586Y-104166332D01*
X184243608Y-104308013D01*
X184169229Y-104447165D01*
X184069133Y-104569133D01*
X183947165Y-104669229D01*
X183808013Y-104743608D01*
X183757682Y-104758875D01*
X183657023Y-104789410D01*
X183578571Y-104797137D01*
X183539346Y-104801000D01*
X182460654Y-104801000D01*
X182421429Y-104797137D01*
X182342977Y-104789410D01*
X182242318Y-104758875D01*
X182191987Y-104743608D01*
X182052835Y-104669229D01*
X181930867Y-104569133D01*
X181830771Y-104447165D01*
X181756392Y-104308013D01*
X181713414Y-104166332D01*
X181710590Y-104157023D01*
X181695125Y-104000000D01*
X181710590Y-103842977D01*
X181756392Y-103691988D01*
X181756392Y-103691987D01*
X181830771Y-103552835D01*
X181930867Y-103430867D01*
X182052835Y-103330771D01*
X182168839Y-103268765D01*
X182189213Y-103255151D01*
X182206540Y-103237824D01*
X182220154Y-103217450D01*
X182229531Y-103194811D01*
X182234311Y-103170777D01*
X182234311Y-103146273D01*
X182229530Y-103122240D01*
X182220153Y-103099601D01*
X182206539Y-103079227D01*
X182189212Y-103061900D01*
X182168838Y-103048286D01*
X182146199Y-103038909D01*
X182126484Y-103034988D01*
X182124369Y-103034346D01*
X182124365Y-103034346D01*
X181907400Y-102968530D01*
X181907398Y-102968529D01*
X181707445Y-102861653D01*
X181532182Y-102717818D01*
X181388347Y-102542555D01*
X181281471Y-102342602D01*
X181215654Y-102125634D01*
X181193431Y-101900000D01*
X181215654Y-101674366D01*
X181281471Y-101457398D01*
X181388347Y-101257445D01*
X181532182Y-101082182D01*
X181707445Y-100938347D01*
X181907398Y-100831471D01*
X181907400Y-100831470D01*
X182124365Y-100765654D01*
X182180729Y-100760103D01*
X182293455Y-100749000D01*
X183706545Y-100749000D01*
X183819271Y-100760103D01*
G37*
G36*
X119826348Y-99753820D02*
G01*
X119826350Y-99753821D01*
X119826351Y-99753821D01*
X119967574Y-99812317D01*
X119967577Y-99812319D01*
X120094669Y-99897239D01*
X120202761Y-100005331D01*
X120287681Y-100132423D01*
X120287683Y-100132426D01*
X120332589Y-100240840D01*
X120346180Y-100273652D01*
X120376000Y-100423569D01*
X120376000Y-100576429D01*
X120346179Y-100726351D01*
X120287683Y-100867574D01*
X120287681Y-100867577D01*
X120202761Y-100994669D01*
X120094669Y-101102761D01*
X119967577Y-101187681D01*
X119967574Y-101187683D01*
X119826351Y-101246179D01*
X119826350Y-101246179D01*
X119826348Y-101246180D01*
X119676431Y-101276000D01*
X119523569Y-101276000D01*
X119373652Y-101246180D01*
X119373650Y-101246179D01*
X119373649Y-101246179D01*
X119232426Y-101187683D01*
X119232423Y-101187681D01*
X119105331Y-101102761D01*
X118997239Y-100994669D01*
X118912319Y-100867577D01*
X118912317Y-100867574D01*
X118853821Y-100726351D01*
X118824000Y-100576429D01*
X118824000Y-100423569D01*
X118853820Y-100273652D01*
X118867411Y-100240840D01*
X118912317Y-100132426D01*
X118912319Y-100132423D01*
X118997239Y-100005331D01*
X119105331Y-99897239D01*
X119232423Y-99812319D01*
X119232426Y-99812317D01*
X119373649Y-99753821D01*
X119373650Y-99753821D01*
X119373652Y-99753820D01*
X119523569Y-99724000D01*
X119676431Y-99724000D01*
X119826348Y-99753820D01*
G37*
G36*
X124274031Y-97602621D02*
G01*
X124303486Y-97611556D01*
X124330623Y-97626062D01*
X124354414Y-97645586D01*
X124373938Y-97669377D01*
X124388444Y-97696514D01*
X124397379Y-97725969D01*
X124401000Y-97762734D01*
X124401000Y-100237266D01*
X124397379Y-100274031D01*
X124388444Y-100303486D01*
X124373938Y-100330623D01*
X124354414Y-100354414D01*
X124330623Y-100373938D01*
X124303486Y-100388444D01*
X124274031Y-100397379D01*
X124237266Y-100401000D01*
X121762734Y-100401000D01*
X121725969Y-100397379D01*
X121696514Y-100388444D01*
X121669377Y-100373938D01*
X121645586Y-100354414D01*
X121626062Y-100330623D01*
X121611556Y-100303486D01*
X121602621Y-100274031D01*
X121599000Y-100237266D01*
X121599000Y-97762734D01*
X121602621Y-97725969D01*
X121611556Y-97696514D01*
X121626062Y-97669377D01*
X121645586Y-97645586D01*
X121669377Y-97626062D01*
X121696514Y-97611556D01*
X121725969Y-97602621D01*
X121762734Y-97599000D01*
X124237266Y-97599000D01*
X124274031Y-97602621D01*
G37*
G36*
X159533512Y-95003927D02*
G01*
X159682812Y-95033624D01*
X159846784Y-95101544D01*
X159994354Y-95200147D01*
X160119853Y-95325646D01*
X160218456Y-95473216D01*
X160286376Y-95637188D01*
X160321000Y-95811259D01*
X160321000Y-95988741D01*
X160286376Y-96162812D01*
X160218456Y-96326784D01*
X160119853Y-96474354D01*
X159994354Y-96599853D01*
X159846784Y-96698456D01*
X159682812Y-96766376D01*
X159533512Y-96796073D01*
X159508742Y-96801000D01*
X159331258Y-96801000D01*
X159306488Y-96796073D01*
X159157188Y-96766376D01*
X158993216Y-96698456D01*
X158845646Y-96599853D01*
X158720147Y-96474354D01*
X158621544Y-96326784D01*
X158553624Y-96162812D01*
X158519000Y-95988741D01*
X158519000Y-95811259D01*
X158553624Y-95637188D01*
X158621544Y-95473216D01*
X158720147Y-95325646D01*
X158845646Y-95200147D01*
X158993216Y-95101544D01*
X159157188Y-95033624D01*
X159306488Y-95003927D01*
X159331258Y-94999000D01*
X159508742Y-94999000D01*
X159533512Y-95003927D01*
G37*
G36*
X162073512Y-95003927D02*
G01*
X162222812Y-95033624D01*
X162386784Y-95101544D01*
X162534354Y-95200147D01*
X162659853Y-95325646D01*
X162758456Y-95473216D01*
X162826376Y-95637188D01*
X162861000Y-95811259D01*
X162861000Y-95988741D01*
X162826376Y-96162812D01*
X162758456Y-96326784D01*
X162659853Y-96474354D01*
X162534354Y-96599853D01*
X162386784Y-96698456D01*
X162222812Y-96766376D01*
X162073512Y-96796073D01*
X162048742Y-96801000D01*
X161871258Y-96801000D01*
X161846488Y-96796073D01*
X161697188Y-96766376D01*
X161533216Y-96698456D01*
X161385646Y-96599853D01*
X161260147Y-96474354D01*
X161161544Y-96326784D01*
X161093624Y-96162812D01*
X161059000Y-95988741D01*
X161059000Y-95811259D01*
X161093624Y-95637188D01*
X161161544Y-95473216D01*
X161260147Y-95325646D01*
X161385646Y-95200147D01*
X161533216Y-95101544D01*
X161697188Y-95033624D01*
X161846488Y-95003927D01*
X161871258Y-94999000D01*
X162048742Y-94999000D01*
X162073512Y-95003927D01*
G37*
G36*
X165401000Y-96801000D02*
G01*
X163599000Y-96801000D01*
X163599000Y-94999000D01*
X165401000Y-94999000D01*
X165401000Y-96801000D01*
G37*
G36*
X123318433Y-93674893D02*
G01*
X123408657Y-93692839D01*
X123514267Y-93736585D01*
X123663621Y-93798449D01*
X123663622Y-93798450D01*
X123893086Y-93951772D01*
X124088228Y-94146914D01*
X124190675Y-94300237D01*
X124241551Y-94376379D01*
X124347161Y-94631344D01*
X124401000Y-94902012D01*
X124401000Y-95177988D01*
X124347161Y-95448656D01*
X124241551Y-95703621D01*
X124241550Y-95703622D01*
X124088228Y-95933086D01*
X123893086Y-96128228D01*
X123739763Y-96230675D01*
X123663621Y-96281551D01*
X123554419Y-96326784D01*
X123408657Y-96387161D01*
X123318433Y-96405107D01*
X123137988Y-96441000D01*
X122862012Y-96441000D01*
X122681567Y-96405107D01*
X122591343Y-96387161D01*
X122445581Y-96326784D01*
X122336379Y-96281551D01*
X122260237Y-96230675D01*
X122106914Y-96128228D01*
X121911772Y-95933086D01*
X121758450Y-95703622D01*
X121758449Y-95703621D01*
X121652839Y-95448656D01*
X121599000Y-95177988D01*
X121599000Y-94902012D01*
X121652839Y-94631344D01*
X121758449Y-94376379D01*
X121809325Y-94300237D01*
X121911772Y-94146914D01*
X122106914Y-93951772D01*
X122336378Y-93798450D01*
X122336379Y-93798449D01*
X122485733Y-93736585D01*
X122591343Y-93692839D01*
X122681567Y-93674893D01*
X122862012Y-93639000D01*
X123137988Y-93639000D01*
X123318433Y-93674893D01*
G37*
G36*
X123318433Y-89714893D02*
G01*
X123408657Y-89732839D01*
X123514267Y-89776585D01*
X123663621Y-89838449D01*
X123663622Y-89838450D01*
X123893086Y-89991772D01*
X124088228Y-90186914D01*
X124189670Y-90338733D01*
X124241551Y-90416379D01*
X124347161Y-90671344D01*
X124401000Y-90942012D01*
X124401000Y-91217988D01*
X124347161Y-91488656D01*
X124241551Y-91743621D01*
X124241550Y-91743622D01*
X124088228Y-91973086D01*
X123893086Y-92168228D01*
X123739763Y-92270675D01*
X123663621Y-92321551D01*
X123514267Y-92383415D01*
X123408657Y-92427161D01*
X123318433Y-92445107D01*
X123137988Y-92481000D01*
X122862012Y-92481000D01*
X122681567Y-92445107D01*
X122591343Y-92427161D01*
X122485733Y-92383415D01*
X122336379Y-92321551D01*
X122260237Y-92270675D01*
X122106914Y-92168228D01*
X121911772Y-91973086D01*
X121758450Y-91743622D01*
X121758449Y-91743621D01*
X121652839Y-91488656D01*
X121599000Y-91217988D01*
X121599000Y-90942012D01*
X121652839Y-90671344D01*
X121758449Y-90416379D01*
X121810330Y-90338733D01*
X121911772Y-90186914D01*
X122106914Y-89991772D01*
X122336378Y-89838450D01*
X122336379Y-89838449D01*
X122485733Y-89776585D01*
X122591343Y-89732839D01*
X122681567Y-89714893D01*
X122862012Y-89679000D01*
X123137988Y-89679000D01*
X123318433Y-89714893D01*
G37*
G36*
X180674643Y-87819272D02*
G01*
X180870016Y-87878538D01*
X180938736Y-87899384D01*
X181151455Y-88013085D01*
X181182119Y-88029475D01*
X181223797Y-88063680D01*
X181395450Y-88204550D01*
X181538092Y-88378360D01*
X181570525Y-88417880D01*
X181570526Y-88417882D01*
X181700616Y-88661263D01*
X181721462Y-88729983D01*
X181780728Y-88925356D01*
X181801000Y-89131182D01*
X181801000Y-89868817D01*
X181780728Y-90074643D01*
X181721461Y-90270018D01*
X181700616Y-90338737D01*
X181659115Y-90416379D01*
X181570525Y-90582120D01*
X181524918Y-90637691D01*
X181395450Y-90795450D01*
X181237691Y-90924918D01*
X181182120Y-90970525D01*
X181182118Y-90970526D01*
X180938737Y-91100616D01*
X180870017Y-91121462D01*
X180674644Y-91180728D01*
X180400000Y-91207778D01*
X180125357Y-91180728D01*
X179929984Y-91121462D01*
X179861264Y-91100616D01*
X179617883Y-90970526D01*
X179617881Y-90970525D01*
X179576203Y-90936320D01*
X179404550Y-90795450D01*
X179261908Y-90621640D01*
X179229475Y-90582120D01*
X179140885Y-90416379D01*
X179099384Y-90338737D01*
X179053329Y-90186914D01*
X179019272Y-90074644D01*
X178999000Y-89868818D01*
X178999000Y-89131183D01*
X179019272Y-88925357D01*
X179099383Y-88661268D01*
X179099384Y-88661264D01*
X179229474Y-88417883D01*
X179229475Y-88417881D01*
X179275705Y-88361550D01*
X179404550Y-88204550D01*
X179578360Y-88061908D01*
X179617880Y-88029475D01*
X179648544Y-88013085D01*
X179861263Y-87899384D01*
X179929983Y-87878538D01*
X180125356Y-87819272D01*
X180400000Y-87792222D01*
X180674643Y-87819272D01*
G37*
G36*
X176474643Y-87819272D02*
G01*
X176670016Y-87878538D01*
X176738736Y-87899384D01*
X176951455Y-88013085D01*
X176982119Y-88029475D01*
X177023797Y-88063680D01*
X177195450Y-88204550D01*
X177338092Y-88378360D01*
X177370525Y-88417880D01*
X177370526Y-88417882D01*
X177500616Y-88661263D01*
X177521462Y-88729983D01*
X177580728Y-88925356D01*
X177601000Y-89131182D01*
X177601000Y-89868817D01*
X177580728Y-90074643D01*
X177521461Y-90270018D01*
X177500616Y-90338737D01*
X177459115Y-90416379D01*
X177370525Y-90582120D01*
X177324918Y-90637691D01*
X177195450Y-90795450D01*
X177037691Y-90924918D01*
X176982120Y-90970525D01*
X176982118Y-90970526D01*
X176738737Y-91100616D01*
X176670017Y-91121462D01*
X176474644Y-91180728D01*
X176200000Y-91207778D01*
X175925357Y-91180728D01*
X175729984Y-91121462D01*
X175661264Y-91100616D01*
X175417883Y-90970526D01*
X175417881Y-90970525D01*
X175376203Y-90936320D01*
X175204550Y-90795450D01*
X175061908Y-90621640D01*
X175029475Y-90582120D01*
X174940885Y-90416379D01*
X174899384Y-90338737D01*
X174853329Y-90186914D01*
X174819272Y-90074644D01*
X174799000Y-89868818D01*
X174799000Y-89131183D01*
X174819272Y-88925357D01*
X174899383Y-88661268D01*
X174899384Y-88661264D01*
X175029474Y-88417883D01*
X175029475Y-88417881D01*
X175075705Y-88361550D01*
X175204550Y-88204550D01*
X175378360Y-88061908D01*
X175417880Y-88029475D01*
X175448544Y-88013085D01*
X175661263Y-87899384D01*
X175729983Y-87878538D01*
X175925356Y-87819272D01*
X176200000Y-87792222D01*
X176474643Y-87819272D01*
G37*
G36*
X162274643Y-87819272D02*
G01*
X162470016Y-87878538D01*
X162538736Y-87899384D01*
X162751455Y-88013085D01*
X162782119Y-88029475D01*
X162823797Y-88063680D01*
X162995450Y-88204550D01*
X163138092Y-88378360D01*
X163170525Y-88417880D01*
X163170526Y-88417882D01*
X163300616Y-88661263D01*
X163321462Y-88729983D01*
X163380728Y-88925356D01*
X163401000Y-89131182D01*
X163401000Y-89868817D01*
X163380728Y-90074643D01*
X163321461Y-90270018D01*
X163300616Y-90338737D01*
X163259115Y-90416379D01*
X163170525Y-90582120D01*
X163124918Y-90637691D01*
X162995450Y-90795450D01*
X162837691Y-90924918D01*
X162782120Y-90970525D01*
X162782118Y-90970526D01*
X162538737Y-91100616D01*
X162470017Y-91121462D01*
X162274644Y-91180728D01*
X162000000Y-91207778D01*
X161725357Y-91180728D01*
X161529984Y-91121462D01*
X161461264Y-91100616D01*
X161217883Y-90970526D01*
X161217881Y-90970525D01*
X161176203Y-90936320D01*
X161004550Y-90795450D01*
X160861908Y-90621640D01*
X160829475Y-90582120D01*
X160740885Y-90416379D01*
X160699384Y-90338737D01*
X160653329Y-90186914D01*
X160619272Y-90074644D01*
X160599000Y-89868818D01*
X160599000Y-89131183D01*
X160619272Y-88925357D01*
X160699383Y-88661268D01*
X160699384Y-88661264D01*
X160829474Y-88417883D01*
X160829475Y-88417881D01*
X160875705Y-88361550D01*
X161004550Y-88204550D01*
X161178360Y-88061908D01*
X161217880Y-88029475D01*
X161248544Y-88013085D01*
X161461263Y-87899384D01*
X161529983Y-87878538D01*
X161725356Y-87819272D01*
X162000000Y-87792222D01*
X162274643Y-87819272D01*
G37*
G36*
X158074643Y-87819272D02*
G01*
X158270016Y-87878538D01*
X158338736Y-87899384D01*
X158551455Y-88013085D01*
X158582119Y-88029475D01*
X158623797Y-88063680D01*
X158795450Y-88204550D01*
X158938092Y-88378360D01*
X158970525Y-88417880D01*
X158970526Y-88417882D01*
X159100616Y-88661263D01*
X159121462Y-88729983D01*
X159180728Y-88925356D01*
X159201000Y-89131182D01*
X159201000Y-89868817D01*
X159180728Y-90074643D01*
X159121461Y-90270018D01*
X159100616Y-90338737D01*
X159059115Y-90416379D01*
X158970525Y-90582120D01*
X158924918Y-90637691D01*
X158795450Y-90795450D01*
X158637691Y-90924918D01*
X158582120Y-90970525D01*
X158582118Y-90970526D01*
X158338737Y-91100616D01*
X158270017Y-91121462D01*
X158074644Y-91180728D01*
X157800000Y-91207778D01*
X157525357Y-91180728D01*
X157329984Y-91121462D01*
X157261264Y-91100616D01*
X157017883Y-90970526D01*
X157017881Y-90970525D01*
X156976203Y-90936320D01*
X156804550Y-90795450D01*
X156661908Y-90621640D01*
X156629475Y-90582120D01*
X156540885Y-90416379D01*
X156499384Y-90338737D01*
X156453329Y-90186914D01*
X156419272Y-90074644D01*
X156399000Y-89868818D01*
X156399000Y-89131183D01*
X156419272Y-88925357D01*
X156499383Y-88661268D01*
X156499384Y-88661264D01*
X156629474Y-88417883D01*
X156629475Y-88417881D01*
X156675705Y-88361550D01*
X156804550Y-88204550D01*
X156978360Y-88061908D01*
X157017880Y-88029475D01*
X157048544Y-88013085D01*
X157261263Y-87899384D01*
X157329983Y-87878538D01*
X157525356Y-87819272D01*
X157800000Y-87792222D01*
X158074643Y-87819272D01*
G37*
G36*
X153874643Y-87819272D02*
G01*
X154070016Y-87878538D01*
X154138736Y-87899384D01*
X154351455Y-88013085D01*
X154382119Y-88029475D01*
X154423797Y-88063680D01*
X154595450Y-88204550D01*
X154738092Y-88378360D01*
X154770525Y-88417880D01*
X154770526Y-88417882D01*
X154900616Y-88661263D01*
X154921462Y-88729983D01*
X154980728Y-88925356D01*
X155001000Y-89131182D01*
X155001000Y-89868817D01*
X154980728Y-90074643D01*
X154921461Y-90270018D01*
X154900616Y-90338737D01*
X154859115Y-90416379D01*
X154770525Y-90582120D01*
X154724918Y-90637691D01*
X154595450Y-90795450D01*
X154437691Y-90924918D01*
X154382120Y-90970525D01*
X154382118Y-90970526D01*
X154138737Y-91100616D01*
X154070017Y-91121462D01*
X153874644Y-91180728D01*
X153600000Y-91207778D01*
X153325357Y-91180728D01*
X153129984Y-91121462D01*
X153061264Y-91100616D01*
X152817883Y-90970526D01*
X152817881Y-90970525D01*
X152776203Y-90936320D01*
X152604550Y-90795450D01*
X152461908Y-90621640D01*
X152429475Y-90582120D01*
X152340885Y-90416379D01*
X152299384Y-90338737D01*
X152253329Y-90186914D01*
X152219272Y-90074644D01*
X152199000Y-89868818D01*
X152199000Y-89131183D01*
X152219272Y-88925357D01*
X152299383Y-88661268D01*
X152299384Y-88661264D01*
X152429474Y-88417883D01*
X152429475Y-88417881D01*
X152475705Y-88361550D01*
X152604550Y-88204550D01*
X152778360Y-88061908D01*
X152817880Y-88029475D01*
X152848544Y-88013085D01*
X153061263Y-87899384D01*
X153129983Y-87878538D01*
X153325356Y-87819272D01*
X153600000Y-87792222D01*
X153874643Y-87819272D01*
G37*
G36*
X149674643Y-87819272D02*
G01*
X149870016Y-87878538D01*
X149938736Y-87899384D01*
X150151455Y-88013085D01*
X150182119Y-88029475D01*
X150223797Y-88063680D01*
X150395450Y-88204550D01*
X150538092Y-88378360D01*
X150570525Y-88417880D01*
X150570526Y-88417882D01*
X150700616Y-88661263D01*
X150721462Y-88729983D01*
X150780728Y-88925356D01*
X150801000Y-89131182D01*
X150801000Y-89868817D01*
X150780728Y-90074643D01*
X150721461Y-90270018D01*
X150700616Y-90338737D01*
X150659115Y-90416379D01*
X150570525Y-90582120D01*
X150524918Y-90637691D01*
X150395450Y-90795450D01*
X150237691Y-90924918D01*
X150182120Y-90970525D01*
X150182118Y-90970526D01*
X149938737Y-91100616D01*
X149870017Y-91121462D01*
X149674644Y-91180728D01*
X149400000Y-91207778D01*
X149125357Y-91180728D01*
X148929984Y-91121462D01*
X148861264Y-91100616D01*
X148617883Y-90970526D01*
X148617881Y-90970525D01*
X148576203Y-90936320D01*
X148404550Y-90795450D01*
X148261908Y-90621640D01*
X148229475Y-90582120D01*
X148140885Y-90416379D01*
X148099384Y-90338737D01*
X148053329Y-90186914D01*
X148019272Y-90074644D01*
X147999000Y-89868818D01*
X147999000Y-89131183D01*
X148019272Y-88925357D01*
X148099383Y-88661268D01*
X148099384Y-88661264D01*
X148229474Y-88417883D01*
X148229475Y-88417881D01*
X148275705Y-88361550D01*
X148404550Y-88204550D01*
X148578360Y-88061908D01*
X148617880Y-88029475D01*
X148648544Y-88013085D01*
X148861263Y-87899384D01*
X148929983Y-87878538D01*
X149125356Y-87819272D01*
X149400000Y-87792222D01*
X149674643Y-87819272D01*
G37*
G36*
X145474643Y-87819272D02*
G01*
X145670016Y-87878538D01*
X145738736Y-87899384D01*
X145951455Y-88013085D01*
X145982119Y-88029475D01*
X146023797Y-88063680D01*
X146195450Y-88204550D01*
X146338092Y-88378360D01*
X146370525Y-88417880D01*
X146370526Y-88417882D01*
X146500616Y-88661263D01*
X146521462Y-88729983D01*
X146580728Y-88925356D01*
X146601000Y-89131182D01*
X146601000Y-89868817D01*
X146580728Y-90074643D01*
X146521461Y-90270018D01*
X146500616Y-90338737D01*
X146459115Y-90416379D01*
X146370525Y-90582120D01*
X146324918Y-90637691D01*
X146195450Y-90795450D01*
X146037691Y-90924918D01*
X145982120Y-90970525D01*
X145982118Y-90970526D01*
X145738737Y-91100616D01*
X145670017Y-91121462D01*
X145474644Y-91180728D01*
X145200000Y-91207778D01*
X144925357Y-91180728D01*
X144729984Y-91121462D01*
X144661264Y-91100616D01*
X144417883Y-90970526D01*
X144417881Y-90970525D01*
X144376203Y-90936320D01*
X144204550Y-90795450D01*
X144061908Y-90621640D01*
X144029475Y-90582120D01*
X143940885Y-90416379D01*
X143899384Y-90338737D01*
X143853329Y-90186914D01*
X143819272Y-90074644D01*
X143799000Y-89868818D01*
X143799000Y-89131183D01*
X143819272Y-88925357D01*
X143899383Y-88661268D01*
X143899384Y-88661264D01*
X144029474Y-88417883D01*
X144029475Y-88417881D01*
X144075705Y-88361550D01*
X144204550Y-88204550D01*
X144378360Y-88061908D01*
X144417880Y-88029475D01*
X144448544Y-88013085D01*
X144661263Y-87899384D01*
X144729983Y-87878538D01*
X144925356Y-87819272D01*
X145200000Y-87792222D01*
X145474643Y-87819272D01*
G37*
G36*
X141274643Y-87819272D02*
G01*
X141470016Y-87878538D01*
X141538736Y-87899384D01*
X141751455Y-88013085D01*
X141782119Y-88029475D01*
X141823797Y-88063680D01*
X141995450Y-88204550D01*
X142138092Y-88378360D01*
X142170525Y-88417880D01*
X142170526Y-88417882D01*
X142300616Y-88661263D01*
X142321462Y-88729983D01*
X142380728Y-88925356D01*
X142401000Y-89131182D01*
X142401000Y-89868817D01*
X142380728Y-90074643D01*
X142321461Y-90270018D01*
X142300616Y-90338737D01*
X142259115Y-90416379D01*
X142170525Y-90582120D01*
X142124918Y-90637691D01*
X141995450Y-90795450D01*
X141837691Y-90924918D01*
X141782120Y-90970525D01*
X141782118Y-90970526D01*
X141538737Y-91100616D01*
X141470017Y-91121462D01*
X141274644Y-91180728D01*
X141000000Y-91207778D01*
X140725357Y-91180728D01*
X140529984Y-91121462D01*
X140461264Y-91100616D01*
X140217883Y-90970526D01*
X140217881Y-90970525D01*
X140176203Y-90936320D01*
X140004550Y-90795450D01*
X139861908Y-90621640D01*
X139829475Y-90582120D01*
X139740885Y-90416379D01*
X139699384Y-90338737D01*
X139653329Y-90186914D01*
X139619272Y-90074644D01*
X139599000Y-89868818D01*
X139599000Y-89131183D01*
X139619272Y-88925357D01*
X139699383Y-88661268D01*
X139699384Y-88661264D01*
X139829474Y-88417883D01*
X139829475Y-88417881D01*
X139875705Y-88361550D01*
X140004550Y-88204550D01*
X140178360Y-88061908D01*
X140217880Y-88029475D01*
X140248544Y-88013085D01*
X140461263Y-87899384D01*
X140529983Y-87878538D01*
X140725356Y-87819272D01*
X141000000Y-87792222D01*
X141274643Y-87819272D01*
G37*
G36*
X184874643Y-87819272D02*
G01*
X185070016Y-87878538D01*
X185138736Y-87899384D01*
X185351455Y-88013085D01*
X185382119Y-88029475D01*
X185423797Y-88063680D01*
X185595450Y-88204550D01*
X185738092Y-88378360D01*
X185770525Y-88417880D01*
X185770526Y-88417882D01*
X185900616Y-88661263D01*
X185921462Y-88729983D01*
X185980728Y-88925356D01*
X186001000Y-89131182D01*
X186001000Y-89868817D01*
X185980728Y-90074643D01*
X185921461Y-90270018D01*
X185900616Y-90338737D01*
X185859115Y-90416379D01*
X185770525Y-90582120D01*
X185724918Y-90637691D01*
X185595450Y-90795450D01*
X185437691Y-90924918D01*
X185382120Y-90970525D01*
X185382118Y-90970526D01*
X185138737Y-91100616D01*
X185070017Y-91121462D01*
X184874644Y-91180728D01*
X184600000Y-91207778D01*
X184325357Y-91180728D01*
X184129984Y-91121462D01*
X184061264Y-91100616D01*
X183817883Y-90970526D01*
X183817881Y-90970525D01*
X183776203Y-90936320D01*
X183604550Y-90795450D01*
X183461908Y-90621640D01*
X183429475Y-90582120D01*
X183340885Y-90416379D01*
X183299384Y-90338737D01*
X183253329Y-90186914D01*
X183219272Y-90074644D01*
X183199000Y-89868818D01*
X183199000Y-89131183D01*
X183219272Y-88925357D01*
X183299383Y-88661268D01*
X183299384Y-88661264D01*
X183429474Y-88417883D01*
X183429475Y-88417881D01*
X183475705Y-88361550D01*
X183604550Y-88204550D01*
X183778360Y-88061908D01*
X183817880Y-88029475D01*
X183848544Y-88013085D01*
X184061263Y-87899384D01*
X184129983Y-87878538D01*
X184325356Y-87819272D01*
X184600000Y-87792222D01*
X184874643Y-87819272D01*
G37*
G36*
X172274643Y-87819272D02*
G01*
X172470016Y-87878538D01*
X172538736Y-87899384D01*
X172751455Y-88013085D01*
X172782119Y-88029475D01*
X172823797Y-88063680D01*
X172995450Y-88204550D01*
X173138092Y-88378360D01*
X173170525Y-88417880D01*
X173170526Y-88417882D01*
X173300616Y-88661263D01*
X173321462Y-88729983D01*
X173380728Y-88925356D01*
X173401000Y-89131182D01*
X173401000Y-89868817D01*
X173380728Y-90074643D01*
X173321461Y-90270018D01*
X173300616Y-90338737D01*
X173259115Y-90416379D01*
X173170525Y-90582120D01*
X173124918Y-90637691D01*
X172995450Y-90795450D01*
X172837691Y-90924918D01*
X172782120Y-90970525D01*
X172782118Y-90970526D01*
X172538737Y-91100616D01*
X172470017Y-91121462D01*
X172274644Y-91180728D01*
X172000000Y-91207778D01*
X171725357Y-91180728D01*
X171529984Y-91121462D01*
X171461264Y-91100616D01*
X171217883Y-90970526D01*
X171217881Y-90970525D01*
X171176203Y-90936320D01*
X171004550Y-90795450D01*
X170861908Y-90621640D01*
X170829475Y-90582120D01*
X170740885Y-90416379D01*
X170699384Y-90338737D01*
X170653329Y-90186914D01*
X170619272Y-90074644D01*
X170599000Y-89868818D01*
X170599000Y-89131183D01*
X170619272Y-88925357D01*
X170699383Y-88661268D01*
X170699384Y-88661264D01*
X170829474Y-88417883D01*
X170829475Y-88417881D01*
X170875705Y-88361550D01*
X171004550Y-88204550D01*
X171178360Y-88061908D01*
X171217880Y-88029475D01*
X171248544Y-88013085D01*
X171461263Y-87899384D01*
X171529983Y-87878538D01*
X171725356Y-87819272D01*
X172000000Y-87792222D01*
X172274643Y-87819272D01*
G37*
G36*
X123318433Y-85754893D02*
G01*
X123408657Y-85772839D01*
X123514267Y-85816585D01*
X123663621Y-85878449D01*
X123663622Y-85878450D01*
X123893086Y-86031772D01*
X124088228Y-86226914D01*
X124190675Y-86380237D01*
X124241551Y-86456379D01*
X124347161Y-86711344D01*
X124401000Y-86982012D01*
X124401000Y-87257988D01*
X124347161Y-87528656D01*
X124241551Y-87783621D01*
X124241550Y-87783622D01*
X124088228Y-88013086D01*
X123893086Y-88208228D01*
X123739763Y-88310675D01*
X123663621Y-88361551D01*
X123514267Y-88423415D01*
X123408657Y-88467161D01*
X123318433Y-88485107D01*
X123137988Y-88521000D01*
X122862012Y-88521000D01*
X122681567Y-88485107D01*
X122591343Y-88467161D01*
X122485733Y-88423415D01*
X122336379Y-88361551D01*
X122260237Y-88310675D01*
X122106914Y-88208228D01*
X121911772Y-88013086D01*
X121758450Y-87783622D01*
X121758449Y-87783621D01*
X121652839Y-87528656D01*
X121599000Y-87257988D01*
X121599000Y-86982012D01*
X121652839Y-86711344D01*
X121758449Y-86456379D01*
X121809325Y-86380237D01*
X121911772Y-86226914D01*
X122106914Y-86031772D01*
X122336378Y-85878450D01*
X122336379Y-85878449D01*
X122485733Y-85816585D01*
X122591343Y-85772839D01*
X122681567Y-85754893D01*
X122862012Y-85719000D01*
X123137988Y-85719000D01*
X123318433Y-85754893D01*
G37*
G36*
X153874643Y-82319272D02*
G01*
X154070016Y-82378538D01*
X154138736Y-82399384D01*
X154341624Y-82507830D01*
X154382119Y-82529475D01*
X154417419Y-82558445D01*
X154595450Y-82704550D01*
X154738092Y-82878360D01*
X154770525Y-82917880D01*
X154770526Y-82917882D01*
X154900616Y-83161263D01*
X154921462Y-83229983D01*
X154980728Y-83425356D01*
X155001000Y-83631182D01*
X155001000Y-84368817D01*
X154980728Y-84574643D01*
X154921461Y-84770018D01*
X154900616Y-84838737D01*
X154777964Y-85068202D01*
X154770525Y-85082120D01*
X154724918Y-85137691D01*
X154595450Y-85295450D01*
X154437691Y-85424918D01*
X154382120Y-85470525D01*
X154382118Y-85470526D01*
X154138737Y-85600616D01*
X154070017Y-85621462D01*
X153874644Y-85680728D01*
X153600000Y-85707778D01*
X153325357Y-85680728D01*
X153129984Y-85621462D01*
X153061264Y-85600616D01*
X152817883Y-85470526D01*
X152817881Y-85470525D01*
X152776203Y-85436320D01*
X152604550Y-85295450D01*
X152461908Y-85121640D01*
X152429475Y-85082120D01*
X152422036Y-85068202D01*
X152299384Y-84838737D01*
X152278538Y-84770017D01*
X152219272Y-84574644D01*
X152199000Y-84368818D01*
X152199000Y-83631183D01*
X152219272Y-83425357D01*
X152299383Y-83161268D01*
X152299384Y-83161264D01*
X152429474Y-82917883D01*
X152429475Y-82917881D01*
X152463680Y-82876203D01*
X152604550Y-82704550D01*
X152778360Y-82561908D01*
X152817880Y-82529475D01*
X152858375Y-82507830D01*
X153061263Y-82399384D01*
X153129983Y-82378538D01*
X153325356Y-82319272D01*
X153600000Y-82292222D01*
X153874643Y-82319272D01*
G37*
G36*
X149674643Y-82319272D02*
G01*
X149870016Y-82378538D01*
X149938736Y-82399384D01*
X150141624Y-82507830D01*
X150182119Y-82529475D01*
X150217419Y-82558445D01*
X150395450Y-82704550D01*
X150538092Y-82878360D01*
X150570525Y-82917880D01*
X150570526Y-82917882D01*
X150700616Y-83161263D01*
X150721462Y-83229983D01*
X150780728Y-83425356D01*
X150801000Y-83631182D01*
X150801000Y-84368817D01*
X150780728Y-84574643D01*
X150721461Y-84770018D01*
X150700616Y-84838737D01*
X150577964Y-85068202D01*
X150570525Y-85082120D01*
X150524918Y-85137691D01*
X150395450Y-85295450D01*
X150237691Y-85424918D01*
X150182120Y-85470525D01*
X150182118Y-85470526D01*
X149938737Y-85600616D01*
X149870017Y-85621462D01*
X149674644Y-85680728D01*
X149400000Y-85707778D01*
X149125357Y-85680728D01*
X148929984Y-85621462D01*
X148861264Y-85600616D01*
X148617883Y-85470526D01*
X148617881Y-85470525D01*
X148576203Y-85436320D01*
X148404550Y-85295450D01*
X148261908Y-85121640D01*
X148229475Y-85082120D01*
X148222036Y-85068202D01*
X148099384Y-84838737D01*
X148078538Y-84770017D01*
X148019272Y-84574644D01*
X147999000Y-84368818D01*
X147999000Y-83631183D01*
X148019272Y-83425357D01*
X148099383Y-83161268D01*
X148099384Y-83161264D01*
X148229474Y-82917883D01*
X148229475Y-82917881D01*
X148263680Y-82876203D01*
X148404550Y-82704550D01*
X148578360Y-82561908D01*
X148617880Y-82529475D01*
X148658375Y-82507830D01*
X148861263Y-82399384D01*
X148929983Y-82378538D01*
X149125356Y-82319272D01*
X149400000Y-82292222D01*
X149674643Y-82319272D01*
G37*
G36*
X145474643Y-82319272D02*
G01*
X145670016Y-82378538D01*
X145738736Y-82399384D01*
X145941624Y-82507830D01*
X145982119Y-82529475D01*
X146017419Y-82558445D01*
X146195450Y-82704550D01*
X146338092Y-82878360D01*
X146370525Y-82917880D01*
X146370526Y-82917882D01*
X146500616Y-83161263D01*
X146521462Y-83229983D01*
X146580728Y-83425356D01*
X146601000Y-83631182D01*
X146601000Y-84368817D01*
X146580728Y-84574643D01*
X146521461Y-84770018D01*
X146500616Y-84838737D01*
X146377964Y-85068202D01*
X146370525Y-85082120D01*
X146324918Y-85137691D01*
X146195450Y-85295450D01*
X146037691Y-85424918D01*
X145982120Y-85470525D01*
X145982118Y-85470526D01*
X145738737Y-85600616D01*
X145670017Y-85621462D01*
X145474644Y-85680728D01*
X145200000Y-85707778D01*
X144925357Y-85680728D01*
X144729984Y-85621462D01*
X144661264Y-85600616D01*
X144417883Y-85470526D01*
X144417881Y-85470525D01*
X144376203Y-85436320D01*
X144204550Y-85295450D01*
X144061908Y-85121640D01*
X144029475Y-85082120D01*
X144022036Y-85068202D01*
X143899384Y-84838737D01*
X143878538Y-84770017D01*
X143819272Y-84574644D01*
X143799000Y-84368818D01*
X143799000Y-83631183D01*
X143819272Y-83425357D01*
X143899383Y-83161268D01*
X143899384Y-83161264D01*
X144029474Y-82917883D01*
X144029475Y-82917881D01*
X144063680Y-82876203D01*
X144204550Y-82704550D01*
X144378360Y-82561908D01*
X144417880Y-82529475D01*
X144458375Y-82507830D01*
X144661263Y-82399384D01*
X144729983Y-82378538D01*
X144925356Y-82319272D01*
X145200000Y-82292222D01*
X145474643Y-82319272D01*
G37*
G36*
X158074643Y-82319272D02*
G01*
X158270016Y-82378538D01*
X158338736Y-82399384D01*
X158541624Y-82507830D01*
X158582119Y-82529475D01*
X158617419Y-82558445D01*
X158795450Y-82704550D01*
X158938092Y-82878360D01*
X158970525Y-82917880D01*
X158970526Y-82917882D01*
X159100616Y-83161263D01*
X159121462Y-83229983D01*
X159180728Y-83425356D01*
X159201000Y-83631182D01*
X159201000Y-84368817D01*
X159180728Y-84574643D01*
X159121461Y-84770018D01*
X159100616Y-84838737D01*
X158977964Y-85068202D01*
X158970525Y-85082120D01*
X158924918Y-85137691D01*
X158795450Y-85295450D01*
X158637691Y-85424918D01*
X158582120Y-85470525D01*
X158582118Y-85470526D01*
X158338737Y-85600616D01*
X158270017Y-85621462D01*
X158074644Y-85680728D01*
X157800000Y-85707778D01*
X157525357Y-85680728D01*
X157329984Y-85621462D01*
X157261264Y-85600616D01*
X157017883Y-85470526D01*
X157017881Y-85470525D01*
X156976203Y-85436320D01*
X156804550Y-85295450D01*
X156661908Y-85121640D01*
X156629475Y-85082120D01*
X156622036Y-85068202D01*
X156499384Y-84838737D01*
X156478538Y-84770017D01*
X156419272Y-84574644D01*
X156399000Y-84368818D01*
X156399000Y-83631183D01*
X156419272Y-83425357D01*
X156499383Y-83161268D01*
X156499384Y-83161264D01*
X156629474Y-82917883D01*
X156629475Y-82917881D01*
X156663680Y-82876203D01*
X156804550Y-82704550D01*
X156978360Y-82561908D01*
X157017880Y-82529475D01*
X157058375Y-82507830D01*
X157261263Y-82399384D01*
X157329983Y-82378538D01*
X157525356Y-82319272D01*
X157800000Y-82292222D01*
X158074643Y-82319272D01*
G37*
G36*
X180674643Y-82319272D02*
G01*
X180870016Y-82378538D01*
X180938736Y-82399384D01*
X181141624Y-82507830D01*
X181182119Y-82529475D01*
X181217419Y-82558445D01*
X181395450Y-82704550D01*
X181538092Y-82878360D01*
X181570525Y-82917880D01*
X181570526Y-82917882D01*
X181700616Y-83161263D01*
X181721462Y-83229983D01*
X181780728Y-83425356D01*
X181801000Y-83631182D01*
X181801000Y-84368817D01*
X181780728Y-84574643D01*
X181721461Y-84770018D01*
X181700616Y-84838737D01*
X181577964Y-85068202D01*
X181570525Y-85082120D01*
X181524918Y-85137691D01*
X181395450Y-85295450D01*
X181237691Y-85424918D01*
X181182120Y-85470525D01*
X181182118Y-85470526D01*
X180938737Y-85600616D01*
X180870017Y-85621462D01*
X180674644Y-85680728D01*
X180400000Y-85707778D01*
X180125357Y-85680728D01*
X179929984Y-85621462D01*
X179861264Y-85600616D01*
X179617883Y-85470526D01*
X179617881Y-85470525D01*
X179576203Y-85436320D01*
X179404550Y-85295450D01*
X179261908Y-85121640D01*
X179229475Y-85082120D01*
X179222036Y-85068202D01*
X179099384Y-84838737D01*
X179078538Y-84770017D01*
X179019272Y-84574644D01*
X178999000Y-84368818D01*
X178999000Y-83631183D01*
X179019272Y-83425357D01*
X179099383Y-83161268D01*
X179099384Y-83161264D01*
X179229474Y-82917883D01*
X179229475Y-82917881D01*
X179263680Y-82876203D01*
X179404550Y-82704550D01*
X179578360Y-82561908D01*
X179617880Y-82529475D01*
X179658375Y-82507830D01*
X179861263Y-82399384D01*
X179929983Y-82378538D01*
X180125356Y-82319272D01*
X180400000Y-82292222D01*
X180674643Y-82319272D01*
G37*
G36*
X176474643Y-82319272D02*
G01*
X176670016Y-82378538D01*
X176738736Y-82399384D01*
X176941624Y-82507830D01*
X176982119Y-82529475D01*
X177017419Y-82558445D01*
X177195450Y-82704550D01*
X177338092Y-82878360D01*
X177370525Y-82917880D01*
X177370526Y-82917882D01*
X177500616Y-83161263D01*
X177521462Y-83229983D01*
X177580728Y-83425356D01*
X177601000Y-83631182D01*
X177601000Y-84368817D01*
X177580728Y-84574643D01*
X177521461Y-84770018D01*
X177500616Y-84838737D01*
X177377964Y-85068202D01*
X177370525Y-85082120D01*
X177324918Y-85137691D01*
X177195450Y-85295450D01*
X177037691Y-85424918D01*
X176982120Y-85470525D01*
X176982118Y-85470526D01*
X176738737Y-85600616D01*
X176670017Y-85621462D01*
X176474644Y-85680728D01*
X176200000Y-85707778D01*
X175925357Y-85680728D01*
X175729984Y-85621462D01*
X175661264Y-85600616D01*
X175417883Y-85470526D01*
X175417881Y-85470525D01*
X175376203Y-85436320D01*
X175204550Y-85295450D01*
X175061908Y-85121640D01*
X175029475Y-85082120D01*
X175022036Y-85068202D01*
X174899384Y-84838737D01*
X174878538Y-84770017D01*
X174819272Y-84574644D01*
X174799000Y-84368818D01*
X174799000Y-83631183D01*
X174819272Y-83425357D01*
X174899383Y-83161268D01*
X174899384Y-83161264D01*
X175029474Y-82917883D01*
X175029475Y-82917881D01*
X175063680Y-82876203D01*
X175204550Y-82704550D01*
X175378360Y-82561908D01*
X175417880Y-82529475D01*
X175458375Y-82507830D01*
X175661263Y-82399384D01*
X175729983Y-82378538D01*
X175925356Y-82319272D01*
X176200000Y-82292222D01*
X176474643Y-82319272D01*
G37*
G36*
X162274643Y-82319272D02*
G01*
X162470016Y-82378538D01*
X162538736Y-82399384D01*
X162741624Y-82507830D01*
X162782119Y-82529475D01*
X162817419Y-82558445D01*
X162995450Y-82704550D01*
X163138092Y-82878360D01*
X163170525Y-82917880D01*
X163170526Y-82917882D01*
X163300616Y-83161263D01*
X163321462Y-83229983D01*
X163380728Y-83425356D01*
X163401000Y-83631182D01*
X163401000Y-84368817D01*
X163380728Y-84574643D01*
X163321461Y-84770018D01*
X163300616Y-84838737D01*
X163177964Y-85068202D01*
X163170525Y-85082120D01*
X163124918Y-85137691D01*
X162995450Y-85295450D01*
X162837691Y-85424918D01*
X162782120Y-85470525D01*
X162782118Y-85470526D01*
X162538737Y-85600616D01*
X162470017Y-85621462D01*
X162274644Y-85680728D01*
X162000000Y-85707778D01*
X161725357Y-85680728D01*
X161529984Y-85621462D01*
X161461264Y-85600616D01*
X161217883Y-85470526D01*
X161217881Y-85470525D01*
X161176203Y-85436320D01*
X161004550Y-85295450D01*
X160861908Y-85121640D01*
X160829475Y-85082120D01*
X160822036Y-85068202D01*
X160699384Y-84838737D01*
X160678538Y-84770017D01*
X160619272Y-84574644D01*
X160599000Y-84368818D01*
X160599000Y-83631183D01*
X160619272Y-83425357D01*
X160699383Y-83161268D01*
X160699384Y-83161264D01*
X160829474Y-82917883D01*
X160829475Y-82917881D01*
X160863680Y-82876203D01*
X161004550Y-82704550D01*
X161178360Y-82561908D01*
X161217880Y-82529475D01*
X161258375Y-82507830D01*
X161461263Y-82399384D01*
X161529983Y-82378538D01*
X161725356Y-82319272D01*
X162000000Y-82292222D01*
X162274643Y-82319272D01*
G37*
G36*
X184874643Y-82319272D02*
G01*
X185070016Y-82378538D01*
X185138736Y-82399384D01*
X185341624Y-82507830D01*
X185382119Y-82529475D01*
X185417419Y-82558445D01*
X185595450Y-82704550D01*
X185738092Y-82878360D01*
X185770525Y-82917880D01*
X185770526Y-82917882D01*
X185900616Y-83161263D01*
X185921462Y-83229983D01*
X185980728Y-83425356D01*
X186001000Y-83631182D01*
X186001000Y-84368817D01*
X185980728Y-84574643D01*
X185921461Y-84770018D01*
X185900616Y-84838737D01*
X185777964Y-85068202D01*
X185770525Y-85082120D01*
X185724918Y-85137691D01*
X185595450Y-85295450D01*
X185437691Y-85424918D01*
X185382120Y-85470525D01*
X185382118Y-85470526D01*
X185138737Y-85600616D01*
X185070017Y-85621462D01*
X184874644Y-85680728D01*
X184600000Y-85707778D01*
X184325357Y-85680728D01*
X184129984Y-85621462D01*
X184061264Y-85600616D01*
X183817883Y-85470526D01*
X183817881Y-85470525D01*
X183776203Y-85436320D01*
X183604550Y-85295450D01*
X183461908Y-85121640D01*
X183429475Y-85082120D01*
X183422036Y-85068202D01*
X183299384Y-84838737D01*
X183278538Y-84770017D01*
X183219272Y-84574644D01*
X183199000Y-84368818D01*
X183199000Y-83631183D01*
X183219272Y-83425357D01*
X183299383Y-83161268D01*
X183299384Y-83161264D01*
X183429474Y-82917883D01*
X183429475Y-82917881D01*
X183463680Y-82876203D01*
X183604550Y-82704550D01*
X183778360Y-82561908D01*
X183817880Y-82529475D01*
X183858375Y-82507830D01*
X184061263Y-82399384D01*
X184129983Y-82378538D01*
X184325356Y-82319272D01*
X184600000Y-82292222D01*
X184874643Y-82319272D01*
G37*
G36*
X173274031Y-82302621D02*
G01*
X173303486Y-82311556D01*
X173330623Y-82326062D01*
X173354414Y-82345586D01*
X173373938Y-82369377D01*
X173388444Y-82396514D01*
X173397379Y-82425969D01*
X173401000Y-82462734D01*
X173401000Y-85537266D01*
X173397379Y-85574031D01*
X173388444Y-85603486D01*
X173373938Y-85630623D01*
X173354414Y-85654414D01*
X173330623Y-85673938D01*
X173303486Y-85688444D01*
X173274031Y-85697379D01*
X173237266Y-85701000D01*
X170762734Y-85701000D01*
X170725969Y-85697379D01*
X170696514Y-85688444D01*
X170669377Y-85673938D01*
X170645586Y-85654414D01*
X170626062Y-85630623D01*
X170611556Y-85603486D01*
X170602621Y-85574031D01*
X170599000Y-85537266D01*
X170599000Y-82462734D01*
X170602621Y-82425969D01*
X170611556Y-82396514D01*
X170626062Y-82369377D01*
X170645586Y-82345586D01*
X170669377Y-82326062D01*
X170696514Y-82311556D01*
X170725969Y-82302621D01*
X170762734Y-82299000D01*
X173237266Y-82299000D01*
X173274031Y-82302621D01*
G37*
G36*
X142274031Y-82302621D02*
G01*
X142303486Y-82311556D01*
X142330623Y-82326062D01*
X142354414Y-82345586D01*
X142373938Y-82369377D01*
X142388444Y-82396514D01*
X142397379Y-82425969D01*
X142401000Y-82462734D01*
X142401000Y-85537266D01*
X142397379Y-85574031D01*
X142388444Y-85603486D01*
X142373938Y-85630623D01*
X142354414Y-85654414D01*
X142330623Y-85673938D01*
X142303486Y-85688444D01*
X142274031Y-85697379D01*
X142237266Y-85701000D01*
X139762734Y-85701000D01*
X139725969Y-85697379D01*
X139696514Y-85688444D01*
X139669377Y-85673938D01*
X139645586Y-85654414D01*
X139626062Y-85630623D01*
X139611556Y-85603486D01*
X139602621Y-85574031D01*
X139599000Y-85537266D01*
X139599000Y-82462734D01*
X139602621Y-82425969D01*
X139611556Y-82396514D01*
X139626062Y-82369377D01*
X139645586Y-82345586D01*
X139669377Y-82326062D01*
X139696514Y-82311556D01*
X139725969Y-82302621D01*
X139762734Y-82299000D01*
X142237266Y-82299000D01*
X142274031Y-82302621D01*
G37*
G36*
X123318433Y-81794893D02*
G01*
X123408657Y-81812839D01*
X123514267Y-81856585D01*
X123663621Y-81918449D01*
X123663622Y-81918450D01*
X123893086Y-82071772D01*
X124088228Y-82266914D01*
X124174823Y-82396514D01*
X124241551Y-82496379D01*
X124303415Y-82645733D01*
X124327779Y-82704550D01*
X124347161Y-82751344D01*
X124380288Y-82917883D01*
X124401000Y-83022014D01*
X124401000Y-83297986D01*
X124347161Y-83568657D01*
X124303415Y-83674267D01*
X124241551Y-83823621D01*
X124241550Y-83823622D01*
X124088228Y-84053086D01*
X123893086Y-84248228D01*
X123739763Y-84350675D01*
X123663621Y-84401551D01*
X123514267Y-84463415D01*
X123408657Y-84507161D01*
X123318433Y-84525107D01*
X123137988Y-84561000D01*
X122862012Y-84561000D01*
X122681567Y-84525107D01*
X122591343Y-84507161D01*
X122485733Y-84463415D01*
X122336379Y-84401551D01*
X122260237Y-84350675D01*
X122106914Y-84248228D01*
X121911772Y-84053086D01*
X121758450Y-83823622D01*
X121758449Y-83823621D01*
X121696585Y-83674267D01*
X121652839Y-83568657D01*
X121599000Y-83297986D01*
X121599000Y-83022014D01*
X121619713Y-82917883D01*
X121652839Y-82751344D01*
X121672222Y-82704550D01*
X121696585Y-82645733D01*
X121758449Y-82496379D01*
X121825177Y-82396514D01*
X121911772Y-82266914D01*
X122106914Y-82071772D01*
X122336378Y-81918450D01*
X122336379Y-81918449D01*
X122485733Y-81856585D01*
X122591343Y-81812839D01*
X122681567Y-81794893D01*
X122862012Y-81759000D01*
X123137988Y-81759000D01*
X123318433Y-81794893D01*
G37*
G36*
X181413788Y-63975782D02*
G01*
X181669369Y-64053312D01*
X181904905Y-64179209D01*
X182111359Y-64348641D01*
X182280791Y-64555095D01*
X182406688Y-64790631D01*
X182484218Y-65046212D01*
X182511000Y-65318140D01*
X182511000Y-68281860D01*
X182484218Y-68553788D01*
X182406688Y-68809369D01*
X182280791Y-69044905D01*
X182111359Y-69251359D01*
X181904905Y-69420791D01*
X181669369Y-69546688D01*
X181413788Y-69624218D01*
X181141860Y-69651000D01*
X178178140Y-69651000D01*
X177906212Y-69624218D01*
X177650631Y-69546688D01*
X177415095Y-69420791D01*
X177208641Y-69251359D01*
X177039209Y-69044905D01*
X176913312Y-68809369D01*
X176835782Y-68553788D01*
X176809000Y-68281860D01*
X176809000Y-65318140D01*
X176835782Y-65046212D01*
X176913312Y-64790631D01*
X177039209Y-64555095D01*
X177208641Y-64348641D01*
X177415095Y-64179209D01*
X177650631Y-64053312D01*
X177906212Y-63975782D01*
X178178140Y-63949000D01*
X181141860Y-63949000D01*
X181413788Y-63975782D01*
G37*
G36*
X189033788Y-63975782D02*
G01*
X189289369Y-64053312D01*
X189524905Y-64179209D01*
X189731359Y-64348641D01*
X189900791Y-64555095D01*
X190026688Y-64790631D01*
X190104218Y-65046212D01*
X190131000Y-65318140D01*
X190131000Y-68281860D01*
X190104218Y-68553788D01*
X190026688Y-68809369D01*
X189900791Y-69044905D01*
X189731359Y-69251359D01*
X189524905Y-69420791D01*
X189289369Y-69546688D01*
X189033788Y-69624218D01*
X188761860Y-69651000D01*
X185798140Y-69651000D01*
X185526212Y-69624218D01*
X185270631Y-69546688D01*
X185035095Y-69420791D01*
X184828641Y-69251359D01*
X184659209Y-69044905D01*
X184533312Y-68809369D01*
X184455782Y-68553788D01*
X184429000Y-68281860D01*
X184429000Y-65318140D01*
X184455782Y-65046212D01*
X184533312Y-64790631D01*
X184659209Y-64555095D01*
X184828641Y-64348641D01*
X185035095Y-64179209D01*
X185270631Y-64053312D01*
X185526212Y-63975782D01*
X185798140Y-63949000D01*
X188761860Y-63949000D01*
X189033788Y-63975782D01*
G37*
G36*
X173793788Y-63975782D02*
G01*
X174049369Y-64053312D01*
X174284905Y-64179209D01*
X174491359Y-64348641D01*
X174660791Y-64555095D01*
X174786688Y-64790631D01*
X174864218Y-65046212D01*
X174891000Y-65318140D01*
X174891000Y-68281860D01*
X174864218Y-68553788D01*
X174786688Y-68809369D01*
X174660791Y-69044905D01*
X174491359Y-69251359D01*
X174284905Y-69420791D01*
X174049369Y-69546688D01*
X173793788Y-69624218D01*
X173521860Y-69651000D01*
X170558140Y-69651000D01*
X170286212Y-69624218D01*
X170030631Y-69546688D01*
X169795095Y-69420791D01*
X169588641Y-69251359D01*
X169419209Y-69044905D01*
X169293312Y-68809369D01*
X169215782Y-68553788D01*
X169189000Y-68281860D01*
X169189000Y-65318140D01*
X169215782Y-65046212D01*
X169293312Y-64790631D01*
X169419209Y-64555095D01*
X169588641Y-64348641D01*
X169795095Y-64179209D01*
X170030631Y-64053312D01*
X170286212Y-63975782D01*
X170558140Y-63949000D01*
X173521860Y-63949000D01*
X173793788Y-63975782D01*
G37*
G36*
X120453788Y-63975782D02*
G01*
X120709369Y-64053312D01*
X120944905Y-64179209D01*
X121151359Y-64348641D01*
X121320791Y-64555095D01*
X121446688Y-64790631D01*
X121524218Y-65046212D01*
X121551000Y-65318140D01*
X121551000Y-68281860D01*
X121524218Y-68553788D01*
X121446688Y-68809369D01*
X121320791Y-69044905D01*
X121151359Y-69251359D01*
X120944905Y-69420791D01*
X120709369Y-69546688D01*
X120453788Y-69624218D01*
X120181860Y-69651000D01*
X117218140Y-69651000D01*
X116946212Y-69624218D01*
X116690631Y-69546688D01*
X116455095Y-69420791D01*
X116248641Y-69251359D01*
X116079209Y-69044905D01*
X115953312Y-68809369D01*
X115875782Y-68553788D01*
X115849000Y-68281860D01*
X115849000Y-65318140D01*
X115875782Y-65046212D01*
X115953312Y-64790631D01*
X116079209Y-64555095D01*
X116248641Y-64348641D01*
X116455095Y-64179209D01*
X116690631Y-64053312D01*
X116946212Y-63975782D01*
X117218140Y-63949000D01*
X120181860Y-63949000D01*
X120453788Y-63975782D01*
G37*
G36*
X166173788Y-63975782D02*
G01*
X166429369Y-64053312D01*
X166664905Y-64179209D01*
X166871359Y-64348641D01*
X167040791Y-64555095D01*
X167166688Y-64790631D01*
X167244218Y-65046212D01*
X167271000Y-65318140D01*
X167271000Y-68281860D01*
X167244218Y-68553788D01*
X167166688Y-68809369D01*
X167040791Y-69044905D01*
X166871359Y-69251359D01*
X166664905Y-69420791D01*
X166429369Y-69546688D01*
X166173788Y-69624218D01*
X165901860Y-69651000D01*
X162938140Y-69651000D01*
X162666212Y-69624218D01*
X162410631Y-69546688D01*
X162175095Y-69420791D01*
X161968641Y-69251359D01*
X161799209Y-69044905D01*
X161673312Y-68809369D01*
X161595782Y-68553788D01*
X161569000Y-68281860D01*
X161569000Y-65318140D01*
X161595782Y-65046212D01*
X161673312Y-64790631D01*
X161799209Y-64555095D01*
X161968641Y-64348641D01*
X162175095Y-64179209D01*
X162410631Y-64053312D01*
X162666212Y-63975782D01*
X162938140Y-63949000D01*
X165901860Y-63949000D01*
X166173788Y-63975782D01*
G37*
G36*
X143313788Y-63975782D02*
G01*
X143569369Y-64053312D01*
X143804905Y-64179209D01*
X144011359Y-64348641D01*
X144180791Y-64555095D01*
X144306688Y-64790631D01*
X144384218Y-65046212D01*
X144411000Y-65318140D01*
X144411000Y-68281860D01*
X144384218Y-68553788D01*
X144306688Y-68809369D01*
X144180791Y-69044905D01*
X144011359Y-69251359D01*
X143804905Y-69420791D01*
X143569369Y-69546688D01*
X143313788Y-69624218D01*
X143041860Y-69651000D01*
X140078140Y-69651000D01*
X139806212Y-69624218D01*
X139550631Y-69546688D01*
X139315095Y-69420791D01*
X139108641Y-69251359D01*
X138939209Y-69044905D01*
X138813312Y-68809369D01*
X138735782Y-68553788D01*
X138709000Y-68281860D01*
X138709000Y-65318140D01*
X138735782Y-65046212D01*
X138813312Y-64790631D01*
X138939209Y-64555095D01*
X139108641Y-64348641D01*
X139315095Y-64179209D01*
X139550631Y-64053312D01*
X139806212Y-63975782D01*
X140078140Y-63949000D01*
X143041860Y-63949000D01*
X143313788Y-63975782D01*
G37*
G36*
X128073788Y-63975782D02*
G01*
X128329369Y-64053312D01*
X128564905Y-64179209D01*
X128771359Y-64348641D01*
X128940791Y-64555095D01*
X129066688Y-64790631D01*
X129144218Y-65046212D01*
X129171000Y-65318140D01*
X129171000Y-68281860D01*
X129144218Y-68553788D01*
X129066688Y-68809369D01*
X128940791Y-69044905D01*
X128771359Y-69251359D01*
X128564905Y-69420791D01*
X128329369Y-69546688D01*
X128073788Y-69624218D01*
X127801860Y-69651000D01*
X124838140Y-69651000D01*
X124566212Y-69624218D01*
X124310631Y-69546688D01*
X124075095Y-69420791D01*
X123868641Y-69251359D01*
X123699209Y-69044905D01*
X123573312Y-68809369D01*
X123495782Y-68553788D01*
X123469000Y-68281860D01*
X123469000Y-65318140D01*
X123495782Y-65046212D01*
X123573312Y-64790631D01*
X123699209Y-64555095D01*
X123868641Y-64348641D01*
X124075095Y-64179209D01*
X124310631Y-64053312D01*
X124566212Y-63975782D01*
X124838140Y-63949000D01*
X127801860Y-63949000D01*
X128073788Y-63975782D01*
G37*
G36*
X135693788Y-63975782D02*
G01*
X135949369Y-64053312D01*
X136184905Y-64179209D01*
X136391359Y-64348641D01*
X136560791Y-64555095D01*
X136686688Y-64790631D01*
X136764218Y-65046212D01*
X136791000Y-65318140D01*
X136791000Y-68281860D01*
X136764218Y-68553788D01*
X136686688Y-68809369D01*
X136560791Y-69044905D01*
X136391359Y-69251359D01*
X136184905Y-69420791D01*
X135949369Y-69546688D01*
X135693788Y-69624218D01*
X135421860Y-69651000D01*
X132458140Y-69651000D01*
X132186212Y-69624218D01*
X131930631Y-69546688D01*
X131695095Y-69420791D01*
X131488641Y-69251359D01*
X131319209Y-69044905D01*
X131193312Y-68809369D01*
X131115782Y-68553788D01*
X131089000Y-68281860D01*
X131089000Y-65318140D01*
X131115782Y-65046212D01*
X131193312Y-64790631D01*
X131319209Y-64555095D01*
X131488641Y-64348641D01*
X131695095Y-64179209D01*
X131930631Y-64053312D01*
X132186212Y-63975782D01*
X132458140Y-63949000D01*
X135421860Y-63949000D01*
X135693788Y-63975782D01*
G37*
G36*
X158553788Y-63975782D02*
G01*
X158809369Y-64053312D01*
X159044905Y-64179209D01*
X159251359Y-64348641D01*
X159420791Y-64555095D01*
X159546688Y-64790631D01*
X159624218Y-65046212D01*
X159651000Y-65318140D01*
X159651000Y-68281860D01*
X159624218Y-68553788D01*
X159546688Y-68809369D01*
X159420791Y-69044905D01*
X159251359Y-69251359D01*
X159044905Y-69420791D01*
X158809369Y-69546688D01*
X158553788Y-69624218D01*
X158281860Y-69651000D01*
X155318140Y-69651000D01*
X155046212Y-69624218D01*
X154790631Y-69546688D01*
X154555095Y-69420791D01*
X154348641Y-69251359D01*
X154179209Y-69044905D01*
X154053312Y-68809369D01*
X153975782Y-68553788D01*
X153949000Y-68281860D01*
X153949000Y-65318140D01*
X153975782Y-65046212D01*
X154053312Y-64790631D01*
X154179209Y-64555095D01*
X154348641Y-64348641D01*
X154555095Y-64179209D01*
X154790631Y-64053312D01*
X155046212Y-63975782D01*
X155318140Y-63949000D01*
X158281860Y-63949000D01*
X158553788Y-63975782D01*
G37*
G36*
X150933788Y-63975782D02*
G01*
X151189369Y-64053312D01*
X151424905Y-64179209D01*
X151631359Y-64348641D01*
X151800791Y-64555095D01*
X151926688Y-64790631D01*
X152004218Y-65046212D01*
X152031000Y-65318140D01*
X152031000Y-68281860D01*
X152004218Y-68553788D01*
X151926688Y-68809369D01*
X151800791Y-69044905D01*
X151631359Y-69251359D01*
X151424905Y-69420791D01*
X151189369Y-69546688D01*
X150933788Y-69624218D01*
X150661860Y-69651000D01*
X147698140Y-69651000D01*
X147426212Y-69624218D01*
X147170631Y-69546688D01*
X146935095Y-69420791D01*
X146728641Y-69251359D01*
X146559209Y-69044905D01*
X146433312Y-68809369D01*
X146355782Y-68553788D01*
X146329000Y-68281860D01*
X146329000Y-65318140D01*
X146355782Y-65046212D01*
X146433312Y-64790631D01*
X146559209Y-64555095D01*
X146728641Y-64348641D01*
X146935095Y-64179209D01*
X147170631Y-64053312D01*
X147426212Y-63975782D01*
X147698140Y-63949000D01*
X150661860Y-63949000D01*
X150933788Y-63975782D01*
G37*
M02*
