M48
; DRILL file {KiCad (5.1.5)-3} date 2/7/2020 10:07:42 PM
; FORMAT={-:-/ absolute / inch / decimal}
; #@! TF.CreationDate,2020-02-07T22:07:42-08:00
; #@! TF.GenerationSoftware,Kicad,Pcbnew,(5.1.5)-3
FMAT,2
INCH
T1C0.0197
T2C0.0354
T3C0.0394
T4C0.0551
T5C0.0591
T6C0.0669
T7C0.1260
T8C0.0571
T9C0.1063
%
G90
G05
T1
X6.0866Y-4.1339
X6.1143Y-4.067
X6.1143Y-4.2007
X6.1811Y-4.0394
X6.1811Y-4.2283
X6.2479Y-4.067
X6.2479Y-4.2007
X6.2756Y-4.1339
T2
X4.252Y-3.878
X4.252Y-3.9567
X4.252Y-4.0354
T3
X4.9528Y-4.252
X5.0778Y-4.252
X5.2028Y-4.252
T4
X5.0787Y-4.5079
X5.0787Y-4.7244
X5.2441Y-4.5079
X5.2441Y-4.7244
X5.4094Y-4.5079
X5.4094Y-4.7244
X5.5748Y-4.5079
X5.5748Y-4.7244
X5.7402Y-4.5079
X5.7402Y-4.7244
X5.9055Y-4.5079
X5.9055Y-4.7244
X4.189Y-4.5079
X4.189Y-4.7244
X4.3543Y-4.5079
X4.3543Y-4.7244
X4.5197Y-4.5079
X4.5197Y-4.7244
X4.685Y-4.5079
X4.685Y-4.7244
T5
X4.252Y-3.7953
X4.252Y-4.1181
T6
X6.6142Y-4.1535
X6.6142Y-4.3094
X6.6142Y-4.4654
X6.6142Y-4.6213
X6.6142Y-4.7772
T7
X6.1811Y-4.1339
X4.0835Y-5.3228
X4.3835Y-5.3228
X4.6835Y-5.3228
X4.9835Y-5.3228
X5.2835Y-5.3228
X5.5835Y-5.3228
X5.8835Y-5.3228
X6.1835Y-5.3228
X6.4835Y-5.3228
X6.7835Y-5.3228
T8
X6.748Y-4.0945
T9
X4.6063Y-3.9567
X5.5512Y-3.9567
T0
M30
