G04 #@! TF.GenerationSoftware,KiCad,Pcbnew,(5.1.5)-3*
G04 #@! TF.CreationDate,2020-02-06T23:40:33-08:00*
G04 #@! TF.ProjectId,psinterface,7073696e-7465-4726-9661-63652e6b6963,rev?*
G04 #@! TF.SameCoordinates,Original*
G04 #@! TF.FileFunction,Copper,L1,Top*
G04 #@! TF.FilePolarity,Positive*
%FSLAX46Y46*%
G04 Gerber Fmt 4.6, Leading zero omitted, Abs format (unit mm)*
G04 Created by KiCad (PCBNEW (5.1.5)-3) date 2020-02-06 23:40:33*
%MOMM*%
%LPD*%
G04 APERTURE LIST*
%ADD10C,0.100000*%
%ADD11O,2.700000X3.300000*%
%ADD12C,2.700000*%
%ADD13C,6.400000*%
%ADD14C,0.800000*%
%ADD15R,1.700000X1.700000*%
%ADD16O,1.700000X1.700000*%
%ADD17R,2.500000X1.500000*%
%ADD18O,2.500000X1.500000*%
%ADD19O,3.500000X2.200000*%
%ADD20C,4.572000*%
%ADD21C,5.588000*%
%ADD22C,2.794000*%
%ADD23C,1.800000*%
G04 APERTURE END LIST*
G04 #@! TA.AperFunction,ComponentPad*
D10*
G36*
X173124503Y-82351204D02*
G01*
X173148772Y-82354804D01*
X173172570Y-82360765D01*
X173195670Y-82369030D01*
X173217849Y-82379520D01*
X173238892Y-82392133D01*
X173258598Y-82406748D01*
X173276776Y-82423224D01*
X173293252Y-82441402D01*
X173307867Y-82461108D01*
X173320480Y-82482151D01*
X173330970Y-82504330D01*
X173339235Y-82527430D01*
X173345196Y-82551228D01*
X173348796Y-82575497D01*
X173350000Y-82600001D01*
X173350000Y-85399999D01*
X173348796Y-85424503D01*
X173345196Y-85448772D01*
X173339235Y-85472570D01*
X173330970Y-85495670D01*
X173320480Y-85517849D01*
X173307867Y-85538892D01*
X173293252Y-85558598D01*
X173276776Y-85576776D01*
X173258598Y-85593252D01*
X173238892Y-85607867D01*
X173217849Y-85620480D01*
X173195670Y-85630970D01*
X173172570Y-85639235D01*
X173148772Y-85645196D01*
X173124503Y-85648796D01*
X173099999Y-85650000D01*
X170900001Y-85650000D01*
X170875497Y-85648796D01*
X170851228Y-85645196D01*
X170827430Y-85639235D01*
X170804330Y-85630970D01*
X170782151Y-85620480D01*
X170761108Y-85607867D01*
X170741402Y-85593252D01*
X170723224Y-85576776D01*
X170706748Y-85558598D01*
X170692133Y-85538892D01*
X170679520Y-85517849D01*
X170669030Y-85495670D01*
X170660765Y-85472570D01*
X170654804Y-85448772D01*
X170651204Y-85424503D01*
X170650000Y-85399999D01*
X170650000Y-82600001D01*
X170651204Y-82575497D01*
X170654804Y-82551228D01*
X170660765Y-82527430D01*
X170669030Y-82504330D01*
X170679520Y-82482151D01*
X170692133Y-82461108D01*
X170706748Y-82441402D01*
X170723224Y-82423224D01*
X170741402Y-82406748D01*
X170761108Y-82392133D01*
X170782151Y-82379520D01*
X170804330Y-82369030D01*
X170827430Y-82360765D01*
X170851228Y-82354804D01*
X170875497Y-82351204D01*
X170900001Y-82350000D01*
X173099999Y-82350000D01*
X173124503Y-82351204D01*
G37*
G04 #@! TD.AperFunction*
D11*
X176200000Y-84000000D03*
X180400000Y-84000000D03*
X184600000Y-84000000D03*
X172000000Y-89500000D03*
X176200000Y-89500000D03*
X180400000Y-89500000D03*
X184600000Y-89500000D03*
G04 #@! TA.AperFunction,ComponentPad*
D10*
G36*
X142124503Y-82351204D02*
G01*
X142148772Y-82354804D01*
X142172570Y-82360765D01*
X142195670Y-82369030D01*
X142217849Y-82379520D01*
X142238892Y-82392133D01*
X142258598Y-82406748D01*
X142276776Y-82423224D01*
X142293252Y-82441402D01*
X142307867Y-82461108D01*
X142320480Y-82482151D01*
X142330970Y-82504330D01*
X142339235Y-82527430D01*
X142345196Y-82551228D01*
X142348796Y-82575497D01*
X142350000Y-82600001D01*
X142350000Y-85399999D01*
X142348796Y-85424503D01*
X142345196Y-85448772D01*
X142339235Y-85472570D01*
X142330970Y-85495670D01*
X142320480Y-85517849D01*
X142307867Y-85538892D01*
X142293252Y-85558598D01*
X142276776Y-85576776D01*
X142258598Y-85593252D01*
X142238892Y-85607867D01*
X142217849Y-85620480D01*
X142195670Y-85630970D01*
X142172570Y-85639235D01*
X142148772Y-85645196D01*
X142124503Y-85648796D01*
X142099999Y-85650000D01*
X139900001Y-85650000D01*
X139875497Y-85648796D01*
X139851228Y-85645196D01*
X139827430Y-85639235D01*
X139804330Y-85630970D01*
X139782151Y-85620480D01*
X139761108Y-85607867D01*
X139741402Y-85593252D01*
X139723224Y-85576776D01*
X139706748Y-85558598D01*
X139692133Y-85538892D01*
X139679520Y-85517849D01*
X139669030Y-85495670D01*
X139660765Y-85472570D01*
X139654804Y-85448772D01*
X139651204Y-85424503D01*
X139650000Y-85399999D01*
X139650000Y-82600001D01*
X139651204Y-82575497D01*
X139654804Y-82551228D01*
X139660765Y-82527430D01*
X139669030Y-82504330D01*
X139679520Y-82482151D01*
X139692133Y-82461108D01*
X139706748Y-82441402D01*
X139723224Y-82423224D01*
X139741402Y-82406748D01*
X139761108Y-82392133D01*
X139782151Y-82379520D01*
X139804330Y-82369030D01*
X139827430Y-82360765D01*
X139851228Y-82354804D01*
X139875497Y-82351204D01*
X139900001Y-82350000D01*
X142099999Y-82350000D01*
X142124503Y-82351204D01*
G37*
G04 #@! TD.AperFunction*
D11*
X145200000Y-84000000D03*
X149400000Y-84000000D03*
X153600000Y-84000000D03*
X157800000Y-84000000D03*
X162000000Y-84000000D03*
X141000000Y-89500000D03*
X145200000Y-89500000D03*
X149400000Y-89500000D03*
X153600000Y-89500000D03*
X157800000Y-89500000D03*
X162000000Y-89500000D03*
G04 #@! TA.AperFunction,ComponentPad*
D10*
G36*
X124124503Y-97651204D02*
G01*
X124148772Y-97654804D01*
X124172570Y-97660765D01*
X124195670Y-97669030D01*
X124217849Y-97679520D01*
X124238892Y-97692133D01*
X124258598Y-97706748D01*
X124276776Y-97723224D01*
X124293252Y-97741402D01*
X124307867Y-97761108D01*
X124320480Y-97782151D01*
X124330970Y-97804330D01*
X124339235Y-97827430D01*
X124345196Y-97851228D01*
X124348796Y-97875497D01*
X124350000Y-97900001D01*
X124350000Y-100099999D01*
X124348796Y-100124503D01*
X124345196Y-100148772D01*
X124339235Y-100172570D01*
X124330970Y-100195670D01*
X124320480Y-100217849D01*
X124307867Y-100238892D01*
X124293252Y-100258598D01*
X124276776Y-100276776D01*
X124258598Y-100293252D01*
X124238892Y-100307867D01*
X124217849Y-100320480D01*
X124195670Y-100330970D01*
X124172570Y-100339235D01*
X124148772Y-100345196D01*
X124124503Y-100348796D01*
X124099999Y-100350000D01*
X121900001Y-100350000D01*
X121875497Y-100348796D01*
X121851228Y-100345196D01*
X121827430Y-100339235D01*
X121804330Y-100330970D01*
X121782151Y-100320480D01*
X121761108Y-100307867D01*
X121741402Y-100293252D01*
X121723224Y-100276776D01*
X121706748Y-100258598D01*
X121692133Y-100238892D01*
X121679520Y-100217849D01*
X121669030Y-100195670D01*
X121660765Y-100172570D01*
X121654804Y-100148772D01*
X121651204Y-100124503D01*
X121650000Y-100099999D01*
X121650000Y-97900001D01*
X121651204Y-97875497D01*
X121654804Y-97851228D01*
X121660765Y-97827430D01*
X121669030Y-97804330D01*
X121679520Y-97782151D01*
X121692133Y-97761108D01*
X121706748Y-97741402D01*
X121723224Y-97723224D01*
X121741402Y-97706748D01*
X121761108Y-97692133D01*
X121782151Y-97679520D01*
X121804330Y-97669030D01*
X121827430Y-97660765D01*
X121851228Y-97654804D01*
X121875497Y-97651204D01*
X121900001Y-97650000D01*
X124099999Y-97650000D01*
X124124503Y-97651204D01*
G37*
G04 #@! TD.AperFunction*
D12*
X123000000Y-95040000D03*
X123000000Y-91080000D03*
X123000000Y-87120000D03*
X123000000Y-83160000D03*
D13*
X123000000Y-107000000D03*
D14*
X125400000Y-107000000D03*
X124697056Y-108697056D03*
X123000000Y-109400000D03*
X121302944Y-108697056D03*
X120600000Y-107000000D03*
X121302944Y-105302944D03*
X123000000Y-104600000D03*
X124697056Y-105302944D03*
D15*
X164500000Y-95900000D03*
D16*
X161960000Y-95900000D03*
X159420000Y-95900000D03*
D17*
X183000000Y-108000000D03*
D18*
X183000000Y-106000000D03*
X183000000Y-104000000D03*
D19*
X183000000Y-110100000D03*
X183000000Y-101900000D03*
G04 #@! TA.AperFunction,ComponentPad*
D10*
G36*
X150717224Y-64006741D02*
G01*
X150853126Y-64026901D01*
X150986399Y-64060284D01*
X151115757Y-64106569D01*
X151239955Y-64165310D01*
X151357798Y-64235943D01*
X151468151Y-64317785D01*
X151569949Y-64410051D01*
X151662215Y-64511849D01*
X151744057Y-64622202D01*
X151814690Y-64740045D01*
X151873431Y-64864243D01*
X151919716Y-64993601D01*
X151953099Y-65126874D01*
X151973259Y-65262776D01*
X151980000Y-65400000D01*
X151980000Y-68200000D01*
X151973259Y-68337224D01*
X151953099Y-68473126D01*
X151919716Y-68606399D01*
X151873431Y-68735757D01*
X151814690Y-68859955D01*
X151744057Y-68977798D01*
X151662215Y-69088151D01*
X151569949Y-69189949D01*
X151468151Y-69282215D01*
X151357798Y-69364057D01*
X151239955Y-69434690D01*
X151115757Y-69493431D01*
X150986399Y-69539716D01*
X150853126Y-69573099D01*
X150717224Y-69593259D01*
X150580000Y-69600000D01*
X147780000Y-69600000D01*
X147642776Y-69593259D01*
X147506874Y-69573099D01*
X147373601Y-69539716D01*
X147244243Y-69493431D01*
X147120045Y-69434690D01*
X147002202Y-69364057D01*
X146891849Y-69282215D01*
X146790051Y-69189949D01*
X146697785Y-69088151D01*
X146615943Y-68977798D01*
X146545310Y-68859955D01*
X146486569Y-68735757D01*
X146440284Y-68606399D01*
X146406901Y-68473126D01*
X146386741Y-68337224D01*
X146380000Y-68200000D01*
X146380000Y-65400000D01*
X146386741Y-65262776D01*
X146406901Y-65126874D01*
X146440284Y-64993601D01*
X146486569Y-64864243D01*
X146545310Y-64740045D01*
X146615943Y-64622202D01*
X146697785Y-64511849D01*
X146790051Y-64410051D01*
X146891849Y-64317785D01*
X147002202Y-64235943D01*
X147120045Y-64165310D01*
X147244243Y-64106569D01*
X147373601Y-64060284D01*
X147506874Y-64026901D01*
X147642776Y-64006741D01*
X147780000Y-64000000D01*
X150580000Y-64000000D01*
X150717224Y-64006741D01*
G37*
G04 #@! TD.AperFunction*
G04 #@! TA.AperFunction,ComponentPad*
G36*
X158337224Y-64006741D02*
G01*
X158473126Y-64026901D01*
X158606399Y-64060284D01*
X158735757Y-64106569D01*
X158859955Y-64165310D01*
X158977798Y-64235943D01*
X159088151Y-64317785D01*
X159189949Y-64410051D01*
X159282215Y-64511849D01*
X159364057Y-64622202D01*
X159434690Y-64740045D01*
X159493431Y-64864243D01*
X159539716Y-64993601D01*
X159573099Y-65126874D01*
X159593259Y-65262776D01*
X159600000Y-65400000D01*
X159600000Y-68200000D01*
X159593259Y-68337224D01*
X159573099Y-68473126D01*
X159539716Y-68606399D01*
X159493431Y-68735757D01*
X159434690Y-68859955D01*
X159364057Y-68977798D01*
X159282215Y-69088151D01*
X159189949Y-69189949D01*
X159088151Y-69282215D01*
X158977798Y-69364057D01*
X158859955Y-69434690D01*
X158735757Y-69493431D01*
X158606399Y-69539716D01*
X158473126Y-69573099D01*
X158337224Y-69593259D01*
X158200000Y-69600000D01*
X155400000Y-69600000D01*
X155262776Y-69593259D01*
X155126874Y-69573099D01*
X154993601Y-69539716D01*
X154864243Y-69493431D01*
X154740045Y-69434690D01*
X154622202Y-69364057D01*
X154511849Y-69282215D01*
X154410051Y-69189949D01*
X154317785Y-69088151D01*
X154235943Y-68977798D01*
X154165310Y-68859955D01*
X154106569Y-68735757D01*
X154060284Y-68606399D01*
X154026901Y-68473126D01*
X154006741Y-68337224D01*
X154000000Y-68200000D01*
X154000000Y-65400000D01*
X154006741Y-65262776D01*
X154026901Y-65126874D01*
X154060284Y-64993601D01*
X154106569Y-64864243D01*
X154165310Y-64740045D01*
X154235943Y-64622202D01*
X154317785Y-64511849D01*
X154410051Y-64410051D01*
X154511849Y-64317785D01*
X154622202Y-64235943D01*
X154740045Y-64165310D01*
X154864243Y-64106569D01*
X154993601Y-64060284D01*
X155126874Y-64026901D01*
X155262776Y-64006741D01*
X155400000Y-64000000D01*
X158200000Y-64000000D01*
X158337224Y-64006741D01*
G37*
G04 #@! TD.AperFunction*
G04 #@! TA.AperFunction,ComponentPad*
G36*
X135477224Y-64006741D02*
G01*
X135613126Y-64026901D01*
X135746399Y-64060284D01*
X135875757Y-64106569D01*
X135999955Y-64165310D01*
X136117798Y-64235943D01*
X136228151Y-64317785D01*
X136329949Y-64410051D01*
X136422215Y-64511849D01*
X136504057Y-64622202D01*
X136574690Y-64740045D01*
X136633431Y-64864243D01*
X136679716Y-64993601D01*
X136713099Y-65126874D01*
X136733259Y-65262776D01*
X136740000Y-65400000D01*
X136740000Y-68200000D01*
X136733259Y-68337224D01*
X136713099Y-68473126D01*
X136679716Y-68606399D01*
X136633431Y-68735757D01*
X136574690Y-68859955D01*
X136504057Y-68977798D01*
X136422215Y-69088151D01*
X136329949Y-69189949D01*
X136228151Y-69282215D01*
X136117798Y-69364057D01*
X135999955Y-69434690D01*
X135875757Y-69493431D01*
X135746399Y-69539716D01*
X135613126Y-69573099D01*
X135477224Y-69593259D01*
X135340000Y-69600000D01*
X132540000Y-69600000D01*
X132402776Y-69593259D01*
X132266874Y-69573099D01*
X132133601Y-69539716D01*
X132004243Y-69493431D01*
X131880045Y-69434690D01*
X131762202Y-69364057D01*
X131651849Y-69282215D01*
X131550051Y-69189949D01*
X131457785Y-69088151D01*
X131375943Y-68977798D01*
X131305310Y-68859955D01*
X131246569Y-68735757D01*
X131200284Y-68606399D01*
X131166901Y-68473126D01*
X131146741Y-68337224D01*
X131140000Y-68200000D01*
X131140000Y-65400000D01*
X131146741Y-65262776D01*
X131166901Y-65126874D01*
X131200284Y-64993601D01*
X131246569Y-64864243D01*
X131305310Y-64740045D01*
X131375943Y-64622202D01*
X131457785Y-64511849D01*
X131550051Y-64410051D01*
X131651849Y-64317785D01*
X131762202Y-64235943D01*
X131880045Y-64165310D01*
X132004243Y-64106569D01*
X132133601Y-64060284D01*
X132266874Y-64026901D01*
X132402776Y-64006741D01*
X132540000Y-64000000D01*
X135340000Y-64000000D01*
X135477224Y-64006741D01*
G37*
G04 #@! TD.AperFunction*
G04 #@! TA.AperFunction,ComponentPad*
G36*
X127857224Y-64006741D02*
G01*
X127993126Y-64026901D01*
X128126399Y-64060284D01*
X128255757Y-64106569D01*
X128379955Y-64165310D01*
X128497798Y-64235943D01*
X128608151Y-64317785D01*
X128709949Y-64410051D01*
X128802215Y-64511849D01*
X128884057Y-64622202D01*
X128954690Y-64740045D01*
X129013431Y-64864243D01*
X129059716Y-64993601D01*
X129093099Y-65126874D01*
X129113259Y-65262776D01*
X129120000Y-65400000D01*
X129120000Y-68200000D01*
X129113259Y-68337224D01*
X129093099Y-68473126D01*
X129059716Y-68606399D01*
X129013431Y-68735757D01*
X128954690Y-68859955D01*
X128884057Y-68977798D01*
X128802215Y-69088151D01*
X128709949Y-69189949D01*
X128608151Y-69282215D01*
X128497798Y-69364057D01*
X128379955Y-69434690D01*
X128255757Y-69493431D01*
X128126399Y-69539716D01*
X127993126Y-69573099D01*
X127857224Y-69593259D01*
X127720000Y-69600000D01*
X124920000Y-69600000D01*
X124782776Y-69593259D01*
X124646874Y-69573099D01*
X124513601Y-69539716D01*
X124384243Y-69493431D01*
X124260045Y-69434690D01*
X124142202Y-69364057D01*
X124031849Y-69282215D01*
X123930051Y-69189949D01*
X123837785Y-69088151D01*
X123755943Y-68977798D01*
X123685310Y-68859955D01*
X123626569Y-68735757D01*
X123580284Y-68606399D01*
X123546901Y-68473126D01*
X123526741Y-68337224D01*
X123520000Y-68200000D01*
X123520000Y-65400000D01*
X123526741Y-65262776D01*
X123546901Y-65126874D01*
X123580284Y-64993601D01*
X123626569Y-64864243D01*
X123685310Y-64740045D01*
X123755943Y-64622202D01*
X123837785Y-64511849D01*
X123930051Y-64410051D01*
X124031849Y-64317785D01*
X124142202Y-64235943D01*
X124260045Y-64165310D01*
X124384243Y-64106569D01*
X124513601Y-64060284D01*
X124646874Y-64026901D01*
X124782776Y-64006741D01*
X124920000Y-64000000D01*
X127720000Y-64000000D01*
X127857224Y-64006741D01*
G37*
G04 #@! TD.AperFunction*
G04 #@! TA.AperFunction,ComponentPad*
G36*
X143097224Y-64006741D02*
G01*
X143233126Y-64026901D01*
X143366399Y-64060284D01*
X143495757Y-64106569D01*
X143619955Y-64165310D01*
X143737798Y-64235943D01*
X143848151Y-64317785D01*
X143949949Y-64410051D01*
X144042215Y-64511849D01*
X144124057Y-64622202D01*
X144194690Y-64740045D01*
X144253431Y-64864243D01*
X144299716Y-64993601D01*
X144333099Y-65126874D01*
X144353259Y-65262776D01*
X144360000Y-65400000D01*
X144360000Y-68200000D01*
X144353259Y-68337224D01*
X144333099Y-68473126D01*
X144299716Y-68606399D01*
X144253431Y-68735757D01*
X144194690Y-68859955D01*
X144124057Y-68977798D01*
X144042215Y-69088151D01*
X143949949Y-69189949D01*
X143848151Y-69282215D01*
X143737798Y-69364057D01*
X143619955Y-69434690D01*
X143495757Y-69493431D01*
X143366399Y-69539716D01*
X143233126Y-69573099D01*
X143097224Y-69593259D01*
X142960000Y-69600000D01*
X140160000Y-69600000D01*
X140022776Y-69593259D01*
X139886874Y-69573099D01*
X139753601Y-69539716D01*
X139624243Y-69493431D01*
X139500045Y-69434690D01*
X139382202Y-69364057D01*
X139271849Y-69282215D01*
X139170051Y-69189949D01*
X139077785Y-69088151D01*
X138995943Y-68977798D01*
X138925310Y-68859955D01*
X138866569Y-68735757D01*
X138820284Y-68606399D01*
X138786901Y-68473126D01*
X138766741Y-68337224D01*
X138760000Y-68200000D01*
X138760000Y-65400000D01*
X138766741Y-65262776D01*
X138786901Y-65126874D01*
X138820284Y-64993601D01*
X138866569Y-64864243D01*
X138925310Y-64740045D01*
X138995943Y-64622202D01*
X139077785Y-64511849D01*
X139170051Y-64410051D01*
X139271849Y-64317785D01*
X139382202Y-64235943D01*
X139500045Y-64165310D01*
X139624243Y-64106569D01*
X139753601Y-64060284D01*
X139886874Y-64026901D01*
X140022776Y-64006741D01*
X140160000Y-64000000D01*
X142960000Y-64000000D01*
X143097224Y-64006741D01*
G37*
G04 #@! TD.AperFunction*
G04 #@! TA.AperFunction,ComponentPad*
G36*
X165957224Y-64006741D02*
G01*
X166093126Y-64026901D01*
X166226399Y-64060284D01*
X166355757Y-64106569D01*
X166479955Y-64165310D01*
X166597798Y-64235943D01*
X166708151Y-64317785D01*
X166809949Y-64410051D01*
X166902215Y-64511849D01*
X166984057Y-64622202D01*
X167054690Y-64740045D01*
X167113431Y-64864243D01*
X167159716Y-64993601D01*
X167193099Y-65126874D01*
X167213259Y-65262776D01*
X167220000Y-65400000D01*
X167220000Y-68200000D01*
X167213259Y-68337224D01*
X167193099Y-68473126D01*
X167159716Y-68606399D01*
X167113431Y-68735757D01*
X167054690Y-68859955D01*
X166984057Y-68977798D01*
X166902215Y-69088151D01*
X166809949Y-69189949D01*
X166708151Y-69282215D01*
X166597798Y-69364057D01*
X166479955Y-69434690D01*
X166355757Y-69493431D01*
X166226399Y-69539716D01*
X166093126Y-69573099D01*
X165957224Y-69593259D01*
X165820000Y-69600000D01*
X163020000Y-69600000D01*
X162882776Y-69593259D01*
X162746874Y-69573099D01*
X162613601Y-69539716D01*
X162484243Y-69493431D01*
X162360045Y-69434690D01*
X162242202Y-69364057D01*
X162131849Y-69282215D01*
X162030051Y-69189949D01*
X161937785Y-69088151D01*
X161855943Y-68977798D01*
X161785310Y-68859955D01*
X161726569Y-68735757D01*
X161680284Y-68606399D01*
X161646901Y-68473126D01*
X161626741Y-68337224D01*
X161620000Y-68200000D01*
X161620000Y-65400000D01*
X161626741Y-65262776D01*
X161646901Y-65126874D01*
X161680284Y-64993601D01*
X161726569Y-64864243D01*
X161785310Y-64740045D01*
X161855943Y-64622202D01*
X161937785Y-64511849D01*
X162030051Y-64410051D01*
X162131849Y-64317785D01*
X162242202Y-64235943D01*
X162360045Y-64165310D01*
X162484243Y-64106569D01*
X162613601Y-64060284D01*
X162746874Y-64026901D01*
X162882776Y-64006741D01*
X163020000Y-64000000D01*
X165820000Y-64000000D01*
X165957224Y-64006741D01*
G37*
G04 #@! TD.AperFunction*
G04 #@! TA.AperFunction,ComponentPad*
G36*
X120237224Y-64006741D02*
G01*
X120373126Y-64026901D01*
X120506399Y-64060284D01*
X120635757Y-64106569D01*
X120759955Y-64165310D01*
X120877798Y-64235943D01*
X120988151Y-64317785D01*
X121089949Y-64410051D01*
X121182215Y-64511849D01*
X121264057Y-64622202D01*
X121334690Y-64740045D01*
X121393431Y-64864243D01*
X121439716Y-64993601D01*
X121473099Y-65126874D01*
X121493259Y-65262776D01*
X121500000Y-65400000D01*
X121500000Y-68200000D01*
X121493259Y-68337224D01*
X121473099Y-68473126D01*
X121439716Y-68606399D01*
X121393431Y-68735757D01*
X121334690Y-68859955D01*
X121264057Y-68977798D01*
X121182215Y-69088151D01*
X121089949Y-69189949D01*
X120988151Y-69282215D01*
X120877798Y-69364057D01*
X120759955Y-69434690D01*
X120635757Y-69493431D01*
X120506399Y-69539716D01*
X120373126Y-69573099D01*
X120237224Y-69593259D01*
X120100000Y-69600000D01*
X117300000Y-69600000D01*
X117162776Y-69593259D01*
X117026874Y-69573099D01*
X116893601Y-69539716D01*
X116764243Y-69493431D01*
X116640045Y-69434690D01*
X116522202Y-69364057D01*
X116411849Y-69282215D01*
X116310051Y-69189949D01*
X116217785Y-69088151D01*
X116135943Y-68977798D01*
X116065310Y-68859955D01*
X116006569Y-68735757D01*
X115960284Y-68606399D01*
X115926901Y-68473126D01*
X115906741Y-68337224D01*
X115900000Y-68200000D01*
X115900000Y-65400000D01*
X115906741Y-65262776D01*
X115926901Y-65126874D01*
X115960284Y-64993601D01*
X116006569Y-64864243D01*
X116065310Y-64740045D01*
X116135943Y-64622202D01*
X116217785Y-64511849D01*
X116310051Y-64410051D01*
X116411849Y-64317785D01*
X116522202Y-64235943D01*
X116640045Y-64165310D01*
X116764243Y-64106569D01*
X116893601Y-64060284D01*
X117026874Y-64026901D01*
X117162776Y-64006741D01*
X117300000Y-64000000D01*
X120100000Y-64000000D01*
X120237224Y-64006741D01*
G37*
G04 #@! TD.AperFunction*
G04 #@! TA.AperFunction,ComponentPad*
G36*
X173577224Y-64006741D02*
G01*
X173713126Y-64026901D01*
X173846399Y-64060284D01*
X173975757Y-64106569D01*
X174099955Y-64165310D01*
X174217798Y-64235943D01*
X174328151Y-64317785D01*
X174429949Y-64410051D01*
X174522215Y-64511849D01*
X174604057Y-64622202D01*
X174674690Y-64740045D01*
X174733431Y-64864243D01*
X174779716Y-64993601D01*
X174813099Y-65126874D01*
X174833259Y-65262776D01*
X174840000Y-65400000D01*
X174840000Y-68200000D01*
X174833259Y-68337224D01*
X174813099Y-68473126D01*
X174779716Y-68606399D01*
X174733431Y-68735757D01*
X174674690Y-68859955D01*
X174604057Y-68977798D01*
X174522215Y-69088151D01*
X174429949Y-69189949D01*
X174328151Y-69282215D01*
X174217798Y-69364057D01*
X174099955Y-69434690D01*
X173975757Y-69493431D01*
X173846399Y-69539716D01*
X173713126Y-69573099D01*
X173577224Y-69593259D01*
X173440000Y-69600000D01*
X170640000Y-69600000D01*
X170502776Y-69593259D01*
X170366874Y-69573099D01*
X170233601Y-69539716D01*
X170104243Y-69493431D01*
X169980045Y-69434690D01*
X169862202Y-69364057D01*
X169751849Y-69282215D01*
X169650051Y-69189949D01*
X169557785Y-69088151D01*
X169475943Y-68977798D01*
X169405310Y-68859955D01*
X169346569Y-68735757D01*
X169300284Y-68606399D01*
X169266901Y-68473126D01*
X169246741Y-68337224D01*
X169240000Y-68200000D01*
X169240000Y-65400000D01*
X169246741Y-65262776D01*
X169266901Y-65126874D01*
X169300284Y-64993601D01*
X169346569Y-64864243D01*
X169405310Y-64740045D01*
X169475943Y-64622202D01*
X169557785Y-64511849D01*
X169650051Y-64410051D01*
X169751849Y-64317785D01*
X169862202Y-64235943D01*
X169980045Y-64165310D01*
X170104243Y-64106569D01*
X170233601Y-64060284D01*
X170366874Y-64026901D01*
X170502776Y-64006741D01*
X170640000Y-64000000D01*
X173440000Y-64000000D01*
X173577224Y-64006741D01*
G37*
G04 #@! TD.AperFunction*
G04 #@! TA.AperFunction,ComponentPad*
G36*
X188817224Y-64006741D02*
G01*
X188953126Y-64026901D01*
X189086399Y-64060284D01*
X189215757Y-64106569D01*
X189339955Y-64165310D01*
X189457798Y-64235943D01*
X189568151Y-64317785D01*
X189669949Y-64410051D01*
X189762215Y-64511849D01*
X189844057Y-64622202D01*
X189914690Y-64740045D01*
X189973431Y-64864243D01*
X190019716Y-64993601D01*
X190053099Y-65126874D01*
X190073259Y-65262776D01*
X190080000Y-65400000D01*
X190080000Y-68200000D01*
X190073259Y-68337224D01*
X190053099Y-68473126D01*
X190019716Y-68606399D01*
X189973431Y-68735757D01*
X189914690Y-68859955D01*
X189844057Y-68977798D01*
X189762215Y-69088151D01*
X189669949Y-69189949D01*
X189568151Y-69282215D01*
X189457798Y-69364057D01*
X189339955Y-69434690D01*
X189215757Y-69493431D01*
X189086399Y-69539716D01*
X188953126Y-69573099D01*
X188817224Y-69593259D01*
X188680000Y-69600000D01*
X185880000Y-69600000D01*
X185742776Y-69593259D01*
X185606874Y-69573099D01*
X185473601Y-69539716D01*
X185344243Y-69493431D01*
X185220045Y-69434690D01*
X185102202Y-69364057D01*
X184991849Y-69282215D01*
X184890051Y-69189949D01*
X184797785Y-69088151D01*
X184715943Y-68977798D01*
X184645310Y-68859955D01*
X184586569Y-68735757D01*
X184540284Y-68606399D01*
X184506901Y-68473126D01*
X184486741Y-68337224D01*
X184480000Y-68200000D01*
X184480000Y-65400000D01*
X184486741Y-65262776D01*
X184506901Y-65126874D01*
X184540284Y-64993601D01*
X184586569Y-64864243D01*
X184645310Y-64740045D01*
X184715943Y-64622202D01*
X184797785Y-64511849D01*
X184890051Y-64410051D01*
X184991849Y-64317785D01*
X185102202Y-64235943D01*
X185220045Y-64165310D01*
X185344243Y-64106569D01*
X185473601Y-64060284D01*
X185606874Y-64026901D01*
X185742776Y-64006741D01*
X185880000Y-64000000D01*
X188680000Y-64000000D01*
X188817224Y-64006741D01*
G37*
G04 #@! TD.AperFunction*
G04 #@! TA.AperFunction,ComponentPad*
G36*
X181197224Y-64006741D02*
G01*
X181333126Y-64026901D01*
X181466399Y-64060284D01*
X181595757Y-64106569D01*
X181719955Y-64165310D01*
X181837798Y-64235943D01*
X181948151Y-64317785D01*
X182049949Y-64410051D01*
X182142215Y-64511849D01*
X182224057Y-64622202D01*
X182294690Y-64740045D01*
X182353431Y-64864243D01*
X182399716Y-64993601D01*
X182433099Y-65126874D01*
X182453259Y-65262776D01*
X182460000Y-65400000D01*
X182460000Y-68200000D01*
X182453259Y-68337224D01*
X182433099Y-68473126D01*
X182399716Y-68606399D01*
X182353431Y-68735757D01*
X182294690Y-68859955D01*
X182224057Y-68977798D01*
X182142215Y-69088151D01*
X182049949Y-69189949D01*
X181948151Y-69282215D01*
X181837798Y-69364057D01*
X181719955Y-69434690D01*
X181595757Y-69493431D01*
X181466399Y-69539716D01*
X181333126Y-69573099D01*
X181197224Y-69593259D01*
X181060000Y-69600000D01*
X178260000Y-69600000D01*
X178122776Y-69593259D01*
X177986874Y-69573099D01*
X177853601Y-69539716D01*
X177724243Y-69493431D01*
X177600045Y-69434690D01*
X177482202Y-69364057D01*
X177371849Y-69282215D01*
X177270051Y-69189949D01*
X177177785Y-69088151D01*
X177095943Y-68977798D01*
X177025310Y-68859955D01*
X176966569Y-68735757D01*
X176920284Y-68606399D01*
X176886901Y-68473126D01*
X176866741Y-68337224D01*
X176860000Y-68200000D01*
X176860000Y-65400000D01*
X176866741Y-65262776D01*
X176886901Y-65126874D01*
X176920284Y-64993601D01*
X176966569Y-64864243D01*
X177025310Y-64740045D01*
X177095943Y-64622202D01*
X177177785Y-64511849D01*
X177270051Y-64410051D01*
X177371849Y-64317785D01*
X177482202Y-64235943D01*
X177600045Y-64165310D01*
X177724243Y-64106569D01*
X177853601Y-64060284D01*
X177986874Y-64026901D01*
X178122776Y-64006741D01*
X178260000Y-64000000D01*
X181060000Y-64000000D01*
X181197224Y-64006741D01*
G37*
G04 #@! TD.AperFunction*
D14*
X142000000Y-109000000D03*
X142000000Y-98000000D03*
X148000000Y-98000000D03*
X153000000Y-98000000D03*
X183000000Y-98000000D03*
X183000000Y-94000000D03*
X179000000Y-94000000D03*
X179000000Y-98000000D03*
X175000000Y-94000000D03*
X153000000Y-94000000D03*
X148000000Y-94000000D03*
X142000000Y-94000000D03*
X148000000Y-103000000D03*
X142000000Y-103000000D03*
X168000000Y-88000000D03*
X168000000Y-84000000D03*
X168000000Y-80000000D03*
X172040000Y-79960000D03*
X176000000Y-80000000D03*
X172040000Y-75960000D03*
X179660000Y-73340000D03*
X172040000Y-72960000D03*
X179660000Y-71340000D03*
X172040000Y-71960000D03*
X172040000Y-73960000D03*
X179660000Y-72340000D03*
X179660000Y-74340000D03*
X172040000Y-74960000D03*
X179660000Y-75340000D03*
X148000000Y-109000000D03*
X153000000Y-103000000D03*
X153000000Y-109000000D03*
X158000000Y-98000000D03*
X158000000Y-103000000D03*
X158000000Y-109000000D03*
X163000000Y-103000000D03*
X163000000Y-109000000D03*
X168000000Y-103000000D03*
X168000000Y-109000000D03*
X173000000Y-103000000D03*
X173000000Y-109000000D03*
X158000000Y-94000000D03*
X168000000Y-95000000D03*
X165000000Y-92000000D03*
X165000000Y-94000000D03*
X187280000Y-71220000D03*
X187280000Y-72220000D03*
X187280000Y-73220000D03*
X187280000Y-74220000D03*
X187280000Y-75220000D03*
X156800000Y-70700000D03*
X156800000Y-71700000D03*
X156800000Y-72700000D03*
X156800000Y-73700000D03*
D20*
X172040000Y-83960000D02*
X172000000Y-84000000D01*
X172040000Y-66800000D02*
X172040000Y-83960000D01*
X179660000Y-76340000D02*
X176000000Y-80000000D01*
X179660000Y-66800000D02*
X179660000Y-70340000D01*
X176000000Y-80000000D02*
X172000000Y-84000000D01*
X179660000Y-73340000D02*
X179660000Y-74340000D01*
X179660000Y-71340000D02*
X179660000Y-72340000D01*
X179660000Y-72340000D02*
X179660000Y-73340000D01*
X179660000Y-74340000D02*
X179660000Y-75340000D01*
X179660000Y-70340000D02*
X179660000Y-71340000D01*
X179660000Y-75340000D02*
X179660000Y-76340000D01*
X187280000Y-77120000D02*
X180400000Y-84000000D01*
X187280000Y-66800000D02*
X187280000Y-77120000D01*
X180400000Y-89500000D02*
X180400000Y-84000000D01*
X184600000Y-89500000D02*
X180400000Y-89500000D01*
X184600000Y-84000000D02*
X180400000Y-84000000D01*
X145200000Y-82475063D02*
X145200000Y-83278000D01*
X145200000Y-83278000D02*
X145200000Y-89500000D01*
X145200000Y-82475063D02*
X145200000Y-84000000D01*
X159787114Y-79863990D02*
X147811073Y-79863990D01*
X164420000Y-75231104D02*
X159787114Y-79863990D01*
X147811073Y-79863990D02*
X145200000Y-82475063D01*
X164420000Y-66800000D02*
X164420000Y-75231104D01*
X141000000Y-83278000D02*
X141000000Y-89500000D01*
X144414010Y-79863990D02*
X141000000Y-83278000D01*
X156800000Y-75251104D02*
X152187114Y-79863990D01*
X152187114Y-79863990D02*
X144414010Y-79863990D01*
X156800000Y-66800000D02*
X156800000Y-71200000D01*
X156800000Y-74200000D02*
X156800000Y-75251104D01*
X156800000Y-71200000D02*
X156800000Y-73700000D01*
X156800000Y-73700000D02*
X156800000Y-74200000D01*
D21*
X133940000Y-96060000D02*
X123000000Y-107000000D01*
X133940000Y-66800000D02*
X133940000Y-96060000D01*
D22*
X121650000Y-99000000D02*
X123000000Y-99000000D01*
X118700000Y-96050000D02*
X121650000Y-99000000D01*
X118700000Y-66800000D02*
X118700000Y-96050000D01*
X123000000Y-95040000D02*
X123000000Y-99000000D01*
X126320000Y-79840000D02*
X123000000Y-83160000D01*
X126320000Y-66800000D02*
X126320000Y-79840000D01*
X123000000Y-83160000D02*
X123000000Y-87120000D01*
D23*
G36*
X173767001Y-74729598D02*
G01*
X173760067Y-74800000D01*
X173787735Y-75080917D01*
X173869675Y-75351039D01*
X174002739Y-75599984D01*
X174181814Y-75818186D01*
X174400016Y-75997261D01*
X174648961Y-76130325D01*
X174919083Y-76212265D01*
X175129608Y-76233000D01*
X175129609Y-76233000D01*
X175200000Y-76239933D01*
X175270392Y-76233000D01*
X176529608Y-76233000D01*
X176600000Y-76239933D01*
X176670391Y-76233000D01*
X176670392Y-76233000D01*
X176880917Y-76212265D01*
X177151039Y-76130325D01*
X177399984Y-75997261D01*
X177618186Y-75818186D01*
X177797261Y-75599984D01*
X177930325Y-75351039D01*
X178012265Y-75080917D01*
X178039933Y-74800000D01*
X178033000Y-74729608D01*
X178033000Y-64133000D01*
X181367000Y-64133000D01*
X181367001Y-74729598D01*
X181360067Y-74800000D01*
X181387735Y-75080917D01*
X181469675Y-75351039D01*
X181602739Y-75599984D01*
X181781814Y-75818186D01*
X182000016Y-75997261D01*
X182248961Y-76130325D01*
X182519083Y-76212265D01*
X182729608Y-76233000D01*
X182729609Y-76233000D01*
X182800000Y-76239933D01*
X182870392Y-76233000D01*
X182942895Y-76233000D01*
X177916273Y-81259623D01*
X177775309Y-81375309D01*
X177313690Y-81937794D01*
X176970677Y-82579528D01*
X176759450Y-83275850D01*
X176688127Y-84000000D01*
X176706001Y-84181476D01*
X176706000Y-89318533D01*
X176688127Y-89500000D01*
X176759450Y-90224150D01*
X176970677Y-90920472D01*
X177313690Y-91562206D01*
X177758565Y-92104288D01*
X177775309Y-92124691D01*
X178337794Y-92586310D01*
X178979528Y-92929323D01*
X179675850Y-93140550D01*
X180400000Y-93211873D01*
X180581466Y-93194000D01*
X184781466Y-93194000D01*
X185324150Y-93140550D01*
X186020472Y-92929323D01*
X186662206Y-92586310D01*
X187224691Y-92124691D01*
X187686310Y-91562206D01*
X188029323Y-90920472D01*
X188240550Y-90224150D01*
X188311873Y-89500000D01*
X188240550Y-88775850D01*
X188029323Y-88079528D01*
X187686310Y-87437794D01*
X187224691Y-86875309D01*
X187072001Y-86750000D01*
X187224691Y-86624691D01*
X187686310Y-86062206D01*
X188029323Y-85420472D01*
X188240550Y-84724150D01*
X188311873Y-84000000D01*
X188240550Y-83275850D01*
X188029323Y-82579528D01*
X187686310Y-81937794D01*
X188967000Y-80657105D01*
X188967001Y-107329599D01*
X188967000Y-107329609D01*
X188967001Y-110767000D01*
X186068520Y-110767000D01*
X186121711Y-110591654D01*
X186170135Y-110100000D01*
X186121711Y-109608346D01*
X185978301Y-109135586D01*
X185745416Y-108699888D01*
X185664812Y-108601672D01*
X185664812Y-107250000D01*
X185637627Y-106973984D01*
X185557116Y-106708575D01*
X185546298Y-106688337D01*
X185626775Y-106423042D01*
X185668441Y-106000000D01*
X185626775Y-105576958D01*
X185503378Y-105170174D01*
X185412418Y-105000000D01*
X185503378Y-104829826D01*
X185626775Y-104423042D01*
X185668441Y-104000000D01*
X185626775Y-103576958D01*
X185597477Y-103480376D01*
X185745416Y-103300112D01*
X185978301Y-102864414D01*
X186121711Y-102391654D01*
X186170135Y-101900000D01*
X186121711Y-101408346D01*
X185978301Y-100935586D01*
X185745416Y-100499888D01*
X185432005Y-100117995D01*
X185050112Y-99804584D01*
X184614414Y-99571699D01*
X184141654Y-99428289D01*
X183773208Y-99392000D01*
X182226792Y-99392000D01*
X181858346Y-99428289D01*
X181385586Y-99571699D01*
X180949888Y-99804584D01*
X180567995Y-100117995D01*
X180254584Y-100499888D01*
X180021699Y-100935586D01*
X179878289Y-101408346D01*
X179829865Y-101900000D01*
X179878289Y-102391654D01*
X180021699Y-102864414D01*
X180254584Y-103300112D01*
X180402523Y-103480376D01*
X180373225Y-103576958D01*
X180331559Y-104000000D01*
X180373225Y-104423042D01*
X180496622Y-104829826D01*
X180587582Y-105000000D01*
X180496622Y-105170174D01*
X180373225Y-105576958D01*
X180331559Y-106000000D01*
X180373225Y-106423042D01*
X180453702Y-106688337D01*
X180442884Y-106708575D01*
X180362373Y-106973984D01*
X180335188Y-107250000D01*
X180335188Y-108601672D01*
X180254584Y-108699888D01*
X180021699Y-109135586D01*
X179878289Y-109608346D01*
X179829865Y-110100000D01*
X179878289Y-110591654D01*
X179931480Y-110767000D01*
X139400000Y-110767000D01*
X139400000Y-95677606D01*
X157162000Y-95677606D01*
X157162000Y-96122394D01*
X157248774Y-96558634D01*
X157418987Y-96969564D01*
X157666097Y-97339391D01*
X157980609Y-97653903D01*
X158350436Y-97901013D01*
X158761366Y-98071226D01*
X159197606Y-98158000D01*
X159642394Y-98158000D01*
X160078634Y-98071226D01*
X160489564Y-97901013D01*
X160690000Y-97767086D01*
X160890436Y-97901013D01*
X161301366Y-98071226D01*
X161737606Y-98158000D01*
X162182394Y-98158000D01*
X162618634Y-98071226D01*
X163029564Y-97901013D01*
X163399391Y-97653903D01*
X163713903Y-97339391D01*
X163961013Y-96969564D01*
X164131226Y-96558634D01*
X164218000Y-96122394D01*
X164218000Y-95677606D01*
X164131226Y-95241366D01*
X163961013Y-94830436D01*
X163713903Y-94460609D01*
X163399391Y-94146097D01*
X163029564Y-93898987D01*
X162618634Y-93728774D01*
X162182394Y-93642000D01*
X161737606Y-93642000D01*
X161301366Y-93728774D01*
X160890436Y-93898987D01*
X160690000Y-94032914D01*
X160489564Y-93898987D01*
X160078634Y-93728774D01*
X159642394Y-93642000D01*
X159197606Y-93642000D01*
X158761366Y-93728774D01*
X158350436Y-93898987D01*
X157980609Y-94146097D01*
X157666097Y-94460609D01*
X157418987Y-94830436D01*
X157248774Y-95241366D01*
X157162000Y-95677606D01*
X139400000Y-95677606D01*
X139400000Y-92833363D01*
X139579529Y-92929323D01*
X140275851Y-93140550D01*
X141000000Y-93211873D01*
X141724150Y-93140550D01*
X142420472Y-92929323D01*
X143062206Y-92586310D01*
X143100000Y-92555293D01*
X143137795Y-92586310D01*
X143779529Y-92929323D01*
X144475851Y-93140550D01*
X145200000Y-93211873D01*
X145924150Y-93140550D01*
X146620472Y-92929323D01*
X147262206Y-92586310D01*
X147824691Y-92124691D01*
X148286310Y-91562206D01*
X148629323Y-90920472D01*
X148840550Y-90224150D01*
X148894000Y-89681466D01*
X148894000Y-84005167D01*
X149341178Y-83557990D01*
X152005648Y-83557990D01*
X152187114Y-83575863D01*
X152368580Y-83557990D01*
X155042643Y-83557990D01*
X155042000Y-83564518D01*
X155042000Y-84435483D01*
X155081907Y-84840662D01*
X155239612Y-85360547D01*
X155495712Y-85839676D01*
X155840365Y-86259636D01*
X156260325Y-86604288D01*
X156532932Y-86750000D01*
X156260324Y-86895712D01*
X155840364Y-87240365D01*
X155495712Y-87660325D01*
X155239612Y-88139454D01*
X155081907Y-88659339D01*
X155042000Y-89064518D01*
X155042000Y-89935483D01*
X155081907Y-90340662D01*
X155239612Y-90860547D01*
X155495712Y-91339676D01*
X155840365Y-91759636D01*
X156260325Y-92104288D01*
X156739454Y-92360388D01*
X157259339Y-92518093D01*
X157800000Y-92571344D01*
X158340662Y-92518093D01*
X158860547Y-92360388D01*
X159339676Y-92104288D01*
X159759636Y-91759636D01*
X159900000Y-91588601D01*
X160040365Y-91759636D01*
X160460325Y-92104288D01*
X160939454Y-92360388D01*
X161459339Y-92518093D01*
X162000000Y-92571344D01*
X162540662Y-92518093D01*
X163060547Y-92360388D01*
X163539676Y-92104288D01*
X163959636Y-91759636D01*
X164304288Y-91339676D01*
X164560388Y-90860546D01*
X164718093Y-90340661D01*
X164758000Y-89935482D01*
X164758000Y-89064517D01*
X164718093Y-88659338D01*
X164560388Y-88139453D01*
X164304288Y-87660324D01*
X163959635Y-87240364D01*
X163539675Y-86895712D01*
X163267068Y-86750000D01*
X163539676Y-86604288D01*
X163959636Y-86259636D01*
X164304288Y-85839676D01*
X164560388Y-85360546D01*
X164718093Y-84840661D01*
X164758000Y-84435482D01*
X164758000Y-83564517D01*
X164718093Y-83159338D01*
X164560388Y-82639453D01*
X164304288Y-82160324D01*
X163959635Y-81740364D01*
X163539675Y-81395712D01*
X163500458Y-81374750D01*
X166903732Y-77971477D01*
X167044691Y-77855795D01*
X167506310Y-77293310D01*
X167849323Y-76651576D01*
X167976297Y-76233000D01*
X168829608Y-76233000D01*
X168900000Y-76239933D01*
X168970391Y-76233000D01*
X168970392Y-76233000D01*
X169180917Y-76212265D01*
X169451039Y-76130325D01*
X169699984Y-75997261D01*
X169918186Y-75818186D01*
X170097261Y-75599984D01*
X170230325Y-75351039D01*
X170312265Y-75080917D01*
X170339933Y-74800000D01*
X170333000Y-74729608D01*
X170333000Y-64133000D01*
X173767000Y-64133000D01*
X173767001Y-74729598D01*
G37*
X173767001Y-74729598D02*
X173760067Y-74800000D01*
X173787735Y-75080917D01*
X173869675Y-75351039D01*
X174002739Y-75599984D01*
X174181814Y-75818186D01*
X174400016Y-75997261D01*
X174648961Y-76130325D01*
X174919083Y-76212265D01*
X175129608Y-76233000D01*
X175129609Y-76233000D01*
X175200000Y-76239933D01*
X175270392Y-76233000D01*
X176529608Y-76233000D01*
X176600000Y-76239933D01*
X176670391Y-76233000D01*
X176670392Y-76233000D01*
X176880917Y-76212265D01*
X177151039Y-76130325D01*
X177399984Y-75997261D01*
X177618186Y-75818186D01*
X177797261Y-75599984D01*
X177930325Y-75351039D01*
X178012265Y-75080917D01*
X178039933Y-74800000D01*
X178033000Y-74729608D01*
X178033000Y-64133000D01*
X181367000Y-64133000D01*
X181367001Y-74729598D01*
X181360067Y-74800000D01*
X181387735Y-75080917D01*
X181469675Y-75351039D01*
X181602739Y-75599984D01*
X181781814Y-75818186D01*
X182000016Y-75997261D01*
X182248961Y-76130325D01*
X182519083Y-76212265D01*
X182729608Y-76233000D01*
X182729609Y-76233000D01*
X182800000Y-76239933D01*
X182870392Y-76233000D01*
X182942895Y-76233000D01*
X177916273Y-81259623D01*
X177775309Y-81375309D01*
X177313690Y-81937794D01*
X176970677Y-82579528D01*
X176759450Y-83275850D01*
X176688127Y-84000000D01*
X176706001Y-84181476D01*
X176706000Y-89318533D01*
X176688127Y-89500000D01*
X176759450Y-90224150D01*
X176970677Y-90920472D01*
X177313690Y-91562206D01*
X177758565Y-92104288D01*
X177775309Y-92124691D01*
X178337794Y-92586310D01*
X178979528Y-92929323D01*
X179675850Y-93140550D01*
X180400000Y-93211873D01*
X180581466Y-93194000D01*
X184781466Y-93194000D01*
X185324150Y-93140550D01*
X186020472Y-92929323D01*
X186662206Y-92586310D01*
X187224691Y-92124691D01*
X187686310Y-91562206D01*
X188029323Y-90920472D01*
X188240550Y-90224150D01*
X188311873Y-89500000D01*
X188240550Y-88775850D01*
X188029323Y-88079528D01*
X187686310Y-87437794D01*
X187224691Y-86875309D01*
X187072001Y-86750000D01*
X187224691Y-86624691D01*
X187686310Y-86062206D01*
X188029323Y-85420472D01*
X188240550Y-84724150D01*
X188311873Y-84000000D01*
X188240550Y-83275850D01*
X188029323Y-82579528D01*
X187686310Y-81937794D01*
X188967000Y-80657105D01*
X188967001Y-107329599D01*
X188967000Y-107329609D01*
X188967001Y-110767000D01*
X186068520Y-110767000D01*
X186121711Y-110591654D01*
X186170135Y-110100000D01*
X186121711Y-109608346D01*
X185978301Y-109135586D01*
X185745416Y-108699888D01*
X185664812Y-108601672D01*
X185664812Y-107250000D01*
X185637627Y-106973984D01*
X185557116Y-106708575D01*
X185546298Y-106688337D01*
X185626775Y-106423042D01*
X185668441Y-106000000D01*
X185626775Y-105576958D01*
X185503378Y-105170174D01*
X185412418Y-105000000D01*
X185503378Y-104829826D01*
X185626775Y-104423042D01*
X185668441Y-104000000D01*
X185626775Y-103576958D01*
X185597477Y-103480376D01*
X185745416Y-103300112D01*
X185978301Y-102864414D01*
X186121711Y-102391654D01*
X186170135Y-101900000D01*
X186121711Y-101408346D01*
X185978301Y-100935586D01*
X185745416Y-100499888D01*
X185432005Y-100117995D01*
X185050112Y-99804584D01*
X184614414Y-99571699D01*
X184141654Y-99428289D01*
X183773208Y-99392000D01*
X182226792Y-99392000D01*
X181858346Y-99428289D01*
X181385586Y-99571699D01*
X180949888Y-99804584D01*
X180567995Y-100117995D01*
X180254584Y-100499888D01*
X180021699Y-100935586D01*
X179878289Y-101408346D01*
X179829865Y-101900000D01*
X179878289Y-102391654D01*
X180021699Y-102864414D01*
X180254584Y-103300112D01*
X180402523Y-103480376D01*
X180373225Y-103576958D01*
X180331559Y-104000000D01*
X180373225Y-104423042D01*
X180496622Y-104829826D01*
X180587582Y-105000000D01*
X180496622Y-105170174D01*
X180373225Y-105576958D01*
X180331559Y-106000000D01*
X180373225Y-106423042D01*
X180453702Y-106688337D01*
X180442884Y-106708575D01*
X180362373Y-106973984D01*
X180335188Y-107250000D01*
X180335188Y-108601672D01*
X180254584Y-108699888D01*
X180021699Y-109135586D01*
X179878289Y-109608346D01*
X179829865Y-110100000D01*
X179878289Y-110591654D01*
X179931480Y-110767000D01*
X139400000Y-110767000D01*
X139400000Y-95677606D01*
X157162000Y-95677606D01*
X157162000Y-96122394D01*
X157248774Y-96558634D01*
X157418987Y-96969564D01*
X157666097Y-97339391D01*
X157980609Y-97653903D01*
X158350436Y-97901013D01*
X158761366Y-98071226D01*
X159197606Y-98158000D01*
X159642394Y-98158000D01*
X160078634Y-98071226D01*
X160489564Y-97901013D01*
X160690000Y-97767086D01*
X160890436Y-97901013D01*
X161301366Y-98071226D01*
X161737606Y-98158000D01*
X162182394Y-98158000D01*
X162618634Y-98071226D01*
X163029564Y-97901013D01*
X163399391Y-97653903D01*
X163713903Y-97339391D01*
X163961013Y-96969564D01*
X164131226Y-96558634D01*
X164218000Y-96122394D01*
X164218000Y-95677606D01*
X164131226Y-95241366D01*
X163961013Y-94830436D01*
X163713903Y-94460609D01*
X163399391Y-94146097D01*
X163029564Y-93898987D01*
X162618634Y-93728774D01*
X162182394Y-93642000D01*
X161737606Y-93642000D01*
X161301366Y-93728774D01*
X160890436Y-93898987D01*
X160690000Y-94032914D01*
X160489564Y-93898987D01*
X160078634Y-93728774D01*
X159642394Y-93642000D01*
X159197606Y-93642000D01*
X158761366Y-93728774D01*
X158350436Y-93898987D01*
X157980609Y-94146097D01*
X157666097Y-94460609D01*
X157418987Y-94830436D01*
X157248774Y-95241366D01*
X157162000Y-95677606D01*
X139400000Y-95677606D01*
X139400000Y-92833363D01*
X139579529Y-92929323D01*
X140275851Y-93140550D01*
X141000000Y-93211873D01*
X141724150Y-93140550D01*
X142420472Y-92929323D01*
X143062206Y-92586310D01*
X143100000Y-92555293D01*
X143137795Y-92586310D01*
X143779529Y-92929323D01*
X144475851Y-93140550D01*
X145200000Y-93211873D01*
X145924150Y-93140550D01*
X146620472Y-92929323D01*
X147262206Y-92586310D01*
X147824691Y-92124691D01*
X148286310Y-91562206D01*
X148629323Y-90920472D01*
X148840550Y-90224150D01*
X148894000Y-89681466D01*
X148894000Y-84005167D01*
X149341178Y-83557990D01*
X152005648Y-83557990D01*
X152187114Y-83575863D01*
X152368580Y-83557990D01*
X155042643Y-83557990D01*
X155042000Y-83564518D01*
X155042000Y-84435483D01*
X155081907Y-84840662D01*
X155239612Y-85360547D01*
X155495712Y-85839676D01*
X155840365Y-86259636D01*
X156260325Y-86604288D01*
X156532932Y-86750000D01*
X156260324Y-86895712D01*
X155840364Y-87240365D01*
X155495712Y-87660325D01*
X155239612Y-88139454D01*
X155081907Y-88659339D01*
X155042000Y-89064518D01*
X155042000Y-89935483D01*
X155081907Y-90340662D01*
X155239612Y-90860547D01*
X155495712Y-91339676D01*
X155840365Y-91759636D01*
X156260325Y-92104288D01*
X156739454Y-92360388D01*
X157259339Y-92518093D01*
X157800000Y-92571344D01*
X158340662Y-92518093D01*
X158860547Y-92360388D01*
X159339676Y-92104288D01*
X159759636Y-91759636D01*
X159900000Y-91588601D01*
X160040365Y-91759636D01*
X160460325Y-92104288D01*
X160939454Y-92360388D01*
X161459339Y-92518093D01*
X162000000Y-92571344D01*
X162540662Y-92518093D01*
X163060547Y-92360388D01*
X163539676Y-92104288D01*
X163959636Y-91759636D01*
X164304288Y-91339676D01*
X164560388Y-90860546D01*
X164718093Y-90340661D01*
X164758000Y-89935482D01*
X164758000Y-89064517D01*
X164718093Y-88659338D01*
X164560388Y-88139453D01*
X164304288Y-87660324D01*
X163959635Y-87240364D01*
X163539675Y-86895712D01*
X163267068Y-86750000D01*
X163539676Y-86604288D01*
X163959636Y-86259636D01*
X164304288Y-85839676D01*
X164560388Y-85360546D01*
X164718093Y-84840661D01*
X164758000Y-84435482D01*
X164758000Y-83564517D01*
X164718093Y-83159338D01*
X164560388Y-82639453D01*
X164304288Y-82160324D01*
X163959635Y-81740364D01*
X163539675Y-81395712D01*
X163500458Y-81374750D01*
X166903732Y-77971477D01*
X167044691Y-77855795D01*
X167506310Y-77293310D01*
X167849323Y-76651576D01*
X167976297Y-76233000D01*
X168829608Y-76233000D01*
X168900000Y-76239933D01*
X168970391Y-76233000D01*
X168970392Y-76233000D01*
X169180917Y-76212265D01*
X169451039Y-76130325D01*
X169699984Y-75997261D01*
X169918186Y-75818186D01*
X170097261Y-75599984D01*
X170230325Y-75351039D01*
X170312265Y-75080917D01*
X170339933Y-74800000D01*
X170333000Y-74729608D01*
X170333000Y-64133000D01*
X173767000Y-64133000D01*
X173767001Y-74729598D01*
M02*
