G04 #@! TF.GenerationSoftware,KiCad,Pcbnew,(5.1.5)-3*
G04 #@! TF.CreationDate,2020-02-24T19:51:40-08:00*
G04 #@! TF.ProjectId,psinterface,7073696e-7465-4726-9661-63652e6b6963,0.3*
G04 #@! TF.SameCoordinates,Original*
G04 #@! TF.FileFunction,Copper,L2,Bot*
G04 #@! TF.FilePolarity,Positive*
%FSLAX46Y46*%
G04 Gerber Fmt 4.6, Leading zero omitted, Abs format (unit mm)*
G04 Created by KiCad (PCBNEW (5.1.5)-3) date 2020-02-24 19:51:40*
%MOMM*%
%LPD*%
G04 APERTURE LIST*
%ADD10C,0.100000*%
%ADD11O,2.700000X3.300000*%
%ADD12C,2.700000*%
%ADD13C,6.400000*%
%ADD14C,0.800000*%
%ADD15R,2.500000X1.500000*%
%ADD16O,2.500000X1.500000*%
%ADD17O,3.500000X2.200000*%
%ADD18R,2.499360X2.499360*%
%ADD19C,2.499360*%
%ADD20C,1.600000*%
%ADD21C,1.270000*%
%ADD22C,3.810000*%
%ADD23C,5.588000*%
%ADD24C,2.794000*%
%ADD25C,4.572000*%
%ADD26C,0.254000*%
G04 APERTURE END LIST*
G04 #@! TA.AperFunction,ComponentPad*
D10*
G36*
X148624503Y-120351204D02*
G01*
X148648772Y-120354804D01*
X148672570Y-120360765D01*
X148695670Y-120369030D01*
X148717849Y-120379520D01*
X148738892Y-120392133D01*
X148758598Y-120406748D01*
X148776776Y-120423224D01*
X148793252Y-120441402D01*
X148807867Y-120461108D01*
X148820480Y-120482151D01*
X148830970Y-120504330D01*
X148839235Y-120527430D01*
X148845196Y-120551228D01*
X148848796Y-120575497D01*
X148850000Y-120600001D01*
X148850000Y-123399999D01*
X148848796Y-123424503D01*
X148845196Y-123448772D01*
X148839235Y-123472570D01*
X148830970Y-123495670D01*
X148820480Y-123517849D01*
X148807867Y-123538892D01*
X148793252Y-123558598D01*
X148776776Y-123576776D01*
X148758598Y-123593252D01*
X148738892Y-123607867D01*
X148717849Y-123620480D01*
X148695670Y-123630970D01*
X148672570Y-123639235D01*
X148648772Y-123645196D01*
X148624503Y-123648796D01*
X148599999Y-123650000D01*
X146400001Y-123650000D01*
X146375497Y-123648796D01*
X146351228Y-123645196D01*
X146327430Y-123639235D01*
X146304330Y-123630970D01*
X146282151Y-123620480D01*
X146261108Y-123607867D01*
X146241402Y-123593252D01*
X146223224Y-123576776D01*
X146206748Y-123558598D01*
X146192133Y-123538892D01*
X146179520Y-123517849D01*
X146169030Y-123495670D01*
X146160765Y-123472570D01*
X146154804Y-123448772D01*
X146151204Y-123424503D01*
X146150000Y-123399999D01*
X146150000Y-120600001D01*
X146151204Y-120575497D01*
X146154804Y-120551228D01*
X146160765Y-120527430D01*
X146169030Y-120504330D01*
X146179520Y-120482151D01*
X146192133Y-120461108D01*
X146206748Y-120441402D01*
X146223224Y-120423224D01*
X146241402Y-120406748D01*
X146261108Y-120392133D01*
X146282151Y-120379520D01*
X146304330Y-120369030D01*
X146327430Y-120360765D01*
X146351228Y-120354804D01*
X146375497Y-120351204D01*
X146400001Y-120350000D01*
X148599999Y-120350000D01*
X148624503Y-120351204D01*
G37*
G04 #@! TD.AperFunction*
D11*
X143300000Y-122000000D03*
X139100000Y-122000000D03*
X134900000Y-122000000D03*
X147500000Y-116500000D03*
X143300000Y-116500000D03*
X139100000Y-116500000D03*
X134900000Y-116500000D03*
G04 #@! TA.AperFunction,ComponentPad*
D10*
G36*
X127124503Y-120351204D02*
G01*
X127148772Y-120354804D01*
X127172570Y-120360765D01*
X127195670Y-120369030D01*
X127217849Y-120379520D01*
X127238892Y-120392133D01*
X127258598Y-120406748D01*
X127276776Y-120423224D01*
X127293252Y-120441402D01*
X127307867Y-120461108D01*
X127320480Y-120482151D01*
X127330970Y-120504330D01*
X127339235Y-120527430D01*
X127345196Y-120551228D01*
X127348796Y-120575497D01*
X127350000Y-120600001D01*
X127350000Y-123399999D01*
X127348796Y-123424503D01*
X127345196Y-123448772D01*
X127339235Y-123472570D01*
X127330970Y-123495670D01*
X127320480Y-123517849D01*
X127307867Y-123538892D01*
X127293252Y-123558598D01*
X127276776Y-123576776D01*
X127258598Y-123593252D01*
X127238892Y-123607867D01*
X127217849Y-123620480D01*
X127195670Y-123630970D01*
X127172570Y-123639235D01*
X127148772Y-123645196D01*
X127124503Y-123648796D01*
X127099999Y-123650000D01*
X124900001Y-123650000D01*
X124875497Y-123648796D01*
X124851228Y-123645196D01*
X124827430Y-123639235D01*
X124804330Y-123630970D01*
X124782151Y-123620480D01*
X124761108Y-123607867D01*
X124741402Y-123593252D01*
X124723224Y-123576776D01*
X124706748Y-123558598D01*
X124692133Y-123538892D01*
X124679520Y-123517849D01*
X124669030Y-123495670D01*
X124660765Y-123472570D01*
X124654804Y-123448772D01*
X124651204Y-123424503D01*
X124650000Y-123399999D01*
X124650000Y-120600001D01*
X124651204Y-120575497D01*
X124654804Y-120551228D01*
X124660765Y-120527430D01*
X124669030Y-120504330D01*
X124679520Y-120482151D01*
X124692133Y-120461108D01*
X124706748Y-120441402D01*
X124723224Y-120423224D01*
X124741402Y-120406748D01*
X124761108Y-120392133D01*
X124782151Y-120379520D01*
X124804330Y-120369030D01*
X124827430Y-120360765D01*
X124851228Y-120354804D01*
X124875497Y-120351204D01*
X124900001Y-120350000D01*
X127099999Y-120350000D01*
X127124503Y-120351204D01*
G37*
G04 #@! TD.AperFunction*
D11*
X121800000Y-122000000D03*
X117600000Y-122000000D03*
X113400000Y-122000000D03*
X109200000Y-122000000D03*
X105000000Y-122000000D03*
X126000000Y-116500000D03*
X121800000Y-116500000D03*
X117600000Y-116500000D03*
X113400000Y-116500000D03*
X109200000Y-116500000D03*
X105000000Y-116500000D03*
G04 #@! TA.AperFunction,ComponentPad*
D10*
G36*
X169124503Y-104151204D02*
G01*
X169148772Y-104154804D01*
X169172570Y-104160765D01*
X169195670Y-104169030D01*
X169217849Y-104179520D01*
X169238892Y-104192133D01*
X169258598Y-104206748D01*
X169276776Y-104223224D01*
X169293252Y-104241402D01*
X169307867Y-104261108D01*
X169320480Y-104282151D01*
X169330970Y-104304330D01*
X169339235Y-104327430D01*
X169345196Y-104351228D01*
X169348796Y-104375497D01*
X169350000Y-104400001D01*
X169350000Y-106599999D01*
X169348796Y-106624503D01*
X169345196Y-106648772D01*
X169339235Y-106672570D01*
X169330970Y-106695670D01*
X169320480Y-106717849D01*
X169307867Y-106738892D01*
X169293252Y-106758598D01*
X169276776Y-106776776D01*
X169258598Y-106793252D01*
X169238892Y-106807867D01*
X169217849Y-106820480D01*
X169195670Y-106830970D01*
X169172570Y-106839235D01*
X169148772Y-106845196D01*
X169124503Y-106848796D01*
X169099999Y-106850000D01*
X166900001Y-106850000D01*
X166875497Y-106848796D01*
X166851228Y-106845196D01*
X166827430Y-106839235D01*
X166804330Y-106830970D01*
X166782151Y-106820480D01*
X166761108Y-106807867D01*
X166741402Y-106793252D01*
X166723224Y-106776776D01*
X166706748Y-106758598D01*
X166692133Y-106738892D01*
X166679520Y-106717849D01*
X166669030Y-106695670D01*
X166660765Y-106672570D01*
X166654804Y-106648772D01*
X166651204Y-106624503D01*
X166650000Y-106599999D01*
X166650000Y-104400001D01*
X166651204Y-104375497D01*
X166654804Y-104351228D01*
X166660765Y-104327430D01*
X166669030Y-104304330D01*
X166679520Y-104282151D01*
X166692133Y-104261108D01*
X166706748Y-104241402D01*
X166723224Y-104223224D01*
X166741402Y-104206748D01*
X166761108Y-104192133D01*
X166782151Y-104179520D01*
X166804330Y-104169030D01*
X166827430Y-104160765D01*
X166851228Y-104154804D01*
X166875497Y-104151204D01*
X166900001Y-104150000D01*
X169099999Y-104150000D01*
X169124503Y-104151204D01*
G37*
G04 #@! TD.AperFunction*
D12*
X168000000Y-109460000D03*
X168000000Y-113420000D03*
X168000000Y-117380000D03*
X168000000Y-121340000D03*
D13*
X157000000Y-105000000D03*
D14*
X154600000Y-105000000D03*
X155302944Y-103302944D03*
X157000000Y-102600000D03*
X158697056Y-103302944D03*
X159400000Y-105000000D03*
X158697056Y-106697056D03*
X157000000Y-107400000D03*
X155302944Y-106697056D03*
D15*
X107000000Y-98000000D03*
D16*
X107000000Y-100000000D03*
X107000000Y-102000000D03*
D17*
X107000000Y-95900000D03*
X107000000Y-104100000D03*
G04 #@! TA.AperFunction,ComponentPad*
D10*
G36*
X143357224Y-132406741D02*
G01*
X143493126Y-132426901D01*
X143626399Y-132460284D01*
X143755757Y-132506569D01*
X143879955Y-132565310D01*
X143997798Y-132635943D01*
X144108151Y-132717785D01*
X144209949Y-132810051D01*
X144302215Y-132911849D01*
X144384057Y-133022202D01*
X144454690Y-133140045D01*
X144513431Y-133264243D01*
X144559716Y-133393601D01*
X144593099Y-133526874D01*
X144613259Y-133662776D01*
X144620000Y-133800000D01*
X144620000Y-136600000D01*
X144613259Y-136737224D01*
X144593099Y-136873126D01*
X144559716Y-137006399D01*
X144513431Y-137135757D01*
X144454690Y-137259955D01*
X144384057Y-137377798D01*
X144302215Y-137488151D01*
X144209949Y-137589949D01*
X144108151Y-137682215D01*
X143997798Y-137764057D01*
X143879955Y-137834690D01*
X143755757Y-137893431D01*
X143626399Y-137939716D01*
X143493126Y-137973099D01*
X143357224Y-137993259D01*
X143220000Y-138000000D01*
X140420000Y-138000000D01*
X140282776Y-137993259D01*
X140146874Y-137973099D01*
X140013601Y-137939716D01*
X139884243Y-137893431D01*
X139760045Y-137834690D01*
X139642202Y-137764057D01*
X139531849Y-137682215D01*
X139430051Y-137589949D01*
X139337785Y-137488151D01*
X139255943Y-137377798D01*
X139185310Y-137259955D01*
X139126569Y-137135757D01*
X139080284Y-137006399D01*
X139046901Y-136873126D01*
X139026741Y-136737224D01*
X139020000Y-136600000D01*
X139020000Y-133800000D01*
X139026741Y-133662776D01*
X139046901Y-133526874D01*
X139080284Y-133393601D01*
X139126569Y-133264243D01*
X139185310Y-133140045D01*
X139255943Y-133022202D01*
X139337785Y-132911849D01*
X139430051Y-132810051D01*
X139531849Y-132717785D01*
X139642202Y-132635943D01*
X139760045Y-132565310D01*
X139884243Y-132506569D01*
X140013601Y-132460284D01*
X140146874Y-132426901D01*
X140282776Y-132406741D01*
X140420000Y-132400000D01*
X143220000Y-132400000D01*
X143357224Y-132406741D01*
G37*
G04 #@! TD.AperFunction*
G04 #@! TA.AperFunction,ComponentPad*
G36*
X135737224Y-132406741D02*
G01*
X135873126Y-132426901D01*
X136006399Y-132460284D01*
X136135757Y-132506569D01*
X136259955Y-132565310D01*
X136377798Y-132635943D01*
X136488151Y-132717785D01*
X136589949Y-132810051D01*
X136682215Y-132911849D01*
X136764057Y-133022202D01*
X136834690Y-133140045D01*
X136893431Y-133264243D01*
X136939716Y-133393601D01*
X136973099Y-133526874D01*
X136993259Y-133662776D01*
X137000000Y-133800000D01*
X137000000Y-136600000D01*
X136993259Y-136737224D01*
X136973099Y-136873126D01*
X136939716Y-137006399D01*
X136893431Y-137135757D01*
X136834690Y-137259955D01*
X136764057Y-137377798D01*
X136682215Y-137488151D01*
X136589949Y-137589949D01*
X136488151Y-137682215D01*
X136377798Y-137764057D01*
X136259955Y-137834690D01*
X136135757Y-137893431D01*
X136006399Y-137939716D01*
X135873126Y-137973099D01*
X135737224Y-137993259D01*
X135600000Y-138000000D01*
X132800000Y-138000000D01*
X132662776Y-137993259D01*
X132526874Y-137973099D01*
X132393601Y-137939716D01*
X132264243Y-137893431D01*
X132140045Y-137834690D01*
X132022202Y-137764057D01*
X131911849Y-137682215D01*
X131810051Y-137589949D01*
X131717785Y-137488151D01*
X131635943Y-137377798D01*
X131565310Y-137259955D01*
X131506569Y-137135757D01*
X131460284Y-137006399D01*
X131426901Y-136873126D01*
X131406741Y-136737224D01*
X131400000Y-136600000D01*
X131400000Y-133800000D01*
X131406741Y-133662776D01*
X131426901Y-133526874D01*
X131460284Y-133393601D01*
X131506569Y-133264243D01*
X131565310Y-133140045D01*
X131635943Y-133022202D01*
X131717785Y-132911849D01*
X131810051Y-132810051D01*
X131911849Y-132717785D01*
X132022202Y-132635943D01*
X132140045Y-132565310D01*
X132264243Y-132506569D01*
X132393601Y-132460284D01*
X132526874Y-132426901D01*
X132662776Y-132406741D01*
X132800000Y-132400000D01*
X135600000Y-132400000D01*
X135737224Y-132406741D01*
G37*
G04 #@! TD.AperFunction*
G04 #@! TA.AperFunction,ComponentPad*
G36*
X158597224Y-132406741D02*
G01*
X158733126Y-132426901D01*
X158866399Y-132460284D01*
X158995757Y-132506569D01*
X159119955Y-132565310D01*
X159237798Y-132635943D01*
X159348151Y-132717785D01*
X159449949Y-132810051D01*
X159542215Y-132911849D01*
X159624057Y-133022202D01*
X159694690Y-133140045D01*
X159753431Y-133264243D01*
X159799716Y-133393601D01*
X159833099Y-133526874D01*
X159853259Y-133662776D01*
X159860000Y-133800000D01*
X159860000Y-136600000D01*
X159853259Y-136737224D01*
X159833099Y-136873126D01*
X159799716Y-137006399D01*
X159753431Y-137135757D01*
X159694690Y-137259955D01*
X159624057Y-137377798D01*
X159542215Y-137488151D01*
X159449949Y-137589949D01*
X159348151Y-137682215D01*
X159237798Y-137764057D01*
X159119955Y-137834690D01*
X158995757Y-137893431D01*
X158866399Y-137939716D01*
X158733126Y-137973099D01*
X158597224Y-137993259D01*
X158460000Y-138000000D01*
X155660000Y-138000000D01*
X155522776Y-137993259D01*
X155386874Y-137973099D01*
X155253601Y-137939716D01*
X155124243Y-137893431D01*
X155000045Y-137834690D01*
X154882202Y-137764057D01*
X154771849Y-137682215D01*
X154670051Y-137589949D01*
X154577785Y-137488151D01*
X154495943Y-137377798D01*
X154425310Y-137259955D01*
X154366569Y-137135757D01*
X154320284Y-137006399D01*
X154286901Y-136873126D01*
X154266741Y-136737224D01*
X154260000Y-136600000D01*
X154260000Y-133800000D01*
X154266741Y-133662776D01*
X154286901Y-133526874D01*
X154320284Y-133393601D01*
X154366569Y-133264243D01*
X154425310Y-133140045D01*
X154495943Y-133022202D01*
X154577785Y-132911849D01*
X154670051Y-132810051D01*
X154771849Y-132717785D01*
X154882202Y-132635943D01*
X155000045Y-132565310D01*
X155124243Y-132506569D01*
X155253601Y-132460284D01*
X155386874Y-132426901D01*
X155522776Y-132406741D01*
X155660000Y-132400000D01*
X158460000Y-132400000D01*
X158597224Y-132406741D01*
G37*
G04 #@! TD.AperFunction*
G04 #@! TA.AperFunction,ComponentPad*
G36*
X166217224Y-132406741D02*
G01*
X166353126Y-132426901D01*
X166486399Y-132460284D01*
X166615757Y-132506569D01*
X166739955Y-132565310D01*
X166857798Y-132635943D01*
X166968151Y-132717785D01*
X167069949Y-132810051D01*
X167162215Y-132911849D01*
X167244057Y-133022202D01*
X167314690Y-133140045D01*
X167373431Y-133264243D01*
X167419716Y-133393601D01*
X167453099Y-133526874D01*
X167473259Y-133662776D01*
X167480000Y-133800000D01*
X167480000Y-136600000D01*
X167473259Y-136737224D01*
X167453099Y-136873126D01*
X167419716Y-137006399D01*
X167373431Y-137135757D01*
X167314690Y-137259955D01*
X167244057Y-137377798D01*
X167162215Y-137488151D01*
X167069949Y-137589949D01*
X166968151Y-137682215D01*
X166857798Y-137764057D01*
X166739955Y-137834690D01*
X166615757Y-137893431D01*
X166486399Y-137939716D01*
X166353126Y-137973099D01*
X166217224Y-137993259D01*
X166080000Y-138000000D01*
X163280000Y-138000000D01*
X163142776Y-137993259D01*
X163006874Y-137973099D01*
X162873601Y-137939716D01*
X162744243Y-137893431D01*
X162620045Y-137834690D01*
X162502202Y-137764057D01*
X162391849Y-137682215D01*
X162290051Y-137589949D01*
X162197785Y-137488151D01*
X162115943Y-137377798D01*
X162045310Y-137259955D01*
X161986569Y-137135757D01*
X161940284Y-137006399D01*
X161906901Y-136873126D01*
X161886741Y-136737224D01*
X161880000Y-136600000D01*
X161880000Y-133800000D01*
X161886741Y-133662776D01*
X161906901Y-133526874D01*
X161940284Y-133393601D01*
X161986569Y-133264243D01*
X162045310Y-133140045D01*
X162115943Y-133022202D01*
X162197785Y-132911849D01*
X162290051Y-132810051D01*
X162391849Y-132717785D01*
X162502202Y-132635943D01*
X162620045Y-132565310D01*
X162744243Y-132506569D01*
X162873601Y-132460284D01*
X163006874Y-132426901D01*
X163142776Y-132406741D01*
X163280000Y-132400000D01*
X166080000Y-132400000D01*
X166217224Y-132406741D01*
G37*
G04 #@! TD.AperFunction*
G04 #@! TA.AperFunction,ComponentPad*
G36*
X150977224Y-132406741D02*
G01*
X151113126Y-132426901D01*
X151246399Y-132460284D01*
X151375757Y-132506569D01*
X151499955Y-132565310D01*
X151617798Y-132635943D01*
X151728151Y-132717785D01*
X151829949Y-132810051D01*
X151922215Y-132911849D01*
X152004057Y-133022202D01*
X152074690Y-133140045D01*
X152133431Y-133264243D01*
X152179716Y-133393601D01*
X152213099Y-133526874D01*
X152233259Y-133662776D01*
X152240000Y-133800000D01*
X152240000Y-136600000D01*
X152233259Y-136737224D01*
X152213099Y-136873126D01*
X152179716Y-137006399D01*
X152133431Y-137135757D01*
X152074690Y-137259955D01*
X152004057Y-137377798D01*
X151922215Y-137488151D01*
X151829949Y-137589949D01*
X151728151Y-137682215D01*
X151617798Y-137764057D01*
X151499955Y-137834690D01*
X151375757Y-137893431D01*
X151246399Y-137939716D01*
X151113126Y-137973099D01*
X150977224Y-137993259D01*
X150840000Y-138000000D01*
X148040000Y-138000000D01*
X147902776Y-137993259D01*
X147766874Y-137973099D01*
X147633601Y-137939716D01*
X147504243Y-137893431D01*
X147380045Y-137834690D01*
X147262202Y-137764057D01*
X147151849Y-137682215D01*
X147050051Y-137589949D01*
X146957785Y-137488151D01*
X146875943Y-137377798D01*
X146805310Y-137259955D01*
X146746569Y-137135757D01*
X146700284Y-137006399D01*
X146666901Y-136873126D01*
X146646741Y-136737224D01*
X146640000Y-136600000D01*
X146640000Y-133800000D01*
X146646741Y-133662776D01*
X146666901Y-133526874D01*
X146700284Y-133393601D01*
X146746569Y-133264243D01*
X146805310Y-133140045D01*
X146875943Y-133022202D01*
X146957785Y-132911849D01*
X147050051Y-132810051D01*
X147151849Y-132717785D01*
X147262202Y-132635943D01*
X147380045Y-132565310D01*
X147504243Y-132506569D01*
X147633601Y-132460284D01*
X147766874Y-132426901D01*
X147902776Y-132406741D01*
X148040000Y-132400000D01*
X150840000Y-132400000D01*
X150977224Y-132406741D01*
G37*
G04 #@! TD.AperFunction*
G04 #@! TA.AperFunction,ComponentPad*
G36*
X128117224Y-132406741D02*
G01*
X128253126Y-132426901D01*
X128386399Y-132460284D01*
X128515757Y-132506569D01*
X128639955Y-132565310D01*
X128757798Y-132635943D01*
X128868151Y-132717785D01*
X128969949Y-132810051D01*
X129062215Y-132911849D01*
X129144057Y-133022202D01*
X129214690Y-133140045D01*
X129273431Y-133264243D01*
X129319716Y-133393601D01*
X129353099Y-133526874D01*
X129373259Y-133662776D01*
X129380000Y-133800000D01*
X129380000Y-136600000D01*
X129373259Y-136737224D01*
X129353099Y-136873126D01*
X129319716Y-137006399D01*
X129273431Y-137135757D01*
X129214690Y-137259955D01*
X129144057Y-137377798D01*
X129062215Y-137488151D01*
X128969949Y-137589949D01*
X128868151Y-137682215D01*
X128757798Y-137764057D01*
X128639955Y-137834690D01*
X128515757Y-137893431D01*
X128386399Y-137939716D01*
X128253126Y-137973099D01*
X128117224Y-137993259D01*
X127980000Y-138000000D01*
X125180000Y-138000000D01*
X125042776Y-137993259D01*
X124906874Y-137973099D01*
X124773601Y-137939716D01*
X124644243Y-137893431D01*
X124520045Y-137834690D01*
X124402202Y-137764057D01*
X124291849Y-137682215D01*
X124190051Y-137589949D01*
X124097785Y-137488151D01*
X124015943Y-137377798D01*
X123945310Y-137259955D01*
X123886569Y-137135757D01*
X123840284Y-137006399D01*
X123806901Y-136873126D01*
X123786741Y-136737224D01*
X123780000Y-136600000D01*
X123780000Y-133800000D01*
X123786741Y-133662776D01*
X123806901Y-133526874D01*
X123840284Y-133393601D01*
X123886569Y-133264243D01*
X123945310Y-133140045D01*
X124015943Y-133022202D01*
X124097785Y-132911849D01*
X124190051Y-132810051D01*
X124291849Y-132717785D01*
X124402202Y-132635943D01*
X124520045Y-132565310D01*
X124644243Y-132506569D01*
X124773601Y-132460284D01*
X124906874Y-132426901D01*
X125042776Y-132406741D01*
X125180000Y-132400000D01*
X127980000Y-132400000D01*
X128117224Y-132406741D01*
G37*
G04 #@! TD.AperFunction*
G04 #@! TA.AperFunction,ComponentPad*
G36*
X173837224Y-132406741D02*
G01*
X173973126Y-132426901D01*
X174106399Y-132460284D01*
X174235757Y-132506569D01*
X174359955Y-132565310D01*
X174477798Y-132635943D01*
X174588151Y-132717785D01*
X174689949Y-132810051D01*
X174782215Y-132911849D01*
X174864057Y-133022202D01*
X174934690Y-133140045D01*
X174993431Y-133264243D01*
X175039716Y-133393601D01*
X175073099Y-133526874D01*
X175093259Y-133662776D01*
X175100000Y-133800000D01*
X175100000Y-136600000D01*
X175093259Y-136737224D01*
X175073099Y-136873126D01*
X175039716Y-137006399D01*
X174993431Y-137135757D01*
X174934690Y-137259955D01*
X174864057Y-137377798D01*
X174782215Y-137488151D01*
X174689949Y-137589949D01*
X174588151Y-137682215D01*
X174477798Y-137764057D01*
X174359955Y-137834690D01*
X174235757Y-137893431D01*
X174106399Y-137939716D01*
X173973126Y-137973099D01*
X173837224Y-137993259D01*
X173700000Y-138000000D01*
X170900000Y-138000000D01*
X170762776Y-137993259D01*
X170626874Y-137973099D01*
X170493601Y-137939716D01*
X170364243Y-137893431D01*
X170240045Y-137834690D01*
X170122202Y-137764057D01*
X170011849Y-137682215D01*
X169910051Y-137589949D01*
X169817785Y-137488151D01*
X169735943Y-137377798D01*
X169665310Y-137259955D01*
X169606569Y-137135757D01*
X169560284Y-137006399D01*
X169526901Y-136873126D01*
X169506741Y-136737224D01*
X169500000Y-136600000D01*
X169500000Y-133800000D01*
X169506741Y-133662776D01*
X169526901Y-133526874D01*
X169560284Y-133393601D01*
X169606569Y-133264243D01*
X169665310Y-133140045D01*
X169735943Y-133022202D01*
X169817785Y-132911849D01*
X169910051Y-132810051D01*
X170011849Y-132717785D01*
X170122202Y-132635943D01*
X170240045Y-132565310D01*
X170364243Y-132506569D01*
X170493601Y-132460284D01*
X170626874Y-132426901D01*
X170762776Y-132406741D01*
X170900000Y-132400000D01*
X173700000Y-132400000D01*
X173837224Y-132406741D01*
G37*
G04 #@! TD.AperFunction*
G04 #@! TA.AperFunction,ComponentPad*
G36*
X120497224Y-132406741D02*
G01*
X120633126Y-132426901D01*
X120766399Y-132460284D01*
X120895757Y-132506569D01*
X121019955Y-132565310D01*
X121137798Y-132635943D01*
X121248151Y-132717785D01*
X121349949Y-132810051D01*
X121442215Y-132911849D01*
X121524057Y-133022202D01*
X121594690Y-133140045D01*
X121653431Y-133264243D01*
X121699716Y-133393601D01*
X121733099Y-133526874D01*
X121753259Y-133662776D01*
X121760000Y-133800000D01*
X121760000Y-136600000D01*
X121753259Y-136737224D01*
X121733099Y-136873126D01*
X121699716Y-137006399D01*
X121653431Y-137135757D01*
X121594690Y-137259955D01*
X121524057Y-137377798D01*
X121442215Y-137488151D01*
X121349949Y-137589949D01*
X121248151Y-137682215D01*
X121137798Y-137764057D01*
X121019955Y-137834690D01*
X120895757Y-137893431D01*
X120766399Y-137939716D01*
X120633126Y-137973099D01*
X120497224Y-137993259D01*
X120360000Y-138000000D01*
X117560000Y-138000000D01*
X117422776Y-137993259D01*
X117286874Y-137973099D01*
X117153601Y-137939716D01*
X117024243Y-137893431D01*
X116900045Y-137834690D01*
X116782202Y-137764057D01*
X116671849Y-137682215D01*
X116570051Y-137589949D01*
X116477785Y-137488151D01*
X116395943Y-137377798D01*
X116325310Y-137259955D01*
X116266569Y-137135757D01*
X116220284Y-137006399D01*
X116186901Y-136873126D01*
X116166741Y-136737224D01*
X116160000Y-136600000D01*
X116160000Y-133800000D01*
X116166741Y-133662776D01*
X116186901Y-133526874D01*
X116220284Y-133393601D01*
X116266569Y-133264243D01*
X116325310Y-133140045D01*
X116395943Y-133022202D01*
X116477785Y-132911849D01*
X116570051Y-132810051D01*
X116671849Y-132717785D01*
X116782202Y-132635943D01*
X116900045Y-132565310D01*
X117024243Y-132506569D01*
X117153601Y-132460284D01*
X117286874Y-132426901D01*
X117422776Y-132406741D01*
X117560000Y-132400000D01*
X120360000Y-132400000D01*
X120497224Y-132406741D01*
G37*
G04 #@! TD.AperFunction*
G04 #@! TA.AperFunction,ComponentPad*
G36*
X105257224Y-132406741D02*
G01*
X105393126Y-132426901D01*
X105526399Y-132460284D01*
X105655757Y-132506569D01*
X105779955Y-132565310D01*
X105897798Y-132635943D01*
X106008151Y-132717785D01*
X106109949Y-132810051D01*
X106202215Y-132911849D01*
X106284057Y-133022202D01*
X106354690Y-133140045D01*
X106413431Y-133264243D01*
X106459716Y-133393601D01*
X106493099Y-133526874D01*
X106513259Y-133662776D01*
X106520000Y-133800000D01*
X106520000Y-136600000D01*
X106513259Y-136737224D01*
X106493099Y-136873126D01*
X106459716Y-137006399D01*
X106413431Y-137135757D01*
X106354690Y-137259955D01*
X106284057Y-137377798D01*
X106202215Y-137488151D01*
X106109949Y-137589949D01*
X106008151Y-137682215D01*
X105897798Y-137764057D01*
X105779955Y-137834690D01*
X105655757Y-137893431D01*
X105526399Y-137939716D01*
X105393126Y-137973099D01*
X105257224Y-137993259D01*
X105120000Y-138000000D01*
X102320000Y-138000000D01*
X102182776Y-137993259D01*
X102046874Y-137973099D01*
X101913601Y-137939716D01*
X101784243Y-137893431D01*
X101660045Y-137834690D01*
X101542202Y-137764057D01*
X101431849Y-137682215D01*
X101330051Y-137589949D01*
X101237785Y-137488151D01*
X101155943Y-137377798D01*
X101085310Y-137259955D01*
X101026569Y-137135757D01*
X100980284Y-137006399D01*
X100946901Y-136873126D01*
X100926741Y-136737224D01*
X100920000Y-136600000D01*
X100920000Y-133800000D01*
X100926741Y-133662776D01*
X100946901Y-133526874D01*
X100980284Y-133393601D01*
X101026569Y-133264243D01*
X101085310Y-133140045D01*
X101155943Y-133022202D01*
X101237785Y-132911849D01*
X101330051Y-132810051D01*
X101431849Y-132717785D01*
X101542202Y-132635943D01*
X101660045Y-132565310D01*
X101784243Y-132506569D01*
X101913601Y-132460284D01*
X102046874Y-132426901D01*
X102182776Y-132406741D01*
X102320000Y-132400000D01*
X105120000Y-132400000D01*
X105257224Y-132406741D01*
G37*
G04 #@! TD.AperFunction*
G04 #@! TA.AperFunction,ComponentPad*
G36*
X112877224Y-132406741D02*
G01*
X113013126Y-132426901D01*
X113146399Y-132460284D01*
X113275757Y-132506569D01*
X113399955Y-132565310D01*
X113517798Y-132635943D01*
X113628151Y-132717785D01*
X113729949Y-132810051D01*
X113822215Y-132911849D01*
X113904057Y-133022202D01*
X113974690Y-133140045D01*
X114033431Y-133264243D01*
X114079716Y-133393601D01*
X114113099Y-133526874D01*
X114133259Y-133662776D01*
X114140000Y-133800000D01*
X114140000Y-136600000D01*
X114133259Y-136737224D01*
X114113099Y-136873126D01*
X114079716Y-137006399D01*
X114033431Y-137135757D01*
X113974690Y-137259955D01*
X113904057Y-137377798D01*
X113822215Y-137488151D01*
X113729949Y-137589949D01*
X113628151Y-137682215D01*
X113517798Y-137764057D01*
X113399955Y-137834690D01*
X113275757Y-137893431D01*
X113146399Y-137939716D01*
X113013126Y-137973099D01*
X112877224Y-137993259D01*
X112740000Y-138000000D01*
X109940000Y-138000000D01*
X109802776Y-137993259D01*
X109666874Y-137973099D01*
X109533601Y-137939716D01*
X109404243Y-137893431D01*
X109280045Y-137834690D01*
X109162202Y-137764057D01*
X109051849Y-137682215D01*
X108950051Y-137589949D01*
X108857785Y-137488151D01*
X108775943Y-137377798D01*
X108705310Y-137259955D01*
X108646569Y-137135757D01*
X108600284Y-137006399D01*
X108566901Y-136873126D01*
X108546741Y-136737224D01*
X108540000Y-136600000D01*
X108540000Y-133800000D01*
X108546741Y-133662776D01*
X108566901Y-133526874D01*
X108600284Y-133393601D01*
X108646569Y-133264243D01*
X108705310Y-133140045D01*
X108775943Y-133022202D01*
X108857785Y-132911849D01*
X108950051Y-132810051D01*
X109051849Y-132717785D01*
X109162202Y-132635943D01*
X109280045Y-132565310D01*
X109404243Y-132506569D01*
X109533601Y-132460284D01*
X109666874Y-132426901D01*
X109802776Y-132406741D01*
X109940000Y-132400000D01*
X112740000Y-132400000D01*
X112877224Y-132406741D01*
G37*
G04 #@! TD.AperFunction*
D18*
X125800000Y-108000000D03*
D19*
X128975000Y-108000000D03*
X132150000Y-108000000D03*
D14*
X135000000Y-112500000D03*
X139000000Y-112500000D03*
X143000000Y-112500000D03*
X143000000Y-109500000D03*
X139000000Y-109500000D03*
X135000000Y-109500000D03*
X137000000Y-111000000D03*
X141000000Y-111000000D03*
X145000000Y-111000000D03*
X146500000Y-112500000D03*
X133000000Y-111000000D03*
X129500000Y-116500000D03*
X131500000Y-116500000D03*
X129500000Y-120000000D03*
X131500000Y-120000000D03*
X130500000Y-121500000D03*
X130500000Y-118000000D03*
X120000000Y-109400000D03*
X120000000Y-112500000D03*
X118000000Y-111000000D03*
X115700000Y-112500000D03*
D20*
X112100000Y-104300000D03*
X122000000Y-107400000D03*
D21*
X108503002Y-100000000D02*
X111403002Y-97100000D01*
X107000000Y-100000000D02*
X108503002Y-100000000D01*
X111403002Y-97100000D02*
X125600000Y-97100000D01*
X132150000Y-103650000D02*
X132150000Y-108000000D01*
X125600000Y-97100000D02*
X132150000Y-103650000D01*
D22*
X134900000Y-116500000D02*
X134900000Y-122000000D01*
X139100000Y-116500000D02*
X139100000Y-122000000D01*
X134900000Y-122000000D02*
X139100000Y-122000000D01*
X134900000Y-116500000D02*
X139100000Y-116500000D01*
X141820000Y-132400000D02*
X141820000Y-135200000D01*
X141820000Y-127307711D02*
X141820000Y-132400000D01*
X139100000Y-122000000D02*
X139100000Y-124587711D01*
X139100000Y-124587711D02*
X141820000Y-127307711D01*
D21*
X122000000Y-116300000D02*
X121800000Y-116500000D01*
D22*
X126580000Y-126740000D02*
X126580000Y-135200000D01*
X121800000Y-116500000D02*
X121800000Y-121960000D01*
X121800000Y-121960000D02*
X126580000Y-126740000D01*
X134200000Y-132400000D02*
X134200000Y-135200000D01*
X128817721Y-125069990D02*
X131982279Y-125069990D01*
X126000000Y-122252269D02*
X128817721Y-125069990D01*
X126000000Y-116500000D02*
X126000000Y-122252269D01*
X131982279Y-125069990D02*
X134200000Y-127287711D01*
X134200000Y-127287711D02*
X134200000Y-132400000D01*
D21*
X112200000Y-104400000D02*
X119000000Y-104400000D01*
X119000000Y-104400000D02*
X122000000Y-107400000D01*
D23*
X157060000Y-105060000D02*
X157000000Y-105000000D01*
X157060000Y-135200000D02*
X157060000Y-105060000D01*
D24*
X164680000Y-132400000D02*
X163800000Y-131520000D01*
X164680000Y-135200000D02*
X164680000Y-132400000D01*
X166090812Y-113420000D02*
X168000000Y-113420000D01*
X163800000Y-131520000D02*
X163800000Y-115710812D01*
X163800000Y-115710812D02*
X166090812Y-113420000D01*
X172300000Y-132400000D02*
X172300000Y-135200000D01*
X172300000Y-108336562D02*
X172300000Y-132400000D01*
X169463438Y-105500000D02*
X172300000Y-108336562D01*
X168000000Y-105500000D02*
X169463438Y-105500000D01*
D25*
X103720000Y-117780000D02*
X105000000Y-116500000D01*
X103720000Y-135200000D02*
X103720000Y-117780000D01*
D26*
G36*
X104739314Y-95232832D02*
G01*
X104640105Y-95559881D01*
X104606606Y-95900000D01*
X104640105Y-96240119D01*
X104739314Y-96567168D01*
X104900421Y-96868578D01*
X105117234Y-97132766D01*
X105123008Y-97137504D01*
X105111928Y-97250000D01*
X105111928Y-98750000D01*
X105124188Y-98874482D01*
X105160498Y-98994180D01*
X105219463Y-99104494D01*
X105298815Y-99201185D01*
X105338940Y-99234114D01*
X105214236Y-99467419D01*
X105135040Y-99728493D01*
X105108299Y-100000000D01*
X105135040Y-100271507D01*
X105214236Y-100532581D01*
X105342843Y-100773188D01*
X105515919Y-100984081D01*
X105535316Y-101000000D01*
X105515919Y-101015919D01*
X105342843Y-101226812D01*
X105214236Y-101467419D01*
X105135040Y-101728493D01*
X105108299Y-102000000D01*
X105135040Y-102271507D01*
X105214236Y-102532581D01*
X105308994Y-102709861D01*
X105117234Y-102867234D01*
X104900421Y-103131422D01*
X104739314Y-103432832D01*
X104640105Y-103759881D01*
X104606606Y-104100000D01*
X104640105Y-104440119D01*
X104739314Y-104767168D01*
X104900421Y-105068578D01*
X105117234Y-105332766D01*
X105381422Y-105549579D01*
X105682832Y-105710686D01*
X106009881Y-105809895D01*
X106264775Y-105835000D01*
X107735225Y-105835000D01*
X107990119Y-105809895D01*
X108317168Y-105710686D01*
X108618578Y-105549579D01*
X108882766Y-105332766D01*
X109099579Y-105068578D01*
X109260686Y-104767168D01*
X109359895Y-104440119D01*
X109387615Y-104158665D01*
X110665000Y-104158665D01*
X110665000Y-104441335D01*
X110720147Y-104718574D01*
X110828320Y-104979727D01*
X110985363Y-105214759D01*
X111185241Y-105414637D01*
X111420273Y-105571680D01*
X111681426Y-105679853D01*
X111958665Y-105735000D01*
X112241335Y-105735000D01*
X112518574Y-105679853D01*
X112542361Y-105670000D01*
X118473950Y-105670000D01*
X120619557Y-107815609D01*
X120620147Y-107818574D01*
X120728320Y-108079727D01*
X120885363Y-108314759D01*
X121085241Y-108514637D01*
X121320273Y-108671680D01*
X121581426Y-108779853D01*
X121858665Y-108835000D01*
X122141335Y-108835000D01*
X122418574Y-108779853D01*
X122679727Y-108671680D01*
X122914759Y-108514637D01*
X123114637Y-108314759D01*
X123271680Y-108079727D01*
X123379853Y-107818574D01*
X123435000Y-107541335D01*
X123435000Y-107258665D01*
X123379853Y-106981426D01*
X123271680Y-106720273D01*
X123114637Y-106485241D01*
X122914759Y-106285363D01*
X122679727Y-106128320D01*
X122418574Y-106020147D01*
X122415609Y-106019557D01*
X119942141Y-103546091D01*
X119902370Y-103497630D01*
X119708988Y-103338925D01*
X119488359Y-103220997D01*
X119248963Y-103148377D01*
X119062380Y-103130000D01*
X119062373Y-103130000D01*
X119000000Y-103123857D01*
X118937627Y-103130000D01*
X112931902Y-103130000D01*
X112779727Y-103028320D01*
X112518574Y-102920147D01*
X112241335Y-102865000D01*
X111958665Y-102865000D01*
X111681426Y-102920147D01*
X111420273Y-103028320D01*
X111185241Y-103185363D01*
X110985363Y-103385241D01*
X110828320Y-103620273D01*
X110720147Y-103881426D01*
X110665000Y-104158665D01*
X109387615Y-104158665D01*
X109393394Y-104100000D01*
X109359895Y-103759881D01*
X109260686Y-103432832D01*
X109099579Y-103131422D01*
X108882766Y-102867234D01*
X108691006Y-102709861D01*
X108785764Y-102532581D01*
X108864960Y-102271507D01*
X108891701Y-102000000D01*
X108864960Y-101728493D01*
X108785764Y-101467419D01*
X108674497Y-101259253D01*
X108751965Y-101251623D01*
X108991361Y-101179003D01*
X109211990Y-101061075D01*
X109405372Y-100902370D01*
X109445143Y-100853909D01*
X109994557Y-100304495D01*
X113015000Y-100304495D01*
X113015000Y-100695505D01*
X113091282Y-101079003D01*
X113240915Y-101440250D01*
X113458149Y-101765364D01*
X113734636Y-102041851D01*
X114059750Y-102259085D01*
X114420997Y-102408718D01*
X114804495Y-102485000D01*
X115195505Y-102485000D01*
X115579003Y-102408718D01*
X115940250Y-102259085D01*
X116265364Y-102041851D01*
X116541851Y-101765364D01*
X116759085Y-101440250D01*
X116908718Y-101079003D01*
X116985000Y-100695505D01*
X116985000Y-100304495D01*
X116908718Y-99920997D01*
X116759085Y-99559750D01*
X116541851Y-99234636D01*
X116265364Y-98958149D01*
X115940250Y-98740915D01*
X115579003Y-98591282D01*
X115195505Y-98515000D01*
X114804495Y-98515000D01*
X114420997Y-98591282D01*
X114059750Y-98740915D01*
X113734636Y-98958149D01*
X113458149Y-99234636D01*
X113240915Y-99559750D01*
X113091282Y-99920997D01*
X113015000Y-100304495D01*
X109994557Y-100304495D01*
X111929053Y-98370000D01*
X125073950Y-98370000D01*
X130880000Y-104176052D01*
X130880001Y-106604660D01*
X130686074Y-106798587D01*
X130562500Y-106983527D01*
X130438926Y-106798587D01*
X130176413Y-106536074D01*
X129867731Y-106329818D01*
X129524741Y-106187747D01*
X129160625Y-106115320D01*
X128789375Y-106115320D01*
X128425259Y-106187747D01*
X128082269Y-106329818D01*
X127773587Y-106536074D01*
X127511074Y-106798587D01*
X127304818Y-107107269D01*
X127162747Y-107450259D01*
X127090320Y-107814375D01*
X127090320Y-108185625D01*
X127162747Y-108549741D01*
X127304818Y-108892731D01*
X127511074Y-109201413D01*
X127773587Y-109463926D01*
X128082269Y-109670182D01*
X128425259Y-109812253D01*
X128789375Y-109884680D01*
X129160625Y-109884680D01*
X129524741Y-109812253D01*
X129867731Y-109670182D01*
X130176413Y-109463926D01*
X130438926Y-109201413D01*
X130562500Y-109016473D01*
X130686074Y-109201413D01*
X130948587Y-109463926D01*
X131257269Y-109670182D01*
X131600259Y-109812253D01*
X131964375Y-109884680D01*
X132335625Y-109884680D01*
X132699741Y-109812253D01*
X133042731Y-109670182D01*
X133351413Y-109463926D01*
X133613926Y-109201413D01*
X133820182Y-108892731D01*
X133962253Y-108549741D01*
X134034680Y-108185625D01*
X134034680Y-107814375D01*
X133962253Y-107450259D01*
X133820182Y-107107269D01*
X133613926Y-106798587D01*
X133420000Y-106604661D01*
X133420000Y-103712380D01*
X133426144Y-103650000D01*
X133401623Y-103401037D01*
X133329003Y-103161641D01*
X133312851Y-103131422D01*
X133211075Y-102941012D01*
X133133171Y-102846086D01*
X133092135Y-102796083D01*
X133092132Y-102796080D01*
X133052370Y-102747630D01*
X133003921Y-102707869D01*
X130600547Y-100304495D01*
X141015000Y-100304495D01*
X141015000Y-100695505D01*
X141091282Y-101079003D01*
X141240915Y-101440250D01*
X141458149Y-101765364D01*
X141734636Y-102041851D01*
X142059750Y-102259085D01*
X142420997Y-102408718D01*
X142804495Y-102485000D01*
X143195505Y-102485000D01*
X143579003Y-102408718D01*
X143940250Y-102259085D01*
X144265364Y-102041851D01*
X144541851Y-101765364D01*
X144759085Y-101440250D01*
X144908718Y-101079003D01*
X144985000Y-100695505D01*
X144985000Y-100304495D01*
X144908718Y-99920997D01*
X144759085Y-99559750D01*
X144541851Y-99234636D01*
X144265364Y-98958149D01*
X143940250Y-98740915D01*
X143579003Y-98591282D01*
X143195505Y-98515000D01*
X142804495Y-98515000D01*
X142420997Y-98591282D01*
X142059750Y-98740915D01*
X141734636Y-98958149D01*
X141458149Y-99234636D01*
X141240915Y-99559750D01*
X141091282Y-99920997D01*
X141015000Y-100304495D01*
X130600547Y-100304495D01*
X126542141Y-96246091D01*
X126502370Y-96197630D01*
X126308988Y-96038925D01*
X126088359Y-95920997D01*
X125848963Y-95848377D01*
X125662380Y-95830000D01*
X125662373Y-95830000D01*
X125600000Y-95823857D01*
X125537627Y-95830000D01*
X111465374Y-95830000D01*
X111403001Y-95823857D01*
X111340628Y-95830000D01*
X111340622Y-95830000D01*
X111179757Y-95845844D01*
X111154038Y-95848377D01*
X111081418Y-95870406D01*
X110914643Y-95920997D01*
X110694014Y-96038925D01*
X110500632Y-96197630D01*
X110460865Y-96246086D01*
X108888072Y-97818880D01*
X108888072Y-97250000D01*
X108876992Y-97137504D01*
X108882766Y-97132766D01*
X109099579Y-96868578D01*
X109260686Y-96567168D01*
X109359895Y-96240119D01*
X109393394Y-95900000D01*
X109359895Y-95559881D01*
X109260686Y-95232832D01*
X109114854Y-94960000D01*
X152373000Y-94960000D01*
X152373000Y-126549315D01*
X152370617Y-126549550D01*
X152246207Y-126587290D01*
X152131550Y-126648575D01*
X152031052Y-126731052D01*
X151948575Y-126831550D01*
X151887290Y-126946207D01*
X151849550Y-127070617D01*
X151849315Y-127073000D01*
X146950685Y-127073000D01*
X146950450Y-127070617D01*
X146912710Y-126946207D01*
X146851425Y-126831550D01*
X146768948Y-126731052D01*
X146668450Y-126648575D01*
X146553793Y-126587290D01*
X146429383Y-126549550D01*
X146332419Y-126540000D01*
X146332412Y-126540000D01*
X146300000Y-126536808D01*
X146267591Y-126540000D01*
X144932409Y-126540000D01*
X144900000Y-126536808D01*
X144867588Y-126540000D01*
X144867581Y-126540000D01*
X144770617Y-126549550D01*
X144646207Y-126587290D01*
X144531550Y-126648575D01*
X144431052Y-126731052D01*
X144348575Y-126831550D01*
X144328998Y-126868176D01*
X144323247Y-126809784D01*
X144178008Y-126330992D01*
X144026055Y-126046709D01*
X143942151Y-125889735D01*
X143624741Y-125502970D01*
X143527821Y-125423430D01*
X141640000Y-123535610D01*
X141640000Y-122124771D01*
X141652289Y-122000000D01*
X141640000Y-121875229D01*
X141640000Y-116624771D01*
X141652289Y-116500000D01*
X141603247Y-116002073D01*
X141458008Y-115523281D01*
X141222151Y-115082024D01*
X140904741Y-114695259D01*
X140517976Y-114377849D01*
X140076719Y-114141992D01*
X139597927Y-113996753D01*
X139224771Y-113960000D01*
X139100000Y-113947711D01*
X138975229Y-113960000D01*
X135024771Y-113960000D01*
X134900000Y-113947711D01*
X134775229Y-113960000D01*
X134402073Y-113996753D01*
X133923281Y-114141992D01*
X133482024Y-114377849D01*
X133095259Y-114695259D01*
X132777849Y-115082024D01*
X132541992Y-115523281D01*
X132396753Y-116002073D01*
X132347711Y-116500000D01*
X132360000Y-116624772D01*
X132360001Y-121875219D01*
X132347711Y-122000000D01*
X132396753Y-122497927D01*
X132415701Y-122560390D01*
X132107050Y-122529990D01*
X131982279Y-122517701D01*
X131857508Y-122529990D01*
X129869823Y-122529990D01*
X128540000Y-121200168D01*
X128540000Y-116375229D01*
X128503247Y-116002073D01*
X128358008Y-115523281D01*
X128122151Y-115082024D01*
X127804741Y-114695259D01*
X127417975Y-114377849D01*
X126976718Y-114141992D01*
X126497926Y-113996753D01*
X126000000Y-113947711D01*
X125502073Y-113996753D01*
X125023281Y-114141992D01*
X124582024Y-114377849D01*
X124195259Y-114695259D01*
X123900000Y-115055033D01*
X123604741Y-114695259D01*
X123217975Y-114377849D01*
X122776718Y-114141992D01*
X122297926Y-113996753D01*
X121800000Y-113947711D01*
X121302073Y-113996753D01*
X120823281Y-114141992D01*
X120382024Y-114377849D01*
X119995259Y-114695259D01*
X119677849Y-115082025D01*
X119441992Y-115523282D01*
X119296753Y-116002074D01*
X119260000Y-116375230D01*
X119260001Y-121835219D01*
X119247711Y-121960000D01*
X119296753Y-122457926D01*
X119441992Y-122936718D01*
X119509653Y-123063302D01*
X119677850Y-123377976D01*
X119995260Y-123764741D01*
X120092181Y-123844282D01*
X122787898Y-126540000D01*
X122132308Y-126540000D01*
X122099796Y-126536808D01*
X122037013Y-126543011D01*
X121970617Y-126549550D01*
X121970518Y-126549580D01*
X121970417Y-126549590D01*
X121910114Y-126567904D01*
X121846207Y-126587290D01*
X121846112Y-126587341D01*
X121846019Y-126587369D01*
X121791468Y-126616548D01*
X121731550Y-126648575D01*
X121731467Y-126648643D01*
X121731381Y-126648689D01*
X121683218Y-126688240D01*
X121631052Y-126731052D01*
X121630985Y-126731134D01*
X121630908Y-126731197D01*
X121590897Y-126779980D01*
X121548575Y-126831550D01*
X121548526Y-126831643D01*
X121548462Y-126831720D01*
X121518439Y-126887930D01*
X121487290Y-126946207D01*
X121487260Y-126946306D01*
X121487212Y-126946396D01*
X121468939Y-127006700D01*
X121449550Y-127070617D01*
X121449539Y-127070724D01*
X121449511Y-127070818D01*
X121443484Y-127132210D01*
X121436807Y-127200000D01*
X121440011Y-127232531D01*
X121442920Y-136673000D01*
X116460001Y-136673000D01*
X116459999Y-127232429D01*
X116463193Y-127200000D01*
X116450450Y-127070617D01*
X116412710Y-126946207D01*
X116351425Y-126831550D01*
X116268948Y-126731052D01*
X116168450Y-126648575D01*
X116053793Y-126587290D01*
X115929383Y-126549550D01*
X115832419Y-126540000D01*
X115832412Y-126540000D01*
X115800000Y-126536808D01*
X115767591Y-126540000D01*
X114432409Y-126540000D01*
X114400000Y-126536808D01*
X114367588Y-126540000D01*
X114367581Y-126540000D01*
X114270617Y-126549550D01*
X114146207Y-126587290D01*
X114031550Y-126648575D01*
X113931052Y-126731052D01*
X113848575Y-126831550D01*
X113787290Y-126946207D01*
X113749550Y-127070617D01*
X113736807Y-127200000D01*
X113740001Y-127232429D01*
X113739999Y-136673000D01*
X108860001Y-136673000D01*
X108859999Y-127232429D01*
X108863193Y-127200000D01*
X108850450Y-127070617D01*
X108812710Y-126946207D01*
X108751425Y-126831550D01*
X108668948Y-126731052D01*
X108568450Y-126648575D01*
X108453793Y-126587290D01*
X108329383Y-126549550D01*
X108232419Y-126540000D01*
X108232412Y-126540000D01*
X108200000Y-126536808D01*
X108167591Y-126540000D01*
X106832409Y-126540000D01*
X106800000Y-126536808D01*
X106767588Y-126540000D01*
X106767581Y-126540000D01*
X106670617Y-126549550D01*
X106641000Y-126558534D01*
X106641000Y-123429409D01*
X106658453Y-123408143D01*
X106842774Y-123063302D01*
X106956278Y-122689128D01*
X106985000Y-122397510D01*
X106985000Y-121602491D01*
X106985000Y-121602490D01*
X107215000Y-121602490D01*
X107215000Y-122397509D01*
X107243722Y-122689127D01*
X107357226Y-123063301D01*
X107541547Y-123408143D01*
X107789602Y-123710398D01*
X108091857Y-123958453D01*
X108436698Y-124142774D01*
X108810872Y-124256278D01*
X109200000Y-124294604D01*
X109589127Y-124256278D01*
X109963301Y-124142774D01*
X110308143Y-123958453D01*
X110610398Y-123710398D01*
X110858453Y-123408143D01*
X111042774Y-123063302D01*
X111156278Y-122689128D01*
X111185000Y-122397510D01*
X111185000Y-121602491D01*
X111156278Y-121310873D01*
X111042774Y-120936698D01*
X110858453Y-120591857D01*
X110610398Y-120289602D01*
X110308143Y-120041547D01*
X109963302Y-119857226D01*
X109589128Y-119743722D01*
X109200000Y-119705396D01*
X108810873Y-119743722D01*
X108436699Y-119857226D01*
X108091858Y-120041547D01*
X107789603Y-120289602D01*
X107541547Y-120591857D01*
X107357226Y-120936698D01*
X107243722Y-121310872D01*
X107215000Y-121602490D01*
X106985000Y-121602490D01*
X106956278Y-121310873D01*
X106842774Y-120936698D01*
X106658453Y-120591857D01*
X106641000Y-120570591D01*
X106641000Y-118989917D01*
X107166924Y-118463993D01*
X107440473Y-118130672D01*
X107552369Y-117921329D01*
X107789602Y-118210398D01*
X108091857Y-118458453D01*
X108436698Y-118642774D01*
X108810872Y-118756278D01*
X109200000Y-118794604D01*
X109589127Y-118756278D01*
X109963301Y-118642774D01*
X110308143Y-118458453D01*
X110610398Y-118210398D01*
X110858453Y-117908143D01*
X111042774Y-117563302D01*
X111156278Y-117189128D01*
X111185000Y-116897510D01*
X111185000Y-116102491D01*
X111156278Y-115810873D01*
X111042774Y-115436698D01*
X110858453Y-115091857D01*
X110610398Y-114789602D01*
X110308143Y-114541547D01*
X109963302Y-114357226D01*
X109589128Y-114243722D01*
X109200000Y-114205396D01*
X108810873Y-114243722D01*
X108436699Y-114357226D01*
X108091858Y-114541547D01*
X107789603Y-114789602D01*
X107552369Y-115078671D01*
X107440473Y-114869328D01*
X107075452Y-114424548D01*
X106630672Y-114059527D01*
X106123226Y-113788292D01*
X105572615Y-113621265D01*
X104999999Y-113564868D01*
X104427383Y-113621265D01*
X103876773Y-113788292D01*
X103369328Y-114059527D01*
X103036007Y-114333076D01*
X101756004Y-115613079D01*
X101644549Y-115704548D01*
X101553080Y-115816003D01*
X101553076Y-115816007D01*
X101461671Y-115927385D01*
X101279527Y-116149327D01*
X101260000Y-116185860D01*
X101259999Y-94960000D01*
X104885146Y-94960000D01*
X104739314Y-95232832D01*
G37*
X104739314Y-95232832D02*
X104640105Y-95559881D01*
X104606606Y-95900000D01*
X104640105Y-96240119D01*
X104739314Y-96567168D01*
X104900421Y-96868578D01*
X105117234Y-97132766D01*
X105123008Y-97137504D01*
X105111928Y-97250000D01*
X105111928Y-98750000D01*
X105124188Y-98874482D01*
X105160498Y-98994180D01*
X105219463Y-99104494D01*
X105298815Y-99201185D01*
X105338940Y-99234114D01*
X105214236Y-99467419D01*
X105135040Y-99728493D01*
X105108299Y-100000000D01*
X105135040Y-100271507D01*
X105214236Y-100532581D01*
X105342843Y-100773188D01*
X105515919Y-100984081D01*
X105535316Y-101000000D01*
X105515919Y-101015919D01*
X105342843Y-101226812D01*
X105214236Y-101467419D01*
X105135040Y-101728493D01*
X105108299Y-102000000D01*
X105135040Y-102271507D01*
X105214236Y-102532581D01*
X105308994Y-102709861D01*
X105117234Y-102867234D01*
X104900421Y-103131422D01*
X104739314Y-103432832D01*
X104640105Y-103759881D01*
X104606606Y-104100000D01*
X104640105Y-104440119D01*
X104739314Y-104767168D01*
X104900421Y-105068578D01*
X105117234Y-105332766D01*
X105381422Y-105549579D01*
X105682832Y-105710686D01*
X106009881Y-105809895D01*
X106264775Y-105835000D01*
X107735225Y-105835000D01*
X107990119Y-105809895D01*
X108317168Y-105710686D01*
X108618578Y-105549579D01*
X108882766Y-105332766D01*
X109099579Y-105068578D01*
X109260686Y-104767168D01*
X109359895Y-104440119D01*
X109387615Y-104158665D01*
X110665000Y-104158665D01*
X110665000Y-104441335D01*
X110720147Y-104718574D01*
X110828320Y-104979727D01*
X110985363Y-105214759D01*
X111185241Y-105414637D01*
X111420273Y-105571680D01*
X111681426Y-105679853D01*
X111958665Y-105735000D01*
X112241335Y-105735000D01*
X112518574Y-105679853D01*
X112542361Y-105670000D01*
X118473950Y-105670000D01*
X120619557Y-107815609D01*
X120620147Y-107818574D01*
X120728320Y-108079727D01*
X120885363Y-108314759D01*
X121085241Y-108514637D01*
X121320273Y-108671680D01*
X121581426Y-108779853D01*
X121858665Y-108835000D01*
X122141335Y-108835000D01*
X122418574Y-108779853D01*
X122679727Y-108671680D01*
X122914759Y-108514637D01*
X123114637Y-108314759D01*
X123271680Y-108079727D01*
X123379853Y-107818574D01*
X123435000Y-107541335D01*
X123435000Y-107258665D01*
X123379853Y-106981426D01*
X123271680Y-106720273D01*
X123114637Y-106485241D01*
X122914759Y-106285363D01*
X122679727Y-106128320D01*
X122418574Y-106020147D01*
X122415609Y-106019557D01*
X119942141Y-103546091D01*
X119902370Y-103497630D01*
X119708988Y-103338925D01*
X119488359Y-103220997D01*
X119248963Y-103148377D01*
X119062380Y-103130000D01*
X119062373Y-103130000D01*
X119000000Y-103123857D01*
X118937627Y-103130000D01*
X112931902Y-103130000D01*
X112779727Y-103028320D01*
X112518574Y-102920147D01*
X112241335Y-102865000D01*
X111958665Y-102865000D01*
X111681426Y-102920147D01*
X111420273Y-103028320D01*
X111185241Y-103185363D01*
X110985363Y-103385241D01*
X110828320Y-103620273D01*
X110720147Y-103881426D01*
X110665000Y-104158665D01*
X109387615Y-104158665D01*
X109393394Y-104100000D01*
X109359895Y-103759881D01*
X109260686Y-103432832D01*
X109099579Y-103131422D01*
X108882766Y-102867234D01*
X108691006Y-102709861D01*
X108785764Y-102532581D01*
X108864960Y-102271507D01*
X108891701Y-102000000D01*
X108864960Y-101728493D01*
X108785764Y-101467419D01*
X108674497Y-101259253D01*
X108751965Y-101251623D01*
X108991361Y-101179003D01*
X109211990Y-101061075D01*
X109405372Y-100902370D01*
X109445143Y-100853909D01*
X109994557Y-100304495D01*
X113015000Y-100304495D01*
X113015000Y-100695505D01*
X113091282Y-101079003D01*
X113240915Y-101440250D01*
X113458149Y-101765364D01*
X113734636Y-102041851D01*
X114059750Y-102259085D01*
X114420997Y-102408718D01*
X114804495Y-102485000D01*
X115195505Y-102485000D01*
X115579003Y-102408718D01*
X115940250Y-102259085D01*
X116265364Y-102041851D01*
X116541851Y-101765364D01*
X116759085Y-101440250D01*
X116908718Y-101079003D01*
X116985000Y-100695505D01*
X116985000Y-100304495D01*
X116908718Y-99920997D01*
X116759085Y-99559750D01*
X116541851Y-99234636D01*
X116265364Y-98958149D01*
X115940250Y-98740915D01*
X115579003Y-98591282D01*
X115195505Y-98515000D01*
X114804495Y-98515000D01*
X114420997Y-98591282D01*
X114059750Y-98740915D01*
X113734636Y-98958149D01*
X113458149Y-99234636D01*
X113240915Y-99559750D01*
X113091282Y-99920997D01*
X113015000Y-100304495D01*
X109994557Y-100304495D01*
X111929053Y-98370000D01*
X125073950Y-98370000D01*
X130880000Y-104176052D01*
X130880001Y-106604660D01*
X130686074Y-106798587D01*
X130562500Y-106983527D01*
X130438926Y-106798587D01*
X130176413Y-106536074D01*
X129867731Y-106329818D01*
X129524741Y-106187747D01*
X129160625Y-106115320D01*
X128789375Y-106115320D01*
X128425259Y-106187747D01*
X128082269Y-106329818D01*
X127773587Y-106536074D01*
X127511074Y-106798587D01*
X127304818Y-107107269D01*
X127162747Y-107450259D01*
X127090320Y-107814375D01*
X127090320Y-108185625D01*
X127162747Y-108549741D01*
X127304818Y-108892731D01*
X127511074Y-109201413D01*
X127773587Y-109463926D01*
X128082269Y-109670182D01*
X128425259Y-109812253D01*
X128789375Y-109884680D01*
X129160625Y-109884680D01*
X129524741Y-109812253D01*
X129867731Y-109670182D01*
X130176413Y-109463926D01*
X130438926Y-109201413D01*
X130562500Y-109016473D01*
X130686074Y-109201413D01*
X130948587Y-109463926D01*
X131257269Y-109670182D01*
X131600259Y-109812253D01*
X131964375Y-109884680D01*
X132335625Y-109884680D01*
X132699741Y-109812253D01*
X133042731Y-109670182D01*
X133351413Y-109463926D01*
X133613926Y-109201413D01*
X133820182Y-108892731D01*
X133962253Y-108549741D01*
X134034680Y-108185625D01*
X134034680Y-107814375D01*
X133962253Y-107450259D01*
X133820182Y-107107269D01*
X133613926Y-106798587D01*
X133420000Y-106604661D01*
X133420000Y-103712380D01*
X133426144Y-103650000D01*
X133401623Y-103401037D01*
X133329003Y-103161641D01*
X133312851Y-103131422D01*
X133211075Y-102941012D01*
X133133171Y-102846086D01*
X133092135Y-102796083D01*
X133092132Y-102796080D01*
X133052370Y-102747630D01*
X133003921Y-102707869D01*
X130600547Y-100304495D01*
X141015000Y-100304495D01*
X141015000Y-100695505D01*
X141091282Y-101079003D01*
X141240915Y-101440250D01*
X141458149Y-101765364D01*
X141734636Y-102041851D01*
X142059750Y-102259085D01*
X142420997Y-102408718D01*
X142804495Y-102485000D01*
X143195505Y-102485000D01*
X143579003Y-102408718D01*
X143940250Y-102259085D01*
X144265364Y-102041851D01*
X144541851Y-101765364D01*
X144759085Y-101440250D01*
X144908718Y-101079003D01*
X144985000Y-100695505D01*
X144985000Y-100304495D01*
X144908718Y-99920997D01*
X144759085Y-99559750D01*
X144541851Y-99234636D01*
X144265364Y-98958149D01*
X143940250Y-98740915D01*
X143579003Y-98591282D01*
X143195505Y-98515000D01*
X142804495Y-98515000D01*
X142420997Y-98591282D01*
X142059750Y-98740915D01*
X141734636Y-98958149D01*
X141458149Y-99234636D01*
X141240915Y-99559750D01*
X141091282Y-99920997D01*
X141015000Y-100304495D01*
X130600547Y-100304495D01*
X126542141Y-96246091D01*
X126502370Y-96197630D01*
X126308988Y-96038925D01*
X126088359Y-95920997D01*
X125848963Y-95848377D01*
X125662380Y-95830000D01*
X125662373Y-95830000D01*
X125600000Y-95823857D01*
X125537627Y-95830000D01*
X111465374Y-95830000D01*
X111403001Y-95823857D01*
X111340628Y-95830000D01*
X111340622Y-95830000D01*
X111179757Y-95845844D01*
X111154038Y-95848377D01*
X111081418Y-95870406D01*
X110914643Y-95920997D01*
X110694014Y-96038925D01*
X110500632Y-96197630D01*
X110460865Y-96246086D01*
X108888072Y-97818880D01*
X108888072Y-97250000D01*
X108876992Y-97137504D01*
X108882766Y-97132766D01*
X109099579Y-96868578D01*
X109260686Y-96567168D01*
X109359895Y-96240119D01*
X109393394Y-95900000D01*
X109359895Y-95559881D01*
X109260686Y-95232832D01*
X109114854Y-94960000D01*
X152373000Y-94960000D01*
X152373000Y-126549315D01*
X152370617Y-126549550D01*
X152246207Y-126587290D01*
X152131550Y-126648575D01*
X152031052Y-126731052D01*
X151948575Y-126831550D01*
X151887290Y-126946207D01*
X151849550Y-127070617D01*
X151849315Y-127073000D01*
X146950685Y-127073000D01*
X146950450Y-127070617D01*
X146912710Y-126946207D01*
X146851425Y-126831550D01*
X146768948Y-126731052D01*
X146668450Y-126648575D01*
X146553793Y-126587290D01*
X146429383Y-126549550D01*
X146332419Y-126540000D01*
X146332412Y-126540000D01*
X146300000Y-126536808D01*
X146267591Y-126540000D01*
X144932409Y-126540000D01*
X144900000Y-126536808D01*
X144867588Y-126540000D01*
X144867581Y-126540000D01*
X144770617Y-126549550D01*
X144646207Y-126587290D01*
X144531550Y-126648575D01*
X144431052Y-126731052D01*
X144348575Y-126831550D01*
X144328998Y-126868176D01*
X144323247Y-126809784D01*
X144178008Y-126330992D01*
X144026055Y-126046709D01*
X143942151Y-125889735D01*
X143624741Y-125502970D01*
X143527821Y-125423430D01*
X141640000Y-123535610D01*
X141640000Y-122124771D01*
X141652289Y-122000000D01*
X141640000Y-121875229D01*
X141640000Y-116624771D01*
X141652289Y-116500000D01*
X141603247Y-116002073D01*
X141458008Y-115523281D01*
X141222151Y-115082024D01*
X140904741Y-114695259D01*
X140517976Y-114377849D01*
X140076719Y-114141992D01*
X139597927Y-113996753D01*
X139224771Y-113960000D01*
X139100000Y-113947711D01*
X138975229Y-113960000D01*
X135024771Y-113960000D01*
X134900000Y-113947711D01*
X134775229Y-113960000D01*
X134402073Y-113996753D01*
X133923281Y-114141992D01*
X133482024Y-114377849D01*
X133095259Y-114695259D01*
X132777849Y-115082024D01*
X132541992Y-115523281D01*
X132396753Y-116002073D01*
X132347711Y-116500000D01*
X132360000Y-116624772D01*
X132360001Y-121875219D01*
X132347711Y-122000000D01*
X132396753Y-122497927D01*
X132415701Y-122560390D01*
X132107050Y-122529990D01*
X131982279Y-122517701D01*
X131857508Y-122529990D01*
X129869823Y-122529990D01*
X128540000Y-121200168D01*
X128540000Y-116375229D01*
X128503247Y-116002073D01*
X128358008Y-115523281D01*
X128122151Y-115082024D01*
X127804741Y-114695259D01*
X127417975Y-114377849D01*
X126976718Y-114141992D01*
X126497926Y-113996753D01*
X126000000Y-113947711D01*
X125502073Y-113996753D01*
X125023281Y-114141992D01*
X124582024Y-114377849D01*
X124195259Y-114695259D01*
X123900000Y-115055033D01*
X123604741Y-114695259D01*
X123217975Y-114377849D01*
X122776718Y-114141992D01*
X122297926Y-113996753D01*
X121800000Y-113947711D01*
X121302073Y-113996753D01*
X120823281Y-114141992D01*
X120382024Y-114377849D01*
X119995259Y-114695259D01*
X119677849Y-115082025D01*
X119441992Y-115523282D01*
X119296753Y-116002074D01*
X119260000Y-116375230D01*
X119260001Y-121835219D01*
X119247711Y-121960000D01*
X119296753Y-122457926D01*
X119441992Y-122936718D01*
X119509653Y-123063302D01*
X119677850Y-123377976D01*
X119995260Y-123764741D01*
X120092181Y-123844282D01*
X122787898Y-126540000D01*
X122132308Y-126540000D01*
X122099796Y-126536808D01*
X122037013Y-126543011D01*
X121970617Y-126549550D01*
X121970518Y-126549580D01*
X121970417Y-126549590D01*
X121910114Y-126567904D01*
X121846207Y-126587290D01*
X121846112Y-126587341D01*
X121846019Y-126587369D01*
X121791468Y-126616548D01*
X121731550Y-126648575D01*
X121731467Y-126648643D01*
X121731381Y-126648689D01*
X121683218Y-126688240D01*
X121631052Y-126731052D01*
X121630985Y-126731134D01*
X121630908Y-126731197D01*
X121590897Y-126779980D01*
X121548575Y-126831550D01*
X121548526Y-126831643D01*
X121548462Y-126831720D01*
X121518439Y-126887930D01*
X121487290Y-126946207D01*
X121487260Y-126946306D01*
X121487212Y-126946396D01*
X121468939Y-127006700D01*
X121449550Y-127070617D01*
X121449539Y-127070724D01*
X121449511Y-127070818D01*
X121443484Y-127132210D01*
X121436807Y-127200000D01*
X121440011Y-127232531D01*
X121442920Y-136673000D01*
X116460001Y-136673000D01*
X116459999Y-127232429D01*
X116463193Y-127200000D01*
X116450450Y-127070617D01*
X116412710Y-126946207D01*
X116351425Y-126831550D01*
X116268948Y-126731052D01*
X116168450Y-126648575D01*
X116053793Y-126587290D01*
X115929383Y-126549550D01*
X115832419Y-126540000D01*
X115832412Y-126540000D01*
X115800000Y-126536808D01*
X115767591Y-126540000D01*
X114432409Y-126540000D01*
X114400000Y-126536808D01*
X114367588Y-126540000D01*
X114367581Y-126540000D01*
X114270617Y-126549550D01*
X114146207Y-126587290D01*
X114031550Y-126648575D01*
X113931052Y-126731052D01*
X113848575Y-126831550D01*
X113787290Y-126946207D01*
X113749550Y-127070617D01*
X113736807Y-127200000D01*
X113740001Y-127232429D01*
X113739999Y-136673000D01*
X108860001Y-136673000D01*
X108859999Y-127232429D01*
X108863193Y-127200000D01*
X108850450Y-127070617D01*
X108812710Y-126946207D01*
X108751425Y-126831550D01*
X108668948Y-126731052D01*
X108568450Y-126648575D01*
X108453793Y-126587290D01*
X108329383Y-126549550D01*
X108232419Y-126540000D01*
X108232412Y-126540000D01*
X108200000Y-126536808D01*
X108167591Y-126540000D01*
X106832409Y-126540000D01*
X106800000Y-126536808D01*
X106767588Y-126540000D01*
X106767581Y-126540000D01*
X106670617Y-126549550D01*
X106641000Y-126558534D01*
X106641000Y-123429409D01*
X106658453Y-123408143D01*
X106842774Y-123063302D01*
X106956278Y-122689128D01*
X106985000Y-122397510D01*
X106985000Y-121602491D01*
X106985000Y-121602490D01*
X107215000Y-121602490D01*
X107215000Y-122397509D01*
X107243722Y-122689127D01*
X107357226Y-123063301D01*
X107541547Y-123408143D01*
X107789602Y-123710398D01*
X108091857Y-123958453D01*
X108436698Y-124142774D01*
X108810872Y-124256278D01*
X109200000Y-124294604D01*
X109589127Y-124256278D01*
X109963301Y-124142774D01*
X110308143Y-123958453D01*
X110610398Y-123710398D01*
X110858453Y-123408143D01*
X111042774Y-123063302D01*
X111156278Y-122689128D01*
X111185000Y-122397510D01*
X111185000Y-121602491D01*
X111156278Y-121310873D01*
X111042774Y-120936698D01*
X110858453Y-120591857D01*
X110610398Y-120289602D01*
X110308143Y-120041547D01*
X109963302Y-119857226D01*
X109589128Y-119743722D01*
X109200000Y-119705396D01*
X108810873Y-119743722D01*
X108436699Y-119857226D01*
X108091858Y-120041547D01*
X107789603Y-120289602D01*
X107541547Y-120591857D01*
X107357226Y-120936698D01*
X107243722Y-121310872D01*
X107215000Y-121602490D01*
X106985000Y-121602490D01*
X106956278Y-121310873D01*
X106842774Y-120936698D01*
X106658453Y-120591857D01*
X106641000Y-120570591D01*
X106641000Y-118989917D01*
X107166924Y-118463993D01*
X107440473Y-118130672D01*
X107552369Y-117921329D01*
X107789602Y-118210398D01*
X108091857Y-118458453D01*
X108436698Y-118642774D01*
X108810872Y-118756278D01*
X109200000Y-118794604D01*
X109589127Y-118756278D01*
X109963301Y-118642774D01*
X110308143Y-118458453D01*
X110610398Y-118210398D01*
X110858453Y-117908143D01*
X111042774Y-117563302D01*
X111156278Y-117189128D01*
X111185000Y-116897510D01*
X111185000Y-116102491D01*
X111156278Y-115810873D01*
X111042774Y-115436698D01*
X110858453Y-115091857D01*
X110610398Y-114789602D01*
X110308143Y-114541547D01*
X109963302Y-114357226D01*
X109589128Y-114243722D01*
X109200000Y-114205396D01*
X108810873Y-114243722D01*
X108436699Y-114357226D01*
X108091858Y-114541547D01*
X107789603Y-114789602D01*
X107552369Y-115078671D01*
X107440473Y-114869328D01*
X107075452Y-114424548D01*
X106630672Y-114059527D01*
X106123226Y-113788292D01*
X105572615Y-113621265D01*
X104999999Y-113564868D01*
X104427383Y-113621265D01*
X103876773Y-113788292D01*
X103369328Y-114059527D01*
X103036007Y-114333076D01*
X101756004Y-115613079D01*
X101644549Y-115704548D01*
X101553080Y-115816003D01*
X101553076Y-115816007D01*
X101461671Y-115927385D01*
X101279527Y-116149327D01*
X101260000Y-116185860D01*
X101259999Y-94960000D01*
X104885146Y-94960000D01*
X104739314Y-95232832D01*
M02*
