M48
; DRILL file {KiCad (5.1.5)-3} date 2/24/2020 7:51:44 PM
; FORMAT={-:-/ absolute / inch / decimal}
; #@! TF.CreationDate,2020-02-24T19:51:44-08:00
; #@! TF.GenerationSoftware,Kicad,Pcbnew,(5.1.5)-3
FMAT,2
INCH
T1C0.0157
T2C0.0197
T3C0.0354
T4C0.0394
T5C0.0551
T6C0.0591
T7C0.0669
T8C0.1260
T9C0.0571
T10C0.1063
%
G90
G05
T1
X4.4134Y-4.1063
X4.5551Y-4.4291
X4.6457Y-4.3701
X4.7244Y-4.3071
X4.7244Y-4.4291
X4.8031Y-4.2283
X5.0984Y-4.5866
X5.0984Y-4.7244
X5.1378Y-4.6457
X5.1378Y-4.7835
X5.1772Y-4.5866
X5.1772Y-4.7244
X5.2362Y-4.3701
X5.315Y-4.311
X5.315Y-4.4291
X5.3937Y-4.3701
X5.4724Y-4.311
X5.4724Y-4.4291
X5.5512Y-4.3701
X5.6299Y-4.311
X5.6299Y-4.4291
X5.7087Y-4.3701
X5.7677Y-4.4291
T2
X6.0866Y-4.1339
X6.1143Y-4.067
X6.1143Y-4.2007
X6.1811Y-4.0394
X6.1811Y-4.2283
X6.2479Y-4.067
X6.2479Y-4.2007
X6.2756Y-4.1339
T3
X4.2126Y-3.8583
X4.2126Y-3.937
X4.2126Y-4.0157
T4
X4.9528Y-4.252
X5.0778Y-4.252
X5.2028Y-4.252
T5
X4.1339Y-4.5866
X4.1339Y-4.8031
X4.2992Y-4.5866
X4.2992Y-4.8031
X4.4646Y-4.5866
X4.4646Y-4.8031
X4.6299Y-4.5866
X4.6299Y-4.8031
X4.7953Y-4.5866
X4.7953Y-4.8031
X4.9606Y-4.5866
X4.9606Y-4.8031
X5.311Y-4.5866
X5.311Y-4.8031
X5.4764Y-4.5866
X5.4764Y-4.8031
X5.6417Y-4.5866
X5.6417Y-4.8031
X5.8071Y-4.5866
X5.8071Y-4.8031
T6
X4.2126Y-3.7756
X4.2126Y-4.0984
T7
X6.6142Y-4.1535
X6.6142Y-4.3094
X6.6142Y-4.4654
X6.6142Y-4.6213
X6.6142Y-4.7772
T8
X4.0835Y-5.3228
X4.3835Y-5.3228
X4.6835Y-5.3228
X4.9835Y-5.3228
X5.2835Y-5.3228
X5.5835Y-5.3228
X5.8835Y-5.3228
X6.1835Y-5.3228
X6.4835Y-5.3228
X6.7835Y-5.3228
X6.1811Y-4.1339
T9
X6.748Y-4.0945
T10
X4.5276Y-3.9567
X5.6299Y-3.9567
T0
M30
