G04 #@! TF.GenerationSoftware,KiCad,Pcbnew,(5.1.5)-3*
G04 #@! TF.CreationDate,2020-02-07T22:07:36-08:00*
G04 #@! TF.ProjectId,psinterface,7073696e-7465-4726-9661-63652e6b6963,rev?*
G04 #@! TF.SameCoordinates,Original*
G04 #@! TF.FileFunction,Copper,L1,Top*
G04 #@! TF.FilePolarity,Positive*
%FSLAX46Y46*%
G04 Gerber Fmt 4.6, Leading zero omitted, Abs format (unit mm)*
G04 Created by KiCad (PCBNEW (5.1.5)-3) date 2020-02-07 22:07:36*
%MOMM*%
%LPD*%
G04 APERTURE LIST*
%ADD10C,0.100000*%
%ADD11O,2.700000X3.300000*%
%ADD12C,2.700000*%
%ADD13C,6.400000*%
%ADD14C,0.800000*%
%ADD15R,2.500000X1.500000*%
%ADD16O,2.500000X1.500000*%
%ADD17O,3.500000X2.200000*%
%ADD18R,2.499360X2.499360*%
%ADD19C,2.499360*%
%ADD20C,3.810000*%
%ADD21C,4.572000*%
%ADD22C,5.588000*%
%ADD23C,0.254000*%
G04 APERTURE END LIST*
G04 #@! TA.AperFunction,ComponentPad*
D10*
G36*
X120124503Y-118351204D02*
G01*
X120148772Y-118354804D01*
X120172570Y-118360765D01*
X120195670Y-118369030D01*
X120217849Y-118379520D01*
X120238892Y-118392133D01*
X120258598Y-118406748D01*
X120276776Y-118423224D01*
X120293252Y-118441402D01*
X120307867Y-118461108D01*
X120320480Y-118482151D01*
X120330970Y-118504330D01*
X120339235Y-118527430D01*
X120345196Y-118551228D01*
X120348796Y-118575497D01*
X120350000Y-118600001D01*
X120350000Y-121399999D01*
X120348796Y-121424503D01*
X120345196Y-121448772D01*
X120339235Y-121472570D01*
X120330970Y-121495670D01*
X120320480Y-121517849D01*
X120307867Y-121538892D01*
X120293252Y-121558598D01*
X120276776Y-121576776D01*
X120258598Y-121593252D01*
X120238892Y-121607867D01*
X120217849Y-121620480D01*
X120195670Y-121630970D01*
X120172570Y-121639235D01*
X120148772Y-121645196D01*
X120124503Y-121648796D01*
X120099999Y-121650000D01*
X117900001Y-121650000D01*
X117875497Y-121648796D01*
X117851228Y-121645196D01*
X117827430Y-121639235D01*
X117804330Y-121630970D01*
X117782151Y-121620480D01*
X117761108Y-121607867D01*
X117741402Y-121593252D01*
X117723224Y-121576776D01*
X117706748Y-121558598D01*
X117692133Y-121538892D01*
X117679520Y-121517849D01*
X117669030Y-121495670D01*
X117660765Y-121472570D01*
X117654804Y-121448772D01*
X117651204Y-121424503D01*
X117650000Y-121399999D01*
X117650000Y-118600001D01*
X117651204Y-118575497D01*
X117654804Y-118551228D01*
X117660765Y-118527430D01*
X117669030Y-118504330D01*
X117679520Y-118482151D01*
X117692133Y-118461108D01*
X117706748Y-118441402D01*
X117723224Y-118423224D01*
X117741402Y-118406748D01*
X117761108Y-118392133D01*
X117782151Y-118379520D01*
X117804330Y-118369030D01*
X117827430Y-118360765D01*
X117851228Y-118354804D01*
X117875497Y-118351204D01*
X117900001Y-118350000D01*
X120099999Y-118350000D01*
X120124503Y-118351204D01*
G37*
G04 #@! TD.AperFunction*
D11*
X114800000Y-120000000D03*
X110600000Y-120000000D03*
X106400000Y-120000000D03*
X119000000Y-114500000D03*
X114800000Y-114500000D03*
X110600000Y-114500000D03*
X106400000Y-114500000D03*
G04 #@! TA.AperFunction,ComponentPad*
D10*
G36*
X151124503Y-118351204D02*
G01*
X151148772Y-118354804D01*
X151172570Y-118360765D01*
X151195670Y-118369030D01*
X151217849Y-118379520D01*
X151238892Y-118392133D01*
X151258598Y-118406748D01*
X151276776Y-118423224D01*
X151293252Y-118441402D01*
X151307867Y-118461108D01*
X151320480Y-118482151D01*
X151330970Y-118504330D01*
X151339235Y-118527430D01*
X151345196Y-118551228D01*
X151348796Y-118575497D01*
X151350000Y-118600001D01*
X151350000Y-121399999D01*
X151348796Y-121424503D01*
X151345196Y-121448772D01*
X151339235Y-121472570D01*
X151330970Y-121495670D01*
X151320480Y-121517849D01*
X151307867Y-121538892D01*
X151293252Y-121558598D01*
X151276776Y-121576776D01*
X151258598Y-121593252D01*
X151238892Y-121607867D01*
X151217849Y-121620480D01*
X151195670Y-121630970D01*
X151172570Y-121639235D01*
X151148772Y-121645196D01*
X151124503Y-121648796D01*
X151099999Y-121650000D01*
X148900001Y-121650000D01*
X148875497Y-121648796D01*
X148851228Y-121645196D01*
X148827430Y-121639235D01*
X148804330Y-121630970D01*
X148782151Y-121620480D01*
X148761108Y-121607867D01*
X148741402Y-121593252D01*
X148723224Y-121576776D01*
X148706748Y-121558598D01*
X148692133Y-121538892D01*
X148679520Y-121517849D01*
X148669030Y-121495670D01*
X148660765Y-121472570D01*
X148654804Y-121448772D01*
X148651204Y-121424503D01*
X148650000Y-121399999D01*
X148650000Y-118600001D01*
X148651204Y-118575497D01*
X148654804Y-118551228D01*
X148660765Y-118527430D01*
X148669030Y-118504330D01*
X148679520Y-118482151D01*
X148692133Y-118461108D01*
X148706748Y-118441402D01*
X148723224Y-118423224D01*
X148741402Y-118406748D01*
X148761108Y-118392133D01*
X148782151Y-118379520D01*
X148804330Y-118369030D01*
X148827430Y-118360765D01*
X148851228Y-118354804D01*
X148875497Y-118351204D01*
X148900001Y-118350000D01*
X151099999Y-118350000D01*
X151124503Y-118351204D01*
G37*
G04 #@! TD.AperFunction*
D11*
X145800000Y-120000000D03*
X141600000Y-120000000D03*
X137400000Y-120000000D03*
X133200000Y-120000000D03*
X129000000Y-120000000D03*
X150000000Y-114500000D03*
X145800000Y-114500000D03*
X141600000Y-114500000D03*
X137400000Y-114500000D03*
X133200000Y-114500000D03*
X129000000Y-114500000D03*
G04 #@! TA.AperFunction,ComponentPad*
D10*
G36*
X169124503Y-104151204D02*
G01*
X169148772Y-104154804D01*
X169172570Y-104160765D01*
X169195670Y-104169030D01*
X169217849Y-104179520D01*
X169238892Y-104192133D01*
X169258598Y-104206748D01*
X169276776Y-104223224D01*
X169293252Y-104241402D01*
X169307867Y-104261108D01*
X169320480Y-104282151D01*
X169330970Y-104304330D01*
X169339235Y-104327430D01*
X169345196Y-104351228D01*
X169348796Y-104375497D01*
X169350000Y-104400001D01*
X169350000Y-106599999D01*
X169348796Y-106624503D01*
X169345196Y-106648772D01*
X169339235Y-106672570D01*
X169330970Y-106695670D01*
X169320480Y-106717849D01*
X169307867Y-106738892D01*
X169293252Y-106758598D01*
X169276776Y-106776776D01*
X169258598Y-106793252D01*
X169238892Y-106807867D01*
X169217849Y-106820480D01*
X169195670Y-106830970D01*
X169172570Y-106839235D01*
X169148772Y-106845196D01*
X169124503Y-106848796D01*
X169099999Y-106850000D01*
X166900001Y-106850000D01*
X166875497Y-106848796D01*
X166851228Y-106845196D01*
X166827430Y-106839235D01*
X166804330Y-106830970D01*
X166782151Y-106820480D01*
X166761108Y-106807867D01*
X166741402Y-106793252D01*
X166723224Y-106776776D01*
X166706748Y-106758598D01*
X166692133Y-106738892D01*
X166679520Y-106717849D01*
X166669030Y-106695670D01*
X166660765Y-106672570D01*
X166654804Y-106648772D01*
X166651204Y-106624503D01*
X166650000Y-106599999D01*
X166650000Y-104400001D01*
X166651204Y-104375497D01*
X166654804Y-104351228D01*
X166660765Y-104327430D01*
X166669030Y-104304330D01*
X166679520Y-104282151D01*
X166692133Y-104261108D01*
X166706748Y-104241402D01*
X166723224Y-104223224D01*
X166741402Y-104206748D01*
X166761108Y-104192133D01*
X166782151Y-104179520D01*
X166804330Y-104169030D01*
X166827430Y-104160765D01*
X166851228Y-104154804D01*
X166875497Y-104151204D01*
X166900001Y-104150000D01*
X169099999Y-104150000D01*
X169124503Y-104151204D01*
G37*
G04 #@! TD.AperFunction*
D12*
X168000000Y-109460000D03*
X168000000Y-113420000D03*
X168000000Y-117380000D03*
X168000000Y-121340000D03*
D13*
X157000000Y-105000000D03*
D14*
X154600000Y-105000000D03*
X155302944Y-103302944D03*
X157000000Y-102600000D03*
X158697056Y-103302944D03*
X159400000Y-105000000D03*
X158697056Y-106697056D03*
X157000000Y-107400000D03*
X155302944Y-106697056D03*
D15*
X108000000Y-98500000D03*
D16*
X108000000Y-100500000D03*
X108000000Y-102500000D03*
D17*
X108000000Y-96400000D03*
X108000000Y-104600000D03*
G04 #@! TA.AperFunction,ComponentPad*
D10*
G36*
X143357224Y-132406741D02*
G01*
X143493126Y-132426901D01*
X143626399Y-132460284D01*
X143755757Y-132506569D01*
X143879955Y-132565310D01*
X143997798Y-132635943D01*
X144108151Y-132717785D01*
X144209949Y-132810051D01*
X144302215Y-132911849D01*
X144384057Y-133022202D01*
X144454690Y-133140045D01*
X144513431Y-133264243D01*
X144559716Y-133393601D01*
X144593099Y-133526874D01*
X144613259Y-133662776D01*
X144620000Y-133800000D01*
X144620000Y-136600000D01*
X144613259Y-136737224D01*
X144593099Y-136873126D01*
X144559716Y-137006399D01*
X144513431Y-137135757D01*
X144454690Y-137259955D01*
X144384057Y-137377798D01*
X144302215Y-137488151D01*
X144209949Y-137589949D01*
X144108151Y-137682215D01*
X143997798Y-137764057D01*
X143879955Y-137834690D01*
X143755757Y-137893431D01*
X143626399Y-137939716D01*
X143493126Y-137973099D01*
X143357224Y-137993259D01*
X143220000Y-138000000D01*
X140420000Y-138000000D01*
X140282776Y-137993259D01*
X140146874Y-137973099D01*
X140013601Y-137939716D01*
X139884243Y-137893431D01*
X139760045Y-137834690D01*
X139642202Y-137764057D01*
X139531849Y-137682215D01*
X139430051Y-137589949D01*
X139337785Y-137488151D01*
X139255943Y-137377798D01*
X139185310Y-137259955D01*
X139126569Y-137135757D01*
X139080284Y-137006399D01*
X139046901Y-136873126D01*
X139026741Y-136737224D01*
X139020000Y-136600000D01*
X139020000Y-133800000D01*
X139026741Y-133662776D01*
X139046901Y-133526874D01*
X139080284Y-133393601D01*
X139126569Y-133264243D01*
X139185310Y-133140045D01*
X139255943Y-133022202D01*
X139337785Y-132911849D01*
X139430051Y-132810051D01*
X139531849Y-132717785D01*
X139642202Y-132635943D01*
X139760045Y-132565310D01*
X139884243Y-132506569D01*
X140013601Y-132460284D01*
X140146874Y-132426901D01*
X140282776Y-132406741D01*
X140420000Y-132400000D01*
X143220000Y-132400000D01*
X143357224Y-132406741D01*
G37*
G04 #@! TD.AperFunction*
G04 #@! TA.AperFunction,ComponentPad*
G36*
X135737224Y-132406741D02*
G01*
X135873126Y-132426901D01*
X136006399Y-132460284D01*
X136135757Y-132506569D01*
X136259955Y-132565310D01*
X136377798Y-132635943D01*
X136488151Y-132717785D01*
X136589949Y-132810051D01*
X136682215Y-132911849D01*
X136764057Y-133022202D01*
X136834690Y-133140045D01*
X136893431Y-133264243D01*
X136939716Y-133393601D01*
X136973099Y-133526874D01*
X136993259Y-133662776D01*
X137000000Y-133800000D01*
X137000000Y-136600000D01*
X136993259Y-136737224D01*
X136973099Y-136873126D01*
X136939716Y-137006399D01*
X136893431Y-137135757D01*
X136834690Y-137259955D01*
X136764057Y-137377798D01*
X136682215Y-137488151D01*
X136589949Y-137589949D01*
X136488151Y-137682215D01*
X136377798Y-137764057D01*
X136259955Y-137834690D01*
X136135757Y-137893431D01*
X136006399Y-137939716D01*
X135873126Y-137973099D01*
X135737224Y-137993259D01*
X135600000Y-138000000D01*
X132800000Y-138000000D01*
X132662776Y-137993259D01*
X132526874Y-137973099D01*
X132393601Y-137939716D01*
X132264243Y-137893431D01*
X132140045Y-137834690D01*
X132022202Y-137764057D01*
X131911849Y-137682215D01*
X131810051Y-137589949D01*
X131717785Y-137488151D01*
X131635943Y-137377798D01*
X131565310Y-137259955D01*
X131506569Y-137135757D01*
X131460284Y-137006399D01*
X131426901Y-136873126D01*
X131406741Y-136737224D01*
X131400000Y-136600000D01*
X131400000Y-133800000D01*
X131406741Y-133662776D01*
X131426901Y-133526874D01*
X131460284Y-133393601D01*
X131506569Y-133264243D01*
X131565310Y-133140045D01*
X131635943Y-133022202D01*
X131717785Y-132911849D01*
X131810051Y-132810051D01*
X131911849Y-132717785D01*
X132022202Y-132635943D01*
X132140045Y-132565310D01*
X132264243Y-132506569D01*
X132393601Y-132460284D01*
X132526874Y-132426901D01*
X132662776Y-132406741D01*
X132800000Y-132400000D01*
X135600000Y-132400000D01*
X135737224Y-132406741D01*
G37*
G04 #@! TD.AperFunction*
G04 #@! TA.AperFunction,ComponentPad*
G36*
X158597224Y-132406741D02*
G01*
X158733126Y-132426901D01*
X158866399Y-132460284D01*
X158995757Y-132506569D01*
X159119955Y-132565310D01*
X159237798Y-132635943D01*
X159348151Y-132717785D01*
X159449949Y-132810051D01*
X159542215Y-132911849D01*
X159624057Y-133022202D01*
X159694690Y-133140045D01*
X159753431Y-133264243D01*
X159799716Y-133393601D01*
X159833099Y-133526874D01*
X159853259Y-133662776D01*
X159860000Y-133800000D01*
X159860000Y-136600000D01*
X159853259Y-136737224D01*
X159833099Y-136873126D01*
X159799716Y-137006399D01*
X159753431Y-137135757D01*
X159694690Y-137259955D01*
X159624057Y-137377798D01*
X159542215Y-137488151D01*
X159449949Y-137589949D01*
X159348151Y-137682215D01*
X159237798Y-137764057D01*
X159119955Y-137834690D01*
X158995757Y-137893431D01*
X158866399Y-137939716D01*
X158733126Y-137973099D01*
X158597224Y-137993259D01*
X158460000Y-138000000D01*
X155660000Y-138000000D01*
X155522776Y-137993259D01*
X155386874Y-137973099D01*
X155253601Y-137939716D01*
X155124243Y-137893431D01*
X155000045Y-137834690D01*
X154882202Y-137764057D01*
X154771849Y-137682215D01*
X154670051Y-137589949D01*
X154577785Y-137488151D01*
X154495943Y-137377798D01*
X154425310Y-137259955D01*
X154366569Y-137135757D01*
X154320284Y-137006399D01*
X154286901Y-136873126D01*
X154266741Y-136737224D01*
X154260000Y-136600000D01*
X154260000Y-133800000D01*
X154266741Y-133662776D01*
X154286901Y-133526874D01*
X154320284Y-133393601D01*
X154366569Y-133264243D01*
X154425310Y-133140045D01*
X154495943Y-133022202D01*
X154577785Y-132911849D01*
X154670051Y-132810051D01*
X154771849Y-132717785D01*
X154882202Y-132635943D01*
X155000045Y-132565310D01*
X155124243Y-132506569D01*
X155253601Y-132460284D01*
X155386874Y-132426901D01*
X155522776Y-132406741D01*
X155660000Y-132400000D01*
X158460000Y-132400000D01*
X158597224Y-132406741D01*
G37*
G04 #@! TD.AperFunction*
G04 #@! TA.AperFunction,ComponentPad*
G36*
X166217224Y-132406741D02*
G01*
X166353126Y-132426901D01*
X166486399Y-132460284D01*
X166615757Y-132506569D01*
X166739955Y-132565310D01*
X166857798Y-132635943D01*
X166968151Y-132717785D01*
X167069949Y-132810051D01*
X167162215Y-132911849D01*
X167244057Y-133022202D01*
X167314690Y-133140045D01*
X167373431Y-133264243D01*
X167419716Y-133393601D01*
X167453099Y-133526874D01*
X167473259Y-133662776D01*
X167480000Y-133800000D01*
X167480000Y-136600000D01*
X167473259Y-136737224D01*
X167453099Y-136873126D01*
X167419716Y-137006399D01*
X167373431Y-137135757D01*
X167314690Y-137259955D01*
X167244057Y-137377798D01*
X167162215Y-137488151D01*
X167069949Y-137589949D01*
X166968151Y-137682215D01*
X166857798Y-137764057D01*
X166739955Y-137834690D01*
X166615757Y-137893431D01*
X166486399Y-137939716D01*
X166353126Y-137973099D01*
X166217224Y-137993259D01*
X166080000Y-138000000D01*
X163280000Y-138000000D01*
X163142776Y-137993259D01*
X163006874Y-137973099D01*
X162873601Y-137939716D01*
X162744243Y-137893431D01*
X162620045Y-137834690D01*
X162502202Y-137764057D01*
X162391849Y-137682215D01*
X162290051Y-137589949D01*
X162197785Y-137488151D01*
X162115943Y-137377798D01*
X162045310Y-137259955D01*
X161986569Y-137135757D01*
X161940284Y-137006399D01*
X161906901Y-136873126D01*
X161886741Y-136737224D01*
X161880000Y-136600000D01*
X161880000Y-133800000D01*
X161886741Y-133662776D01*
X161906901Y-133526874D01*
X161940284Y-133393601D01*
X161986569Y-133264243D01*
X162045310Y-133140045D01*
X162115943Y-133022202D01*
X162197785Y-132911849D01*
X162290051Y-132810051D01*
X162391849Y-132717785D01*
X162502202Y-132635943D01*
X162620045Y-132565310D01*
X162744243Y-132506569D01*
X162873601Y-132460284D01*
X163006874Y-132426901D01*
X163142776Y-132406741D01*
X163280000Y-132400000D01*
X166080000Y-132400000D01*
X166217224Y-132406741D01*
G37*
G04 #@! TD.AperFunction*
G04 #@! TA.AperFunction,ComponentPad*
G36*
X150977224Y-132406741D02*
G01*
X151113126Y-132426901D01*
X151246399Y-132460284D01*
X151375757Y-132506569D01*
X151499955Y-132565310D01*
X151617798Y-132635943D01*
X151728151Y-132717785D01*
X151829949Y-132810051D01*
X151922215Y-132911849D01*
X152004057Y-133022202D01*
X152074690Y-133140045D01*
X152133431Y-133264243D01*
X152179716Y-133393601D01*
X152213099Y-133526874D01*
X152233259Y-133662776D01*
X152240000Y-133800000D01*
X152240000Y-136600000D01*
X152233259Y-136737224D01*
X152213099Y-136873126D01*
X152179716Y-137006399D01*
X152133431Y-137135757D01*
X152074690Y-137259955D01*
X152004057Y-137377798D01*
X151922215Y-137488151D01*
X151829949Y-137589949D01*
X151728151Y-137682215D01*
X151617798Y-137764057D01*
X151499955Y-137834690D01*
X151375757Y-137893431D01*
X151246399Y-137939716D01*
X151113126Y-137973099D01*
X150977224Y-137993259D01*
X150840000Y-138000000D01*
X148040000Y-138000000D01*
X147902776Y-137993259D01*
X147766874Y-137973099D01*
X147633601Y-137939716D01*
X147504243Y-137893431D01*
X147380045Y-137834690D01*
X147262202Y-137764057D01*
X147151849Y-137682215D01*
X147050051Y-137589949D01*
X146957785Y-137488151D01*
X146875943Y-137377798D01*
X146805310Y-137259955D01*
X146746569Y-137135757D01*
X146700284Y-137006399D01*
X146666901Y-136873126D01*
X146646741Y-136737224D01*
X146640000Y-136600000D01*
X146640000Y-133800000D01*
X146646741Y-133662776D01*
X146666901Y-133526874D01*
X146700284Y-133393601D01*
X146746569Y-133264243D01*
X146805310Y-133140045D01*
X146875943Y-133022202D01*
X146957785Y-132911849D01*
X147050051Y-132810051D01*
X147151849Y-132717785D01*
X147262202Y-132635943D01*
X147380045Y-132565310D01*
X147504243Y-132506569D01*
X147633601Y-132460284D01*
X147766874Y-132426901D01*
X147902776Y-132406741D01*
X148040000Y-132400000D01*
X150840000Y-132400000D01*
X150977224Y-132406741D01*
G37*
G04 #@! TD.AperFunction*
G04 #@! TA.AperFunction,ComponentPad*
G36*
X128117224Y-132406741D02*
G01*
X128253126Y-132426901D01*
X128386399Y-132460284D01*
X128515757Y-132506569D01*
X128639955Y-132565310D01*
X128757798Y-132635943D01*
X128868151Y-132717785D01*
X128969949Y-132810051D01*
X129062215Y-132911849D01*
X129144057Y-133022202D01*
X129214690Y-133140045D01*
X129273431Y-133264243D01*
X129319716Y-133393601D01*
X129353099Y-133526874D01*
X129373259Y-133662776D01*
X129380000Y-133800000D01*
X129380000Y-136600000D01*
X129373259Y-136737224D01*
X129353099Y-136873126D01*
X129319716Y-137006399D01*
X129273431Y-137135757D01*
X129214690Y-137259955D01*
X129144057Y-137377798D01*
X129062215Y-137488151D01*
X128969949Y-137589949D01*
X128868151Y-137682215D01*
X128757798Y-137764057D01*
X128639955Y-137834690D01*
X128515757Y-137893431D01*
X128386399Y-137939716D01*
X128253126Y-137973099D01*
X128117224Y-137993259D01*
X127980000Y-138000000D01*
X125180000Y-138000000D01*
X125042776Y-137993259D01*
X124906874Y-137973099D01*
X124773601Y-137939716D01*
X124644243Y-137893431D01*
X124520045Y-137834690D01*
X124402202Y-137764057D01*
X124291849Y-137682215D01*
X124190051Y-137589949D01*
X124097785Y-137488151D01*
X124015943Y-137377798D01*
X123945310Y-137259955D01*
X123886569Y-137135757D01*
X123840284Y-137006399D01*
X123806901Y-136873126D01*
X123786741Y-136737224D01*
X123780000Y-136600000D01*
X123780000Y-133800000D01*
X123786741Y-133662776D01*
X123806901Y-133526874D01*
X123840284Y-133393601D01*
X123886569Y-133264243D01*
X123945310Y-133140045D01*
X124015943Y-133022202D01*
X124097785Y-132911849D01*
X124190051Y-132810051D01*
X124291849Y-132717785D01*
X124402202Y-132635943D01*
X124520045Y-132565310D01*
X124644243Y-132506569D01*
X124773601Y-132460284D01*
X124906874Y-132426901D01*
X125042776Y-132406741D01*
X125180000Y-132400000D01*
X127980000Y-132400000D01*
X128117224Y-132406741D01*
G37*
G04 #@! TD.AperFunction*
G04 #@! TA.AperFunction,ComponentPad*
G36*
X173837224Y-132406741D02*
G01*
X173973126Y-132426901D01*
X174106399Y-132460284D01*
X174235757Y-132506569D01*
X174359955Y-132565310D01*
X174477798Y-132635943D01*
X174588151Y-132717785D01*
X174689949Y-132810051D01*
X174782215Y-132911849D01*
X174864057Y-133022202D01*
X174934690Y-133140045D01*
X174993431Y-133264243D01*
X175039716Y-133393601D01*
X175073099Y-133526874D01*
X175093259Y-133662776D01*
X175100000Y-133800000D01*
X175100000Y-136600000D01*
X175093259Y-136737224D01*
X175073099Y-136873126D01*
X175039716Y-137006399D01*
X174993431Y-137135757D01*
X174934690Y-137259955D01*
X174864057Y-137377798D01*
X174782215Y-137488151D01*
X174689949Y-137589949D01*
X174588151Y-137682215D01*
X174477798Y-137764057D01*
X174359955Y-137834690D01*
X174235757Y-137893431D01*
X174106399Y-137939716D01*
X173973126Y-137973099D01*
X173837224Y-137993259D01*
X173700000Y-138000000D01*
X170900000Y-138000000D01*
X170762776Y-137993259D01*
X170626874Y-137973099D01*
X170493601Y-137939716D01*
X170364243Y-137893431D01*
X170240045Y-137834690D01*
X170122202Y-137764057D01*
X170011849Y-137682215D01*
X169910051Y-137589949D01*
X169817785Y-137488151D01*
X169735943Y-137377798D01*
X169665310Y-137259955D01*
X169606569Y-137135757D01*
X169560284Y-137006399D01*
X169526901Y-136873126D01*
X169506741Y-136737224D01*
X169500000Y-136600000D01*
X169500000Y-133800000D01*
X169506741Y-133662776D01*
X169526901Y-133526874D01*
X169560284Y-133393601D01*
X169606569Y-133264243D01*
X169665310Y-133140045D01*
X169735943Y-133022202D01*
X169817785Y-132911849D01*
X169910051Y-132810051D01*
X170011849Y-132717785D01*
X170122202Y-132635943D01*
X170240045Y-132565310D01*
X170364243Y-132506569D01*
X170493601Y-132460284D01*
X170626874Y-132426901D01*
X170762776Y-132406741D01*
X170900000Y-132400000D01*
X173700000Y-132400000D01*
X173837224Y-132406741D01*
G37*
G04 #@! TD.AperFunction*
G04 #@! TA.AperFunction,ComponentPad*
G36*
X120497224Y-132406741D02*
G01*
X120633126Y-132426901D01*
X120766399Y-132460284D01*
X120895757Y-132506569D01*
X121019955Y-132565310D01*
X121137798Y-132635943D01*
X121248151Y-132717785D01*
X121349949Y-132810051D01*
X121442215Y-132911849D01*
X121524057Y-133022202D01*
X121594690Y-133140045D01*
X121653431Y-133264243D01*
X121699716Y-133393601D01*
X121733099Y-133526874D01*
X121753259Y-133662776D01*
X121760000Y-133800000D01*
X121760000Y-136600000D01*
X121753259Y-136737224D01*
X121733099Y-136873126D01*
X121699716Y-137006399D01*
X121653431Y-137135757D01*
X121594690Y-137259955D01*
X121524057Y-137377798D01*
X121442215Y-137488151D01*
X121349949Y-137589949D01*
X121248151Y-137682215D01*
X121137798Y-137764057D01*
X121019955Y-137834690D01*
X120895757Y-137893431D01*
X120766399Y-137939716D01*
X120633126Y-137973099D01*
X120497224Y-137993259D01*
X120360000Y-138000000D01*
X117560000Y-138000000D01*
X117422776Y-137993259D01*
X117286874Y-137973099D01*
X117153601Y-137939716D01*
X117024243Y-137893431D01*
X116900045Y-137834690D01*
X116782202Y-137764057D01*
X116671849Y-137682215D01*
X116570051Y-137589949D01*
X116477785Y-137488151D01*
X116395943Y-137377798D01*
X116325310Y-137259955D01*
X116266569Y-137135757D01*
X116220284Y-137006399D01*
X116186901Y-136873126D01*
X116166741Y-136737224D01*
X116160000Y-136600000D01*
X116160000Y-133800000D01*
X116166741Y-133662776D01*
X116186901Y-133526874D01*
X116220284Y-133393601D01*
X116266569Y-133264243D01*
X116325310Y-133140045D01*
X116395943Y-133022202D01*
X116477785Y-132911849D01*
X116570051Y-132810051D01*
X116671849Y-132717785D01*
X116782202Y-132635943D01*
X116900045Y-132565310D01*
X117024243Y-132506569D01*
X117153601Y-132460284D01*
X117286874Y-132426901D01*
X117422776Y-132406741D01*
X117560000Y-132400000D01*
X120360000Y-132400000D01*
X120497224Y-132406741D01*
G37*
G04 #@! TD.AperFunction*
G04 #@! TA.AperFunction,ComponentPad*
G36*
X105257224Y-132406741D02*
G01*
X105393126Y-132426901D01*
X105526399Y-132460284D01*
X105655757Y-132506569D01*
X105779955Y-132565310D01*
X105897798Y-132635943D01*
X106008151Y-132717785D01*
X106109949Y-132810051D01*
X106202215Y-132911849D01*
X106284057Y-133022202D01*
X106354690Y-133140045D01*
X106413431Y-133264243D01*
X106459716Y-133393601D01*
X106493099Y-133526874D01*
X106513259Y-133662776D01*
X106520000Y-133800000D01*
X106520000Y-136600000D01*
X106513259Y-136737224D01*
X106493099Y-136873126D01*
X106459716Y-137006399D01*
X106413431Y-137135757D01*
X106354690Y-137259955D01*
X106284057Y-137377798D01*
X106202215Y-137488151D01*
X106109949Y-137589949D01*
X106008151Y-137682215D01*
X105897798Y-137764057D01*
X105779955Y-137834690D01*
X105655757Y-137893431D01*
X105526399Y-137939716D01*
X105393126Y-137973099D01*
X105257224Y-137993259D01*
X105120000Y-138000000D01*
X102320000Y-138000000D01*
X102182776Y-137993259D01*
X102046874Y-137973099D01*
X101913601Y-137939716D01*
X101784243Y-137893431D01*
X101660045Y-137834690D01*
X101542202Y-137764057D01*
X101431849Y-137682215D01*
X101330051Y-137589949D01*
X101237785Y-137488151D01*
X101155943Y-137377798D01*
X101085310Y-137259955D01*
X101026569Y-137135757D01*
X100980284Y-137006399D01*
X100946901Y-136873126D01*
X100926741Y-136737224D01*
X100920000Y-136600000D01*
X100920000Y-133800000D01*
X100926741Y-133662776D01*
X100946901Y-133526874D01*
X100980284Y-133393601D01*
X101026569Y-133264243D01*
X101085310Y-133140045D01*
X101155943Y-133022202D01*
X101237785Y-132911849D01*
X101330051Y-132810051D01*
X101431849Y-132717785D01*
X101542202Y-132635943D01*
X101660045Y-132565310D01*
X101784243Y-132506569D01*
X101913601Y-132460284D01*
X102046874Y-132426901D01*
X102182776Y-132406741D01*
X102320000Y-132400000D01*
X105120000Y-132400000D01*
X105257224Y-132406741D01*
G37*
G04 #@! TD.AperFunction*
G04 #@! TA.AperFunction,ComponentPad*
G36*
X112877224Y-132406741D02*
G01*
X113013126Y-132426901D01*
X113146399Y-132460284D01*
X113275757Y-132506569D01*
X113399955Y-132565310D01*
X113517798Y-132635943D01*
X113628151Y-132717785D01*
X113729949Y-132810051D01*
X113822215Y-132911849D01*
X113904057Y-133022202D01*
X113974690Y-133140045D01*
X114033431Y-133264243D01*
X114079716Y-133393601D01*
X114113099Y-133526874D01*
X114133259Y-133662776D01*
X114140000Y-133800000D01*
X114140000Y-136600000D01*
X114133259Y-136737224D01*
X114113099Y-136873126D01*
X114079716Y-137006399D01*
X114033431Y-137135757D01*
X113974690Y-137259955D01*
X113904057Y-137377798D01*
X113822215Y-137488151D01*
X113729949Y-137589949D01*
X113628151Y-137682215D01*
X113517798Y-137764057D01*
X113399955Y-137834690D01*
X113275757Y-137893431D01*
X113146399Y-137939716D01*
X113013126Y-137973099D01*
X112877224Y-137993259D01*
X112740000Y-138000000D01*
X109940000Y-138000000D01*
X109802776Y-137993259D01*
X109666874Y-137973099D01*
X109533601Y-137939716D01*
X109404243Y-137893431D01*
X109280045Y-137834690D01*
X109162202Y-137764057D01*
X109051849Y-137682215D01*
X108950051Y-137589949D01*
X108857785Y-137488151D01*
X108775943Y-137377798D01*
X108705310Y-137259955D01*
X108646569Y-137135757D01*
X108600284Y-137006399D01*
X108566901Y-136873126D01*
X108546741Y-136737224D01*
X108540000Y-136600000D01*
X108540000Y-133800000D01*
X108546741Y-133662776D01*
X108566901Y-133526874D01*
X108600284Y-133393601D01*
X108646569Y-133264243D01*
X108705310Y-133140045D01*
X108775943Y-133022202D01*
X108857785Y-132911849D01*
X108950051Y-132810051D01*
X109051849Y-132717785D01*
X109162202Y-132635943D01*
X109280045Y-132565310D01*
X109404243Y-132506569D01*
X109533601Y-132460284D01*
X109666874Y-132426901D01*
X109802776Y-132406741D01*
X109940000Y-132400000D01*
X112740000Y-132400000D01*
X112877224Y-132406741D01*
G37*
G04 #@! TD.AperFunction*
D18*
X125800000Y-108000000D03*
D19*
X128975000Y-108000000D03*
X132150000Y-108000000D03*
D20*
X110600000Y-114500000D02*
X106400000Y-114500000D01*
X110600000Y-120000000D02*
X106400000Y-120000000D01*
D21*
X103720000Y-117180000D02*
X103720000Y-135200000D01*
X106400000Y-114500000D02*
X103720000Y-117180000D01*
X103720000Y-122680000D02*
X103720000Y-135200000D01*
X106400000Y-120000000D02*
X103720000Y-122680000D01*
X145800000Y-120722000D02*
X145800000Y-114500000D01*
X145800000Y-121524937D02*
X145800000Y-120722000D01*
X143188927Y-124136010D02*
X145800000Y-121524937D01*
X126580000Y-126768896D02*
X129212886Y-124136010D01*
X129212886Y-124136010D02*
X143188927Y-124136010D01*
X126580000Y-135200000D02*
X126580000Y-126768896D01*
X150000000Y-120722000D02*
X150000000Y-114500000D01*
X146585990Y-124136010D02*
X150000000Y-120722000D01*
X136812886Y-124136010D02*
X146585990Y-124136010D01*
X134788990Y-126159906D02*
X136812886Y-124136010D01*
X134788990Y-134711010D02*
X134788990Y-126159906D01*
X134300000Y-135200000D02*
X134788990Y-134711010D01*
X134200000Y-135200000D02*
X134300000Y-135200000D01*
X134200000Y-126748896D02*
X134200000Y-135200000D01*
X136259906Y-124688990D02*
X134200000Y-126748896D01*
X146961010Y-124688990D02*
X136259906Y-124688990D01*
X150000000Y-121650000D02*
X146961010Y-124688990D01*
X150000000Y-120000000D02*
X150000000Y-121650000D01*
D22*
X157060000Y-105060000D02*
X157000000Y-105000000D01*
X157060000Y-135200000D02*
X157060000Y-105060000D01*
D23*
G36*
X106117234Y-95167234D02*
G01*
X105900421Y-95431422D01*
X105739314Y-95732832D01*
X105640105Y-96059881D01*
X105606606Y-96400000D01*
X105640105Y-96740119D01*
X105739314Y-97067168D01*
X105900421Y-97368578D01*
X106117234Y-97632766D01*
X106123008Y-97637504D01*
X106111928Y-97750000D01*
X106111928Y-99250000D01*
X106124188Y-99374482D01*
X106160498Y-99494180D01*
X106219463Y-99604494D01*
X106298815Y-99701185D01*
X106338940Y-99734114D01*
X106214236Y-99967419D01*
X106135040Y-100228493D01*
X106108299Y-100500000D01*
X106135040Y-100771507D01*
X106214236Y-101032581D01*
X106342843Y-101273188D01*
X106515919Y-101484081D01*
X106535316Y-101500000D01*
X106515919Y-101515919D01*
X106342843Y-101726812D01*
X106214236Y-101967419D01*
X106135040Y-102228493D01*
X106108299Y-102500000D01*
X106135040Y-102771507D01*
X106214236Y-103032581D01*
X106308994Y-103209861D01*
X106117234Y-103367234D01*
X105900421Y-103631422D01*
X105739314Y-103932832D01*
X105640105Y-104259881D01*
X105606606Y-104600000D01*
X105640105Y-104940119D01*
X105739314Y-105267168D01*
X105900421Y-105568578D01*
X106117234Y-105832766D01*
X106381422Y-106049579D01*
X106682832Y-106210686D01*
X107009881Y-106309895D01*
X107264775Y-106335000D01*
X108735225Y-106335000D01*
X108990119Y-106309895D01*
X109317168Y-106210686D01*
X109618578Y-106049579D01*
X109882766Y-105832766D01*
X110099579Y-105568578D01*
X110260686Y-105267168D01*
X110359895Y-104940119D01*
X110393394Y-104600000D01*
X110359895Y-104259881D01*
X110260686Y-103932832D01*
X110099579Y-103631422D01*
X109882766Y-103367234D01*
X109691006Y-103209861D01*
X109785764Y-103032581D01*
X109864960Y-102771507D01*
X109891701Y-102500000D01*
X109864960Y-102228493D01*
X109785764Y-101967419D01*
X109657157Y-101726812D01*
X109484081Y-101515919D01*
X109464684Y-101500000D01*
X109484081Y-101484081D01*
X109657157Y-101273188D01*
X109785764Y-101032581D01*
X109864960Y-100771507D01*
X109891701Y-100500000D01*
X109872446Y-100304495D01*
X115015000Y-100304495D01*
X115015000Y-100695505D01*
X115091282Y-101079003D01*
X115240915Y-101440250D01*
X115458149Y-101765364D01*
X115734636Y-102041851D01*
X116059750Y-102259085D01*
X116420997Y-102408718D01*
X116804495Y-102485000D01*
X117195505Y-102485000D01*
X117579003Y-102408718D01*
X117940250Y-102259085D01*
X118265364Y-102041851D01*
X118541851Y-101765364D01*
X118759085Y-101440250D01*
X118908718Y-101079003D01*
X118985000Y-100695505D01*
X118985000Y-100304495D01*
X139015000Y-100304495D01*
X139015000Y-100695505D01*
X139091282Y-101079003D01*
X139240915Y-101440250D01*
X139458149Y-101765364D01*
X139734636Y-102041851D01*
X140059750Y-102259085D01*
X140420997Y-102408718D01*
X140804495Y-102485000D01*
X141195505Y-102485000D01*
X141579003Y-102408718D01*
X141940250Y-102259085D01*
X142265364Y-102041851D01*
X142541851Y-101765364D01*
X142759085Y-101440250D01*
X142908718Y-101079003D01*
X142985000Y-100695505D01*
X142985000Y-100304495D01*
X142908718Y-99920997D01*
X142759085Y-99559750D01*
X142541851Y-99234636D01*
X142265364Y-98958149D01*
X141940250Y-98740915D01*
X141579003Y-98591282D01*
X141195505Y-98515000D01*
X140804495Y-98515000D01*
X140420997Y-98591282D01*
X140059750Y-98740915D01*
X139734636Y-98958149D01*
X139458149Y-99234636D01*
X139240915Y-99559750D01*
X139091282Y-99920997D01*
X139015000Y-100304495D01*
X118985000Y-100304495D01*
X118908718Y-99920997D01*
X118759085Y-99559750D01*
X118541851Y-99234636D01*
X118265364Y-98958149D01*
X117940250Y-98740915D01*
X117579003Y-98591282D01*
X117195505Y-98515000D01*
X116804495Y-98515000D01*
X116420997Y-98591282D01*
X116059750Y-98740915D01*
X115734636Y-98958149D01*
X115458149Y-99234636D01*
X115240915Y-99559750D01*
X115091282Y-99920997D01*
X115015000Y-100304495D01*
X109872446Y-100304495D01*
X109864960Y-100228493D01*
X109785764Y-99967419D01*
X109661060Y-99734114D01*
X109701185Y-99701185D01*
X109780537Y-99604494D01*
X109839502Y-99494180D01*
X109875812Y-99374482D01*
X109888072Y-99250000D01*
X109888072Y-97750000D01*
X109876992Y-97637504D01*
X109882766Y-97632766D01*
X110099579Y-97368578D01*
X110260686Y-97067168D01*
X110359895Y-96740119D01*
X110393394Y-96400000D01*
X110359895Y-96059881D01*
X110260686Y-95732832D01*
X110099579Y-95431422D01*
X109882766Y-95167234D01*
X109630250Y-94960000D01*
X152373000Y-94960000D01*
X152373000Y-112787110D01*
X152075452Y-112424548D01*
X151630673Y-112059526D01*
X151123227Y-111788291D01*
X150572616Y-111621265D01*
X150000000Y-111564867D01*
X149427385Y-111621265D01*
X148876774Y-111788291D01*
X148369328Y-112059526D01*
X147924549Y-112424548D01*
X147900001Y-112454460D01*
X147875452Y-112424548D01*
X147430673Y-112059526D01*
X146923227Y-111788291D01*
X146372616Y-111621265D01*
X145800000Y-111564867D01*
X145227385Y-111621265D01*
X144676774Y-111788291D01*
X144169328Y-112059526D01*
X143724549Y-112424548D01*
X143359527Y-112869327D01*
X143088292Y-113376773D01*
X142921266Y-113927384D01*
X142879001Y-114356506D01*
X142879000Y-120315019D01*
X141979010Y-121215010D01*
X136956372Y-121215010D01*
X136812885Y-121200878D01*
X136669399Y-121215010D01*
X134961685Y-121215010D01*
X135042774Y-121063302D01*
X135156278Y-120689128D01*
X135185000Y-120397510D01*
X135185000Y-119602491D01*
X135156278Y-119310873D01*
X135042774Y-118936698D01*
X134858453Y-118591857D01*
X134610398Y-118289602D01*
X134308143Y-118041547D01*
X133963302Y-117857226D01*
X133589128Y-117743722D01*
X133200000Y-117705396D01*
X132810873Y-117743722D01*
X132436699Y-117857226D01*
X132091858Y-118041547D01*
X131789603Y-118289602D01*
X131541547Y-118591857D01*
X131357226Y-118936698D01*
X131243722Y-119310872D01*
X131215000Y-119602490D01*
X131215000Y-120397509D01*
X131243722Y-120689127D01*
X131357226Y-121063301D01*
X131438316Y-121215010D01*
X130761685Y-121215010D01*
X130842774Y-121063302D01*
X130956278Y-120689128D01*
X130985000Y-120397510D01*
X130985000Y-119602491D01*
X130956278Y-119310873D01*
X130842774Y-118936698D01*
X130658453Y-118591857D01*
X130410398Y-118289602D01*
X130108143Y-118041547D01*
X129763302Y-117857226D01*
X129389128Y-117743722D01*
X129000000Y-117705396D01*
X128610873Y-117743722D01*
X128236699Y-117857226D01*
X127891858Y-118041547D01*
X127589603Y-118289602D01*
X127341547Y-118591857D01*
X127157226Y-118936698D01*
X127043722Y-119310872D01*
X127015000Y-119602490D01*
X127015000Y-120397509D01*
X127043722Y-120689127D01*
X127157226Y-121063301D01*
X127341547Y-121408143D01*
X127579340Y-121697894D01*
X127449147Y-121804741D01*
X127248892Y-121969086D01*
X127248889Y-121969089D01*
X127137434Y-122060558D01*
X127045964Y-122172014D01*
X124616004Y-124601975D01*
X124504549Y-124693444D01*
X124413080Y-124804899D01*
X124413076Y-124804903D01*
X124293764Y-124950286D01*
X124139527Y-125138223D01*
X124074844Y-125259237D01*
X123868291Y-125645670D01*
X123701265Y-126196281D01*
X123665395Y-126560474D01*
X123629383Y-126549550D01*
X123532419Y-126540000D01*
X123500000Y-126536807D01*
X123467581Y-126540000D01*
X122132419Y-126540000D01*
X122100000Y-126536807D01*
X122067581Y-126540000D01*
X121970617Y-126549550D01*
X121846207Y-126587290D01*
X121731550Y-126648575D01*
X121631052Y-126731052D01*
X121548575Y-126831550D01*
X121487290Y-126946207D01*
X121449550Y-127070617D01*
X121436807Y-127200000D01*
X121440000Y-127232419D01*
X121440001Y-138640000D01*
X116460000Y-138640000D01*
X116460000Y-127232419D01*
X116463193Y-127200000D01*
X116450450Y-127070617D01*
X116412710Y-126946207D01*
X116351425Y-126831550D01*
X116268948Y-126731052D01*
X116168450Y-126648575D01*
X116053793Y-126587290D01*
X115929383Y-126549550D01*
X115832419Y-126540000D01*
X115800000Y-126536807D01*
X115767581Y-126540000D01*
X114432419Y-126540000D01*
X114400000Y-126536807D01*
X114367581Y-126540000D01*
X114270617Y-126549550D01*
X114146207Y-126587290D01*
X114031550Y-126648575D01*
X113931052Y-126731052D01*
X113848575Y-126831550D01*
X113787290Y-126946207D01*
X113749550Y-127070617D01*
X113736807Y-127200000D01*
X113740000Y-127232419D01*
X113740001Y-138640000D01*
X108860000Y-138640000D01*
X108860000Y-127232419D01*
X108863193Y-127200000D01*
X108850450Y-127070617D01*
X108812710Y-126946207D01*
X108751425Y-126831550D01*
X108668948Y-126731052D01*
X108568450Y-126648575D01*
X108453793Y-126587290D01*
X108329383Y-126549550D01*
X108232419Y-126540000D01*
X108200000Y-126536807D01*
X108167581Y-126540000D01*
X106832419Y-126540000D01*
X106800000Y-126536807D01*
X106767581Y-126540000D01*
X106670617Y-126549550D01*
X106641000Y-126558534D01*
X106641000Y-123889917D01*
X107990918Y-122540000D01*
X110724771Y-122540000D01*
X111097927Y-122503247D01*
X111576719Y-122358008D01*
X112017976Y-122122151D01*
X112404741Y-121804741D01*
X112722151Y-121417976D01*
X112958008Y-120976719D01*
X113103247Y-120497927D01*
X113152289Y-120000000D01*
X113103247Y-119502073D01*
X112958008Y-119023281D01*
X112722151Y-118582024D01*
X112404741Y-118195259D01*
X112017976Y-117877849D01*
X111576719Y-117641992D01*
X111097927Y-117496753D01*
X110724771Y-117460000D01*
X107844470Y-117460000D01*
X107666203Y-117364714D01*
X107990918Y-117040000D01*
X110724771Y-117040000D01*
X111097927Y-117003247D01*
X111576719Y-116858008D01*
X112017976Y-116622151D01*
X112404741Y-116304741D01*
X112722151Y-115917976D01*
X112958008Y-115476719D01*
X113103247Y-114997927D01*
X113152289Y-114500000D01*
X113113138Y-114102490D01*
X127015000Y-114102490D01*
X127015000Y-114897509D01*
X127043722Y-115189127D01*
X127157226Y-115563301D01*
X127341547Y-115908143D01*
X127589602Y-116210398D01*
X127891857Y-116458453D01*
X128236698Y-116642774D01*
X128610872Y-116756278D01*
X129000000Y-116794604D01*
X129389127Y-116756278D01*
X129763301Y-116642774D01*
X130108143Y-116458453D01*
X130410398Y-116210398D01*
X130658453Y-115908143D01*
X130842774Y-115563302D01*
X130956278Y-115189128D01*
X130985000Y-114897510D01*
X130985000Y-114102491D01*
X130985000Y-114102490D01*
X131215000Y-114102490D01*
X131215000Y-114897509D01*
X131243722Y-115189127D01*
X131357226Y-115563301D01*
X131541547Y-115908143D01*
X131789602Y-116210398D01*
X132091857Y-116458453D01*
X132436698Y-116642774D01*
X132810872Y-116756278D01*
X133200000Y-116794604D01*
X133589127Y-116756278D01*
X133963301Y-116642774D01*
X134308143Y-116458453D01*
X134610398Y-116210398D01*
X134858453Y-115908143D01*
X135042774Y-115563302D01*
X135156278Y-115189128D01*
X135185000Y-114897510D01*
X135185000Y-114102491D01*
X135156278Y-113810873D01*
X135042774Y-113436698D01*
X134858453Y-113091857D01*
X134610398Y-112789602D01*
X134308143Y-112541547D01*
X133963302Y-112357226D01*
X133589128Y-112243722D01*
X133200000Y-112205396D01*
X132810873Y-112243722D01*
X132436699Y-112357226D01*
X132091858Y-112541547D01*
X131789603Y-112789602D01*
X131541547Y-113091857D01*
X131357226Y-113436698D01*
X131243722Y-113810872D01*
X131215000Y-114102490D01*
X130985000Y-114102490D01*
X130956278Y-113810873D01*
X130842774Y-113436698D01*
X130658453Y-113091857D01*
X130410398Y-112789602D01*
X130108143Y-112541547D01*
X129763302Y-112357226D01*
X129389128Y-112243722D01*
X129000000Y-112205396D01*
X128610873Y-112243722D01*
X128236699Y-112357226D01*
X127891858Y-112541547D01*
X127589603Y-112789602D01*
X127341547Y-113091857D01*
X127157226Y-113436698D01*
X127043722Y-113810872D01*
X127015000Y-114102490D01*
X113113138Y-114102490D01*
X113103247Y-114002073D01*
X112958008Y-113523281D01*
X112722151Y-113082024D01*
X112404741Y-112695259D01*
X112017976Y-112377849D01*
X111576719Y-112141992D01*
X111097927Y-111996753D01*
X110724771Y-111960000D01*
X107844470Y-111960000D01*
X107523226Y-111788291D01*
X106972615Y-111621265D01*
X106399999Y-111564868D01*
X105827383Y-111621265D01*
X105276773Y-111788291D01*
X104769327Y-112059527D01*
X104436006Y-112333076D01*
X101756004Y-115013078D01*
X101644548Y-115104549D01*
X101279526Y-115549328D01*
X101260000Y-115585859D01*
X101260000Y-107814375D01*
X127090320Y-107814375D01*
X127090320Y-108185625D01*
X127162747Y-108549741D01*
X127304818Y-108892731D01*
X127511074Y-109201413D01*
X127773587Y-109463926D01*
X128082269Y-109670182D01*
X128425259Y-109812253D01*
X128789375Y-109884680D01*
X129160625Y-109884680D01*
X129524741Y-109812253D01*
X129867731Y-109670182D01*
X130176413Y-109463926D01*
X130438926Y-109201413D01*
X130562500Y-109016473D01*
X130686074Y-109201413D01*
X130948587Y-109463926D01*
X131257269Y-109670182D01*
X131600259Y-109812253D01*
X131964375Y-109884680D01*
X132335625Y-109884680D01*
X132699741Y-109812253D01*
X133042731Y-109670182D01*
X133351413Y-109463926D01*
X133613926Y-109201413D01*
X133820182Y-108892731D01*
X133962253Y-108549741D01*
X134034680Y-108185625D01*
X134034680Y-107814375D01*
X133962253Y-107450259D01*
X133820182Y-107107269D01*
X133613926Y-106798587D01*
X133351413Y-106536074D01*
X133042731Y-106329818D01*
X132699741Y-106187747D01*
X132335625Y-106115320D01*
X131964375Y-106115320D01*
X131600259Y-106187747D01*
X131257269Y-106329818D01*
X130948587Y-106536074D01*
X130686074Y-106798587D01*
X130562500Y-106983527D01*
X130438926Y-106798587D01*
X130176413Y-106536074D01*
X129867731Y-106329818D01*
X129524741Y-106187747D01*
X129160625Y-106115320D01*
X128789375Y-106115320D01*
X128425259Y-106187747D01*
X128082269Y-106329818D01*
X127773587Y-106536074D01*
X127511074Y-106798587D01*
X127304818Y-107107269D01*
X127162747Y-107450259D01*
X127090320Y-107814375D01*
X101260000Y-107814375D01*
X101260000Y-94960000D01*
X106369750Y-94960000D01*
X106117234Y-95167234D01*
G37*
X106117234Y-95167234D02*
X105900421Y-95431422D01*
X105739314Y-95732832D01*
X105640105Y-96059881D01*
X105606606Y-96400000D01*
X105640105Y-96740119D01*
X105739314Y-97067168D01*
X105900421Y-97368578D01*
X106117234Y-97632766D01*
X106123008Y-97637504D01*
X106111928Y-97750000D01*
X106111928Y-99250000D01*
X106124188Y-99374482D01*
X106160498Y-99494180D01*
X106219463Y-99604494D01*
X106298815Y-99701185D01*
X106338940Y-99734114D01*
X106214236Y-99967419D01*
X106135040Y-100228493D01*
X106108299Y-100500000D01*
X106135040Y-100771507D01*
X106214236Y-101032581D01*
X106342843Y-101273188D01*
X106515919Y-101484081D01*
X106535316Y-101500000D01*
X106515919Y-101515919D01*
X106342843Y-101726812D01*
X106214236Y-101967419D01*
X106135040Y-102228493D01*
X106108299Y-102500000D01*
X106135040Y-102771507D01*
X106214236Y-103032581D01*
X106308994Y-103209861D01*
X106117234Y-103367234D01*
X105900421Y-103631422D01*
X105739314Y-103932832D01*
X105640105Y-104259881D01*
X105606606Y-104600000D01*
X105640105Y-104940119D01*
X105739314Y-105267168D01*
X105900421Y-105568578D01*
X106117234Y-105832766D01*
X106381422Y-106049579D01*
X106682832Y-106210686D01*
X107009881Y-106309895D01*
X107264775Y-106335000D01*
X108735225Y-106335000D01*
X108990119Y-106309895D01*
X109317168Y-106210686D01*
X109618578Y-106049579D01*
X109882766Y-105832766D01*
X110099579Y-105568578D01*
X110260686Y-105267168D01*
X110359895Y-104940119D01*
X110393394Y-104600000D01*
X110359895Y-104259881D01*
X110260686Y-103932832D01*
X110099579Y-103631422D01*
X109882766Y-103367234D01*
X109691006Y-103209861D01*
X109785764Y-103032581D01*
X109864960Y-102771507D01*
X109891701Y-102500000D01*
X109864960Y-102228493D01*
X109785764Y-101967419D01*
X109657157Y-101726812D01*
X109484081Y-101515919D01*
X109464684Y-101500000D01*
X109484081Y-101484081D01*
X109657157Y-101273188D01*
X109785764Y-101032581D01*
X109864960Y-100771507D01*
X109891701Y-100500000D01*
X109872446Y-100304495D01*
X115015000Y-100304495D01*
X115015000Y-100695505D01*
X115091282Y-101079003D01*
X115240915Y-101440250D01*
X115458149Y-101765364D01*
X115734636Y-102041851D01*
X116059750Y-102259085D01*
X116420997Y-102408718D01*
X116804495Y-102485000D01*
X117195505Y-102485000D01*
X117579003Y-102408718D01*
X117940250Y-102259085D01*
X118265364Y-102041851D01*
X118541851Y-101765364D01*
X118759085Y-101440250D01*
X118908718Y-101079003D01*
X118985000Y-100695505D01*
X118985000Y-100304495D01*
X139015000Y-100304495D01*
X139015000Y-100695505D01*
X139091282Y-101079003D01*
X139240915Y-101440250D01*
X139458149Y-101765364D01*
X139734636Y-102041851D01*
X140059750Y-102259085D01*
X140420997Y-102408718D01*
X140804495Y-102485000D01*
X141195505Y-102485000D01*
X141579003Y-102408718D01*
X141940250Y-102259085D01*
X142265364Y-102041851D01*
X142541851Y-101765364D01*
X142759085Y-101440250D01*
X142908718Y-101079003D01*
X142985000Y-100695505D01*
X142985000Y-100304495D01*
X142908718Y-99920997D01*
X142759085Y-99559750D01*
X142541851Y-99234636D01*
X142265364Y-98958149D01*
X141940250Y-98740915D01*
X141579003Y-98591282D01*
X141195505Y-98515000D01*
X140804495Y-98515000D01*
X140420997Y-98591282D01*
X140059750Y-98740915D01*
X139734636Y-98958149D01*
X139458149Y-99234636D01*
X139240915Y-99559750D01*
X139091282Y-99920997D01*
X139015000Y-100304495D01*
X118985000Y-100304495D01*
X118908718Y-99920997D01*
X118759085Y-99559750D01*
X118541851Y-99234636D01*
X118265364Y-98958149D01*
X117940250Y-98740915D01*
X117579003Y-98591282D01*
X117195505Y-98515000D01*
X116804495Y-98515000D01*
X116420997Y-98591282D01*
X116059750Y-98740915D01*
X115734636Y-98958149D01*
X115458149Y-99234636D01*
X115240915Y-99559750D01*
X115091282Y-99920997D01*
X115015000Y-100304495D01*
X109872446Y-100304495D01*
X109864960Y-100228493D01*
X109785764Y-99967419D01*
X109661060Y-99734114D01*
X109701185Y-99701185D01*
X109780537Y-99604494D01*
X109839502Y-99494180D01*
X109875812Y-99374482D01*
X109888072Y-99250000D01*
X109888072Y-97750000D01*
X109876992Y-97637504D01*
X109882766Y-97632766D01*
X110099579Y-97368578D01*
X110260686Y-97067168D01*
X110359895Y-96740119D01*
X110393394Y-96400000D01*
X110359895Y-96059881D01*
X110260686Y-95732832D01*
X110099579Y-95431422D01*
X109882766Y-95167234D01*
X109630250Y-94960000D01*
X152373000Y-94960000D01*
X152373000Y-112787110D01*
X152075452Y-112424548D01*
X151630673Y-112059526D01*
X151123227Y-111788291D01*
X150572616Y-111621265D01*
X150000000Y-111564867D01*
X149427385Y-111621265D01*
X148876774Y-111788291D01*
X148369328Y-112059526D01*
X147924549Y-112424548D01*
X147900001Y-112454460D01*
X147875452Y-112424548D01*
X147430673Y-112059526D01*
X146923227Y-111788291D01*
X146372616Y-111621265D01*
X145800000Y-111564867D01*
X145227385Y-111621265D01*
X144676774Y-111788291D01*
X144169328Y-112059526D01*
X143724549Y-112424548D01*
X143359527Y-112869327D01*
X143088292Y-113376773D01*
X142921266Y-113927384D01*
X142879001Y-114356506D01*
X142879000Y-120315019D01*
X141979010Y-121215010D01*
X136956372Y-121215010D01*
X136812885Y-121200878D01*
X136669399Y-121215010D01*
X134961685Y-121215010D01*
X135042774Y-121063302D01*
X135156278Y-120689128D01*
X135185000Y-120397510D01*
X135185000Y-119602491D01*
X135156278Y-119310873D01*
X135042774Y-118936698D01*
X134858453Y-118591857D01*
X134610398Y-118289602D01*
X134308143Y-118041547D01*
X133963302Y-117857226D01*
X133589128Y-117743722D01*
X133200000Y-117705396D01*
X132810873Y-117743722D01*
X132436699Y-117857226D01*
X132091858Y-118041547D01*
X131789603Y-118289602D01*
X131541547Y-118591857D01*
X131357226Y-118936698D01*
X131243722Y-119310872D01*
X131215000Y-119602490D01*
X131215000Y-120397509D01*
X131243722Y-120689127D01*
X131357226Y-121063301D01*
X131438316Y-121215010D01*
X130761685Y-121215010D01*
X130842774Y-121063302D01*
X130956278Y-120689128D01*
X130985000Y-120397510D01*
X130985000Y-119602491D01*
X130956278Y-119310873D01*
X130842774Y-118936698D01*
X130658453Y-118591857D01*
X130410398Y-118289602D01*
X130108143Y-118041547D01*
X129763302Y-117857226D01*
X129389128Y-117743722D01*
X129000000Y-117705396D01*
X128610873Y-117743722D01*
X128236699Y-117857226D01*
X127891858Y-118041547D01*
X127589603Y-118289602D01*
X127341547Y-118591857D01*
X127157226Y-118936698D01*
X127043722Y-119310872D01*
X127015000Y-119602490D01*
X127015000Y-120397509D01*
X127043722Y-120689127D01*
X127157226Y-121063301D01*
X127341547Y-121408143D01*
X127579340Y-121697894D01*
X127449147Y-121804741D01*
X127248892Y-121969086D01*
X127248889Y-121969089D01*
X127137434Y-122060558D01*
X127045964Y-122172014D01*
X124616004Y-124601975D01*
X124504549Y-124693444D01*
X124413080Y-124804899D01*
X124413076Y-124804903D01*
X124293764Y-124950286D01*
X124139527Y-125138223D01*
X124074844Y-125259237D01*
X123868291Y-125645670D01*
X123701265Y-126196281D01*
X123665395Y-126560474D01*
X123629383Y-126549550D01*
X123532419Y-126540000D01*
X123500000Y-126536807D01*
X123467581Y-126540000D01*
X122132419Y-126540000D01*
X122100000Y-126536807D01*
X122067581Y-126540000D01*
X121970617Y-126549550D01*
X121846207Y-126587290D01*
X121731550Y-126648575D01*
X121631052Y-126731052D01*
X121548575Y-126831550D01*
X121487290Y-126946207D01*
X121449550Y-127070617D01*
X121436807Y-127200000D01*
X121440000Y-127232419D01*
X121440001Y-138640000D01*
X116460000Y-138640000D01*
X116460000Y-127232419D01*
X116463193Y-127200000D01*
X116450450Y-127070617D01*
X116412710Y-126946207D01*
X116351425Y-126831550D01*
X116268948Y-126731052D01*
X116168450Y-126648575D01*
X116053793Y-126587290D01*
X115929383Y-126549550D01*
X115832419Y-126540000D01*
X115800000Y-126536807D01*
X115767581Y-126540000D01*
X114432419Y-126540000D01*
X114400000Y-126536807D01*
X114367581Y-126540000D01*
X114270617Y-126549550D01*
X114146207Y-126587290D01*
X114031550Y-126648575D01*
X113931052Y-126731052D01*
X113848575Y-126831550D01*
X113787290Y-126946207D01*
X113749550Y-127070617D01*
X113736807Y-127200000D01*
X113740000Y-127232419D01*
X113740001Y-138640000D01*
X108860000Y-138640000D01*
X108860000Y-127232419D01*
X108863193Y-127200000D01*
X108850450Y-127070617D01*
X108812710Y-126946207D01*
X108751425Y-126831550D01*
X108668948Y-126731052D01*
X108568450Y-126648575D01*
X108453793Y-126587290D01*
X108329383Y-126549550D01*
X108232419Y-126540000D01*
X108200000Y-126536807D01*
X108167581Y-126540000D01*
X106832419Y-126540000D01*
X106800000Y-126536807D01*
X106767581Y-126540000D01*
X106670617Y-126549550D01*
X106641000Y-126558534D01*
X106641000Y-123889917D01*
X107990918Y-122540000D01*
X110724771Y-122540000D01*
X111097927Y-122503247D01*
X111576719Y-122358008D01*
X112017976Y-122122151D01*
X112404741Y-121804741D01*
X112722151Y-121417976D01*
X112958008Y-120976719D01*
X113103247Y-120497927D01*
X113152289Y-120000000D01*
X113103247Y-119502073D01*
X112958008Y-119023281D01*
X112722151Y-118582024D01*
X112404741Y-118195259D01*
X112017976Y-117877849D01*
X111576719Y-117641992D01*
X111097927Y-117496753D01*
X110724771Y-117460000D01*
X107844470Y-117460000D01*
X107666203Y-117364714D01*
X107990918Y-117040000D01*
X110724771Y-117040000D01*
X111097927Y-117003247D01*
X111576719Y-116858008D01*
X112017976Y-116622151D01*
X112404741Y-116304741D01*
X112722151Y-115917976D01*
X112958008Y-115476719D01*
X113103247Y-114997927D01*
X113152289Y-114500000D01*
X113113138Y-114102490D01*
X127015000Y-114102490D01*
X127015000Y-114897509D01*
X127043722Y-115189127D01*
X127157226Y-115563301D01*
X127341547Y-115908143D01*
X127589602Y-116210398D01*
X127891857Y-116458453D01*
X128236698Y-116642774D01*
X128610872Y-116756278D01*
X129000000Y-116794604D01*
X129389127Y-116756278D01*
X129763301Y-116642774D01*
X130108143Y-116458453D01*
X130410398Y-116210398D01*
X130658453Y-115908143D01*
X130842774Y-115563302D01*
X130956278Y-115189128D01*
X130985000Y-114897510D01*
X130985000Y-114102491D01*
X130985000Y-114102490D01*
X131215000Y-114102490D01*
X131215000Y-114897509D01*
X131243722Y-115189127D01*
X131357226Y-115563301D01*
X131541547Y-115908143D01*
X131789602Y-116210398D01*
X132091857Y-116458453D01*
X132436698Y-116642774D01*
X132810872Y-116756278D01*
X133200000Y-116794604D01*
X133589127Y-116756278D01*
X133963301Y-116642774D01*
X134308143Y-116458453D01*
X134610398Y-116210398D01*
X134858453Y-115908143D01*
X135042774Y-115563302D01*
X135156278Y-115189128D01*
X135185000Y-114897510D01*
X135185000Y-114102491D01*
X135156278Y-113810873D01*
X135042774Y-113436698D01*
X134858453Y-113091857D01*
X134610398Y-112789602D01*
X134308143Y-112541547D01*
X133963302Y-112357226D01*
X133589128Y-112243722D01*
X133200000Y-112205396D01*
X132810873Y-112243722D01*
X132436699Y-112357226D01*
X132091858Y-112541547D01*
X131789603Y-112789602D01*
X131541547Y-113091857D01*
X131357226Y-113436698D01*
X131243722Y-113810872D01*
X131215000Y-114102490D01*
X130985000Y-114102490D01*
X130956278Y-113810873D01*
X130842774Y-113436698D01*
X130658453Y-113091857D01*
X130410398Y-112789602D01*
X130108143Y-112541547D01*
X129763302Y-112357226D01*
X129389128Y-112243722D01*
X129000000Y-112205396D01*
X128610873Y-112243722D01*
X128236699Y-112357226D01*
X127891858Y-112541547D01*
X127589603Y-112789602D01*
X127341547Y-113091857D01*
X127157226Y-113436698D01*
X127043722Y-113810872D01*
X127015000Y-114102490D01*
X113113138Y-114102490D01*
X113103247Y-114002073D01*
X112958008Y-113523281D01*
X112722151Y-113082024D01*
X112404741Y-112695259D01*
X112017976Y-112377849D01*
X111576719Y-112141992D01*
X111097927Y-111996753D01*
X110724771Y-111960000D01*
X107844470Y-111960000D01*
X107523226Y-111788291D01*
X106972615Y-111621265D01*
X106399999Y-111564868D01*
X105827383Y-111621265D01*
X105276773Y-111788291D01*
X104769327Y-112059527D01*
X104436006Y-112333076D01*
X101756004Y-115013078D01*
X101644548Y-115104549D01*
X101279526Y-115549328D01*
X101260000Y-115585859D01*
X101260000Y-107814375D01*
X127090320Y-107814375D01*
X127090320Y-108185625D01*
X127162747Y-108549741D01*
X127304818Y-108892731D01*
X127511074Y-109201413D01*
X127773587Y-109463926D01*
X128082269Y-109670182D01*
X128425259Y-109812253D01*
X128789375Y-109884680D01*
X129160625Y-109884680D01*
X129524741Y-109812253D01*
X129867731Y-109670182D01*
X130176413Y-109463926D01*
X130438926Y-109201413D01*
X130562500Y-109016473D01*
X130686074Y-109201413D01*
X130948587Y-109463926D01*
X131257269Y-109670182D01*
X131600259Y-109812253D01*
X131964375Y-109884680D01*
X132335625Y-109884680D01*
X132699741Y-109812253D01*
X133042731Y-109670182D01*
X133351413Y-109463926D01*
X133613926Y-109201413D01*
X133820182Y-108892731D01*
X133962253Y-108549741D01*
X134034680Y-108185625D01*
X134034680Y-107814375D01*
X133962253Y-107450259D01*
X133820182Y-107107269D01*
X133613926Y-106798587D01*
X133351413Y-106536074D01*
X133042731Y-106329818D01*
X132699741Y-106187747D01*
X132335625Y-106115320D01*
X131964375Y-106115320D01*
X131600259Y-106187747D01*
X131257269Y-106329818D01*
X130948587Y-106536074D01*
X130686074Y-106798587D01*
X130562500Y-106983527D01*
X130438926Y-106798587D01*
X130176413Y-106536074D01*
X129867731Y-106329818D01*
X129524741Y-106187747D01*
X129160625Y-106115320D01*
X128789375Y-106115320D01*
X128425259Y-106187747D01*
X128082269Y-106329818D01*
X127773587Y-106536074D01*
X127511074Y-106798587D01*
X127304818Y-107107269D01*
X127162747Y-107450259D01*
X127090320Y-107814375D01*
X101260000Y-107814375D01*
X101260000Y-94960000D01*
X106369750Y-94960000D01*
X106117234Y-95167234D01*
M02*
