G04 #@! TF.GenerationSoftware,KiCad,Pcbnew,(5.1.5)-3*
G04 #@! TF.CreationDate,2020-03-03T23:45:34-08:00*
G04 #@! TF.ProjectId,psinterface,7073696e-7465-4726-9661-63652e6b6963,0.4*
G04 #@! TF.SameCoordinates,Original*
G04 #@! TF.FileFunction,Legend,Bot*
G04 #@! TF.FilePolarity,Positive*
%FSLAX46Y46*%
G04 Gerber Fmt 4.6, Leading zero omitted, Abs format (unit mm)*
G04 Created by KiCad (PCBNEW (5.1.5)-3) date 2020-03-03 23:45:34*
%MOMM*%
%LPD*%
G04 APERTURE LIST*
%ADD10C,0.120000*%
%ADD11C,0.150000*%
G04 APERTURE END LIST*
D10*
X128516600Y-100131600D02*
G75*
G03X127816600Y-99431600I-700000J0D01*
G01*
X127816600Y-101431600D02*
G75*
G03X128516600Y-100731600I0J700000D01*
G01*
X124416600Y-100731600D02*
G75*
G03X125116600Y-101431600I700000J0D01*
G01*
X125116600Y-99431600D02*
G75*
G03X124416600Y-100131600I0J-700000D01*
G01*
X127866600Y-99431600D02*
X125066600Y-99431600D01*
X124416600Y-100131600D02*
X124416600Y-100731600D01*
X125066600Y-101431600D02*
X127866600Y-101431600D01*
X128516600Y-100731600D02*
X128516600Y-100131600D01*
X127666600Y-101631600D02*
X127966600Y-101931600D01*
X127966600Y-101931600D02*
X127366600Y-101931600D01*
X127666600Y-101631600D02*
X127366600Y-101931600D01*
X132746600Y-101631600D02*
X132446600Y-101931600D01*
X133046600Y-101931600D02*
X132446600Y-101931600D01*
X132746600Y-101631600D02*
X133046600Y-101931600D01*
X133596600Y-100731600D02*
X133596600Y-100131600D01*
X130146600Y-101431600D02*
X132946600Y-101431600D01*
X129496600Y-100131600D02*
X129496600Y-100731600D01*
X132946600Y-99431600D02*
X130146600Y-99431600D01*
X130196600Y-99431600D02*
G75*
G03X129496600Y-100131600I0J-700000D01*
G01*
X129496600Y-100731600D02*
G75*
G03X130196600Y-101431600I700000J0D01*
G01*
X132896600Y-101431600D02*
G75*
G03X133596600Y-100731600I0J700000D01*
G01*
X133596600Y-100131600D02*
G75*
G03X132896600Y-99431600I-700000J0D01*
G01*
D11*
X127299933Y-98083980D02*
X127299933Y-98798266D01*
X127347552Y-98941123D01*
X127442790Y-99036361D01*
X127585647Y-99083980D01*
X127680885Y-99083980D01*
X126823742Y-99083980D02*
X126823742Y-98083980D01*
X126442790Y-98083980D01*
X126347552Y-98131600D01*
X126299933Y-98179219D01*
X126252314Y-98274457D01*
X126252314Y-98417314D01*
X126299933Y-98512552D01*
X126347552Y-98560171D01*
X126442790Y-98607790D01*
X126823742Y-98607790D01*
X125871361Y-98179219D02*
X125823742Y-98131600D01*
X125728504Y-98083980D01*
X125490409Y-98083980D01*
X125395171Y-98131600D01*
X125347552Y-98179219D01*
X125299933Y-98274457D01*
X125299933Y-98369695D01*
X125347552Y-98512552D01*
X125918980Y-99083980D01*
X125299933Y-99083980D01*
X132379933Y-98083980D02*
X132379933Y-98798266D01*
X132427552Y-98941123D01*
X132522790Y-99036361D01*
X132665647Y-99083980D01*
X132760885Y-99083980D01*
X131903742Y-99083980D02*
X131903742Y-98083980D01*
X131522790Y-98083980D01*
X131427552Y-98131600D01*
X131379933Y-98179219D01*
X131332314Y-98274457D01*
X131332314Y-98417314D01*
X131379933Y-98512552D01*
X131427552Y-98560171D01*
X131522790Y-98607790D01*
X131903742Y-98607790D01*
X130998980Y-98083980D02*
X130379933Y-98083980D01*
X130713266Y-98464933D01*
X130570409Y-98464933D01*
X130475171Y-98512552D01*
X130427552Y-98560171D01*
X130379933Y-98655409D01*
X130379933Y-98893504D01*
X130427552Y-98988742D01*
X130475171Y-99036361D01*
X130570409Y-99083980D01*
X130856123Y-99083980D01*
X130951361Y-99036361D01*
X130998980Y-98988742D01*
M02*
