G04 #@! TF.GenerationSoftware,KiCad,Pcbnew,(5.1.5)-3*
G04 #@! TF.CreationDate,2020-03-03T23:45:34-08:00*
G04 #@! TF.ProjectId,psinterface,7073696e-7465-4726-9661-63652e6b6963,0.4*
G04 #@! TF.SameCoordinates,Original*
G04 #@! TF.FileFunction,Soldermask,Bot*
G04 #@! TF.FilePolarity,Negative*
%FSLAX46Y46*%
G04 Gerber Fmt 4.6, Leading zero omitted, Abs format (unit mm)*
G04 Created by KiCad (PCBNEW (5.1.5)-3) date 2020-03-03 23:45:34*
%MOMM*%
%LPD*%
G04 APERTURE LIST*
%ADD10C,0.100000*%
G04 APERTURE END LIST*
D10*
G36*
X174053788Y-132375782D02*
G01*
X174309369Y-132453312D01*
X174544905Y-132579209D01*
X174751359Y-132748641D01*
X174920791Y-132955095D01*
X175046688Y-133190631D01*
X175124218Y-133446212D01*
X175151000Y-133718140D01*
X175151000Y-136681860D01*
X175124218Y-136953788D01*
X175046688Y-137209369D01*
X174920791Y-137444905D01*
X174751359Y-137651359D01*
X174544905Y-137820791D01*
X174309369Y-137946688D01*
X174053788Y-138024218D01*
X173781860Y-138051000D01*
X170818140Y-138051000D01*
X170546212Y-138024218D01*
X170290631Y-137946688D01*
X170055095Y-137820791D01*
X169848641Y-137651359D01*
X169679209Y-137444905D01*
X169553312Y-137209369D01*
X169475782Y-136953788D01*
X169449000Y-136681860D01*
X169449000Y-133718140D01*
X169475782Y-133446212D01*
X169553312Y-133190631D01*
X169679209Y-132955095D01*
X169848641Y-132748641D01*
X170055095Y-132579209D01*
X170290631Y-132453312D01*
X170546212Y-132375782D01*
X170818140Y-132349000D01*
X173781860Y-132349000D01*
X174053788Y-132375782D01*
G37*
G36*
X166433788Y-132375782D02*
G01*
X166689369Y-132453312D01*
X166924905Y-132579209D01*
X167131359Y-132748641D01*
X167300791Y-132955095D01*
X167426688Y-133190631D01*
X167504218Y-133446212D01*
X167531000Y-133718140D01*
X167531000Y-136681860D01*
X167504218Y-136953788D01*
X167426688Y-137209369D01*
X167300791Y-137444905D01*
X167131359Y-137651359D01*
X166924905Y-137820791D01*
X166689369Y-137946688D01*
X166433788Y-138024218D01*
X166161860Y-138051000D01*
X163198140Y-138051000D01*
X162926212Y-138024218D01*
X162670631Y-137946688D01*
X162435095Y-137820791D01*
X162228641Y-137651359D01*
X162059209Y-137444905D01*
X161933312Y-137209369D01*
X161855782Y-136953788D01*
X161829000Y-136681860D01*
X161829000Y-133718140D01*
X161855782Y-133446212D01*
X161933312Y-133190631D01*
X162059209Y-132955095D01*
X162228641Y-132748641D01*
X162435095Y-132579209D01*
X162670631Y-132453312D01*
X162926212Y-132375782D01*
X163198140Y-132349000D01*
X166161860Y-132349000D01*
X166433788Y-132375782D01*
G37*
G36*
X113093788Y-132375782D02*
G01*
X113349369Y-132453312D01*
X113584905Y-132579209D01*
X113791359Y-132748641D01*
X113960791Y-132955095D01*
X114086688Y-133190631D01*
X114164218Y-133446212D01*
X114191000Y-133718140D01*
X114191000Y-136681860D01*
X114164218Y-136953788D01*
X114086688Y-137209369D01*
X113960791Y-137444905D01*
X113791359Y-137651359D01*
X113584905Y-137820791D01*
X113349369Y-137946688D01*
X113093788Y-138024218D01*
X112821860Y-138051000D01*
X109858140Y-138051000D01*
X109586212Y-138024218D01*
X109330631Y-137946688D01*
X109095095Y-137820791D01*
X108888641Y-137651359D01*
X108719209Y-137444905D01*
X108593312Y-137209369D01*
X108515782Y-136953788D01*
X108489000Y-136681860D01*
X108489000Y-133718140D01*
X108515782Y-133446212D01*
X108593312Y-133190631D01*
X108719209Y-132955095D01*
X108888641Y-132748641D01*
X109095095Y-132579209D01*
X109330631Y-132453312D01*
X109586212Y-132375782D01*
X109858140Y-132349000D01*
X112821860Y-132349000D01*
X113093788Y-132375782D01*
G37*
G36*
X105473788Y-132375782D02*
G01*
X105729369Y-132453312D01*
X105964905Y-132579209D01*
X106171359Y-132748641D01*
X106340791Y-132955095D01*
X106466688Y-133190631D01*
X106544218Y-133446212D01*
X106571000Y-133718140D01*
X106571000Y-136681860D01*
X106544218Y-136953788D01*
X106466688Y-137209369D01*
X106340791Y-137444905D01*
X106171359Y-137651359D01*
X105964905Y-137820791D01*
X105729369Y-137946688D01*
X105473788Y-138024218D01*
X105201860Y-138051000D01*
X102238140Y-138051000D01*
X101966212Y-138024218D01*
X101710631Y-137946688D01*
X101475095Y-137820791D01*
X101268641Y-137651359D01*
X101099209Y-137444905D01*
X100973312Y-137209369D01*
X100895782Y-136953788D01*
X100869000Y-136681860D01*
X100869000Y-133718140D01*
X100895782Y-133446212D01*
X100973312Y-133190631D01*
X101099209Y-132955095D01*
X101268641Y-132748641D01*
X101475095Y-132579209D01*
X101710631Y-132453312D01*
X101966212Y-132375782D01*
X102238140Y-132349000D01*
X105201860Y-132349000D01*
X105473788Y-132375782D01*
G37*
G36*
X120713788Y-132375782D02*
G01*
X120969369Y-132453312D01*
X121204905Y-132579209D01*
X121411359Y-132748641D01*
X121580791Y-132955095D01*
X121706688Y-133190631D01*
X121784218Y-133446212D01*
X121811000Y-133718140D01*
X121811000Y-136681860D01*
X121784218Y-136953788D01*
X121706688Y-137209369D01*
X121580791Y-137444905D01*
X121411359Y-137651359D01*
X121204905Y-137820791D01*
X120969369Y-137946688D01*
X120713788Y-138024218D01*
X120441860Y-138051000D01*
X117478140Y-138051000D01*
X117206212Y-138024218D01*
X116950631Y-137946688D01*
X116715095Y-137820791D01*
X116508641Y-137651359D01*
X116339209Y-137444905D01*
X116213312Y-137209369D01*
X116135782Y-136953788D01*
X116109000Y-136681860D01*
X116109000Y-133718140D01*
X116135782Y-133446212D01*
X116213312Y-133190631D01*
X116339209Y-132955095D01*
X116508641Y-132748641D01*
X116715095Y-132579209D01*
X116950631Y-132453312D01*
X117206212Y-132375782D01*
X117478140Y-132349000D01*
X120441860Y-132349000D01*
X120713788Y-132375782D01*
G37*
G36*
X128333788Y-132375782D02*
G01*
X128589369Y-132453312D01*
X128824905Y-132579209D01*
X129031359Y-132748641D01*
X129200791Y-132955095D01*
X129326688Y-133190631D01*
X129404218Y-133446212D01*
X129431000Y-133718140D01*
X129431000Y-136681860D01*
X129404218Y-136953788D01*
X129326688Y-137209369D01*
X129200791Y-137444905D01*
X129031359Y-137651359D01*
X128824905Y-137820791D01*
X128589369Y-137946688D01*
X128333788Y-138024218D01*
X128061860Y-138051000D01*
X125098140Y-138051000D01*
X124826212Y-138024218D01*
X124570631Y-137946688D01*
X124335095Y-137820791D01*
X124128641Y-137651359D01*
X123959209Y-137444905D01*
X123833312Y-137209369D01*
X123755782Y-136953788D01*
X123729000Y-136681860D01*
X123729000Y-133718140D01*
X123755782Y-133446212D01*
X123833312Y-133190631D01*
X123959209Y-132955095D01*
X124128641Y-132748641D01*
X124335095Y-132579209D01*
X124570631Y-132453312D01*
X124826212Y-132375782D01*
X125098140Y-132349000D01*
X128061860Y-132349000D01*
X128333788Y-132375782D01*
G37*
G36*
X158813788Y-132375782D02*
G01*
X159069369Y-132453312D01*
X159304905Y-132579209D01*
X159511359Y-132748641D01*
X159680791Y-132955095D01*
X159806688Y-133190631D01*
X159884218Y-133446212D01*
X159911000Y-133718140D01*
X159911000Y-136681860D01*
X159884218Y-136953788D01*
X159806688Y-137209369D01*
X159680791Y-137444905D01*
X159511359Y-137651359D01*
X159304905Y-137820791D01*
X159069369Y-137946688D01*
X158813788Y-138024218D01*
X158541860Y-138051000D01*
X155578140Y-138051000D01*
X155306212Y-138024218D01*
X155050631Y-137946688D01*
X154815095Y-137820791D01*
X154608641Y-137651359D01*
X154439209Y-137444905D01*
X154313312Y-137209369D01*
X154235782Y-136953788D01*
X154209000Y-136681860D01*
X154209000Y-133718140D01*
X154235782Y-133446212D01*
X154313312Y-133190631D01*
X154439209Y-132955095D01*
X154608641Y-132748641D01*
X154815095Y-132579209D01*
X155050631Y-132453312D01*
X155306212Y-132375782D01*
X155578140Y-132349000D01*
X158541860Y-132349000D01*
X158813788Y-132375782D01*
G37*
G36*
X135953788Y-132375782D02*
G01*
X136209369Y-132453312D01*
X136444905Y-132579209D01*
X136651359Y-132748641D01*
X136820791Y-132955095D01*
X136946688Y-133190631D01*
X137024218Y-133446212D01*
X137051000Y-133718140D01*
X137051000Y-136681860D01*
X137024218Y-136953788D01*
X136946688Y-137209369D01*
X136820791Y-137444905D01*
X136651359Y-137651359D01*
X136444905Y-137820791D01*
X136209369Y-137946688D01*
X135953788Y-138024218D01*
X135681860Y-138051000D01*
X132718140Y-138051000D01*
X132446212Y-138024218D01*
X132190631Y-137946688D01*
X131955095Y-137820791D01*
X131748641Y-137651359D01*
X131579209Y-137444905D01*
X131453312Y-137209369D01*
X131375782Y-136953788D01*
X131349000Y-136681860D01*
X131349000Y-133718140D01*
X131375782Y-133446212D01*
X131453312Y-133190631D01*
X131579209Y-132955095D01*
X131748641Y-132748641D01*
X131955095Y-132579209D01*
X132190631Y-132453312D01*
X132446212Y-132375782D01*
X132718140Y-132349000D01*
X135681860Y-132349000D01*
X135953788Y-132375782D01*
G37*
G36*
X143573788Y-132375782D02*
G01*
X143829369Y-132453312D01*
X144064905Y-132579209D01*
X144271359Y-132748641D01*
X144440791Y-132955095D01*
X144566688Y-133190631D01*
X144644218Y-133446212D01*
X144671000Y-133718140D01*
X144671000Y-136681860D01*
X144644218Y-136953788D01*
X144566688Y-137209369D01*
X144440791Y-137444905D01*
X144271359Y-137651359D01*
X144064905Y-137820791D01*
X143829369Y-137946688D01*
X143573788Y-138024218D01*
X143301860Y-138051000D01*
X140338140Y-138051000D01*
X140066212Y-138024218D01*
X139810631Y-137946688D01*
X139575095Y-137820791D01*
X139368641Y-137651359D01*
X139199209Y-137444905D01*
X139073312Y-137209369D01*
X138995782Y-136953788D01*
X138969000Y-136681860D01*
X138969000Y-133718140D01*
X138995782Y-133446212D01*
X139073312Y-133190631D01*
X139199209Y-132955095D01*
X139368641Y-132748641D01*
X139575095Y-132579209D01*
X139810631Y-132453312D01*
X140066212Y-132375782D01*
X140338140Y-132349000D01*
X143301860Y-132349000D01*
X143573788Y-132375782D01*
G37*
G36*
X151193788Y-132375782D02*
G01*
X151449369Y-132453312D01*
X151684905Y-132579209D01*
X151891359Y-132748641D01*
X152060791Y-132955095D01*
X152186688Y-133190631D01*
X152264218Y-133446212D01*
X152291000Y-133718140D01*
X152291000Y-136681860D01*
X152264218Y-136953788D01*
X152186688Y-137209369D01*
X152060791Y-137444905D01*
X151891359Y-137651359D01*
X151684905Y-137820791D01*
X151449369Y-137946688D01*
X151193788Y-138024218D01*
X150921860Y-138051000D01*
X147958140Y-138051000D01*
X147686212Y-138024218D01*
X147430631Y-137946688D01*
X147195095Y-137820791D01*
X146988641Y-137651359D01*
X146819209Y-137444905D01*
X146693312Y-137209369D01*
X146615782Y-136953788D01*
X146589000Y-136681860D01*
X146589000Y-133718140D01*
X146615782Y-133446212D01*
X146693312Y-133190631D01*
X146819209Y-132955095D01*
X146988641Y-132748641D01*
X147195095Y-132579209D01*
X147430631Y-132453312D01*
X147686212Y-132375782D01*
X147958140Y-132349000D01*
X150921860Y-132349000D01*
X151193788Y-132375782D01*
G37*
G36*
X139374644Y-120319272D02*
G01*
X139570017Y-120378538D01*
X139638737Y-120399384D01*
X139841625Y-120507830D01*
X139882120Y-120529475D01*
X139937691Y-120575082D01*
X140095450Y-120704550D01*
X140224918Y-120862309D01*
X140270525Y-120917880D01*
X140270526Y-120917882D01*
X140400616Y-121161263D01*
X140421461Y-121229982D01*
X140480728Y-121425357D01*
X140501000Y-121631183D01*
X140501000Y-122368818D01*
X140480728Y-122574644D01*
X140446596Y-122687161D01*
X140400616Y-122838737D01*
X140277964Y-123068202D01*
X140270525Y-123082120D01*
X140238092Y-123121640D01*
X140095450Y-123295450D01*
X139923797Y-123436320D01*
X139882119Y-123470525D01*
X139882117Y-123470526D01*
X139638736Y-123600616D01*
X139570016Y-123621462D01*
X139374643Y-123680728D01*
X139100000Y-123707778D01*
X138825356Y-123680728D01*
X138629983Y-123621462D01*
X138561263Y-123600616D01*
X138317882Y-123470526D01*
X138317880Y-123470525D01*
X138278360Y-123438092D01*
X138104550Y-123295450D01*
X137929476Y-123082120D01*
X137929475Y-123082119D01*
X137922036Y-123068201D01*
X137799384Y-122838736D01*
X137721368Y-122581551D01*
X137719272Y-122574643D01*
X137699000Y-122368817D01*
X137699000Y-121631182D01*
X137719272Y-121425356D01*
X137799383Y-121161267D01*
X137799384Y-121161263D01*
X137929474Y-120917882D01*
X137929475Y-120917880D01*
X137961908Y-120878360D01*
X138104550Y-120704550D01*
X138282581Y-120558445D01*
X138317881Y-120529475D01*
X138358376Y-120507830D01*
X138561264Y-120399384D01*
X138629984Y-120378538D01*
X138825357Y-120319272D01*
X139100000Y-120292222D01*
X139374644Y-120319272D01*
G37*
G36*
X143574644Y-120319272D02*
G01*
X143770017Y-120378538D01*
X143838737Y-120399384D01*
X144041625Y-120507830D01*
X144082120Y-120529475D01*
X144137691Y-120575082D01*
X144295450Y-120704550D01*
X144424918Y-120862309D01*
X144470525Y-120917880D01*
X144470526Y-120917882D01*
X144600616Y-121161263D01*
X144621461Y-121229982D01*
X144680728Y-121425357D01*
X144701000Y-121631183D01*
X144701000Y-122368818D01*
X144680728Y-122574644D01*
X144646596Y-122687161D01*
X144600616Y-122838737D01*
X144477964Y-123068202D01*
X144470525Y-123082120D01*
X144438092Y-123121640D01*
X144295450Y-123295450D01*
X144123797Y-123436320D01*
X144082119Y-123470525D01*
X144082117Y-123470526D01*
X143838736Y-123600616D01*
X143770016Y-123621462D01*
X143574643Y-123680728D01*
X143300000Y-123707778D01*
X143025356Y-123680728D01*
X142829983Y-123621462D01*
X142761263Y-123600616D01*
X142517882Y-123470526D01*
X142517880Y-123470525D01*
X142478360Y-123438092D01*
X142304550Y-123295450D01*
X142129476Y-123082120D01*
X142129475Y-123082119D01*
X142122036Y-123068201D01*
X141999384Y-122838736D01*
X141921368Y-122581551D01*
X141919272Y-122574643D01*
X141899000Y-122368817D01*
X141899000Y-121631182D01*
X141919272Y-121425356D01*
X141999383Y-121161267D01*
X141999384Y-121161263D01*
X142129474Y-120917882D01*
X142129475Y-120917880D01*
X142161908Y-120878360D01*
X142304550Y-120704550D01*
X142482581Y-120558445D01*
X142517881Y-120529475D01*
X142558376Y-120507830D01*
X142761264Y-120399384D01*
X142829984Y-120378538D01*
X143025357Y-120319272D01*
X143300000Y-120292222D01*
X143574644Y-120319272D01*
G37*
G36*
X135174644Y-120319272D02*
G01*
X135370017Y-120378538D01*
X135438737Y-120399384D01*
X135641625Y-120507830D01*
X135682120Y-120529475D01*
X135737691Y-120575082D01*
X135895450Y-120704550D01*
X136024918Y-120862309D01*
X136070525Y-120917880D01*
X136070526Y-120917882D01*
X136200616Y-121161263D01*
X136221461Y-121229982D01*
X136280728Y-121425357D01*
X136301000Y-121631183D01*
X136301000Y-122368818D01*
X136280728Y-122574644D01*
X136246596Y-122687161D01*
X136200616Y-122838737D01*
X136077964Y-123068202D01*
X136070525Y-123082120D01*
X136038092Y-123121640D01*
X135895450Y-123295450D01*
X135723797Y-123436320D01*
X135682119Y-123470525D01*
X135682117Y-123470526D01*
X135438736Y-123600616D01*
X135370016Y-123621462D01*
X135174643Y-123680728D01*
X134900000Y-123707778D01*
X134625356Y-123680728D01*
X134429983Y-123621462D01*
X134361263Y-123600616D01*
X134117882Y-123470526D01*
X134117880Y-123470525D01*
X134078360Y-123438092D01*
X133904550Y-123295450D01*
X133729476Y-123082120D01*
X133729475Y-123082119D01*
X133722036Y-123068201D01*
X133599384Y-122838736D01*
X133521368Y-122581551D01*
X133519272Y-122574643D01*
X133499000Y-122368817D01*
X133499000Y-121631182D01*
X133519272Y-121425356D01*
X133599383Y-121161267D01*
X133599384Y-121161263D01*
X133729474Y-120917882D01*
X133729475Y-120917880D01*
X133761908Y-120878360D01*
X133904550Y-120704550D01*
X134082581Y-120558445D01*
X134117881Y-120529475D01*
X134158376Y-120507830D01*
X134361264Y-120399384D01*
X134429984Y-120378538D01*
X134625357Y-120319272D01*
X134900000Y-120292222D01*
X135174644Y-120319272D01*
G37*
G36*
X122074644Y-120319272D02*
G01*
X122270017Y-120378538D01*
X122338737Y-120399384D01*
X122541625Y-120507830D01*
X122582120Y-120529475D01*
X122637691Y-120575082D01*
X122795450Y-120704550D01*
X122924918Y-120862309D01*
X122970525Y-120917880D01*
X122970526Y-120917882D01*
X123100616Y-121161263D01*
X123121461Y-121229982D01*
X123180728Y-121425357D01*
X123201000Y-121631183D01*
X123201000Y-122368818D01*
X123180728Y-122574644D01*
X123146596Y-122687161D01*
X123100616Y-122838737D01*
X122977964Y-123068202D01*
X122970525Y-123082120D01*
X122938092Y-123121640D01*
X122795450Y-123295450D01*
X122623797Y-123436320D01*
X122582119Y-123470525D01*
X122582117Y-123470526D01*
X122338736Y-123600616D01*
X122270016Y-123621462D01*
X122074643Y-123680728D01*
X121800000Y-123707778D01*
X121525356Y-123680728D01*
X121329983Y-123621462D01*
X121261263Y-123600616D01*
X121017882Y-123470526D01*
X121017880Y-123470525D01*
X120978360Y-123438092D01*
X120804550Y-123295450D01*
X120629476Y-123082120D01*
X120629475Y-123082119D01*
X120622036Y-123068201D01*
X120499384Y-122838736D01*
X120421368Y-122581551D01*
X120419272Y-122574643D01*
X120399000Y-122368817D01*
X120399000Y-121631182D01*
X120419272Y-121425356D01*
X120499383Y-121161267D01*
X120499384Y-121161263D01*
X120629474Y-120917882D01*
X120629475Y-120917880D01*
X120661908Y-120878360D01*
X120804550Y-120704550D01*
X120982581Y-120558445D01*
X121017881Y-120529475D01*
X121058376Y-120507830D01*
X121261264Y-120399384D01*
X121329984Y-120378538D01*
X121525357Y-120319272D01*
X121800000Y-120292222D01*
X122074644Y-120319272D01*
G37*
G36*
X117874644Y-120319272D02*
G01*
X118070017Y-120378538D01*
X118138737Y-120399384D01*
X118341625Y-120507830D01*
X118382120Y-120529475D01*
X118437691Y-120575082D01*
X118595450Y-120704550D01*
X118724918Y-120862309D01*
X118770525Y-120917880D01*
X118770526Y-120917882D01*
X118900616Y-121161263D01*
X118921461Y-121229982D01*
X118980728Y-121425357D01*
X119001000Y-121631183D01*
X119001000Y-122368818D01*
X118980728Y-122574644D01*
X118946596Y-122687161D01*
X118900616Y-122838737D01*
X118777964Y-123068202D01*
X118770525Y-123082120D01*
X118738092Y-123121640D01*
X118595450Y-123295450D01*
X118423797Y-123436320D01*
X118382119Y-123470525D01*
X118382117Y-123470526D01*
X118138736Y-123600616D01*
X118070016Y-123621462D01*
X117874643Y-123680728D01*
X117600000Y-123707778D01*
X117325356Y-123680728D01*
X117129983Y-123621462D01*
X117061263Y-123600616D01*
X116817882Y-123470526D01*
X116817880Y-123470525D01*
X116778360Y-123438092D01*
X116604550Y-123295450D01*
X116429476Y-123082120D01*
X116429475Y-123082119D01*
X116422036Y-123068201D01*
X116299384Y-122838736D01*
X116221368Y-122581551D01*
X116219272Y-122574643D01*
X116199000Y-122368817D01*
X116199000Y-121631182D01*
X116219272Y-121425356D01*
X116299383Y-121161267D01*
X116299384Y-121161263D01*
X116429474Y-120917882D01*
X116429475Y-120917880D01*
X116461908Y-120878360D01*
X116604550Y-120704550D01*
X116782581Y-120558445D01*
X116817881Y-120529475D01*
X116858376Y-120507830D01*
X117061264Y-120399384D01*
X117129984Y-120378538D01*
X117325357Y-120319272D01*
X117600000Y-120292222D01*
X117874644Y-120319272D01*
G37*
G36*
X113674644Y-120319272D02*
G01*
X113870017Y-120378538D01*
X113938737Y-120399384D01*
X114141625Y-120507830D01*
X114182120Y-120529475D01*
X114237691Y-120575082D01*
X114395450Y-120704550D01*
X114524918Y-120862309D01*
X114570525Y-120917880D01*
X114570526Y-120917882D01*
X114700616Y-121161263D01*
X114721461Y-121229982D01*
X114780728Y-121425357D01*
X114801000Y-121631183D01*
X114801000Y-122368818D01*
X114780728Y-122574644D01*
X114746596Y-122687161D01*
X114700616Y-122838737D01*
X114577964Y-123068202D01*
X114570525Y-123082120D01*
X114538092Y-123121640D01*
X114395450Y-123295450D01*
X114223797Y-123436320D01*
X114182119Y-123470525D01*
X114182117Y-123470526D01*
X113938736Y-123600616D01*
X113870016Y-123621462D01*
X113674643Y-123680728D01*
X113400000Y-123707778D01*
X113125356Y-123680728D01*
X112929983Y-123621462D01*
X112861263Y-123600616D01*
X112617882Y-123470526D01*
X112617880Y-123470525D01*
X112578360Y-123438092D01*
X112404550Y-123295450D01*
X112229476Y-123082120D01*
X112229475Y-123082119D01*
X112222036Y-123068201D01*
X112099384Y-122838736D01*
X112021368Y-122581551D01*
X112019272Y-122574643D01*
X111999000Y-122368817D01*
X111999000Y-121631182D01*
X112019272Y-121425356D01*
X112099383Y-121161267D01*
X112099384Y-121161263D01*
X112229474Y-120917882D01*
X112229475Y-120917880D01*
X112261908Y-120878360D01*
X112404550Y-120704550D01*
X112582581Y-120558445D01*
X112617881Y-120529475D01*
X112658376Y-120507830D01*
X112861264Y-120399384D01*
X112929984Y-120378538D01*
X113125357Y-120319272D01*
X113400000Y-120292222D01*
X113674644Y-120319272D01*
G37*
G36*
X109474644Y-120319272D02*
G01*
X109670017Y-120378538D01*
X109738737Y-120399384D01*
X109941625Y-120507830D01*
X109982120Y-120529475D01*
X110037691Y-120575082D01*
X110195450Y-120704550D01*
X110324918Y-120862309D01*
X110370525Y-120917880D01*
X110370526Y-120917882D01*
X110500616Y-121161263D01*
X110521461Y-121229982D01*
X110580728Y-121425357D01*
X110601000Y-121631183D01*
X110601000Y-122368818D01*
X110580728Y-122574644D01*
X110546596Y-122687161D01*
X110500616Y-122838737D01*
X110377964Y-123068202D01*
X110370525Y-123082120D01*
X110338092Y-123121640D01*
X110195450Y-123295450D01*
X110023797Y-123436320D01*
X109982119Y-123470525D01*
X109982117Y-123470526D01*
X109738736Y-123600616D01*
X109670016Y-123621462D01*
X109474643Y-123680728D01*
X109200000Y-123707778D01*
X108925356Y-123680728D01*
X108729983Y-123621462D01*
X108661263Y-123600616D01*
X108417882Y-123470526D01*
X108417880Y-123470525D01*
X108378360Y-123438092D01*
X108204550Y-123295450D01*
X108029476Y-123082120D01*
X108029475Y-123082119D01*
X108022036Y-123068201D01*
X107899384Y-122838736D01*
X107821368Y-122581551D01*
X107819272Y-122574643D01*
X107799000Y-122368817D01*
X107799000Y-121631182D01*
X107819272Y-121425356D01*
X107899383Y-121161267D01*
X107899384Y-121161263D01*
X108029474Y-120917882D01*
X108029475Y-120917880D01*
X108061908Y-120878360D01*
X108204550Y-120704550D01*
X108382581Y-120558445D01*
X108417881Y-120529475D01*
X108458376Y-120507830D01*
X108661264Y-120399384D01*
X108729984Y-120378538D01*
X108925357Y-120319272D01*
X109200000Y-120292222D01*
X109474644Y-120319272D01*
G37*
G36*
X105274644Y-120319272D02*
G01*
X105470017Y-120378538D01*
X105538737Y-120399384D01*
X105741625Y-120507830D01*
X105782120Y-120529475D01*
X105837691Y-120575082D01*
X105995450Y-120704550D01*
X106124918Y-120862309D01*
X106170525Y-120917880D01*
X106170526Y-120917882D01*
X106300616Y-121161263D01*
X106321461Y-121229982D01*
X106380728Y-121425357D01*
X106401000Y-121631183D01*
X106401000Y-122368818D01*
X106380728Y-122574644D01*
X106346596Y-122687161D01*
X106300616Y-122838737D01*
X106177964Y-123068202D01*
X106170525Y-123082120D01*
X106138092Y-123121640D01*
X105995450Y-123295450D01*
X105823797Y-123436320D01*
X105782119Y-123470525D01*
X105782117Y-123470526D01*
X105538736Y-123600616D01*
X105470016Y-123621462D01*
X105274643Y-123680728D01*
X105000000Y-123707778D01*
X104725356Y-123680728D01*
X104529983Y-123621462D01*
X104461263Y-123600616D01*
X104217882Y-123470526D01*
X104217880Y-123470525D01*
X104178360Y-123438092D01*
X104004550Y-123295450D01*
X103829476Y-123082120D01*
X103829475Y-123082119D01*
X103822036Y-123068201D01*
X103699384Y-122838736D01*
X103621368Y-122581551D01*
X103619272Y-122574643D01*
X103599000Y-122368817D01*
X103599000Y-121631182D01*
X103619272Y-121425356D01*
X103699383Y-121161267D01*
X103699384Y-121161263D01*
X103829474Y-120917882D01*
X103829475Y-120917880D01*
X103861908Y-120878360D01*
X104004550Y-120704550D01*
X104182581Y-120558445D01*
X104217881Y-120529475D01*
X104258376Y-120507830D01*
X104461264Y-120399384D01*
X104529984Y-120378538D01*
X104725357Y-120319272D01*
X105000000Y-120292222D01*
X105274644Y-120319272D01*
G37*
G36*
X148774031Y-120302621D02*
G01*
X148803486Y-120311556D01*
X148830623Y-120326062D01*
X148854414Y-120345586D01*
X148873938Y-120369377D01*
X148888444Y-120396514D01*
X148897379Y-120425969D01*
X148901000Y-120462734D01*
X148901000Y-123537266D01*
X148897379Y-123574031D01*
X148888444Y-123603486D01*
X148873938Y-123630623D01*
X148854414Y-123654414D01*
X148830623Y-123673938D01*
X148803486Y-123688444D01*
X148774031Y-123697379D01*
X148737266Y-123701000D01*
X146262734Y-123701000D01*
X146225969Y-123697379D01*
X146196514Y-123688444D01*
X146169377Y-123673938D01*
X146145586Y-123654414D01*
X146126062Y-123630623D01*
X146111556Y-123603486D01*
X146102621Y-123574031D01*
X146099000Y-123537266D01*
X146099000Y-120462734D01*
X146102621Y-120425969D01*
X146111556Y-120396514D01*
X146126062Y-120369377D01*
X146145586Y-120345586D01*
X146169377Y-120326062D01*
X146196514Y-120311556D01*
X146225969Y-120302621D01*
X146262734Y-120299000D01*
X148737266Y-120299000D01*
X148774031Y-120302621D01*
G37*
G36*
X127274031Y-120302621D02*
G01*
X127303486Y-120311556D01*
X127330623Y-120326062D01*
X127354414Y-120345586D01*
X127373938Y-120369377D01*
X127388444Y-120396514D01*
X127397379Y-120425969D01*
X127401000Y-120462734D01*
X127401000Y-123537266D01*
X127397379Y-123574031D01*
X127388444Y-123603486D01*
X127373938Y-123630623D01*
X127354414Y-123654414D01*
X127330623Y-123673938D01*
X127303486Y-123688444D01*
X127274031Y-123697379D01*
X127237266Y-123701000D01*
X124762734Y-123701000D01*
X124725969Y-123697379D01*
X124696514Y-123688444D01*
X124669377Y-123673938D01*
X124645586Y-123654414D01*
X124626062Y-123630623D01*
X124611556Y-123603486D01*
X124602621Y-123574031D01*
X124599000Y-123537266D01*
X124599000Y-120462734D01*
X124602621Y-120425969D01*
X124611556Y-120396514D01*
X124626062Y-120369377D01*
X124645586Y-120345586D01*
X124669377Y-120326062D01*
X124696514Y-120311556D01*
X124725969Y-120302621D01*
X124762734Y-120299000D01*
X127237266Y-120299000D01*
X127274031Y-120302621D01*
G37*
G36*
X168318433Y-119974893D02*
G01*
X168408657Y-119992839D01*
X168514267Y-120036585D01*
X168663621Y-120098449D01*
X168663622Y-120098450D01*
X168893086Y-120251772D01*
X169088228Y-120446914D01*
X169143392Y-120529474D01*
X169241551Y-120676379D01*
X169347161Y-120931344D01*
X169401000Y-121202012D01*
X169401000Y-121477988D01*
X169347161Y-121748656D01*
X169241551Y-122003621D01*
X169241550Y-122003622D01*
X169088228Y-122233086D01*
X168893086Y-122428228D01*
X168739763Y-122530675D01*
X168663621Y-122581551D01*
X168514267Y-122643415D01*
X168408657Y-122687161D01*
X168318433Y-122705107D01*
X168137988Y-122741000D01*
X167862012Y-122741000D01*
X167681567Y-122705107D01*
X167591343Y-122687161D01*
X167485733Y-122643415D01*
X167336379Y-122581551D01*
X167260237Y-122530675D01*
X167106914Y-122428228D01*
X166911772Y-122233086D01*
X166758450Y-122003622D01*
X166758449Y-122003621D01*
X166652839Y-121748656D01*
X166599000Y-121477988D01*
X166599000Y-121202012D01*
X166652839Y-120931344D01*
X166758449Y-120676379D01*
X166856608Y-120529474D01*
X166911772Y-120446914D01*
X167106914Y-120251772D01*
X167336378Y-120098450D01*
X167336379Y-120098449D01*
X167485733Y-120036585D01*
X167591343Y-119992839D01*
X167681567Y-119974893D01*
X167862012Y-119939000D01*
X168137988Y-119939000D01*
X168318433Y-119974893D01*
G37*
G36*
X168318433Y-116014893D02*
G01*
X168408657Y-116032839D01*
X168514267Y-116076585D01*
X168663621Y-116138449D01*
X168663622Y-116138450D01*
X168893086Y-116291772D01*
X169088228Y-116486914D01*
X169190675Y-116640237D01*
X169241551Y-116716379D01*
X169347161Y-116971344D01*
X169401000Y-117242012D01*
X169401000Y-117517988D01*
X169388243Y-117582120D01*
X169347161Y-117788657D01*
X169344347Y-117795450D01*
X169241551Y-118043621D01*
X169241550Y-118043622D01*
X169088228Y-118273086D01*
X168893086Y-118468228D01*
X168739763Y-118570675D01*
X168663621Y-118621551D01*
X168514267Y-118683415D01*
X168408657Y-118727161D01*
X168318433Y-118745107D01*
X168137988Y-118781000D01*
X167862012Y-118781000D01*
X167681567Y-118745107D01*
X167591343Y-118727161D01*
X167485733Y-118683415D01*
X167336379Y-118621551D01*
X167260237Y-118570675D01*
X167106914Y-118468228D01*
X166911772Y-118273086D01*
X166758450Y-118043622D01*
X166758449Y-118043621D01*
X166655653Y-117795450D01*
X166652839Y-117788657D01*
X166611757Y-117582120D01*
X166599000Y-117517988D01*
X166599000Y-117242012D01*
X166652839Y-116971344D01*
X166758449Y-116716379D01*
X166809325Y-116640237D01*
X166911772Y-116486914D01*
X167106914Y-116291772D01*
X167336378Y-116138450D01*
X167336379Y-116138449D01*
X167485733Y-116076585D01*
X167591343Y-116032839D01*
X167681567Y-116014893D01*
X167862012Y-115979000D01*
X168137988Y-115979000D01*
X168318433Y-116014893D01*
G37*
G36*
X117874644Y-114819272D02*
G01*
X118070017Y-114878538D01*
X118138737Y-114899384D01*
X118368202Y-115022036D01*
X118382120Y-115029475D01*
X118437691Y-115075082D01*
X118595450Y-115204550D01*
X118724918Y-115362309D01*
X118770525Y-115417880D01*
X118770526Y-115417882D01*
X118900616Y-115661263D01*
X118900617Y-115661267D01*
X118980728Y-115925357D01*
X119001000Y-116131183D01*
X119001000Y-116868818D01*
X118980728Y-117074644D01*
X118921462Y-117270017D01*
X118900616Y-117338737D01*
X118804805Y-117517986D01*
X118770525Y-117582120D01*
X118738092Y-117621640D01*
X118595450Y-117795450D01*
X118423797Y-117936320D01*
X118382119Y-117970525D01*
X118382117Y-117970526D01*
X118138736Y-118100616D01*
X118070016Y-118121462D01*
X117874643Y-118180728D01*
X117600000Y-118207778D01*
X117325356Y-118180728D01*
X117129983Y-118121462D01*
X117061263Y-118100616D01*
X116817882Y-117970526D01*
X116817880Y-117970525D01*
X116778360Y-117938092D01*
X116604550Y-117795450D01*
X116429476Y-117582120D01*
X116429475Y-117582119D01*
X116422036Y-117568201D01*
X116299384Y-117338736D01*
X116270043Y-117242012D01*
X116219272Y-117074643D01*
X116199000Y-116868817D01*
X116199000Y-116131182D01*
X116219272Y-115925356D01*
X116299383Y-115661267D01*
X116299384Y-115661263D01*
X116429474Y-115417882D01*
X116429475Y-115417880D01*
X116461908Y-115378360D01*
X116604550Y-115204550D01*
X116776203Y-115063680D01*
X116817881Y-115029475D01*
X116831799Y-115022036D01*
X117061264Y-114899384D01*
X117129984Y-114878538D01*
X117325357Y-114819272D01*
X117600000Y-114792222D01*
X117874644Y-114819272D01*
G37*
G36*
X122074644Y-114819272D02*
G01*
X122270017Y-114878538D01*
X122338737Y-114899384D01*
X122568202Y-115022036D01*
X122582120Y-115029475D01*
X122637691Y-115075082D01*
X122795450Y-115204550D01*
X122924918Y-115362309D01*
X122970525Y-115417880D01*
X122970526Y-115417882D01*
X123100616Y-115661263D01*
X123100617Y-115661267D01*
X123180728Y-115925357D01*
X123201000Y-116131183D01*
X123201000Y-116868818D01*
X123180728Y-117074644D01*
X123121462Y-117270017D01*
X123100616Y-117338737D01*
X123004805Y-117517986D01*
X122970525Y-117582120D01*
X122938092Y-117621640D01*
X122795450Y-117795450D01*
X122623797Y-117936320D01*
X122582119Y-117970525D01*
X122582117Y-117970526D01*
X122338736Y-118100616D01*
X122270016Y-118121462D01*
X122074643Y-118180728D01*
X121800000Y-118207778D01*
X121525356Y-118180728D01*
X121329983Y-118121462D01*
X121261263Y-118100616D01*
X121017882Y-117970526D01*
X121017880Y-117970525D01*
X120978360Y-117938092D01*
X120804550Y-117795450D01*
X120629476Y-117582120D01*
X120629475Y-117582119D01*
X120622036Y-117568201D01*
X120499384Y-117338736D01*
X120470043Y-117242012D01*
X120419272Y-117074643D01*
X120399000Y-116868817D01*
X120399000Y-116131182D01*
X120419272Y-115925356D01*
X120499383Y-115661267D01*
X120499384Y-115661263D01*
X120629474Y-115417882D01*
X120629475Y-115417880D01*
X120661908Y-115378360D01*
X120804550Y-115204550D01*
X120976203Y-115063680D01*
X121017881Y-115029475D01*
X121031799Y-115022036D01*
X121261264Y-114899384D01*
X121329984Y-114878538D01*
X121525357Y-114819272D01*
X121800000Y-114792222D01*
X122074644Y-114819272D01*
G37*
G36*
X126274644Y-114819272D02*
G01*
X126470017Y-114878538D01*
X126538737Y-114899384D01*
X126768202Y-115022036D01*
X126782120Y-115029475D01*
X126837691Y-115075082D01*
X126995450Y-115204550D01*
X127124918Y-115362309D01*
X127170525Y-115417880D01*
X127170526Y-115417882D01*
X127300616Y-115661263D01*
X127300617Y-115661267D01*
X127380728Y-115925357D01*
X127401000Y-116131183D01*
X127401000Y-116868818D01*
X127380728Y-117074644D01*
X127321462Y-117270017D01*
X127300616Y-117338737D01*
X127204805Y-117517986D01*
X127170525Y-117582120D01*
X127138092Y-117621640D01*
X126995450Y-117795450D01*
X126823797Y-117936320D01*
X126782119Y-117970525D01*
X126782117Y-117970526D01*
X126538736Y-118100616D01*
X126470016Y-118121462D01*
X126274643Y-118180728D01*
X126000000Y-118207778D01*
X125725356Y-118180728D01*
X125529983Y-118121462D01*
X125461263Y-118100616D01*
X125217882Y-117970526D01*
X125217880Y-117970525D01*
X125178360Y-117938092D01*
X125004550Y-117795450D01*
X124829476Y-117582120D01*
X124829475Y-117582119D01*
X124822036Y-117568201D01*
X124699384Y-117338736D01*
X124670043Y-117242012D01*
X124619272Y-117074643D01*
X124599000Y-116868817D01*
X124599000Y-116131182D01*
X124619272Y-115925356D01*
X124699383Y-115661267D01*
X124699384Y-115661263D01*
X124829474Y-115417882D01*
X124829475Y-115417880D01*
X124861908Y-115378360D01*
X125004550Y-115204550D01*
X125176203Y-115063680D01*
X125217881Y-115029475D01*
X125231799Y-115022036D01*
X125461264Y-114899384D01*
X125529984Y-114878538D01*
X125725357Y-114819272D01*
X126000000Y-114792222D01*
X126274644Y-114819272D01*
G37*
G36*
X105274644Y-114819272D02*
G01*
X105470017Y-114878538D01*
X105538737Y-114899384D01*
X105768202Y-115022036D01*
X105782120Y-115029475D01*
X105837691Y-115075082D01*
X105995450Y-115204550D01*
X106124918Y-115362309D01*
X106170525Y-115417880D01*
X106170526Y-115417882D01*
X106300616Y-115661263D01*
X106300617Y-115661267D01*
X106380728Y-115925357D01*
X106401000Y-116131183D01*
X106401000Y-116868818D01*
X106380728Y-117074644D01*
X106321462Y-117270017D01*
X106300616Y-117338737D01*
X106204805Y-117517986D01*
X106170525Y-117582120D01*
X106138092Y-117621640D01*
X105995450Y-117795450D01*
X105823797Y-117936320D01*
X105782119Y-117970525D01*
X105782117Y-117970526D01*
X105538736Y-118100616D01*
X105470016Y-118121462D01*
X105274643Y-118180728D01*
X105000000Y-118207778D01*
X104725356Y-118180728D01*
X104529983Y-118121462D01*
X104461263Y-118100616D01*
X104217882Y-117970526D01*
X104217880Y-117970525D01*
X104178360Y-117938092D01*
X104004550Y-117795450D01*
X103829476Y-117582120D01*
X103829475Y-117582119D01*
X103822036Y-117568201D01*
X103699384Y-117338736D01*
X103670043Y-117242012D01*
X103619272Y-117074643D01*
X103599000Y-116868817D01*
X103599000Y-116131182D01*
X103619272Y-115925356D01*
X103699383Y-115661267D01*
X103699384Y-115661263D01*
X103829474Y-115417882D01*
X103829475Y-115417880D01*
X103861908Y-115378360D01*
X104004550Y-115204550D01*
X104176203Y-115063680D01*
X104217881Y-115029475D01*
X104231799Y-115022036D01*
X104461264Y-114899384D01*
X104529984Y-114878538D01*
X104725357Y-114819272D01*
X105000000Y-114792222D01*
X105274644Y-114819272D01*
G37*
G36*
X109474644Y-114819272D02*
G01*
X109670017Y-114878538D01*
X109738737Y-114899384D01*
X109968202Y-115022036D01*
X109982120Y-115029475D01*
X110037691Y-115075082D01*
X110195450Y-115204550D01*
X110324918Y-115362309D01*
X110370525Y-115417880D01*
X110370526Y-115417882D01*
X110500616Y-115661263D01*
X110500617Y-115661267D01*
X110580728Y-115925357D01*
X110601000Y-116131183D01*
X110601000Y-116868818D01*
X110580728Y-117074644D01*
X110521462Y-117270017D01*
X110500616Y-117338737D01*
X110404805Y-117517986D01*
X110370525Y-117582120D01*
X110338092Y-117621640D01*
X110195450Y-117795450D01*
X110023797Y-117936320D01*
X109982119Y-117970525D01*
X109982117Y-117970526D01*
X109738736Y-118100616D01*
X109670016Y-118121462D01*
X109474643Y-118180728D01*
X109200000Y-118207778D01*
X108925356Y-118180728D01*
X108729983Y-118121462D01*
X108661263Y-118100616D01*
X108417882Y-117970526D01*
X108417880Y-117970525D01*
X108378360Y-117938092D01*
X108204550Y-117795450D01*
X108029476Y-117582120D01*
X108029475Y-117582119D01*
X108022036Y-117568201D01*
X107899384Y-117338736D01*
X107870043Y-117242012D01*
X107819272Y-117074643D01*
X107799000Y-116868817D01*
X107799000Y-116131182D01*
X107819272Y-115925356D01*
X107899383Y-115661267D01*
X107899384Y-115661263D01*
X108029474Y-115417882D01*
X108029475Y-115417880D01*
X108061908Y-115378360D01*
X108204550Y-115204550D01*
X108376203Y-115063680D01*
X108417881Y-115029475D01*
X108431799Y-115022036D01*
X108661264Y-114899384D01*
X108729984Y-114878538D01*
X108925357Y-114819272D01*
X109200000Y-114792222D01*
X109474644Y-114819272D01*
G37*
G36*
X147774644Y-114819272D02*
G01*
X147970017Y-114878538D01*
X148038737Y-114899384D01*
X148268202Y-115022036D01*
X148282120Y-115029475D01*
X148337691Y-115075082D01*
X148495450Y-115204550D01*
X148624918Y-115362309D01*
X148670525Y-115417880D01*
X148670526Y-115417882D01*
X148800616Y-115661263D01*
X148800617Y-115661267D01*
X148880728Y-115925357D01*
X148901000Y-116131183D01*
X148901000Y-116868818D01*
X148880728Y-117074644D01*
X148821462Y-117270017D01*
X148800616Y-117338737D01*
X148704805Y-117517986D01*
X148670525Y-117582120D01*
X148638092Y-117621640D01*
X148495450Y-117795450D01*
X148323797Y-117936320D01*
X148282119Y-117970525D01*
X148282117Y-117970526D01*
X148038736Y-118100616D01*
X147970016Y-118121462D01*
X147774643Y-118180728D01*
X147500000Y-118207778D01*
X147225356Y-118180728D01*
X147029983Y-118121462D01*
X146961263Y-118100616D01*
X146717882Y-117970526D01*
X146717880Y-117970525D01*
X146678360Y-117938092D01*
X146504550Y-117795450D01*
X146329476Y-117582120D01*
X146329475Y-117582119D01*
X146322036Y-117568201D01*
X146199384Y-117338736D01*
X146170043Y-117242012D01*
X146119272Y-117074643D01*
X146099000Y-116868817D01*
X146099000Y-116131182D01*
X146119272Y-115925356D01*
X146199383Y-115661267D01*
X146199384Y-115661263D01*
X146329474Y-115417882D01*
X146329475Y-115417880D01*
X146361908Y-115378360D01*
X146504550Y-115204550D01*
X146676203Y-115063680D01*
X146717881Y-115029475D01*
X146731799Y-115022036D01*
X146961264Y-114899384D01*
X147029984Y-114878538D01*
X147225357Y-114819272D01*
X147500000Y-114792222D01*
X147774644Y-114819272D01*
G37*
G36*
X135174644Y-114819272D02*
G01*
X135370017Y-114878538D01*
X135438737Y-114899384D01*
X135668202Y-115022036D01*
X135682120Y-115029475D01*
X135737691Y-115075082D01*
X135895450Y-115204550D01*
X136024918Y-115362309D01*
X136070525Y-115417880D01*
X136070526Y-115417882D01*
X136200616Y-115661263D01*
X136200617Y-115661267D01*
X136280728Y-115925357D01*
X136301000Y-116131183D01*
X136301000Y-116868818D01*
X136280728Y-117074644D01*
X136221462Y-117270017D01*
X136200616Y-117338737D01*
X136104805Y-117517986D01*
X136070525Y-117582120D01*
X136038092Y-117621640D01*
X135895450Y-117795450D01*
X135723797Y-117936320D01*
X135682119Y-117970525D01*
X135682117Y-117970526D01*
X135438736Y-118100616D01*
X135370016Y-118121462D01*
X135174643Y-118180728D01*
X134900000Y-118207778D01*
X134625356Y-118180728D01*
X134429983Y-118121462D01*
X134361263Y-118100616D01*
X134117882Y-117970526D01*
X134117880Y-117970525D01*
X134078360Y-117938092D01*
X133904550Y-117795450D01*
X133729476Y-117582120D01*
X133729475Y-117582119D01*
X133722036Y-117568201D01*
X133599384Y-117338736D01*
X133570043Y-117242012D01*
X133519272Y-117074643D01*
X133499000Y-116868817D01*
X133499000Y-116131182D01*
X133519272Y-115925356D01*
X133599383Y-115661267D01*
X133599384Y-115661263D01*
X133729474Y-115417882D01*
X133729475Y-115417880D01*
X133761908Y-115378360D01*
X133904550Y-115204550D01*
X134076203Y-115063680D01*
X134117881Y-115029475D01*
X134131799Y-115022036D01*
X134361264Y-114899384D01*
X134429984Y-114878538D01*
X134625357Y-114819272D01*
X134900000Y-114792222D01*
X135174644Y-114819272D01*
G37*
G36*
X139374644Y-114819272D02*
G01*
X139570017Y-114878538D01*
X139638737Y-114899384D01*
X139868202Y-115022036D01*
X139882120Y-115029475D01*
X139937691Y-115075082D01*
X140095450Y-115204550D01*
X140224918Y-115362309D01*
X140270525Y-115417880D01*
X140270526Y-115417882D01*
X140400616Y-115661263D01*
X140400617Y-115661267D01*
X140480728Y-115925357D01*
X140501000Y-116131183D01*
X140501000Y-116868818D01*
X140480728Y-117074644D01*
X140421462Y-117270017D01*
X140400616Y-117338737D01*
X140304805Y-117517986D01*
X140270525Y-117582120D01*
X140238092Y-117621640D01*
X140095450Y-117795450D01*
X139923797Y-117936320D01*
X139882119Y-117970525D01*
X139882117Y-117970526D01*
X139638736Y-118100616D01*
X139570016Y-118121462D01*
X139374643Y-118180728D01*
X139100000Y-118207778D01*
X138825356Y-118180728D01*
X138629983Y-118121462D01*
X138561263Y-118100616D01*
X138317882Y-117970526D01*
X138317880Y-117970525D01*
X138278360Y-117938092D01*
X138104550Y-117795450D01*
X137929476Y-117582120D01*
X137929475Y-117582119D01*
X137922036Y-117568201D01*
X137799384Y-117338736D01*
X137770043Y-117242012D01*
X137719272Y-117074643D01*
X137699000Y-116868817D01*
X137699000Y-116131182D01*
X137719272Y-115925356D01*
X137799383Y-115661267D01*
X137799384Y-115661263D01*
X137929474Y-115417882D01*
X137929475Y-115417880D01*
X137961908Y-115378360D01*
X138104550Y-115204550D01*
X138276203Y-115063680D01*
X138317881Y-115029475D01*
X138331799Y-115022036D01*
X138561264Y-114899384D01*
X138629984Y-114878538D01*
X138825357Y-114819272D01*
X139100000Y-114792222D01*
X139374644Y-114819272D01*
G37*
G36*
X143574644Y-114819272D02*
G01*
X143770017Y-114878538D01*
X143838737Y-114899384D01*
X144068202Y-115022036D01*
X144082120Y-115029475D01*
X144137691Y-115075082D01*
X144295450Y-115204550D01*
X144424918Y-115362309D01*
X144470525Y-115417880D01*
X144470526Y-115417882D01*
X144600616Y-115661263D01*
X144600617Y-115661267D01*
X144680728Y-115925357D01*
X144701000Y-116131183D01*
X144701000Y-116868818D01*
X144680728Y-117074644D01*
X144621462Y-117270017D01*
X144600616Y-117338737D01*
X144504805Y-117517986D01*
X144470525Y-117582120D01*
X144438092Y-117621640D01*
X144295450Y-117795450D01*
X144123797Y-117936320D01*
X144082119Y-117970525D01*
X144082117Y-117970526D01*
X143838736Y-118100616D01*
X143770016Y-118121462D01*
X143574643Y-118180728D01*
X143300000Y-118207778D01*
X143025356Y-118180728D01*
X142829983Y-118121462D01*
X142761263Y-118100616D01*
X142517882Y-117970526D01*
X142517880Y-117970525D01*
X142478360Y-117938092D01*
X142304550Y-117795450D01*
X142129476Y-117582120D01*
X142129475Y-117582119D01*
X142122036Y-117568201D01*
X141999384Y-117338736D01*
X141970043Y-117242012D01*
X141919272Y-117074643D01*
X141899000Y-116868817D01*
X141899000Y-116131182D01*
X141919272Y-115925356D01*
X141999383Y-115661267D01*
X141999384Y-115661263D01*
X142129474Y-115417882D01*
X142129475Y-115417880D01*
X142161908Y-115378360D01*
X142304550Y-115204550D01*
X142476203Y-115063680D01*
X142517881Y-115029475D01*
X142531799Y-115022036D01*
X142761264Y-114899384D01*
X142829984Y-114878538D01*
X143025357Y-114819272D01*
X143300000Y-114792222D01*
X143574644Y-114819272D01*
G37*
G36*
X113674644Y-114819272D02*
G01*
X113870017Y-114878538D01*
X113938737Y-114899384D01*
X114168202Y-115022036D01*
X114182120Y-115029475D01*
X114237691Y-115075082D01*
X114395450Y-115204550D01*
X114524918Y-115362309D01*
X114570525Y-115417880D01*
X114570526Y-115417882D01*
X114700616Y-115661263D01*
X114700617Y-115661267D01*
X114780728Y-115925357D01*
X114801000Y-116131183D01*
X114801000Y-116868818D01*
X114780728Y-117074644D01*
X114721462Y-117270017D01*
X114700616Y-117338737D01*
X114604805Y-117517986D01*
X114570525Y-117582120D01*
X114538092Y-117621640D01*
X114395450Y-117795450D01*
X114223797Y-117936320D01*
X114182119Y-117970525D01*
X114182117Y-117970526D01*
X113938736Y-118100616D01*
X113870016Y-118121462D01*
X113674643Y-118180728D01*
X113400000Y-118207778D01*
X113125356Y-118180728D01*
X112929983Y-118121462D01*
X112861263Y-118100616D01*
X112617882Y-117970526D01*
X112617880Y-117970525D01*
X112578360Y-117938092D01*
X112404550Y-117795450D01*
X112229476Y-117582120D01*
X112229475Y-117582119D01*
X112222036Y-117568201D01*
X112099384Y-117338736D01*
X112070043Y-117242012D01*
X112019272Y-117074643D01*
X111999000Y-116868817D01*
X111999000Y-116131182D01*
X112019272Y-115925356D01*
X112099383Y-115661267D01*
X112099384Y-115661263D01*
X112229474Y-115417882D01*
X112229475Y-115417880D01*
X112261908Y-115378360D01*
X112404550Y-115204550D01*
X112576203Y-115063680D01*
X112617881Y-115029475D01*
X112631799Y-115022036D01*
X112861264Y-114899384D01*
X112929984Y-114878538D01*
X113125357Y-114819272D01*
X113400000Y-114792222D01*
X113674644Y-114819272D01*
G37*
G36*
X168318433Y-112054893D02*
G01*
X168408657Y-112072839D01*
X168514267Y-112116585D01*
X168663621Y-112178449D01*
X168663622Y-112178450D01*
X168893086Y-112331772D01*
X169088228Y-112526914D01*
X169190675Y-112680237D01*
X169241551Y-112756379D01*
X169347161Y-113011344D01*
X169401000Y-113282012D01*
X169401000Y-113557988D01*
X169347161Y-113828656D01*
X169241551Y-114083621D01*
X169241550Y-114083622D01*
X169088228Y-114313086D01*
X168893086Y-114508228D01*
X168739763Y-114610675D01*
X168663621Y-114661551D01*
X168514267Y-114723415D01*
X168408657Y-114767161D01*
X168318433Y-114785107D01*
X168137988Y-114821000D01*
X167862012Y-114821000D01*
X167681567Y-114785107D01*
X167591343Y-114767161D01*
X167485733Y-114723415D01*
X167336379Y-114661551D01*
X167260237Y-114610675D01*
X167106914Y-114508228D01*
X166911772Y-114313086D01*
X166758450Y-114083622D01*
X166758449Y-114083621D01*
X166652839Y-113828656D01*
X166599000Y-113557988D01*
X166599000Y-113282012D01*
X166652839Y-113011344D01*
X166758449Y-112756379D01*
X166809325Y-112680237D01*
X166911772Y-112526914D01*
X167106914Y-112331772D01*
X167336378Y-112178450D01*
X167336379Y-112178449D01*
X167485733Y-112116585D01*
X167591343Y-112072839D01*
X167681567Y-112054893D01*
X167862012Y-112019000D01*
X168137988Y-112019000D01*
X168318433Y-112054893D01*
G37*
G36*
X168318433Y-108094893D02*
G01*
X168408657Y-108112839D01*
X168514267Y-108156585D01*
X168663621Y-108218449D01*
X168663622Y-108218450D01*
X168893086Y-108371772D01*
X169088228Y-108566914D01*
X169190675Y-108720237D01*
X169241551Y-108796379D01*
X169303415Y-108945733D01*
X169347161Y-109051343D01*
X169361051Y-109121175D01*
X169401000Y-109322012D01*
X169401000Y-109597988D01*
X169347161Y-109868656D01*
X169241551Y-110123621D01*
X169241550Y-110123622D01*
X169088228Y-110353086D01*
X168893086Y-110548228D01*
X168739763Y-110650675D01*
X168663621Y-110701551D01*
X168514267Y-110763415D01*
X168408657Y-110807161D01*
X168318433Y-110825107D01*
X168137988Y-110861000D01*
X167862012Y-110861000D01*
X167681567Y-110825107D01*
X167591343Y-110807161D01*
X167485733Y-110763415D01*
X167336379Y-110701551D01*
X167260237Y-110650675D01*
X167106914Y-110548228D01*
X166911772Y-110353086D01*
X166758450Y-110123622D01*
X166758449Y-110123621D01*
X166652839Y-109868656D01*
X166599000Y-109597988D01*
X166599000Y-109322012D01*
X166638949Y-109121175D01*
X166652839Y-109051343D01*
X166696585Y-108945733D01*
X166758449Y-108796379D01*
X166809325Y-108720237D01*
X166911772Y-108566914D01*
X167106914Y-108371772D01*
X167336378Y-108218450D01*
X167336379Y-108218449D01*
X167485733Y-108156585D01*
X167591343Y-108112839D01*
X167681567Y-108094893D01*
X167862012Y-108059000D01*
X168137988Y-108059000D01*
X168318433Y-108094893D01*
G37*
G36*
X127367600Y-109155800D02*
G01*
X125565600Y-109155800D01*
X125565600Y-107353800D01*
X127367600Y-107353800D01*
X127367600Y-109155800D01*
G37*
G36*
X129120112Y-107358727D02*
G01*
X129269412Y-107388424D01*
X129433384Y-107456344D01*
X129580954Y-107554947D01*
X129706453Y-107680446D01*
X129805056Y-107828016D01*
X129872976Y-107991988D01*
X129907600Y-108166059D01*
X129907600Y-108343541D01*
X129872976Y-108517612D01*
X129805056Y-108681584D01*
X129706453Y-108829154D01*
X129580954Y-108954653D01*
X129433384Y-109053256D01*
X129269412Y-109121176D01*
X129120112Y-109150873D01*
X129095342Y-109155800D01*
X128917858Y-109155800D01*
X128893088Y-109150873D01*
X128743788Y-109121176D01*
X128579816Y-109053256D01*
X128432246Y-108954653D01*
X128306747Y-108829154D01*
X128208144Y-108681584D01*
X128140224Y-108517612D01*
X128105600Y-108343541D01*
X128105600Y-108166059D01*
X128140224Y-107991988D01*
X128208144Y-107828016D01*
X128306747Y-107680446D01*
X128432246Y-107554947D01*
X128579816Y-107456344D01*
X128743788Y-107388424D01*
X128893088Y-107358727D01*
X128917858Y-107353800D01*
X129095342Y-107353800D01*
X129120112Y-107358727D01*
G37*
G36*
X131660112Y-107358727D02*
G01*
X131809412Y-107388424D01*
X131973384Y-107456344D01*
X132120954Y-107554947D01*
X132246453Y-107680446D01*
X132345056Y-107828016D01*
X132412976Y-107991988D01*
X132447600Y-108166059D01*
X132447600Y-108343541D01*
X132412976Y-108517612D01*
X132345056Y-108681584D01*
X132246453Y-108829154D01*
X132120954Y-108954653D01*
X131973384Y-109053256D01*
X131809412Y-109121176D01*
X131660112Y-109150873D01*
X131635342Y-109155800D01*
X131457858Y-109155800D01*
X131433088Y-109150873D01*
X131283788Y-109121176D01*
X131119816Y-109053256D01*
X130972246Y-108954653D01*
X130846747Y-108829154D01*
X130748144Y-108681584D01*
X130680224Y-108517612D01*
X130645600Y-108343541D01*
X130645600Y-108166059D01*
X130680224Y-107991988D01*
X130748144Y-107828016D01*
X130846747Y-107680446D01*
X130972246Y-107554947D01*
X131119816Y-107456344D01*
X131283788Y-107388424D01*
X131433088Y-107358727D01*
X131457858Y-107353800D01*
X131635342Y-107353800D01*
X131660112Y-107358727D01*
G37*
G36*
X169274031Y-104102621D02*
G01*
X169303486Y-104111556D01*
X169330623Y-104126062D01*
X169354414Y-104145586D01*
X169373938Y-104169377D01*
X169388444Y-104196514D01*
X169397379Y-104225969D01*
X169401000Y-104262734D01*
X169401000Y-106737266D01*
X169397379Y-106774031D01*
X169388444Y-106803486D01*
X169373938Y-106830623D01*
X169354414Y-106854414D01*
X169330623Y-106873938D01*
X169303486Y-106888444D01*
X169274031Y-106897379D01*
X169237266Y-106901000D01*
X166762734Y-106901000D01*
X166725969Y-106897379D01*
X166696514Y-106888444D01*
X166669377Y-106873938D01*
X166645586Y-106854414D01*
X166626062Y-106830623D01*
X166611556Y-106803486D01*
X166602621Y-106774031D01*
X166599000Y-106737266D01*
X166599000Y-104262734D01*
X166602621Y-104225969D01*
X166611556Y-104196514D01*
X166626062Y-104169377D01*
X166645586Y-104145586D01*
X166669377Y-104126062D01*
X166696514Y-104111556D01*
X166725969Y-104102621D01*
X166762734Y-104099000D01*
X169237266Y-104099000D01*
X169274031Y-104102621D01*
G37*
G36*
X154903956Y-97729994D02*
G01*
X155624940Y-97873406D01*
X156416772Y-98201393D01*
X157129401Y-98677557D01*
X157735443Y-99283599D01*
X158211607Y-99996228D01*
X158539594Y-100788060D01*
X158706800Y-101628664D01*
X158706800Y-102485736D01*
X158539594Y-103326340D01*
X158211607Y-104118172D01*
X157735443Y-104830801D01*
X157129401Y-105436843D01*
X156416772Y-105913007D01*
X155624940Y-106240994D01*
X154903956Y-106384406D01*
X154784337Y-106408200D01*
X153927263Y-106408200D01*
X153807644Y-106384406D01*
X153086660Y-106240994D01*
X152294828Y-105913007D01*
X151582199Y-105436843D01*
X150976157Y-104830801D01*
X150499993Y-104118172D01*
X150172006Y-103326340D01*
X150004800Y-102485736D01*
X150004800Y-101628664D01*
X150172006Y-100788060D01*
X150499993Y-99996228D01*
X150976157Y-99283599D01*
X151582199Y-98677557D01*
X152294828Y-98201393D01*
X153086660Y-97873406D01*
X153807644Y-97729994D01*
X153927263Y-97706200D01*
X154784337Y-97706200D01*
X154903956Y-97729994D01*
G37*
G36*
X107578571Y-101202863D02*
G01*
X107657023Y-101210590D01*
X107757682Y-101241125D01*
X107808013Y-101256392D01*
X107947165Y-101330771D01*
X108069133Y-101430867D01*
X108169229Y-101552835D01*
X108243608Y-101691987D01*
X108243608Y-101691988D01*
X108289410Y-101842977D01*
X108304875Y-102000000D01*
X108289410Y-102157023D01*
X108275361Y-102203336D01*
X108243608Y-102308013D01*
X108169229Y-102447165D01*
X108069133Y-102569133D01*
X107947165Y-102669229D01*
X107831161Y-102731235D01*
X107810787Y-102744849D01*
X107793460Y-102762176D01*
X107779846Y-102782550D01*
X107770469Y-102805189D01*
X107765689Y-102829223D01*
X107765689Y-102853727D01*
X107770470Y-102877760D01*
X107779847Y-102900399D01*
X107793461Y-102920773D01*
X107810788Y-102938100D01*
X107831162Y-102951714D01*
X107853801Y-102961091D01*
X107873516Y-102965012D01*
X107875631Y-102965654D01*
X107875635Y-102965654D01*
X108092600Y-103031470D01*
X108092602Y-103031471D01*
X108292555Y-103138347D01*
X108467818Y-103282182D01*
X108611653Y-103457445D01*
X108637248Y-103505331D01*
X108718530Y-103657400D01*
X108784346Y-103874365D01*
X108806569Y-104100000D01*
X108784346Y-104325635D01*
X108733070Y-104494669D01*
X108718529Y-104542602D01*
X108611653Y-104742555D01*
X108467818Y-104917818D01*
X108292555Y-105061653D01*
X108153340Y-105136064D01*
X108092600Y-105168530D01*
X107875635Y-105234346D01*
X107819271Y-105239897D01*
X107706545Y-105251000D01*
X106293455Y-105251000D01*
X106180729Y-105239897D01*
X106124365Y-105234346D01*
X105907400Y-105168530D01*
X105846660Y-105136064D01*
X105707445Y-105061653D01*
X105532182Y-104917818D01*
X105388347Y-104742555D01*
X105281471Y-104542602D01*
X105266931Y-104494669D01*
X105215654Y-104325635D01*
X105193431Y-104100000D01*
X105215654Y-103874365D01*
X105281470Y-103657400D01*
X105362752Y-103505331D01*
X105388347Y-103457445D01*
X105532182Y-103282182D01*
X105707445Y-103138347D01*
X105907398Y-103031471D01*
X105907400Y-103031470D01*
X106124365Y-102965654D01*
X106124369Y-102965654D01*
X106126484Y-102965012D01*
X106146197Y-102961091D01*
X106168836Y-102951715D01*
X106189210Y-102938101D01*
X106206538Y-102920775D01*
X106220152Y-102900401D01*
X106229530Y-102877762D01*
X106234311Y-102853729D01*
X106234311Y-102829225D01*
X106229531Y-102805191D01*
X106220155Y-102782552D01*
X106206541Y-102762178D01*
X106189215Y-102744850D01*
X106168839Y-102731235D01*
X106052835Y-102669229D01*
X105930867Y-102569133D01*
X105830771Y-102447165D01*
X105756392Y-102308013D01*
X105724639Y-102203336D01*
X105710590Y-102157023D01*
X105695125Y-102000000D01*
X105710590Y-101842977D01*
X105756392Y-101691988D01*
X105756392Y-101691987D01*
X105830771Y-101552835D01*
X105930867Y-101430867D01*
X106052835Y-101330771D01*
X106191987Y-101256392D01*
X106242318Y-101241125D01*
X106342977Y-101210590D01*
X106421429Y-101202863D01*
X106460654Y-101199000D01*
X107539346Y-101199000D01*
X107578571Y-101202863D01*
G37*
G36*
X171626348Y-103253820D02*
G01*
X171626350Y-103253821D01*
X171626351Y-103253821D01*
X171767574Y-103312317D01*
X171767577Y-103312319D01*
X171894669Y-103397239D01*
X172002761Y-103505331D01*
X172087681Y-103632423D01*
X172087683Y-103632426D01*
X172098027Y-103657400D01*
X172146180Y-103773652D01*
X172176000Y-103923569D01*
X172176000Y-104076431D01*
X172156396Y-104174990D01*
X172146179Y-104226351D01*
X172087683Y-104367574D01*
X172087681Y-104367577D01*
X172002761Y-104494669D01*
X171894669Y-104602761D01*
X171813512Y-104656988D01*
X171767574Y-104687683D01*
X171626351Y-104746179D01*
X171626350Y-104746179D01*
X171626348Y-104746180D01*
X171476431Y-104776000D01*
X171323569Y-104776000D01*
X171173652Y-104746180D01*
X171173650Y-104746179D01*
X171173649Y-104746179D01*
X171032426Y-104687683D01*
X170986488Y-104656988D01*
X170905331Y-104602761D01*
X170797239Y-104494669D01*
X170712319Y-104367577D01*
X170712317Y-104367574D01*
X170653821Y-104226351D01*
X170643605Y-104174990D01*
X170624000Y-104076431D01*
X170624000Y-103923569D01*
X170653820Y-103773652D01*
X170701973Y-103657400D01*
X170712317Y-103632426D01*
X170712319Y-103632423D01*
X170797239Y-103505331D01*
X170905331Y-103397239D01*
X171032423Y-103312319D01*
X171032426Y-103312317D01*
X171173649Y-103253821D01*
X171173650Y-103253821D01*
X171173652Y-103253820D01*
X171323569Y-103224000D01*
X171476431Y-103224000D01*
X171626348Y-103253820D01*
G37*
G36*
X143318433Y-99134893D02*
G01*
X143408657Y-99152839D01*
X143514267Y-99196585D01*
X143663621Y-99258449D01*
X143701262Y-99283600D01*
X143893086Y-99411772D01*
X144088228Y-99606914D01*
X144151054Y-99700940D01*
X144241551Y-99836379D01*
X144347161Y-100091344D01*
X144401000Y-100362012D01*
X144401000Y-100637988D01*
X144380588Y-100740607D01*
X144347161Y-100908657D01*
X144329533Y-100951214D01*
X144241551Y-101163621D01*
X144241550Y-101163622D01*
X144088228Y-101393086D01*
X143893086Y-101588228D01*
X143773626Y-101668048D01*
X143663621Y-101741551D01*
X143514267Y-101803415D01*
X143408657Y-101847161D01*
X143318433Y-101865107D01*
X143137988Y-101901000D01*
X142862012Y-101901000D01*
X142681567Y-101865107D01*
X142591343Y-101847161D01*
X142485733Y-101803415D01*
X142336379Y-101741551D01*
X142226374Y-101668048D01*
X142106914Y-101588228D01*
X141911772Y-101393086D01*
X141758450Y-101163622D01*
X141758449Y-101163621D01*
X141670467Y-100951214D01*
X141652839Y-100908657D01*
X141619412Y-100740607D01*
X141599000Y-100637988D01*
X141599000Y-100362012D01*
X141652839Y-100091344D01*
X141758449Y-99836379D01*
X141848946Y-99700940D01*
X141911772Y-99606914D01*
X142106914Y-99411772D01*
X142298738Y-99283600D01*
X142336379Y-99258449D01*
X142485733Y-99196585D01*
X142591343Y-99152839D01*
X142681567Y-99134893D01*
X142862012Y-99099000D01*
X143137988Y-99099000D01*
X143318433Y-99134893D01*
G37*
G36*
X115318433Y-99134893D02*
G01*
X115408657Y-99152839D01*
X115514267Y-99196585D01*
X115663621Y-99258449D01*
X115701262Y-99283600D01*
X115893086Y-99411772D01*
X116088228Y-99606914D01*
X116151054Y-99700940D01*
X116241551Y-99836379D01*
X116347161Y-100091344D01*
X116401000Y-100362012D01*
X116401000Y-100637988D01*
X116380588Y-100740607D01*
X116347161Y-100908657D01*
X116329533Y-100951214D01*
X116241551Y-101163621D01*
X116241550Y-101163622D01*
X116088228Y-101393086D01*
X115893086Y-101588228D01*
X115773626Y-101668048D01*
X115663621Y-101741551D01*
X115514267Y-101803415D01*
X115408657Y-101847161D01*
X115318433Y-101865107D01*
X115137988Y-101901000D01*
X114862012Y-101901000D01*
X114681567Y-101865107D01*
X114591343Y-101847161D01*
X114485733Y-101803415D01*
X114336379Y-101741551D01*
X114226374Y-101668048D01*
X114106914Y-101588228D01*
X113911772Y-101393086D01*
X113758450Y-101163622D01*
X113758449Y-101163621D01*
X113670467Y-100951214D01*
X113652839Y-100908657D01*
X113619412Y-100740607D01*
X113599000Y-100637988D01*
X113599000Y-100362012D01*
X113652839Y-100091344D01*
X113758449Y-99836379D01*
X113848946Y-99700940D01*
X113911772Y-99606914D01*
X114106914Y-99411772D01*
X114298738Y-99283600D01*
X114336379Y-99258449D01*
X114485733Y-99196585D01*
X114591343Y-99152839D01*
X114681567Y-99134893D01*
X114862012Y-99099000D01*
X115137988Y-99099000D01*
X115318433Y-99134893D01*
G37*
G36*
X130806599Y-99631337D02*
G01*
X130821128Y-99635745D01*
X130834311Y-99641206D01*
X130858345Y-99645988D01*
X130882849Y-99645989D01*
X130906882Y-99641209D01*
X130929521Y-99631832D01*
X130931365Y-99630600D01*
X132162650Y-99630600D01*
X132174764Y-99637075D01*
X132198213Y-99644188D01*
X132222599Y-99646590D01*
X132246985Y-99644188D01*
X132270434Y-99637075D01*
X132275346Y-99634752D01*
X132286601Y-99631337D01*
X132302740Y-99629748D01*
X132840461Y-99629748D01*
X132858799Y-99631554D01*
X132871050Y-99632156D01*
X132889469Y-99632156D01*
X132911749Y-99634350D01*
X132995833Y-99651076D01*
X133017260Y-99657576D01*
X133096458Y-99690380D01*
X133101903Y-99693291D01*
X133101909Y-99693293D01*
X133110769Y-99698029D01*
X133110773Y-99698032D01*
X133116214Y-99700940D01*
X133187499Y-99748571D01*
X133204804Y-99762772D01*
X133265428Y-99823396D01*
X133279629Y-99840701D01*
X133327260Y-99911986D01*
X133330168Y-99917427D01*
X133330171Y-99917431D01*
X133334907Y-99926291D01*
X133334909Y-99926297D01*
X133337820Y-99931742D01*
X133370624Y-100010940D01*
X133377124Y-100032367D01*
X133393850Y-100116451D01*
X133396044Y-100138731D01*
X133396044Y-100157150D01*
X133396646Y-100169401D01*
X133398452Y-100187739D01*
X133398452Y-100675462D01*
X133396646Y-100693799D01*
X133396044Y-100706050D01*
X133396044Y-100724469D01*
X133393850Y-100746749D01*
X133377124Y-100830833D01*
X133370624Y-100852260D01*
X133337820Y-100931458D01*
X133334909Y-100936903D01*
X133334907Y-100936909D01*
X133330171Y-100945769D01*
X133330168Y-100945773D01*
X133327260Y-100951214D01*
X133279629Y-101022499D01*
X133265428Y-101039804D01*
X133204804Y-101100428D01*
X133187499Y-101114629D01*
X133116214Y-101162260D01*
X133110773Y-101165168D01*
X133110769Y-101165171D01*
X133101909Y-101169907D01*
X133101903Y-101169909D01*
X133096458Y-101172820D01*
X133017260Y-101205624D01*
X132995833Y-101212124D01*
X132911749Y-101228850D01*
X132889469Y-101231044D01*
X132871050Y-101231044D01*
X132858799Y-101231646D01*
X132840462Y-101233452D01*
X132302740Y-101233452D01*
X132286601Y-101231863D01*
X132272072Y-101227455D01*
X132258889Y-101221994D01*
X132234855Y-101217212D01*
X132210351Y-101217211D01*
X132186318Y-101221991D01*
X132163679Y-101231368D01*
X132161835Y-101232600D01*
X130930550Y-101232600D01*
X130918436Y-101226125D01*
X130894987Y-101219012D01*
X130870601Y-101216610D01*
X130846215Y-101219012D01*
X130822766Y-101226125D01*
X130817854Y-101228448D01*
X130806599Y-101231863D01*
X130790460Y-101233452D01*
X130252738Y-101233452D01*
X130234401Y-101231646D01*
X130222150Y-101231044D01*
X130203731Y-101231044D01*
X130181451Y-101228850D01*
X130097367Y-101212124D01*
X130075940Y-101205624D01*
X129996742Y-101172820D01*
X129991297Y-101169909D01*
X129991291Y-101169907D01*
X129982431Y-101165171D01*
X129982427Y-101165168D01*
X129976986Y-101162260D01*
X129905701Y-101114629D01*
X129888396Y-101100428D01*
X129827772Y-101039804D01*
X129813571Y-101022499D01*
X129765940Y-100951214D01*
X129763032Y-100945773D01*
X129763029Y-100945769D01*
X129758293Y-100936909D01*
X129758291Y-100936903D01*
X129755380Y-100931458D01*
X129722576Y-100852260D01*
X129716076Y-100830833D01*
X129699350Y-100746749D01*
X129697156Y-100724469D01*
X129697156Y-100706050D01*
X129696554Y-100693799D01*
X129694748Y-100675462D01*
X129694748Y-100187739D01*
X129696554Y-100169401D01*
X129697156Y-100157150D01*
X129697156Y-100138731D01*
X129699350Y-100116451D01*
X129716076Y-100032367D01*
X129722576Y-100010940D01*
X129755380Y-99931742D01*
X129758291Y-99926297D01*
X129758293Y-99926291D01*
X129763029Y-99917431D01*
X129763032Y-99917427D01*
X129765940Y-99911986D01*
X129813571Y-99840701D01*
X129827772Y-99823396D01*
X129888396Y-99762772D01*
X129905701Y-99748571D01*
X129976986Y-99700940D01*
X129982427Y-99698032D01*
X129982431Y-99698029D01*
X129991291Y-99693293D01*
X129991297Y-99693291D01*
X129996742Y-99690380D01*
X130075940Y-99657576D01*
X130097367Y-99651076D01*
X130181451Y-99634350D01*
X130203731Y-99632156D01*
X130222150Y-99632156D01*
X130234401Y-99631554D01*
X130252739Y-99629748D01*
X130790460Y-99629748D01*
X130806599Y-99631337D01*
G37*
G36*
X125726599Y-99631337D02*
G01*
X125741128Y-99635745D01*
X125754311Y-99641206D01*
X125778345Y-99645988D01*
X125802849Y-99645989D01*
X125826882Y-99641209D01*
X125849521Y-99631832D01*
X125851365Y-99630600D01*
X127082650Y-99630600D01*
X127094764Y-99637075D01*
X127118213Y-99644188D01*
X127142599Y-99646590D01*
X127166985Y-99644188D01*
X127190434Y-99637075D01*
X127195346Y-99634752D01*
X127206601Y-99631337D01*
X127222740Y-99629748D01*
X127760461Y-99629748D01*
X127778799Y-99631554D01*
X127791050Y-99632156D01*
X127809469Y-99632156D01*
X127831749Y-99634350D01*
X127915833Y-99651076D01*
X127937260Y-99657576D01*
X128016458Y-99690380D01*
X128021903Y-99693291D01*
X128021909Y-99693293D01*
X128030769Y-99698029D01*
X128030773Y-99698032D01*
X128036214Y-99700940D01*
X128107499Y-99748571D01*
X128124804Y-99762772D01*
X128185428Y-99823396D01*
X128199629Y-99840701D01*
X128247260Y-99911986D01*
X128250168Y-99917427D01*
X128250171Y-99917431D01*
X128254907Y-99926291D01*
X128254909Y-99926297D01*
X128257820Y-99931742D01*
X128290624Y-100010940D01*
X128297124Y-100032367D01*
X128313850Y-100116451D01*
X128316044Y-100138731D01*
X128316044Y-100157150D01*
X128316646Y-100169401D01*
X128318452Y-100187739D01*
X128318452Y-100675462D01*
X128316646Y-100693799D01*
X128316044Y-100706050D01*
X128316044Y-100724469D01*
X128313850Y-100746749D01*
X128297124Y-100830833D01*
X128290624Y-100852260D01*
X128257820Y-100931458D01*
X128254909Y-100936903D01*
X128254907Y-100936909D01*
X128250171Y-100945769D01*
X128250168Y-100945773D01*
X128247260Y-100951214D01*
X128199629Y-101022499D01*
X128185428Y-101039804D01*
X128124804Y-101100428D01*
X128107499Y-101114629D01*
X128036214Y-101162260D01*
X128030773Y-101165168D01*
X128030769Y-101165171D01*
X128021909Y-101169907D01*
X128021903Y-101169909D01*
X128016458Y-101172820D01*
X127937260Y-101205624D01*
X127915833Y-101212124D01*
X127831749Y-101228850D01*
X127809469Y-101231044D01*
X127791050Y-101231044D01*
X127778799Y-101231646D01*
X127760462Y-101233452D01*
X127222740Y-101233452D01*
X127206601Y-101231863D01*
X127192072Y-101227455D01*
X127178889Y-101221994D01*
X127154855Y-101217212D01*
X127130351Y-101217211D01*
X127106318Y-101221991D01*
X127083679Y-101231368D01*
X127081835Y-101232600D01*
X125850550Y-101232600D01*
X125838436Y-101226125D01*
X125814987Y-101219012D01*
X125790601Y-101216610D01*
X125766215Y-101219012D01*
X125742766Y-101226125D01*
X125737854Y-101228448D01*
X125726599Y-101231863D01*
X125710460Y-101233452D01*
X125172738Y-101233452D01*
X125154401Y-101231646D01*
X125142150Y-101231044D01*
X125123731Y-101231044D01*
X125101451Y-101228850D01*
X125017367Y-101212124D01*
X124995940Y-101205624D01*
X124916742Y-101172820D01*
X124911297Y-101169909D01*
X124911291Y-101169907D01*
X124902431Y-101165171D01*
X124902427Y-101165168D01*
X124896986Y-101162260D01*
X124825701Y-101114629D01*
X124808396Y-101100428D01*
X124747772Y-101039804D01*
X124733571Y-101022499D01*
X124685940Y-100951214D01*
X124683032Y-100945773D01*
X124683029Y-100945769D01*
X124678293Y-100936909D01*
X124678291Y-100936903D01*
X124675380Y-100931458D01*
X124642576Y-100852260D01*
X124636076Y-100830833D01*
X124619350Y-100746749D01*
X124617156Y-100724469D01*
X124617156Y-100706050D01*
X124616554Y-100693799D01*
X124614748Y-100675462D01*
X124614748Y-100187739D01*
X124616554Y-100169401D01*
X124617156Y-100157150D01*
X124617156Y-100138731D01*
X124619350Y-100116451D01*
X124636076Y-100032367D01*
X124642576Y-100010940D01*
X124675380Y-99931742D01*
X124678291Y-99926297D01*
X124678293Y-99926291D01*
X124683029Y-99917431D01*
X124683032Y-99917427D01*
X124685940Y-99911986D01*
X124733571Y-99840701D01*
X124747772Y-99823396D01*
X124808396Y-99762772D01*
X124825701Y-99748571D01*
X124896986Y-99700940D01*
X124902427Y-99698032D01*
X124902431Y-99698029D01*
X124911291Y-99693293D01*
X124911297Y-99693291D01*
X124916742Y-99690380D01*
X124995940Y-99657576D01*
X125017367Y-99651076D01*
X125101451Y-99634350D01*
X125123731Y-99632156D01*
X125142150Y-99632156D01*
X125154401Y-99631554D01*
X125172739Y-99629748D01*
X125710460Y-99629748D01*
X125726599Y-99631337D01*
G37*
G36*
X107578571Y-99202863D02*
G01*
X107657023Y-99210590D01*
X107757682Y-99241125D01*
X107808013Y-99256392D01*
X107947165Y-99330771D01*
X108069133Y-99430867D01*
X108169229Y-99552835D01*
X108243608Y-99691987D01*
X108243608Y-99691988D01*
X108289410Y-99842977D01*
X108304875Y-100000000D01*
X108289410Y-100157023D01*
X108280092Y-100187739D01*
X108243608Y-100308013D01*
X108169229Y-100447165D01*
X108069133Y-100569133D01*
X107947165Y-100669229D01*
X107808013Y-100743608D01*
X107797658Y-100746749D01*
X107657023Y-100789410D01*
X107578571Y-100797137D01*
X107539346Y-100801000D01*
X106460654Y-100801000D01*
X106421429Y-100797137D01*
X106342977Y-100789410D01*
X106202342Y-100746749D01*
X106191987Y-100743608D01*
X106052835Y-100669229D01*
X105930867Y-100569133D01*
X105830771Y-100447165D01*
X105756392Y-100308013D01*
X105719908Y-100187739D01*
X105710590Y-100157023D01*
X105695125Y-100000000D01*
X105710590Y-99842977D01*
X105756392Y-99691988D01*
X105756392Y-99691987D01*
X105830771Y-99552835D01*
X105930867Y-99430867D01*
X106052835Y-99330771D01*
X106191987Y-99256392D01*
X106242318Y-99241125D01*
X106342977Y-99210590D01*
X106421429Y-99202863D01*
X106460654Y-99199000D01*
X107539346Y-99199000D01*
X107578571Y-99202863D01*
G37*
G36*
X107819271Y-94760103D02*
G01*
X107875635Y-94765654D01*
X108092600Y-94831470D01*
X108092602Y-94831471D01*
X108292555Y-94938347D01*
X108467818Y-95082182D01*
X108611653Y-95257445D01*
X108718529Y-95457398D01*
X108784346Y-95674366D01*
X108806569Y-95900000D01*
X108784346Y-96125634D01*
X108718529Y-96342602D01*
X108611653Y-96542555D01*
X108467818Y-96717818D01*
X108292555Y-96861653D01*
X108101521Y-96963762D01*
X108081147Y-96977375D01*
X108063820Y-96994702D01*
X108050206Y-97015077D01*
X108040828Y-97037715D01*
X108036048Y-97061749D01*
X108036048Y-97086253D01*
X108040828Y-97110286D01*
X108050206Y-97132925D01*
X108063819Y-97153299D01*
X108081146Y-97170626D01*
X108101521Y-97184240D01*
X108124159Y-97193618D01*
X108148193Y-97198398D01*
X108160445Y-97199000D01*
X108301000Y-97199000D01*
X108301000Y-98801000D01*
X105699000Y-98801000D01*
X105699000Y-97199000D01*
X105839555Y-97199000D01*
X105863941Y-97196598D01*
X105887390Y-97189485D01*
X105909001Y-97177934D01*
X105927943Y-97162389D01*
X105943488Y-97143447D01*
X105955039Y-97121836D01*
X105962152Y-97098387D01*
X105964554Y-97074001D01*
X105962152Y-97049615D01*
X105955039Y-97026166D01*
X105943488Y-97004555D01*
X105927943Y-96985613D01*
X105909001Y-96970068D01*
X105898479Y-96963762D01*
X105707445Y-96861653D01*
X105532182Y-96717818D01*
X105388347Y-96542555D01*
X105281471Y-96342602D01*
X105215654Y-96125634D01*
X105193431Y-95900000D01*
X105215654Y-95674366D01*
X105281471Y-95457398D01*
X105388347Y-95257445D01*
X105532182Y-95082182D01*
X105707445Y-94938347D01*
X105907398Y-94831471D01*
X105907400Y-94831470D01*
X106124365Y-94765654D01*
X106180729Y-94760103D01*
X106293455Y-94749000D01*
X107706545Y-94749000D01*
X107819271Y-94760103D01*
G37*
M02*
