G04 #@! TF.GenerationSoftware,KiCad,Pcbnew,(5.1.5)-3*
G04 #@! TF.CreationDate,2020-02-08T23:03:35-08:00*
G04 #@! TF.ProjectId,psinterface,7073696e-7465-4726-9661-63652e6b6963,0.3*
G04 #@! TF.SameCoordinates,Original*
G04 #@! TF.FileFunction,Copper,L2,Bot*
G04 #@! TF.FilePolarity,Positive*
%FSLAX46Y46*%
G04 Gerber Fmt 4.6, Leading zero omitted, Abs format (unit mm)*
G04 Created by KiCad (PCBNEW (5.1.5)-3) date 2020-02-08 23:03:35*
%MOMM*%
%LPD*%
G04 APERTURE LIST*
%ADD10C,0.100000*%
%ADD11O,2.700000X3.300000*%
%ADD12C,2.700000*%
%ADD13C,6.400000*%
%ADD14C,0.800000*%
%ADD15R,2.500000X1.500000*%
%ADD16O,2.500000X1.500000*%
%ADD17O,3.500000X2.200000*%
%ADD18R,2.499360X2.499360*%
%ADD19C,2.499360*%
%ADD20C,1.270000*%
%ADD21C,2.794000*%
%ADD22C,1.905000*%
%ADD23C,4.572000*%
%ADD24C,3.810000*%
G04 APERTURE END LIST*
G04 #@! TA.AperFunction,ComponentPad*
D10*
G36*
X120124503Y-118351204D02*
G01*
X120148772Y-118354804D01*
X120172570Y-118360765D01*
X120195670Y-118369030D01*
X120217849Y-118379520D01*
X120238892Y-118392133D01*
X120258598Y-118406748D01*
X120276776Y-118423224D01*
X120293252Y-118441402D01*
X120307867Y-118461108D01*
X120320480Y-118482151D01*
X120330970Y-118504330D01*
X120339235Y-118527430D01*
X120345196Y-118551228D01*
X120348796Y-118575497D01*
X120350000Y-118600001D01*
X120350000Y-121399999D01*
X120348796Y-121424503D01*
X120345196Y-121448772D01*
X120339235Y-121472570D01*
X120330970Y-121495670D01*
X120320480Y-121517849D01*
X120307867Y-121538892D01*
X120293252Y-121558598D01*
X120276776Y-121576776D01*
X120258598Y-121593252D01*
X120238892Y-121607867D01*
X120217849Y-121620480D01*
X120195670Y-121630970D01*
X120172570Y-121639235D01*
X120148772Y-121645196D01*
X120124503Y-121648796D01*
X120099999Y-121650000D01*
X117900001Y-121650000D01*
X117875497Y-121648796D01*
X117851228Y-121645196D01*
X117827430Y-121639235D01*
X117804330Y-121630970D01*
X117782151Y-121620480D01*
X117761108Y-121607867D01*
X117741402Y-121593252D01*
X117723224Y-121576776D01*
X117706748Y-121558598D01*
X117692133Y-121538892D01*
X117679520Y-121517849D01*
X117669030Y-121495670D01*
X117660765Y-121472570D01*
X117654804Y-121448772D01*
X117651204Y-121424503D01*
X117650000Y-121399999D01*
X117650000Y-118600001D01*
X117651204Y-118575497D01*
X117654804Y-118551228D01*
X117660765Y-118527430D01*
X117669030Y-118504330D01*
X117679520Y-118482151D01*
X117692133Y-118461108D01*
X117706748Y-118441402D01*
X117723224Y-118423224D01*
X117741402Y-118406748D01*
X117761108Y-118392133D01*
X117782151Y-118379520D01*
X117804330Y-118369030D01*
X117827430Y-118360765D01*
X117851228Y-118354804D01*
X117875497Y-118351204D01*
X117900001Y-118350000D01*
X120099999Y-118350000D01*
X120124503Y-118351204D01*
G37*
G04 #@! TD.AperFunction*
D11*
X114800000Y-120000000D03*
X110600000Y-120000000D03*
X106400000Y-120000000D03*
X119000000Y-114500000D03*
X114800000Y-114500000D03*
X110600000Y-114500000D03*
X106400000Y-114500000D03*
G04 #@! TA.AperFunction,ComponentPad*
D10*
G36*
X151124503Y-118351204D02*
G01*
X151148772Y-118354804D01*
X151172570Y-118360765D01*
X151195670Y-118369030D01*
X151217849Y-118379520D01*
X151238892Y-118392133D01*
X151258598Y-118406748D01*
X151276776Y-118423224D01*
X151293252Y-118441402D01*
X151307867Y-118461108D01*
X151320480Y-118482151D01*
X151330970Y-118504330D01*
X151339235Y-118527430D01*
X151345196Y-118551228D01*
X151348796Y-118575497D01*
X151350000Y-118600001D01*
X151350000Y-121399999D01*
X151348796Y-121424503D01*
X151345196Y-121448772D01*
X151339235Y-121472570D01*
X151330970Y-121495670D01*
X151320480Y-121517849D01*
X151307867Y-121538892D01*
X151293252Y-121558598D01*
X151276776Y-121576776D01*
X151258598Y-121593252D01*
X151238892Y-121607867D01*
X151217849Y-121620480D01*
X151195670Y-121630970D01*
X151172570Y-121639235D01*
X151148772Y-121645196D01*
X151124503Y-121648796D01*
X151099999Y-121650000D01*
X148900001Y-121650000D01*
X148875497Y-121648796D01*
X148851228Y-121645196D01*
X148827430Y-121639235D01*
X148804330Y-121630970D01*
X148782151Y-121620480D01*
X148761108Y-121607867D01*
X148741402Y-121593252D01*
X148723224Y-121576776D01*
X148706748Y-121558598D01*
X148692133Y-121538892D01*
X148679520Y-121517849D01*
X148669030Y-121495670D01*
X148660765Y-121472570D01*
X148654804Y-121448772D01*
X148651204Y-121424503D01*
X148650000Y-121399999D01*
X148650000Y-118600001D01*
X148651204Y-118575497D01*
X148654804Y-118551228D01*
X148660765Y-118527430D01*
X148669030Y-118504330D01*
X148679520Y-118482151D01*
X148692133Y-118461108D01*
X148706748Y-118441402D01*
X148723224Y-118423224D01*
X148741402Y-118406748D01*
X148761108Y-118392133D01*
X148782151Y-118379520D01*
X148804330Y-118369030D01*
X148827430Y-118360765D01*
X148851228Y-118354804D01*
X148875497Y-118351204D01*
X148900001Y-118350000D01*
X151099999Y-118350000D01*
X151124503Y-118351204D01*
G37*
G04 #@! TD.AperFunction*
D11*
X145800000Y-120000000D03*
X141600000Y-120000000D03*
X137400000Y-120000000D03*
X133200000Y-120000000D03*
X129000000Y-120000000D03*
X150000000Y-114500000D03*
X145800000Y-114500000D03*
X141600000Y-114500000D03*
X137400000Y-114500000D03*
X133200000Y-114500000D03*
X129000000Y-114500000D03*
G04 #@! TA.AperFunction,ComponentPad*
D10*
G36*
X169124503Y-104151204D02*
G01*
X169148772Y-104154804D01*
X169172570Y-104160765D01*
X169195670Y-104169030D01*
X169217849Y-104179520D01*
X169238892Y-104192133D01*
X169258598Y-104206748D01*
X169276776Y-104223224D01*
X169293252Y-104241402D01*
X169307867Y-104261108D01*
X169320480Y-104282151D01*
X169330970Y-104304330D01*
X169339235Y-104327430D01*
X169345196Y-104351228D01*
X169348796Y-104375497D01*
X169350000Y-104400001D01*
X169350000Y-106599999D01*
X169348796Y-106624503D01*
X169345196Y-106648772D01*
X169339235Y-106672570D01*
X169330970Y-106695670D01*
X169320480Y-106717849D01*
X169307867Y-106738892D01*
X169293252Y-106758598D01*
X169276776Y-106776776D01*
X169258598Y-106793252D01*
X169238892Y-106807867D01*
X169217849Y-106820480D01*
X169195670Y-106830970D01*
X169172570Y-106839235D01*
X169148772Y-106845196D01*
X169124503Y-106848796D01*
X169099999Y-106850000D01*
X166900001Y-106850000D01*
X166875497Y-106848796D01*
X166851228Y-106845196D01*
X166827430Y-106839235D01*
X166804330Y-106830970D01*
X166782151Y-106820480D01*
X166761108Y-106807867D01*
X166741402Y-106793252D01*
X166723224Y-106776776D01*
X166706748Y-106758598D01*
X166692133Y-106738892D01*
X166679520Y-106717849D01*
X166669030Y-106695670D01*
X166660765Y-106672570D01*
X166654804Y-106648772D01*
X166651204Y-106624503D01*
X166650000Y-106599999D01*
X166650000Y-104400001D01*
X166651204Y-104375497D01*
X166654804Y-104351228D01*
X166660765Y-104327430D01*
X166669030Y-104304330D01*
X166679520Y-104282151D01*
X166692133Y-104261108D01*
X166706748Y-104241402D01*
X166723224Y-104223224D01*
X166741402Y-104206748D01*
X166761108Y-104192133D01*
X166782151Y-104179520D01*
X166804330Y-104169030D01*
X166827430Y-104160765D01*
X166851228Y-104154804D01*
X166875497Y-104151204D01*
X166900001Y-104150000D01*
X169099999Y-104150000D01*
X169124503Y-104151204D01*
G37*
G04 #@! TD.AperFunction*
D12*
X168000000Y-109460000D03*
X168000000Y-113420000D03*
X168000000Y-117380000D03*
X168000000Y-121340000D03*
D13*
X157000000Y-105000000D03*
D14*
X154600000Y-105000000D03*
X155302944Y-103302944D03*
X157000000Y-102600000D03*
X158697056Y-103302944D03*
X159400000Y-105000000D03*
X158697056Y-106697056D03*
X157000000Y-107400000D03*
X155302944Y-106697056D03*
D15*
X107500000Y-98500000D03*
D16*
X107500000Y-100500000D03*
X107500000Y-102500000D03*
D17*
X107500000Y-96400000D03*
X107500000Y-104600000D03*
G04 #@! TA.AperFunction,ComponentPad*
D10*
G36*
X143357224Y-132406741D02*
G01*
X143493126Y-132426901D01*
X143626399Y-132460284D01*
X143755757Y-132506569D01*
X143879955Y-132565310D01*
X143997798Y-132635943D01*
X144108151Y-132717785D01*
X144209949Y-132810051D01*
X144302215Y-132911849D01*
X144384057Y-133022202D01*
X144454690Y-133140045D01*
X144513431Y-133264243D01*
X144559716Y-133393601D01*
X144593099Y-133526874D01*
X144613259Y-133662776D01*
X144620000Y-133800000D01*
X144620000Y-136600000D01*
X144613259Y-136737224D01*
X144593099Y-136873126D01*
X144559716Y-137006399D01*
X144513431Y-137135757D01*
X144454690Y-137259955D01*
X144384057Y-137377798D01*
X144302215Y-137488151D01*
X144209949Y-137589949D01*
X144108151Y-137682215D01*
X143997798Y-137764057D01*
X143879955Y-137834690D01*
X143755757Y-137893431D01*
X143626399Y-137939716D01*
X143493126Y-137973099D01*
X143357224Y-137993259D01*
X143220000Y-138000000D01*
X140420000Y-138000000D01*
X140282776Y-137993259D01*
X140146874Y-137973099D01*
X140013601Y-137939716D01*
X139884243Y-137893431D01*
X139760045Y-137834690D01*
X139642202Y-137764057D01*
X139531849Y-137682215D01*
X139430051Y-137589949D01*
X139337785Y-137488151D01*
X139255943Y-137377798D01*
X139185310Y-137259955D01*
X139126569Y-137135757D01*
X139080284Y-137006399D01*
X139046901Y-136873126D01*
X139026741Y-136737224D01*
X139020000Y-136600000D01*
X139020000Y-133800000D01*
X139026741Y-133662776D01*
X139046901Y-133526874D01*
X139080284Y-133393601D01*
X139126569Y-133264243D01*
X139185310Y-133140045D01*
X139255943Y-133022202D01*
X139337785Y-132911849D01*
X139430051Y-132810051D01*
X139531849Y-132717785D01*
X139642202Y-132635943D01*
X139760045Y-132565310D01*
X139884243Y-132506569D01*
X140013601Y-132460284D01*
X140146874Y-132426901D01*
X140282776Y-132406741D01*
X140420000Y-132400000D01*
X143220000Y-132400000D01*
X143357224Y-132406741D01*
G37*
G04 #@! TD.AperFunction*
G04 #@! TA.AperFunction,ComponentPad*
G36*
X135737224Y-132406741D02*
G01*
X135873126Y-132426901D01*
X136006399Y-132460284D01*
X136135757Y-132506569D01*
X136259955Y-132565310D01*
X136377798Y-132635943D01*
X136488151Y-132717785D01*
X136589949Y-132810051D01*
X136682215Y-132911849D01*
X136764057Y-133022202D01*
X136834690Y-133140045D01*
X136893431Y-133264243D01*
X136939716Y-133393601D01*
X136973099Y-133526874D01*
X136993259Y-133662776D01*
X137000000Y-133800000D01*
X137000000Y-136600000D01*
X136993259Y-136737224D01*
X136973099Y-136873126D01*
X136939716Y-137006399D01*
X136893431Y-137135757D01*
X136834690Y-137259955D01*
X136764057Y-137377798D01*
X136682215Y-137488151D01*
X136589949Y-137589949D01*
X136488151Y-137682215D01*
X136377798Y-137764057D01*
X136259955Y-137834690D01*
X136135757Y-137893431D01*
X136006399Y-137939716D01*
X135873126Y-137973099D01*
X135737224Y-137993259D01*
X135600000Y-138000000D01*
X132800000Y-138000000D01*
X132662776Y-137993259D01*
X132526874Y-137973099D01*
X132393601Y-137939716D01*
X132264243Y-137893431D01*
X132140045Y-137834690D01*
X132022202Y-137764057D01*
X131911849Y-137682215D01*
X131810051Y-137589949D01*
X131717785Y-137488151D01*
X131635943Y-137377798D01*
X131565310Y-137259955D01*
X131506569Y-137135757D01*
X131460284Y-137006399D01*
X131426901Y-136873126D01*
X131406741Y-136737224D01*
X131400000Y-136600000D01*
X131400000Y-133800000D01*
X131406741Y-133662776D01*
X131426901Y-133526874D01*
X131460284Y-133393601D01*
X131506569Y-133264243D01*
X131565310Y-133140045D01*
X131635943Y-133022202D01*
X131717785Y-132911849D01*
X131810051Y-132810051D01*
X131911849Y-132717785D01*
X132022202Y-132635943D01*
X132140045Y-132565310D01*
X132264243Y-132506569D01*
X132393601Y-132460284D01*
X132526874Y-132426901D01*
X132662776Y-132406741D01*
X132800000Y-132400000D01*
X135600000Y-132400000D01*
X135737224Y-132406741D01*
G37*
G04 #@! TD.AperFunction*
G04 #@! TA.AperFunction,ComponentPad*
G36*
X158597224Y-132406741D02*
G01*
X158733126Y-132426901D01*
X158866399Y-132460284D01*
X158995757Y-132506569D01*
X159119955Y-132565310D01*
X159237798Y-132635943D01*
X159348151Y-132717785D01*
X159449949Y-132810051D01*
X159542215Y-132911849D01*
X159624057Y-133022202D01*
X159694690Y-133140045D01*
X159753431Y-133264243D01*
X159799716Y-133393601D01*
X159833099Y-133526874D01*
X159853259Y-133662776D01*
X159860000Y-133800000D01*
X159860000Y-136600000D01*
X159853259Y-136737224D01*
X159833099Y-136873126D01*
X159799716Y-137006399D01*
X159753431Y-137135757D01*
X159694690Y-137259955D01*
X159624057Y-137377798D01*
X159542215Y-137488151D01*
X159449949Y-137589949D01*
X159348151Y-137682215D01*
X159237798Y-137764057D01*
X159119955Y-137834690D01*
X158995757Y-137893431D01*
X158866399Y-137939716D01*
X158733126Y-137973099D01*
X158597224Y-137993259D01*
X158460000Y-138000000D01*
X155660000Y-138000000D01*
X155522776Y-137993259D01*
X155386874Y-137973099D01*
X155253601Y-137939716D01*
X155124243Y-137893431D01*
X155000045Y-137834690D01*
X154882202Y-137764057D01*
X154771849Y-137682215D01*
X154670051Y-137589949D01*
X154577785Y-137488151D01*
X154495943Y-137377798D01*
X154425310Y-137259955D01*
X154366569Y-137135757D01*
X154320284Y-137006399D01*
X154286901Y-136873126D01*
X154266741Y-136737224D01*
X154260000Y-136600000D01*
X154260000Y-133800000D01*
X154266741Y-133662776D01*
X154286901Y-133526874D01*
X154320284Y-133393601D01*
X154366569Y-133264243D01*
X154425310Y-133140045D01*
X154495943Y-133022202D01*
X154577785Y-132911849D01*
X154670051Y-132810051D01*
X154771849Y-132717785D01*
X154882202Y-132635943D01*
X155000045Y-132565310D01*
X155124243Y-132506569D01*
X155253601Y-132460284D01*
X155386874Y-132426901D01*
X155522776Y-132406741D01*
X155660000Y-132400000D01*
X158460000Y-132400000D01*
X158597224Y-132406741D01*
G37*
G04 #@! TD.AperFunction*
G04 #@! TA.AperFunction,ComponentPad*
G36*
X166217224Y-132406741D02*
G01*
X166353126Y-132426901D01*
X166486399Y-132460284D01*
X166615757Y-132506569D01*
X166739955Y-132565310D01*
X166857798Y-132635943D01*
X166968151Y-132717785D01*
X167069949Y-132810051D01*
X167162215Y-132911849D01*
X167244057Y-133022202D01*
X167314690Y-133140045D01*
X167373431Y-133264243D01*
X167419716Y-133393601D01*
X167453099Y-133526874D01*
X167473259Y-133662776D01*
X167480000Y-133800000D01*
X167480000Y-136600000D01*
X167473259Y-136737224D01*
X167453099Y-136873126D01*
X167419716Y-137006399D01*
X167373431Y-137135757D01*
X167314690Y-137259955D01*
X167244057Y-137377798D01*
X167162215Y-137488151D01*
X167069949Y-137589949D01*
X166968151Y-137682215D01*
X166857798Y-137764057D01*
X166739955Y-137834690D01*
X166615757Y-137893431D01*
X166486399Y-137939716D01*
X166353126Y-137973099D01*
X166217224Y-137993259D01*
X166080000Y-138000000D01*
X163280000Y-138000000D01*
X163142776Y-137993259D01*
X163006874Y-137973099D01*
X162873601Y-137939716D01*
X162744243Y-137893431D01*
X162620045Y-137834690D01*
X162502202Y-137764057D01*
X162391849Y-137682215D01*
X162290051Y-137589949D01*
X162197785Y-137488151D01*
X162115943Y-137377798D01*
X162045310Y-137259955D01*
X161986569Y-137135757D01*
X161940284Y-137006399D01*
X161906901Y-136873126D01*
X161886741Y-136737224D01*
X161880000Y-136600000D01*
X161880000Y-133800000D01*
X161886741Y-133662776D01*
X161906901Y-133526874D01*
X161940284Y-133393601D01*
X161986569Y-133264243D01*
X162045310Y-133140045D01*
X162115943Y-133022202D01*
X162197785Y-132911849D01*
X162290051Y-132810051D01*
X162391849Y-132717785D01*
X162502202Y-132635943D01*
X162620045Y-132565310D01*
X162744243Y-132506569D01*
X162873601Y-132460284D01*
X163006874Y-132426901D01*
X163142776Y-132406741D01*
X163280000Y-132400000D01*
X166080000Y-132400000D01*
X166217224Y-132406741D01*
G37*
G04 #@! TD.AperFunction*
G04 #@! TA.AperFunction,ComponentPad*
G36*
X150977224Y-132406741D02*
G01*
X151113126Y-132426901D01*
X151246399Y-132460284D01*
X151375757Y-132506569D01*
X151499955Y-132565310D01*
X151617798Y-132635943D01*
X151728151Y-132717785D01*
X151829949Y-132810051D01*
X151922215Y-132911849D01*
X152004057Y-133022202D01*
X152074690Y-133140045D01*
X152133431Y-133264243D01*
X152179716Y-133393601D01*
X152213099Y-133526874D01*
X152233259Y-133662776D01*
X152240000Y-133800000D01*
X152240000Y-136600000D01*
X152233259Y-136737224D01*
X152213099Y-136873126D01*
X152179716Y-137006399D01*
X152133431Y-137135757D01*
X152074690Y-137259955D01*
X152004057Y-137377798D01*
X151922215Y-137488151D01*
X151829949Y-137589949D01*
X151728151Y-137682215D01*
X151617798Y-137764057D01*
X151499955Y-137834690D01*
X151375757Y-137893431D01*
X151246399Y-137939716D01*
X151113126Y-137973099D01*
X150977224Y-137993259D01*
X150840000Y-138000000D01*
X148040000Y-138000000D01*
X147902776Y-137993259D01*
X147766874Y-137973099D01*
X147633601Y-137939716D01*
X147504243Y-137893431D01*
X147380045Y-137834690D01*
X147262202Y-137764057D01*
X147151849Y-137682215D01*
X147050051Y-137589949D01*
X146957785Y-137488151D01*
X146875943Y-137377798D01*
X146805310Y-137259955D01*
X146746569Y-137135757D01*
X146700284Y-137006399D01*
X146666901Y-136873126D01*
X146646741Y-136737224D01*
X146640000Y-136600000D01*
X146640000Y-133800000D01*
X146646741Y-133662776D01*
X146666901Y-133526874D01*
X146700284Y-133393601D01*
X146746569Y-133264243D01*
X146805310Y-133140045D01*
X146875943Y-133022202D01*
X146957785Y-132911849D01*
X147050051Y-132810051D01*
X147151849Y-132717785D01*
X147262202Y-132635943D01*
X147380045Y-132565310D01*
X147504243Y-132506569D01*
X147633601Y-132460284D01*
X147766874Y-132426901D01*
X147902776Y-132406741D01*
X148040000Y-132400000D01*
X150840000Y-132400000D01*
X150977224Y-132406741D01*
G37*
G04 #@! TD.AperFunction*
G04 #@! TA.AperFunction,ComponentPad*
G36*
X128117224Y-132406741D02*
G01*
X128253126Y-132426901D01*
X128386399Y-132460284D01*
X128515757Y-132506569D01*
X128639955Y-132565310D01*
X128757798Y-132635943D01*
X128868151Y-132717785D01*
X128969949Y-132810051D01*
X129062215Y-132911849D01*
X129144057Y-133022202D01*
X129214690Y-133140045D01*
X129273431Y-133264243D01*
X129319716Y-133393601D01*
X129353099Y-133526874D01*
X129373259Y-133662776D01*
X129380000Y-133800000D01*
X129380000Y-136600000D01*
X129373259Y-136737224D01*
X129353099Y-136873126D01*
X129319716Y-137006399D01*
X129273431Y-137135757D01*
X129214690Y-137259955D01*
X129144057Y-137377798D01*
X129062215Y-137488151D01*
X128969949Y-137589949D01*
X128868151Y-137682215D01*
X128757798Y-137764057D01*
X128639955Y-137834690D01*
X128515757Y-137893431D01*
X128386399Y-137939716D01*
X128253126Y-137973099D01*
X128117224Y-137993259D01*
X127980000Y-138000000D01*
X125180000Y-138000000D01*
X125042776Y-137993259D01*
X124906874Y-137973099D01*
X124773601Y-137939716D01*
X124644243Y-137893431D01*
X124520045Y-137834690D01*
X124402202Y-137764057D01*
X124291849Y-137682215D01*
X124190051Y-137589949D01*
X124097785Y-137488151D01*
X124015943Y-137377798D01*
X123945310Y-137259955D01*
X123886569Y-137135757D01*
X123840284Y-137006399D01*
X123806901Y-136873126D01*
X123786741Y-136737224D01*
X123780000Y-136600000D01*
X123780000Y-133800000D01*
X123786741Y-133662776D01*
X123806901Y-133526874D01*
X123840284Y-133393601D01*
X123886569Y-133264243D01*
X123945310Y-133140045D01*
X124015943Y-133022202D01*
X124097785Y-132911849D01*
X124190051Y-132810051D01*
X124291849Y-132717785D01*
X124402202Y-132635943D01*
X124520045Y-132565310D01*
X124644243Y-132506569D01*
X124773601Y-132460284D01*
X124906874Y-132426901D01*
X125042776Y-132406741D01*
X125180000Y-132400000D01*
X127980000Y-132400000D01*
X128117224Y-132406741D01*
G37*
G04 #@! TD.AperFunction*
G04 #@! TA.AperFunction,ComponentPad*
G36*
X173837224Y-132406741D02*
G01*
X173973126Y-132426901D01*
X174106399Y-132460284D01*
X174235757Y-132506569D01*
X174359955Y-132565310D01*
X174477798Y-132635943D01*
X174588151Y-132717785D01*
X174689949Y-132810051D01*
X174782215Y-132911849D01*
X174864057Y-133022202D01*
X174934690Y-133140045D01*
X174993431Y-133264243D01*
X175039716Y-133393601D01*
X175073099Y-133526874D01*
X175093259Y-133662776D01*
X175100000Y-133800000D01*
X175100000Y-136600000D01*
X175093259Y-136737224D01*
X175073099Y-136873126D01*
X175039716Y-137006399D01*
X174993431Y-137135757D01*
X174934690Y-137259955D01*
X174864057Y-137377798D01*
X174782215Y-137488151D01*
X174689949Y-137589949D01*
X174588151Y-137682215D01*
X174477798Y-137764057D01*
X174359955Y-137834690D01*
X174235757Y-137893431D01*
X174106399Y-137939716D01*
X173973126Y-137973099D01*
X173837224Y-137993259D01*
X173700000Y-138000000D01*
X170900000Y-138000000D01*
X170762776Y-137993259D01*
X170626874Y-137973099D01*
X170493601Y-137939716D01*
X170364243Y-137893431D01*
X170240045Y-137834690D01*
X170122202Y-137764057D01*
X170011849Y-137682215D01*
X169910051Y-137589949D01*
X169817785Y-137488151D01*
X169735943Y-137377798D01*
X169665310Y-137259955D01*
X169606569Y-137135757D01*
X169560284Y-137006399D01*
X169526901Y-136873126D01*
X169506741Y-136737224D01*
X169500000Y-136600000D01*
X169500000Y-133800000D01*
X169506741Y-133662776D01*
X169526901Y-133526874D01*
X169560284Y-133393601D01*
X169606569Y-133264243D01*
X169665310Y-133140045D01*
X169735943Y-133022202D01*
X169817785Y-132911849D01*
X169910051Y-132810051D01*
X170011849Y-132717785D01*
X170122202Y-132635943D01*
X170240045Y-132565310D01*
X170364243Y-132506569D01*
X170493601Y-132460284D01*
X170626874Y-132426901D01*
X170762776Y-132406741D01*
X170900000Y-132400000D01*
X173700000Y-132400000D01*
X173837224Y-132406741D01*
G37*
G04 #@! TD.AperFunction*
G04 #@! TA.AperFunction,ComponentPad*
G36*
X120497224Y-132406741D02*
G01*
X120633126Y-132426901D01*
X120766399Y-132460284D01*
X120895757Y-132506569D01*
X121019955Y-132565310D01*
X121137798Y-132635943D01*
X121248151Y-132717785D01*
X121349949Y-132810051D01*
X121442215Y-132911849D01*
X121524057Y-133022202D01*
X121594690Y-133140045D01*
X121653431Y-133264243D01*
X121699716Y-133393601D01*
X121733099Y-133526874D01*
X121753259Y-133662776D01*
X121760000Y-133800000D01*
X121760000Y-136600000D01*
X121753259Y-136737224D01*
X121733099Y-136873126D01*
X121699716Y-137006399D01*
X121653431Y-137135757D01*
X121594690Y-137259955D01*
X121524057Y-137377798D01*
X121442215Y-137488151D01*
X121349949Y-137589949D01*
X121248151Y-137682215D01*
X121137798Y-137764057D01*
X121019955Y-137834690D01*
X120895757Y-137893431D01*
X120766399Y-137939716D01*
X120633126Y-137973099D01*
X120497224Y-137993259D01*
X120360000Y-138000000D01*
X117560000Y-138000000D01*
X117422776Y-137993259D01*
X117286874Y-137973099D01*
X117153601Y-137939716D01*
X117024243Y-137893431D01*
X116900045Y-137834690D01*
X116782202Y-137764057D01*
X116671849Y-137682215D01*
X116570051Y-137589949D01*
X116477785Y-137488151D01*
X116395943Y-137377798D01*
X116325310Y-137259955D01*
X116266569Y-137135757D01*
X116220284Y-137006399D01*
X116186901Y-136873126D01*
X116166741Y-136737224D01*
X116160000Y-136600000D01*
X116160000Y-133800000D01*
X116166741Y-133662776D01*
X116186901Y-133526874D01*
X116220284Y-133393601D01*
X116266569Y-133264243D01*
X116325310Y-133140045D01*
X116395943Y-133022202D01*
X116477785Y-132911849D01*
X116570051Y-132810051D01*
X116671849Y-132717785D01*
X116782202Y-132635943D01*
X116900045Y-132565310D01*
X117024243Y-132506569D01*
X117153601Y-132460284D01*
X117286874Y-132426901D01*
X117422776Y-132406741D01*
X117560000Y-132400000D01*
X120360000Y-132400000D01*
X120497224Y-132406741D01*
G37*
G04 #@! TD.AperFunction*
G04 #@! TA.AperFunction,ComponentPad*
G36*
X105257224Y-132406741D02*
G01*
X105393126Y-132426901D01*
X105526399Y-132460284D01*
X105655757Y-132506569D01*
X105779955Y-132565310D01*
X105897798Y-132635943D01*
X106008151Y-132717785D01*
X106109949Y-132810051D01*
X106202215Y-132911849D01*
X106284057Y-133022202D01*
X106354690Y-133140045D01*
X106413431Y-133264243D01*
X106459716Y-133393601D01*
X106493099Y-133526874D01*
X106513259Y-133662776D01*
X106520000Y-133800000D01*
X106520000Y-136600000D01*
X106513259Y-136737224D01*
X106493099Y-136873126D01*
X106459716Y-137006399D01*
X106413431Y-137135757D01*
X106354690Y-137259955D01*
X106284057Y-137377798D01*
X106202215Y-137488151D01*
X106109949Y-137589949D01*
X106008151Y-137682215D01*
X105897798Y-137764057D01*
X105779955Y-137834690D01*
X105655757Y-137893431D01*
X105526399Y-137939716D01*
X105393126Y-137973099D01*
X105257224Y-137993259D01*
X105120000Y-138000000D01*
X102320000Y-138000000D01*
X102182776Y-137993259D01*
X102046874Y-137973099D01*
X101913601Y-137939716D01*
X101784243Y-137893431D01*
X101660045Y-137834690D01*
X101542202Y-137764057D01*
X101431849Y-137682215D01*
X101330051Y-137589949D01*
X101237785Y-137488151D01*
X101155943Y-137377798D01*
X101085310Y-137259955D01*
X101026569Y-137135757D01*
X100980284Y-137006399D01*
X100946901Y-136873126D01*
X100926741Y-136737224D01*
X100920000Y-136600000D01*
X100920000Y-133800000D01*
X100926741Y-133662776D01*
X100946901Y-133526874D01*
X100980284Y-133393601D01*
X101026569Y-133264243D01*
X101085310Y-133140045D01*
X101155943Y-133022202D01*
X101237785Y-132911849D01*
X101330051Y-132810051D01*
X101431849Y-132717785D01*
X101542202Y-132635943D01*
X101660045Y-132565310D01*
X101784243Y-132506569D01*
X101913601Y-132460284D01*
X102046874Y-132426901D01*
X102182776Y-132406741D01*
X102320000Y-132400000D01*
X105120000Y-132400000D01*
X105257224Y-132406741D01*
G37*
G04 #@! TD.AperFunction*
G04 #@! TA.AperFunction,ComponentPad*
G36*
X112877224Y-132406741D02*
G01*
X113013126Y-132426901D01*
X113146399Y-132460284D01*
X113275757Y-132506569D01*
X113399955Y-132565310D01*
X113517798Y-132635943D01*
X113628151Y-132717785D01*
X113729949Y-132810051D01*
X113822215Y-132911849D01*
X113904057Y-133022202D01*
X113974690Y-133140045D01*
X114033431Y-133264243D01*
X114079716Y-133393601D01*
X114113099Y-133526874D01*
X114133259Y-133662776D01*
X114140000Y-133800000D01*
X114140000Y-136600000D01*
X114133259Y-136737224D01*
X114113099Y-136873126D01*
X114079716Y-137006399D01*
X114033431Y-137135757D01*
X113974690Y-137259955D01*
X113904057Y-137377798D01*
X113822215Y-137488151D01*
X113729949Y-137589949D01*
X113628151Y-137682215D01*
X113517798Y-137764057D01*
X113399955Y-137834690D01*
X113275757Y-137893431D01*
X113146399Y-137939716D01*
X113013126Y-137973099D01*
X112877224Y-137993259D01*
X112740000Y-138000000D01*
X109940000Y-138000000D01*
X109802776Y-137993259D01*
X109666874Y-137973099D01*
X109533601Y-137939716D01*
X109404243Y-137893431D01*
X109280045Y-137834690D01*
X109162202Y-137764057D01*
X109051849Y-137682215D01*
X108950051Y-137589949D01*
X108857785Y-137488151D01*
X108775943Y-137377798D01*
X108705310Y-137259955D01*
X108646569Y-137135757D01*
X108600284Y-137006399D01*
X108566901Y-136873126D01*
X108546741Y-136737224D01*
X108540000Y-136600000D01*
X108540000Y-133800000D01*
X108546741Y-133662776D01*
X108566901Y-133526874D01*
X108600284Y-133393601D01*
X108646569Y-133264243D01*
X108705310Y-133140045D01*
X108775943Y-133022202D01*
X108857785Y-132911849D01*
X108950051Y-132810051D01*
X109051849Y-132717785D01*
X109162202Y-132635943D01*
X109280045Y-132565310D01*
X109404243Y-132506569D01*
X109533601Y-132460284D01*
X109666874Y-132426901D01*
X109802776Y-132406741D01*
X109940000Y-132400000D01*
X112740000Y-132400000D01*
X112877224Y-132406741D01*
G37*
G04 #@! TD.AperFunction*
D18*
X125800000Y-108000000D03*
D19*
X128975000Y-108000000D03*
X132150000Y-108000000D03*
D20*
X104980000Y-98500000D02*
X107500000Y-98500000D01*
X104914990Y-98565010D02*
X104980000Y-98500000D01*
X104914990Y-110094990D02*
X104914990Y-98565010D01*
X106400000Y-111580000D02*
X104914990Y-110094990D01*
X106400000Y-114500000D02*
X106400000Y-111580000D01*
X108786517Y-102500000D02*
X116286517Y-110000000D01*
X107500000Y-102500000D02*
X108786517Y-102500000D01*
X116286517Y-110000000D02*
X122000000Y-110000000D01*
X122000000Y-110000000D02*
X124000000Y-112000000D01*
X126580000Y-132400000D02*
X126580000Y-135200000D01*
X126580000Y-129063763D02*
X126580000Y-132400000D01*
X124000000Y-126483763D02*
X126580000Y-129063763D01*
X124000000Y-112000000D02*
X124000000Y-126483763D01*
D21*
X140322010Y-133702010D02*
X141820000Y-135200000D01*
D20*
X129040000Y-114460000D02*
X129000000Y-114500000D01*
D22*
X128975000Y-114475000D02*
X129000000Y-114500000D01*
X128975000Y-108000000D02*
X128975000Y-114475000D01*
D23*
X141820000Y-126768896D02*
X139740094Y-124688990D01*
X141820000Y-135200000D02*
X141820000Y-126768896D01*
X129701010Y-124688990D02*
X129701010Y-124687236D01*
X139740094Y-124688990D02*
X129701010Y-124688990D01*
D24*
X129000000Y-123987980D02*
X129701010Y-124688990D01*
X129000000Y-120000000D02*
X129000000Y-123987980D01*
X129000000Y-114500000D02*
X129000000Y-120000000D01*
X133200000Y-114540000D02*
X133200000Y-120000000D01*
X133200000Y-112649010D02*
X133200000Y-114540000D01*
X151431112Y-110744990D02*
X135104020Y-110744990D01*
X135104020Y-110744990D02*
X133200000Y-112649010D01*
X153455010Y-112768888D02*
X151431112Y-110744990D01*
X153455010Y-122375476D02*
X153455010Y-112768888D01*
X149440000Y-126390486D02*
X153455010Y-122375476D01*
X149440000Y-135200000D02*
X149440000Y-126390486D01*
D21*
X172300000Y-132400000D02*
X172300000Y-135200000D01*
X172300000Y-109398438D02*
X172300000Y-132400000D01*
X168401562Y-105500000D02*
X172300000Y-109398438D01*
X168000000Y-105500000D02*
X168401562Y-105500000D01*
X164680000Y-132400000D02*
X164680000Y-135200000D01*
X164680000Y-114830812D02*
X164680000Y-132400000D01*
X166090812Y-113420000D02*
X164680000Y-114830812D01*
X168000000Y-113420000D02*
X166090812Y-113420000D01*
D20*
X107500000Y-100500000D02*
X108865425Y-100500000D01*
X108865425Y-100500000D02*
X113865425Y-105500000D01*
X129650000Y-105500000D02*
X132150000Y-108000000D01*
X113865425Y-105500000D02*
X129650000Y-105500000D01*
M02*
